<svg xmlns="http://www.w3.org/2000/svg" width="16" height="17.1" viewBox="0 0 16 17.1">
  <g id="Page-1-Copy-2" transform="translate(0 0.55)">
    <g id="Spurt-design-sysrtem--7April22">
      <g id="Files">
        <g id="Group_11" data-name="Group 11">
          <rect id="Rectangle" width="16" height="16" fill="none"/>
          <g id="Group_112" data-name="Group 112" transform="translate(-1.667 -2)">
            <path id="Path" d="M14.5,19.333H5.167a.667.667,0,0,1-.667-.667v-12A.667.667,0,0,1,5.167,6h6.667l3.333,3.333v9.333A.667.667,0,0,1,14.5,19.333Z" transform="translate(-1.5 -1.333)" fill="none" stroke="#fff" stroke-linecap="round" stroke-linejoin="round" stroke-width="1.1" fill-rule="evenodd"/>
            <path id="Path-2" data-name="Path" d="M7.5,5.667v-2A.667.667,0,0,1,8.167,3h6.667l3.333,3.333v9.333a.667.667,0,0,1-.667.667h-2" transform="translate(-1.833 -1)" fill="none" stroke="#fff" stroke-linecap="round" stroke-linejoin="round" stroke-width="1.1" fill-rule="evenodd"/>
            <line id="Path-3" data-name="Path" x2="4" transform="translate(6.333 12.003)" fill="none" stroke="#fff" stroke-linecap="round" stroke-linejoin="round" stroke-width="1.1"/>
            <line id="Path-4" data-name="Path" x2="4" transform="translate(6.333 14.669)" fill="none" stroke="#fff" stroke-linecap="round" stroke-linejoin="round" stroke-width="1.1"/>
          </g>
        </g>
      </g>
    </g>
  </g>
</svg>
