<svg xmlns="http://www.w3.org/2000/svg" width="17.1" height="16" viewBox="0 0 17.1 16">
  <g id="Page-1-Copy-2" transform="translate(0.55)">
    <g id="Spurt-design-sysrtem--7April22">
      <g id="Storefront">
        <g id="Group_9" data-name="Group 9">
          <rect id="Rectangle" width="16" height="16" fill="none"/>
          <g id="Group_111" data-name="Group 111" transform="translate(-2 -1.833)">
            <path id="Path" d="M4.5,13.086v5.7a.667.667,0,0,0,.667.667h12a.667.667,0,0,0,.667-.667v-5.7" transform="translate(-1.167 -2.287)" fill="none" stroke="#fff" stroke-linecap="round" stroke-linejoin="round" stroke-width="1.1" fill-rule="evenodd"/>
            <path id="Path-2" data-name="Path" d="M4.836,3.75H17.164a.667.667,0,0,1,.641.484L19,8.417H3L4.2,4.234A.667.667,0,0,1,4.836,3.75Z" transform="translate(-1 -1.25)" fill="none" stroke="#fff" stroke-linecap="round" stroke-linejoin="round" stroke-width="1.1" fill-rule="evenodd"/>
            <path id="Path-3" data-name="Path" d="M8.333,9v1.333a2.667,2.667,0,0,1-5.333,0V9" transform="translate(-1 -1.833)" fill="none" stroke="#fff" stroke-linecap="round" stroke-linejoin="round" stroke-width="1.1" fill-rule="evenodd"/>
            <path id="Path-4" data-name="Path" d="M14.333,9v1.333a2.667,2.667,0,0,1-5.333,0V9" transform="translate(-1.667 -1.833)" fill="none" stroke="#fff" stroke-linecap="round" stroke-linejoin="round" stroke-width="1.1" fill-rule="evenodd"/>
            <path id="Path-5" data-name="Path" d="M20.333,9v1.333a2.667,2.667,0,0,1-5.333,0V9" transform="translate(-2.333 -1.833)" fill="none" stroke="#fff" stroke-linecap="round" stroke-linejoin="round" stroke-width="1.1" fill-rule="evenodd"/>
          </g>
        </g>
      </g>
    </g>
  </g>
</svg>
