<svg xmlns="http://www.w3.org/2000/svg" xmlns:xlink="http://www.w3.org/1999/xlink" width="16" height="16" viewBox="0 0 16 16">
  <defs>
    <clipPath id="clip-path">
      <rect id="Rectangle_5043" data-name="Rectangle 5043" width="16" height="16" transform="translate(-4255 -955)" fill="#fff" stroke="#707070" stroke-width="1"/>
    </clipPath>
  </defs>
  <g id="Mask_Group_451" data-name="Mask Group 451" transform="translate(4255 955)" clip-path="url(#clip-path)">
    <g id="seller" transform="translate(-4255.602 -955.533)">
      <circle id="Ellipse_328" data-name="Ellipse 328" cx="0.533" cy="0.533" r="0.533" transform="translate(11.47 13.334)" fill="#fff"/>
      <path id="Path_5541" data-name="Path 5541" d="M9.375,12.7a1.764,1.764,0,0,1-1.712-2.193l.481-1.925A1.6,1.6,0,0,1,9.7,7.372h1.9l-.473,3.784A1.767,1.767,0,0,1,9.374,12.7ZM9.7,8.437a.534.534,0,0,0-.518.4L8.7,10.767a.7.7,0,1,0,1.371.257l.323-2.586H9.7Z" fill="#fff"/>
      <path id="Path_5542" data-name="Path 5542" d="M12.061,12.7a1.945,1.945,0,0,1-1.929-2.186l.393-3.144H13.6l.393,3.144a1.945,1.945,0,0,1-1.93,2.186Zm-.6-4.264-.277,2.21a.867.867,0,0,0,.213.691.9.9,0,0,0,1.318,0,.867.867,0,0,0,.213-.691l-.277-2.21H11.465Z" fill="#fff"/>
      <path id="Path_5543" data-name="Path 5543" d="M14.748,12.7A1.767,1.767,0,0,1,13,11.156l-.474-3.784h1.9a1.6,1.6,0,0,1,1.55,1.21l.482,1.926A1.764,1.764,0,0,1,14.747,12.7ZM13.731,8.437l.324,2.586a.7.7,0,0,0,1.245.343.693.693,0,0,0,.127-.6l-.482-1.926a.533.533,0,0,0-.517-.4h-.7Z" fill="#fff"/>
      <path id="Path_5544" data-name="Path 5544" d="M13.98,16.533H10.142a2.133,2.133,0,0,1-2.116-2.4l.309-2.466,1.057.132-.309,2.466a1.066,1.066,0,0,0,1.058,1.2H13.98a1.066,1.066,0,0,0,1.058-1.2L14.729,11.8l1.057-.132.309,2.466a2.133,2.133,0,0,1-2.116,2.4Z" fill="#fff"/>
      <path id="Path_5545" data-name="Path 5545" d="M6.555,6.929a3.2,3.2,0,1,1,3.2-3.2A3.2,3.2,0,0,1,6.555,6.929Zm0-5.33A2.132,2.132,0,1,0,8.687,3.731,2.134,2.134,0,0,0,6.555,1.6Z" fill="#fff"/>
      <path id="Path_5546" data-name="Path 5546" d="M2.279,16.48A2.047,2.047,0,0,1,.691,14.456V11.9A5.982,5.982,0,0,1,5.658,5.931,5.857,5.857,0,0,1,10.53,7.418L9.807,8.2A4.783,4.783,0,0,0,6.221,6.942a4.907,4.907,0,0,0-4.463,4.949v2.571a.981.981,0,0,0,.784.983.945.945,0,0,0,1.1-.93V12.126a.533.533,0,0,1,1.066,0v2.389a2.013,2.013,0,0,1-2.432,1.966Z" fill="#fff"/>
      <path id="Path_5547" data-name="Path 5547" d="M6.822,16.523H2.763V15.457h4.06a.533.533,0,0,1,0,1.066Z" fill="#fff"/>
    </g>
  </g>
</svg>
