<svg xmlns="http://www.w3.org/2000/svg" xmlns:xlink="http://www.w3.org/1999/xlink" width="16" height="16" viewBox="0 0 16 16">
  <defs>
    <clipPath id="clip-path">
      <rect id="Rectangle_5071" data-name="Rectangle 5071" width="16" height="16" transform="translate(644 56)" fill="#fff" stroke="#fff" stroke-width="0.2"/>
    </clipPath>
  </defs>
  <g id="Mask_Group_456" data-name="Mask Group 456" transform="translate(-644 -56)" clip-path="url(#clip-path)">
    <g id="invoice_5_" data-name="invoice (5)" transform="translate(644 56.631)">
      <path id="Path_5566" data-name="Path 5566" d="M14.555.056A.349.349,0,0,0,14.372,0H3.928A1.622,1.622,0,0,0,2.3,1.614l-.061,8.994H.351A.351.351,0,0,0,0,10.958v1.62a2.158,2.158,0,0,0,2.155,2.155.354.354,0,0,0,.072-.007h8.714c.052,0,.1.006.157.006a2.191,2.191,0,0,0,2.187-2.19V7.285h2.364A.351.351,0,0,0,16,6.934V1.728A1.7,1.7,0,0,0,14.555.056ZM.7,12.578v-1.27H8.911v1.233a2.183,2.183,0,0,0,.579,1.483H2.107a.349.349,0,0,0-.049,0A1.455,1.455,0,0,1,.7,12.578ZM12.584,1.728V12.542a1.5,1.5,0,0,1-1.438,1.488.349.349,0,0,0-.057-.005h-.123a1.5,1.5,0,0,1-1.353-1.483V10.958a.351.351,0,0,0-.351-.351H2.94L3,1.616A.92.92,0,0,1,3.928.705h9A1.674,1.674,0,0,0,12.584,1.728ZM15.3,6.583H13.285V1.728a1.007,1.007,0,0,1,2.013,0Zm0,0" fill="#fff" stroke="#fff" stroke-width="0.2"/>
      <path id="Path_5567" data-name="Path 5567" d="M10.7,8.117H4.5a.351.351,0,0,0,0,.7h6.2a.351.351,0,0,0,0-.7Zm0,0" fill="#fff" stroke="#fff" stroke-width="0.2"/>
      <g id="dolar_1_" data-name="dolar (1)" transform="translate(-9.247 -5.631)">
        <path id="Path_5568" data-name="Path 5568" d="M17.424,13h-.353v-.706a1.177,1.177,0,0,1-1.235-.829l-.035-.176.335-.088.035.176c.035.141.141.565,1.059.565.953,0,1.059-.618,1.059-.882,0-.547-.424-.688-1.094-.865-.6-.176-1.359-.388-1.359-1.253a1.206,1.206,0,0,1,1.235-1.235V7h.353v.706a1.177,1.177,0,0,1,1.235.829l.035.176-.335.088-.035-.176c-.035-.141-.141-.565-1.059-.565-.953,0-1.059.618-1.059.882,0,.565.424.724,1.112.9.635.176,1.359.371,1.359,1.218a1.206,1.206,0,0,1-1.235,1.235V13Z" transform="translate(0)" fill="#fff" stroke="#fff" stroke-width="0.3"/>
      </g>
    </g>
  </g>
</svg>
