<svg xmlns="http://www.w3.org/2000/svg" width="16" height="17.021" viewBox="0 0 16 17.021">
  <g id="Page-1-Copy-2" transform="translate(0 0.51)">
    <g id="Spurt-design-sysrtem--7April22">
      <g id="Package">
        <g id="Group_21" data-name="Group 21">
          <rect id="Rectangle" width="16" height="16" fill="none"/>
          <g id="Group_115" data-name="Group 115" transform="translate(-1.19 -1.324)">
            <path id="Path" d="M17.379,13.679V6.292a.6.6,0,0,0-.305-.522l-6.59-3.707a.6.6,0,0,0-.587,0L3.305,5.77A.6.6,0,0,0,3,6.292v7.387a.6.6,0,0,0,.305.522L9.9,17.909a.6.6,0,0,0,.587,0l6.59-3.707A.6.6,0,0,0,17.379,13.679Z" transform="translate(-1 -0.662)" fill="none" stroke="#fff" stroke-linecap="round" stroke-linejoin="round" stroke-width="1" fill-rule="evenodd"/>
            <path id="Path-2" data-name="Path" d="M14.766,12.308V8.414L7.5,4.406" transform="translate(-1.905 -1.149)" fill="none" stroke="#fff" stroke-linecap="round" stroke-linejoin="round" stroke-width="1" fill-rule="evenodd"/>
            <path id="Path-3" data-name="Path" d="M17.317,7l-7.036,4L3.1,7" transform="translate(-1.021 -1.67)" fill="none" stroke="#fff" stroke-linecap="round" stroke-linejoin="round" stroke-width="1" fill-rule="evenodd"/>
            <line id="Path-4" data-name="Path" x1="0.075" y2="8" transform="translate(9.191 9.324)" fill="none" stroke="#fff" stroke-linecap="round" stroke-linejoin="round" stroke-width="1"/>
          </g>
        </g>
      </g>
    </g>
  </g>
</svg>
