<svg xmlns="http://www.w3.org/2000/svg" width="32" height="32" viewBox="0 0 32 32">
  <g id="_01" data-name="01" transform="translate(-1.25 -1.25)">
    <path id="Path_6744" data-name="Path 6744" d="M8.692,11.3A4.093,4.093,0,1,0,12.785,7.2,4.093,4.093,0,0,0,8.692,11.3Zm5.953,0a1.86,1.86,0,1,1-1.86-1.86,1.86,1.86,0,0,1,1.86,1.86Zm17.488,1.86a1.116,1.116,0,0,0-1.116,1.116v3.374l-.582-.5a4.432,4.432,0,0,0-5.656,0l-6.19,5.311a2.2,2.2,0,0,1-2.746,0l-.494-.424a4.444,4.444,0,0,0-5.279-.287L3.928,25.871a16.661,16.661,0,0,1-.445-4.156v-8.93c0-6.867,2.435-9.3,9.3-9.3h5.953a1.116,1.116,0,1,0,0-2.233H12.785C4.7,1.25,1.25,4.7,1.25,12.785v8.93C1.25,29.8,4.7,33.25,12.785,33.25h8.93C29.8,33.25,33.25,29.8,33.25,21.715V14.273A1.116,1.116,0,0,0,32.134,13.157Zm-1.116,8.558c0,6.867-2.435,9.3-9.3,9.3h-8.93c-4.1,0-6.614-.88-7.979-3.044l6.507-4.367a2.233,2.233,0,0,1,2.582.125l.494.426a4.425,4.425,0,0,0,5.656,0l6.195-5.315a2.21,2.21,0,0,1,2.745,0L31.02,20.59Zm-9.3-14.884a1.116,1.116,0,0,1,1.116-1.116h2.977V2.738a1.116,1.116,0,0,1,2.233,0V5.715h2.977a1.116,1.116,0,1,1,0,2.233H28.041v2.977a1.116,1.116,0,0,1-2.233,0V7.948H22.831A1.116,1.116,0,0,1,21.715,6.831Z" transform="translate(0)" fill="#d4d5d8"/>
  </g>
</svg>
