<svg xmlns="http://www.w3.org/2000/svg" width="32.4" height="32.4" viewBox="0 0 32.4 32.4">
  <path id="add_3_" data-name="add (3)" d="M17.25,3.483a13.767,13.767,0,1,0,3.061,27.194,1.116,1.116,0,0,1,.494,2.177A15.984,15.984,0,1,1,32.854,20.8a1.116,1.116,0,0,1-2.177-.494A13.781,13.781,0,0,0,17.25,3.483ZM11.669,14.909a3.349,3.349,0,0,1,4.846-3L21.2,14.255a3.349,3.349,0,0,1,0,5.991l-4.682,2.341a3.349,3.349,0,0,1-4.846-3Zm3.848-1a1.116,1.116,0,0,0-1.615,1v4.682a1.116,1.116,0,0,0,1.615,1L20.2,18.248a1.116,1.116,0,0,0,0-2Zm12.152,8.177A1.116,1.116,0,0,1,28.785,23.2v3.349h3.349a1.116,1.116,0,1,1,0,2.233H28.785v3.349a1.116,1.116,0,0,1-2.233,0V28.785H23.2a1.116,1.116,0,1,1,0-2.233h3.349V23.2A1.116,1.116,0,0,1,27.669,22.087Z" transform="translate(-1.05 -1.05)" fill="#d4d5d8" stroke="#d4d5d8" stroke-width="0.4" fill-rule="evenodd"/>
</svg>
