<svg xmlns="http://www.w3.org/2000/svg" xmlns:xlink="http://www.w3.org/1999/xlink" width="16" height="16" viewBox="0 0 16 16">
  <defs>
    <clipPath id="clip-path">
      <rect id="Rectangle_5177" data-name="Rectangle 5177" width="16" height="16" transform="translate(24 149)" fill="#fff" stroke="#8e8ea1" stroke-width="1"/>
    </clipPath>
  </defs>
  <g id="Mask_Group_710" data-name="Mask Group 710" transform="translate(-24 -149)" clip-path="url(#clip-path)">
    <g id="border-full-stroke-rounded" transform="translate(23.07 148.07)">
      <path id="Path_6765" data-name="Path 6765" d="M2.233,8.186c0-2.79,0-4.186.711-5.164A3.721,3.721,0,0,1,3.766,2.2c.978-.711,2.373-.711,5.164-.711s4.186,0,5.164.711a3.721,3.721,0,0,1,.823.823c.711.978.711,2.373.711,5.164V9.674c0,2.79,0,4.186-.711,5.164a3.72,3.72,0,0,1-.823.823c-.978.711-2.373.711-5.164.711s-4.186,0-5.164-.711a3.721,3.721,0,0,1-.823-.823c-.711-.978-.711-2.373-.711-5.164Z" fill="none" stroke="#8e8ea1" stroke-linecap="round" stroke-linejoin="round" stroke-width="1.116"/>
      <path id="Path_6766" data-name="Path 6766" d="M11.163,7.07H5.209m2.233,3.721H5.209" fill="none" stroke="#8e8ea1" stroke-linecap="round" stroke-linejoin="round" stroke-width="1.116"/>
    </g>
  </g>
</svg>
