<svg xmlns="http://www.w3.org/2000/svg" xmlns:xlink="http://www.w3.org/1999/xlink" width="16" height="16" viewBox="0 0 16 16">
  <defs>
    <clipPath id="clip-path">
      <rect id="Rectangle_5172" data-name="Rectangle 5172" width="16" height="16" transform="translate(22 83)" fill="#fff" stroke="#8e8ea0" stroke-width="1"/>
    </clipPath>
  </defs>
  <g id="Mask_Group_708" data-name="Mask Group 708" transform="translate(-22 -83)" clip-path="url(#clip-path)">
    <g id="dashboard-square-remove-stroke-rounded" transform="translate(22.559 83.558)">
      <path id="Path_6759" data-name="Path 6759" d="M18.977,5.581H13.023" transform="translate(-4.093 -2.605)" fill="none" stroke="#8e8ea0" stroke-linecap="round" stroke-linejoin="round" stroke-width="1.395"/>
      <path id="Path_6760" data-name="Path 6760" d="M1.86,4.837a4.622,4.622,0,0,1,.2-1.961,1.861,1.861,0,0,1,.813-.813,4.622,4.622,0,0,1,1.961-.2,4.622,4.622,0,0,1,1.961.2,1.861,1.861,0,0,1,.813.813,4.622,4.622,0,0,1,.2,1.961,4.622,4.622,0,0,1-.2,1.961,1.861,1.861,0,0,1-.813.813,4.622,4.622,0,0,1-1.961.2,4.622,4.622,0,0,1-1.961-.2A1.861,1.861,0,0,1,2.063,6.8,4.622,4.622,0,0,1,1.86,4.837Z" transform="translate(-1.86 -1.86)" fill="none" stroke="#8e8ea0" stroke-width="1.395"/>
      <path id="Path_6761" data-name="Path 6761" d="M1.86,16a4.622,4.622,0,0,1,.2-1.961,1.861,1.861,0,0,1,.813-.813,4.622,4.622,0,0,1,1.961-.2,4.622,4.622,0,0,1,1.961.2,1.861,1.861,0,0,1,.813.813A4.622,4.622,0,0,1,7.814,16a4.622,4.622,0,0,1-.2,1.961,1.861,1.861,0,0,1-.813.813,4.622,4.622,0,0,1-1.961.2,4.622,4.622,0,0,1-1.961-.2,1.861,1.861,0,0,1-.813-.813A4.622,4.622,0,0,1,1.86,16Z" transform="translate(-1.86 -4.093)" fill="none" stroke="#8e8ea0" stroke-width="1.395"/>
      <path id="Path_6762" data-name="Path 6762" d="M13.023,16a4.622,4.622,0,0,1,.2-1.961,1.861,1.861,0,0,1,.813-.813,4.622,4.622,0,0,1,1.961-.2,4.622,4.622,0,0,1,1.961.2,1.861,1.861,0,0,1,.813.813,4.622,4.622,0,0,1,.2,1.961,4.622,4.622,0,0,1-.2,1.961,1.861,1.861,0,0,1-.813.813,4.622,4.622,0,0,1-1.961.2,4.622,4.622,0,0,1-1.961-.2,1.861,1.861,0,0,1-.813-.813A4.622,4.622,0,0,1,13.023,16Z" transform="translate(-4.093 -4.093)" fill="none" stroke="#8e8ea0" stroke-width="1.395"/>
    </g>
  </g>
</svg>
