<svg xmlns="http://www.w3.org/2000/svg" xmlns:xlink="http://www.w3.org/1999/xlink" width="12" height="12" viewBox="0 0 12 12">
  <defs>
    <clipPath id="clip-path">
      <rect id="Rectangle_5376" data-name="Rectangle 5376" width="12" height="12" transform="translate(800 748)" fill="#fff" stroke="#222" stroke-width="1.2"/>
    </clipPath>
  </defs>
  <g id="Mask_Group_777" data-name="Mask Group 777" transform="translate(-800 -748)" opacity="0.55" clip-path="url(#clip-path)">
    <g id="upload-03-stroke-rounded" transform="translate(800.462 748.462)">
      <path id="Path_6910" data-name="Path 6910" d="M4.884,8.2A3.737,3.737,0,0,0,4,8.275a2.039,2.039,0,0,0-1.537,2.013,5.588,5.588,0,0,0,.317,1.276c.5,1.612,1.331,3.012,3.2,3.348a9.111,9.111,0,0,0,1.5.062h1.03a9.112,9.112,0,0,0,1.5-.062c1.87-.336,2.7-1.736,3.2-3.348a5.584,5.584,0,0,0,.317-1.276A2.039,2.039,0,0,0,12,8.275a3.737,3.737,0,0,0-.885-.07" transform="translate(-2.461 -3.897)" fill="none" stroke="#222" stroke-linecap="round" stroke-width="1.2"/>
      <path id="Path_6911" data-name="Path 6911" d="M9.333,2.461V9.23m0-6.769c.288,0,.507.27.945.809l.593.73M9.333,2.461c-.288,0-.507.27-.945.809L7.794,4" transform="translate(-3.795 -2.461)" fill="none" stroke="#222" stroke-linecap="round" stroke-linejoin="round" stroke-width="1.2"/>
    </g>
  </g>
</svg>
