<svg xmlns="http://www.w3.org/2000/svg" xmlns:xlink="http://www.w3.org/1999/xlink" width="24" height="24" viewBox="0 0 24 24">
  <defs>
    <clipPath id="clip-path">
      <rect id="Rectangle_5619" data-name="Rectangle 5619" width="24" height="24" transform="translate(532 260)" fill="#fff" stroke="#353740" stroke-width="1.5"/>
    </clipPath>
  </defs>
  <g id="Mask_Group_831" data-name="Mask Group 831" transform="translate(-532 -260)" clip-path="url(#clip-path)">
    <g id="package-open-stroke-rounded" transform="translate(530.604 258.605)">
      <path id="Path_7100" data-name="Path 7100" d="M13.4,24.558a9.59,9.59,0,0,1-3.531-1.123c-4.344-1.864-6.516-2.8-6.516-4.363V8.648M13.4,24.558a9.591,9.591,0,0,0,3.531-1.123c4.344-1.864,6.516-2.8,6.516-4.363V8.648M13.4,24.558V13.586M23.442,8.648c0,.674-.895,1.1-2.684,1.951L17.5,12.15c-2.013.957-3.019,1.436-4.1,1.436M23.442,8.648c0-.674-.895-1.1-2.684-1.951M3.349,8.648c0,.674.895,1.1,2.684,1.951L9.294,12.15c2.013.957,3.019,1.436,4.1,1.436M3.349,8.648c0-.674.895-1.1,2.684-1.951m1.035,8.161,2.226,1.059" fill="none" stroke="#353740" stroke-linecap="round" stroke-linejoin="round" stroke-width="1.5"/>
      <path id="Path_7101" data-name="Path 7101" d="M13.4,2.233V4.465M17.86,3.349,16.186,5.581M8.93,3.349,10.6,5.581" fill="none" stroke="#353740" stroke-linecap="round" stroke-width="1.5"/>
    </g>
  </g>
</svg>
