<svg xmlns="http://www.w3.org/2000/svg" xmlns:xlink="http://www.w3.org/1999/xlink" width="20" height="20" viewBox="0 0 20 20">
  <defs>
    <clipPath id="clip-path">
      <rect id="Rectangle_4015" data-name="Rectangle 4015" width="20" height="20" transform="translate(1261 16)" fill="#fff" stroke="#383331" stroke-width="0.2"/>
    </clipPath>
  </defs>
  <g id="Mask_Group_672" data-name="Mask Group 672" transform="translate(-1261 -16)" clip-path="url(#clip-path)">
    <g id="notification_3_" data-name="notification (3)" transform="translate(1259.347 14.286)">
      <path id="Path_6706" data-name="Path 6706" d="M8.924,19.382a.729.729,0,0,1,1.029.058,2.18,2.18,0,0,0,3.4,0,.729.729,0,1,1,1.086.972,3.633,3.633,0,0,1-5.574,0,.728.728,0,0,1,.058-1.029Z" fill="#fff" stroke="#383331" stroke-width="0.2" fill-rule="evenodd"/>
      <path id="Path_6707" data-name="Path 6707" d="M6.373,4.268a6.476,6.476,0,0,1,5.28-2.555,6.476,6.476,0,0,1,5.28,2.554,7.876,7.876,0,0,1,1.627,4.653c0,.414-.013.721-.022.955,0,.048,0,.093-.005.135a2.431,2.431,0,0,0,.012.491,9.186,9.186,0,0,0,.738,1.829c.006.012.011.025.016.037a3.079,3.079,0,0,1-.166,2.786A4.813,4.813,0,0,1,17.086,16.9a13.1,13.1,0,0,1-10.866,0,4.81,4.81,0,0,1-2.047-1.746,3.078,3.078,0,0,1-.165-2.786q.007-.019.016-.037A9.183,9.183,0,0,0,4.761,10.5a2.43,2.43,0,0,0,.012-.491c0-.042,0-.087-.005-.135-.01-.233-.022-.541-.022-.955A7.876,7.876,0,0,1,6.373,4.268Zm1.151.893A6.422,6.422,0,0,0,6.2,8.921c0,.382.011.658.021.89,0,.05,0,.1.006.145a3.8,3.8,0,0,1-.029.778,9.609,9.609,0,0,1-.831,2.158l-.01.021a1.622,1.622,0,0,0,.067,1.5A3.392,3.392,0,0,0,6.87,15.6a11.652,11.652,0,0,0,9.565,0,3.394,3.394,0,0,0,1.444-1.185,1.623,1.623,0,0,0,.068-1.5l-.01-.021a9.607,9.607,0,0,1-.831-2.158,3.8,3.8,0,0,1-.029-.778c0-.047,0-.095.006-.145.01-.232.021-.508.021-.89a6.422,6.422,0,0,0-1.322-3.76,5.021,5.021,0,0,0-4.129-1.991,5.021,5.021,0,0,0-4.129,1.99Z" fill="#fff" stroke="#383331" stroke-width="0.2" fill-rule="evenodd"/>
    </g>
  </g>
</svg>
