<svg xmlns="http://www.w3.org/2000/svg" xmlns:xlink="http://www.w3.org/1999/xlink" width="16" height="16" viewBox="0 0 16 16">
  <defs>
    <clipPath id="clip-path">
      <rect id="Rectangle_5182" data-name="Rectangle 5182" width="16" height="16" transform="translate(24 117)" fill="#fff" stroke="#8e8ea1" stroke-width="1"/>
    </clipPath>
  </defs>
  <g id="Mask_Group_714" data-name="Mask Group 714" transform="translate(-24 -117)" clip-path="url(#clip-path)">
    <g id="delivery-box-01-stroke-rounded" transform="translate(23.258 116.257)">
      <path id="Path_6779" data-name="Path 6779" d="M1.457,9.783V5.828H16.028V9.783c0,2.944,0,4.416-.948,5.33s-2.475.915-5.528.915H7.933c-3.053,0-4.579,0-5.528-.915S1.457,12.727,1.457,9.783Z" fill="none" stroke="#8e8ea1" stroke-linecap="round" stroke-linejoin="round" stroke-width="1.093"/>
      <path id="Path_6780" data-name="Path 6780" d="M1.457,5.828l.7-1.681c.543-1.3.815-1.956,1.366-2.323s1.257-.367,2.669-.367h5.1c1.413,0,2.119,0,2.669.367s.822,1.019,1.366,2.323l.7,1.681" fill="none" stroke="#8e8ea1" stroke-linecap="round" stroke-width="1.093"/>
      <path id="Path_6781" data-name="Path 6781" d="M8.743,5.828V1.457" fill="none" stroke="#8e8ea1" stroke-linecap="round" stroke-width="1.093"/>
      <path id="Path_6782" data-name="Path 6782" d="M7.285,8.743H10.2" fill="none" stroke="#8e8ea1" stroke-linecap="round" stroke-width="1.093"/>
    </g>
  </g>
</svg>
