<svg xmlns="http://www.w3.org/2000/svg" xmlns:xlink="http://www.w3.org/1999/xlink" width="20" height="20" viewBox="0 0 20 20">
  <defs>
    <clipPath id="clip-path">
      <rect id="Rectangle_4010" data-name="Rectangle 4010" width="20" height="20" transform="translate(1306 16)" fill="#fff" stroke="#707070" stroke-width="1"/>
    </clipPath>
  </defs>
  <g id="Mask_Group_669" data-name="Mask Group 669" transform="translate(-1306 -16)" clip-path="url(#clip-path)">
    <g id="_01" data-name="01" transform="translate(1304.713 14.712)">
      <path id="Path_6701" data-name="Path 6701" d="M18.224,4.7,13.051,1.716a3.846,3.846,0,0,0-3.527,0L4.308,4.729c-2.069,1.4-2.192,1.612-2.192,3.842V14c0,2.23.123,2.446,2.234,3.869l5.173,2.987a3.6,3.6,0,0,0,1.764.428,3.594,3.594,0,0,0,1.764-.428l5.216-3.01c2.069-1.4,2.192-1.612,2.192-3.842V8.572C20.458,6.342,20.335,6.127,18.224,4.7Zm.823,9.3c0,1.613,0,1.613-1.528,2.647l-5.173,2.987a2.446,2.446,0,0,1-2.116,0L5.1,16.676C3.527,15.614,3.527,15.614,3.527,14V8.572c0-1.611,0-1.611,1.528-2.646l5.173-2.987A2.193,2.193,0,0,1,11.287,2.7a2.2,2.2,0,0,1,1.058.24L17.477,5.9c1.571,1.062,1.571,1.062,1.571,2.673Z" fill="#fff"/>
      <path id="Path_6702" data-name="Path 6702" d="M11.287,7.76a3.527,3.527,0,1,0,3.527,3.527A3.527,3.527,0,0,0,11.287,7.76Zm0,5.644A2.116,2.116,0,1,1,13.4,11.287,2.116,2.116,0,0,1,11.287,13.4Z" fill="#fff"/>
    </g>
  </g>
</svg>
