<svg xmlns="http://www.w3.org/2000/svg" width="220.778" height="55.69" viewBox="0 0 220.778 55.69">
  <g id="_4.8.3" data-name="4.8.3" transform="translate(-0.267 -0.155)">
    <g id="Group-3" transform="translate(1 1)">
      <g id="Spurt-logo-wireframe">
        <g id="Group-2">
          <path id="Polygon" d="M23.5,0,47,13.5v27L23.5,54,0,40.5v-27Z" fill="none" stroke="#fff" stroke-width="1.466" fill-rule="evenodd"/>
        </g>
        <g id="Group" transform="translate(2 16)">
          <ellipse id="Oval" cx="2.128" cy="2.163" rx="2.128" ry="2.163" transform="translate(11.064 25.673)" fill="#fff"/>
          <ellipse id="Oval-Copy" cx="2.128" cy="2.163" rx="2.128" ry="2.163" transform="translate(28.936 25.673)" fill="#fff"/>
          <line id="Line" x2="5.106" transform="translate(0.142 0.433)" fill="none" stroke="#fff" stroke-linecap="square" stroke-width="1.2"/>
          <line id="Line-2" x2="4.823" y2="23.942" transform="translate(5.248 0.433)" fill="none" stroke="#fff" stroke-linecap="square" stroke-width="1.2"/>
          <line id="Line-3" x2="25.263" transform="translate(9.22 18.606)" fill="none" stroke="#fff" stroke-linecap="square" stroke-width="1.2"/>
          <line id="Line-3-2" data-name="Line-3" x2="25.263" transform="translate(10.355 24.375)" fill="none" stroke="#fff" stroke-linecap="square" stroke-width="1.2"/>
          <line id="Line-3-3" data-name="Line-3" x2="9.947" transform="translate(24.251 20.769)" fill="none" stroke="#fff" stroke-linecap="square" stroke-width="1.2"/>
          <line id="Line-3-Copy" x2="16.336" transform="translate(16.444 22.5)" fill="none" stroke="#fff" stroke-linecap="square" stroke-width="1.2"/>
          <path id="commerce" d="M11.425,16.793a1.432,1.432,0,0,0,.5-.088,1.028,1.028,0,0,0,.416-.291h0l-.327-.332a.853.853,0,0,1-.255.205.725.725,0,0,1-.332.07.77.77,0,0,1-.322-.065.729.729,0,0,1-.245-.179.82.82,0,0,1-.158-.267.935.935,0,0,1-.056-.325,1.119,1.119,0,0,1,.049-.33.869.869,0,0,1,.143-.28.673.673,0,0,1,.235-.192.729.729,0,0,1,.329-.07.741.741,0,0,1,.334.07.966.966,0,0,1,.268.205h0l.347-.322a1.117,1.117,0,0,0-.421-.293,1.367,1.367,0,0,0-.508-.1,1.345,1.345,0,0,0-.518.1,1.169,1.169,0,0,0-.4.267,1.2,1.2,0,0,0-.258.41,1.449,1.449,0,0,0-.092.524,1.428,1.428,0,0,0,.092.522,1.161,1.161,0,0,0,.26.405,1.183,1.183,0,0,0,.4.262A1.363,1.363,0,0,0,11.425,16.793Zm2.482,0a1.263,1.263,0,0,0,.506-.1,1.3,1.3,0,0,0,.409-.275,1.275,1.275,0,0,0,.273-.41,1.29,1.29,0,0,0,.1-.506,1.271,1.271,0,0,0-.1-.5,1.313,1.313,0,0,0-.273-.41,1.286,1.286,0,0,0-1.828,0,1.313,1.313,0,0,0-.273.41,1.271,1.271,0,0,0-.1.5,1.29,1.29,0,0,0,.1.506,1.275,1.275,0,0,0,.273.41,1.3,1.3,0,0,0,.409.275A1.263,1.263,0,0,0,13.907,16.793Zm0-.436a.818.818,0,0,1-.332-.065.733.733,0,0,1-.25-.177.781.781,0,0,1-.158-.27,1.089,1.089,0,0,1,0-.691.781.781,0,0,1,.158-.27.733.733,0,0,1,.25-.177.881.881,0,0,1,.664,0,.733.733,0,0,1,.25.177.781.781,0,0,1,.158.27,1.089,1.089,0,0,1,0,.691.781.781,0,0,1-.158.27.733.733,0,0,1-.25.177A.818.818,0,0,1,13.907,16.357Zm2.323.374V15.453a1.144,1.144,0,0,1,.051-.361.721.721,0,0,1,.138-.252.562.562,0,0,1,.2-.148.6.6,0,0,1,.237-.049.519.519,0,0,1,.268.06.4.4,0,0,1,.153.166.765.765,0,0,1,.071.252,2.652,2.652,0,0,1,.018.322h0v1.288h.46V15.386a.924.924,0,0,1,.143-.535.646.646,0,0,1,.746-.148.425.425,0,0,1,.158.158.631.631,0,0,1,.074.228,1.979,1.979,0,0,1,.018.27h0v1.371h.46V15.3a2.081,2.081,0,0,0-.038-.4.951.951,0,0,0-.14-.348.744.744,0,0,0-.281-.247.989.989,0,0,0-.46-.093.914.914,0,0,0-.434.114.781.781,0,0,0-.332.343.778.778,0,0,0-.756-.457.867.867,0,0,0-.3.049,1,1,0,0,0-.235.119.818.818,0,0,0-.163.148.408.408,0,0,0-.079.13H16.2V14.27h-.429v2.461Zm4.351,0V15.453a1.144,1.144,0,0,1,.051-.361.721.721,0,0,1,.138-.252.562.562,0,0,1,.2-.148.6.6,0,0,1,.237-.049.519.519,0,0,1,.268.06.4.4,0,0,1,.153.166.765.765,0,0,1,.071.252,2.652,2.652,0,0,1,.018.322h0v1.288h.46V15.386a.924.924,0,0,1,.143-.535.646.646,0,0,1,.746-.148.425.425,0,0,1,.158.158.631.631,0,0,1,.074.228,1.979,1.979,0,0,1,.018.27h0v1.371h.46V15.3a2.081,2.081,0,0,0-.038-.4.951.951,0,0,0-.14-.348.744.744,0,0,0-.281-.247.989.989,0,0,0-.46-.093.914.914,0,0,0-.434.114.781.781,0,0,0-.332.343.778.778,0,0,0-.756-.457.867.867,0,0,0-.3.049,1,1,0,0,0-.235.119.818.818,0,0,0-.163.148.408.408,0,0,0-.079.13h-.01V14.27h-.429v2.461Zm4.994.062a1.27,1.27,0,0,0,1.072-.5h0l-.347-.27a1.207,1.207,0,0,1-.291.267.677.677,0,0,1-.373.1.919.919,0,0,1-.306-.052.835.835,0,0,1-.26-.145.728.728,0,0,1-.181-.226.626.626,0,0,1-.069-.293h1.94v-.166a1.757,1.757,0,0,0-.064-.47,1.186,1.186,0,0,0-.207-.415,1.078,1.078,0,0,0-.365-.3,1.179,1.179,0,0,0-.544-.114,1.255,1.255,0,0,0-.5.1,1.188,1.188,0,0,0-.4.273,1.271,1.271,0,0,0-.26.41,1.365,1.365,0,0,0-.094.511,1.472,1.472,0,0,0,.087.511,1.213,1.213,0,0,0,.248.41,1.128,1.128,0,0,0,.393.273A1.314,1.314,0,0,0,25.575,16.793Zm.694-1.5h-1.45a.645.645,0,0,1,.054-.252.781.781,0,0,1,.151-.231.753.753,0,0,1,.237-.169.727.727,0,0,1,.309-.065.782.782,0,0,1,.3.055.6.6,0,0,1,.217.151.631.631,0,0,1,.13.226,1,1,0,0,1,.049.286Zm1.5,1.433V15.495a.854.854,0,0,1,.179-.6.67.67,0,0,1,.516-.192.617.617,0,0,1,.112.01q.056.01.112.026h0l.02-.5a.633.633,0,0,0-.2-.031.777.777,0,0,0-.225.034.9.9,0,0,0-.207.091.823.823,0,0,0-.171.138.667.667,0,0,0-.123.179h-.01V14.27h-.46v2.461Zm2.487.062a1.432,1.432,0,0,0,.5-.088,1.028,1.028,0,0,0,.416-.291h0l-.327-.332a.853.853,0,0,1-.255.205.725.725,0,0,1-.332.07.77.77,0,0,1-.322-.065.729.729,0,0,1-.245-.179.82.82,0,0,1-.158-.267.935.935,0,0,1-.056-.325,1.119,1.119,0,0,1,.049-.33.869.869,0,0,1,.143-.28.673.673,0,0,1,.235-.192.729.729,0,0,1,.329-.07.741.741,0,0,1,.334.07.966.966,0,0,1,.268.205h0l.347-.322a1.117,1.117,0,0,0-.421-.293,1.367,1.367,0,0,0-.508-.1,1.345,1.345,0,0,0-.518.1,1.169,1.169,0,0,0-.4.267,1.2,1.2,0,0,0-.258.41,1.449,1.449,0,0,0-.092.524,1.428,1.428,0,0,0,.092.522,1.161,1.161,0,0,0,.26.405,1.183,1.183,0,0,0,.4.262A1.363,1.363,0,0,0,30.258,16.793Zm2.415,0a1.27,1.27,0,0,0,1.072-.5h0l-.347-.27a1.207,1.207,0,0,1-.291.267.677.677,0,0,1-.373.1.919.919,0,0,1-.306-.052.835.835,0,0,1-.26-.145.728.728,0,0,1-.181-.226.626.626,0,0,1-.069-.293h1.94v-.166a1.757,1.757,0,0,0-.064-.47,1.186,1.186,0,0,0-.207-.415,1.078,1.078,0,0,0-.365-.3,1.179,1.179,0,0,0-.544-.114,1.255,1.255,0,0,0-.5.1,1.188,1.188,0,0,0-.4.273,1.271,1.271,0,0,0-.26.41,1.365,1.365,0,0,0-.094.511,1.472,1.472,0,0,0,.087.511,1.213,1.213,0,0,0,.248.41,1.128,1.128,0,0,0,.393.273A1.314,1.314,0,0,0,32.673,16.793Zm.694-1.5h-1.45a.645.645,0,0,1,.054-.252.78.78,0,0,1,.151-.231.753.753,0,0,1,.237-.169.727.727,0,0,1,.309-.065.782.782,0,0,1,.3.055.6.6,0,0,1,.217.151.631.631,0,0,1,.13.226,1,1,0,0,1,.049.286Z" fill="#fff"/>
          <line id="Line-4" y1="16.442" x2="5.106" transform="translate(34.752 1.875)" fill="none" stroke="#fff" stroke-linecap="square" stroke-width="1.2"/>
          <path id="Spurt" d="M11.087,10.572a3.678,3.678,0,0,0,1.031-.145,2.63,2.63,0,0,0,.889-.447,2.177,2.177,0,0,0,.618-.763,2.435,2.435,0,0,0,.23-1.1A1.8,1.8,0,0,0,13.64,7.2a2.088,2.088,0,0,0-.541-.618,2.85,2.85,0,0,0-.725-.4q-.4-.151-.766-.275-.255-.083-.46-.161a1.988,1.988,0,0,1-.352-.171.687.687,0,0,1-.225-.218.585.585,0,0,1-.077-.312.616.616,0,0,1,.1-.358.8.8,0,0,1,.24-.228.9.9,0,0,1,.322-.119,2.049,2.049,0,0,1,.352-.031,1.634,1.634,0,0,1,.7.171,1.58,1.58,0,0,1,.587.462h0l1.113-1.194a3.211,3.211,0,0,0-1.118-.675,3.7,3.7,0,0,0-1.251-.228,4.011,4.011,0,0,0-1.011.13,2.742,2.742,0,0,0-.9.41,2.154,2.154,0,0,0-.643.717,2.109,2.109,0,0,0-.245,1.049A2.036,2.036,0,0,0,8.9,6a1.851,1.851,0,0,0,.419.592,2.271,2.271,0,0,0,.592.4,6.04,6.04,0,0,0,.679.27q.357.114.638.213a2.326,2.326,0,0,1,.47.218,1,1,0,0,1,.291.265.6.6,0,0,1,.1.353.8.8,0,0,1-.082.374.672.672,0,0,1-.22.249.934.934,0,0,1-.322.135,1.709,1.709,0,0,1-.378.042,1.874,1.874,0,0,1-.863-.223,2.119,2.119,0,0,1-.7-.556h0L8.38,9.512a3.175,3.175,0,0,0,1.205.784A4.2,4.2,0,0,0,11.087,10.572Zm5.732,2.305V9.813h.02a1.591,1.591,0,0,0,.654.524,2.106,2.106,0,0,0,.889.192A2.222,2.222,0,0,0,19.4,10.3a2.352,2.352,0,0,0,.761-.608,2.683,2.683,0,0,0,.475-.877A3.312,3.312,0,0,0,20.8,7.778a3.174,3.174,0,0,0-.169-1.033,2.707,2.707,0,0,0-.48-.867,2.245,2.245,0,0,0-1.762-.81,1.951,1.951,0,0,0-.975.234,2.072,2.072,0,0,0-.649.545h-.031V5.213H15.143v7.664Zm1.164-3.759A1.111,1.111,0,0,1,17.472,9a1.221,1.221,0,0,1-.383-.3,1.384,1.384,0,0,1-.245-.426,1.416,1.416,0,0,1,0-.976,1.384,1.384,0,0,1,.245-.426,1.221,1.221,0,0,1,.383-.3,1.111,1.111,0,0,1,.511-.114,1.118,1.118,0,0,1,.894.41,1.274,1.274,0,0,1,.225.421,1.589,1.589,0,0,1,.077.488,1.638,1.638,0,0,1-.077.493,1.326,1.326,0,0,1-.225.431A1.11,1.11,0,0,1,18.5,9,1.134,1.134,0,0,1,17.982,9.118Zm5.9,1.412a1.735,1.735,0,0,0,.506-.073,2.106,2.106,0,0,0,.439-.187,1.516,1.516,0,0,0,.347-.27,1.463,1.463,0,0,0,.24-.332h.02v.717h1.614V5.213H25.369V8.007a1.335,1.335,0,0,1-.23.779.762.762,0,0,1-.669.332.712.712,0,0,1-.378-.088.655.655,0,0,1-.23-.244,1.05,1.05,0,0,1-.117-.353,2.706,2.706,0,0,1-.031-.415h0v-2.8H22.029v3.2a3.108,3.108,0,0,0,.1.774,1.918,1.918,0,0,0,.317.675,1.678,1.678,0,0,0,.572.483A1.823,1.823,0,0,0,23.877,10.53Zm6.375-.145V7.726a1.309,1.309,0,0,1,.061-.363,1.125,1.125,0,0,1,.567-.685,1.177,1.177,0,0,1,.567-.125q.1,0,.209.01a1.285,1.285,0,0,1,.22.042h0l.071-1.5a.756.756,0,0,0-.158-.031,1.87,1.87,0,0,0-.2-.01,1.41,1.41,0,0,0-.827.249,1.671,1.671,0,0,0-.551.644h-.02V5.213H28.578v5.172Zm4.588.125a3.058,3.058,0,0,0,.531-.047,2.727,2.727,0,0,0,.439-.109h0l-.02-1.246a.882.882,0,0,1-.23.062,1.752,1.752,0,0,1-.26.021.587.587,0,0,1-.5-.182.9.9,0,0,1-.138-.545h0V6.49h1.195V5.213H34.667V3.853H33.022v1.36h-.807V6.49h.817V8.671a2.864,2.864,0,0,0,.092.753,1.474,1.474,0,0,0,.3.582,1.329,1.329,0,0,0,.557.374A2.466,2.466,0,0,0,34.84,10.509Z" fill="#fff"/>
        </g>
      </g>
      <path id="Spurtcommerce" d="M62.335,35a7.3,7.3,0,0,0,2.174-.32,5.172,5.172,0,0,0,1.8-.96,4.665,4.665,0,0,0,1.23-1.611A5.249,5.249,0,0,0,68,29.836a3.952,3.952,0,0,0-1.526-3.313A5.931,5.931,0,0,0,65,25.677q-.8-.32-1.548-.571-.659-.206-1.208-.411a4.045,4.045,0,0,1-.933-.48,2.047,2.047,0,0,1-.6-.663,1.876,1.876,0,0,1-.22-.937,1.948,1.948,0,0,1,.252-1.017,2.109,2.109,0,0,1,.648-.685,2.885,2.885,0,0,1,.878-.388,3.823,3.823,0,0,1,.966-.126,3.583,3.583,0,0,1,1.614.4,3.38,3.38,0,0,1,1.241.994h0l1.8-2.056a5.831,5.831,0,0,0-2.119-1.3,7.131,7.131,0,0,0-2.4-.434,7.666,7.666,0,0,0-2.075.286,5.663,5.663,0,0,0-1.822.868,4.484,4.484,0,0,0-1.3,1.474,4.318,4.318,0,0,0-.494,2.125,4.572,4.572,0,0,0,.351,1.908,4.08,4.08,0,0,0,.911,1.291,4.643,4.643,0,0,0,1.262.845,13.37,13.37,0,0,0,1.405.548l1.383.48a5.415,5.415,0,0,1,1.142.537,2.594,2.594,0,0,1,.768.731,1.858,1.858,0,0,1,.285,1.063,2.221,2.221,0,0,1-.252,1.108,2.334,2.334,0,0,1-.659.743,2.585,2.585,0,0,1-.911.423,4.083,4.083,0,0,1-.988.126,4.161,4.161,0,0,1-1.877-.48,4.007,4.007,0,0,1-1.526-1.3h0L57,32.692a5.731,5.731,0,0,0,2.371,1.725A7.88,7.88,0,0,0,62.335,35Zm11.45,4V32.373h.046a3.635,3.635,0,0,0,1.52,1.243,5.093,5.093,0,0,0,2.17.458,5.593,5.593,0,0,0,2.286-.447,5.146,5.146,0,0,0,2.809-2.965A6.085,6.085,0,0,0,83,28.493a5.84,5.84,0,0,0-.395-2.158,5.143,5.143,0,0,0-2.832-2.91A5.511,5.511,0,0,0,77.592,23a5.38,5.38,0,0,0-1.381.163,5.49,5.49,0,0,0-1.1.414,3.6,3.6,0,0,0-.824.567,3.85,3.85,0,0,0-.545.621h-.07v-1.46H71V39Zm3.247-7a2.607,2.607,0,0,1-1.269-.3,3.139,3.139,0,0,1-.957-.8,3.544,3.544,0,0,1-.6-1.118,3.987,3.987,0,0,1-.2-1.253,4.092,4.092,0,0,1,.2-1.265,3.519,3.519,0,0,1,.6-1.129,3.286,3.286,0,0,1,.957-.813A2.533,2.533,0,0,1,77.032,25a2.7,2.7,0,0,1,1.312.3,2.789,2.789,0,0,1,.925.8,3.569,3.569,0,0,1,.548,1.118A4.417,4.417,0,0,1,80,28.477a4.534,4.534,0,0,1-.183,1.265,3.55,3.55,0,0,1-.548,1.129,2.91,2.91,0,0,1-.925.813A2.621,2.621,0,0,1,77.032,32ZM89,34a3.65,3.65,0,0,0,2.115-.612,3.472,3.472,0,0,0,1.256-1.414h.045v1.715H95V23H92.285v5.879a3.633,3.633,0,0,1-.158,1.058,2.89,2.89,0,0,1-.464.924,2.35,2.35,0,0,1-1.912.913,1.851,1.851,0,0,1-1.052-.267,1.931,1.931,0,0,1-.622-.679,2.615,2.615,0,0,1-.294-.924,7.465,7.465,0,0,1-.068-.98h0V23H85v6.68a5.722,5.722,0,0,0,.226,1.6,3.9,3.9,0,0,0,.713,1.381,3.582,3.582,0,0,0,1.244.969A4.142,4.142,0,0,0,89,34Zm11.513,0V28.277a3.94,3.94,0,0,1,.1-.779,2.962,2.962,0,0,1,.4-.957,2.583,2.583,0,0,1,.818-.8,2.547,2.547,0,0,1,1.385-.334,2.794,2.794,0,0,1,.346.022,3.334,3.334,0,0,1,.43.089h0V23.067a1.1,1.1,0,0,0-.294-.056q-.168-.011-.315-.011a2.815,2.815,0,0,0-1.762.579,3.857,3.857,0,0,0-1.175,1.514h-.042V23.312H98V34Zm9.7,0a5.685,5.685,0,0,0,.913-.078,4.208,4.208,0,0,0,.826-.211l-.087-2.092a2.24,2.24,0,0,1-.543.167,3.156,3.156,0,0,1-.565.056q-.87,0-1.12-.467a2.484,2.484,0,0,1-.25-1.18V25.231H112V23.094h-2.609V20h-2.565v3.094H105v2.137h1.826v4.986a7.149,7.149,0,0,0,.141,1.458,3.085,3.085,0,0,0,.522,1.2,2.581,2.581,0,0,0,1.033.824A4.08,4.08,0,0,0,110.217,34Zm8.685,0a6.153,6.153,0,0,0,2.361-.429,4.715,4.715,0,0,0,1.736-1.2h0l-1.458-1.254a3.085,3.085,0,0,1-1.123.836,3.914,3.914,0,0,1-3.044,0,3.409,3.409,0,0,1-1.134-.825,3.577,3.577,0,0,1-.706-1.2,4.328,4.328,0,0,1,0-2.86,3.577,3.577,0,0,1,.706-1.2,3.441,3.441,0,0,1,1.123-.825,3.546,3.546,0,0,1,1.516-.308,3.317,3.317,0,0,1,1.481.341,2.631,2.631,0,0,1,1.042.847h0l1.574-1.21a4.2,4.2,0,0,0-1.817-1.276,6.382,6.382,0,0,0-2.3-.44,6.687,6.687,0,0,0-2.326.4,5.529,5.529,0,0,0-1.863,1.122,5.1,5.1,0,0,0-1.227,1.738A5.572,5.572,0,0,0,113,28.5a5.5,5.5,0,0,0,.451,2.266,5.12,5.12,0,0,0,1.238,1.727,5.625,5.625,0,0,0,1.863,1.111A6.756,6.756,0,0,0,118.9,34Zm11.586,0a5.771,5.771,0,0,0,2.174-.407,5.232,5.232,0,0,0,1.754-1.144A5.288,5.288,0,0,0,135.58,30.7a5.744,5.744,0,0,0,.42-2.222,5.662,5.662,0,0,0-.42-2.211,5.194,5.194,0,0,0-1.162-1.727,5.319,5.319,0,0,0-1.754-1.133,6.011,6.011,0,0,0-4.348,0,5.2,5.2,0,0,0-1.744,1.133,5.277,5.277,0,0,0-1.152,1.727,5.662,5.662,0,0,0-.42,2.211,5.744,5.744,0,0,0,.42,2.222,5.374,5.374,0,0,0,1.152,1.749,5.117,5.117,0,0,0,1.744,1.144A5.771,5.771,0,0,0,130.489,34Zm.011-1a3.3,3.3,0,0,1-1.5-.327,3.208,3.208,0,0,1-1.1-.886,4.039,4.039,0,0,1-.676-1.283,5.057,5.057,0,0,1,0-3.032,3.9,3.9,0,0,1,.676-1.271,3.351,3.351,0,0,1,5.184,0,3.9,3.9,0,0,1,.676,1.271,5.057,5.057,0,0,1,0,3.032,4.039,4.039,0,0,1-.676,1.283,3.208,3.208,0,0,1-1.1.886A3.3,3.3,0,0,1,130.5,33Zm10.642,1V28.308a4.037,4.037,0,0,1,.754-2.564,2.312,2.312,0,0,1,1.891-.96,2.221,2.221,0,0,1,1.027.215,1.857,1.857,0,0,1,.678.587,2.384,2.384,0,0,1,.372.892,5.608,5.608,0,0,1,.109,1.152h0V34h2.055V28.218a5.457,5.457,0,0,1,.142-1.242,3.4,3.4,0,0,1,.459-1.1,2.535,2.535,0,0,1,.82-.791,2.275,2.275,0,0,1,1.2-.3,2.085,2.085,0,0,1,1.115.271,2.044,2.044,0,0,1,.7.723,3.229,3.229,0,0,1,.372,1.039,6.784,6.784,0,0,1,.109,1.242h0V34H155V27.359a6.051,6.051,0,0,0-.23-1.694,3.833,3.833,0,0,0-.71-1.378,3.511,3.511,0,0,0-1.2-.937,3.921,3.921,0,0,0-1.727-.35,3.977,3.977,0,0,0-2.055.553,3.767,3.767,0,0,0-1.464,1.592A3.3,3.3,0,0,0,146.29,23.5,3.648,3.648,0,0,0,144.4,23a3.5,3.5,0,0,0-2.044.6,3.585,3.585,0,0,0-1.257,1.457h-.066q0-.339-.022-.847t-.066-.915H139q.044.52.066,1.2t.022,1.107h0V34Zm20,0V28.308a4.037,4.037,0,0,1,.754-2.564,2.312,2.312,0,0,1,1.891-.96,2.221,2.221,0,0,1,1.027.215,1.857,1.857,0,0,1,.678.587,2.384,2.384,0,0,1,.372.892,5.608,5.608,0,0,1,.109,1.152h0V34h2.055V28.218a5.457,5.457,0,0,1,.142-1.242,3.4,3.4,0,0,1,.459-1.1,2.535,2.535,0,0,1,.82-.791,2.275,2.275,0,0,1,1.2-.3,2.085,2.085,0,0,1,1.115.271,2.044,2.044,0,0,1,.7.723,3.229,3.229,0,0,1,.372,1.039,6.784,6.784,0,0,1,.109,1.242h0V34H175V27.359a6.051,6.051,0,0,0-.23-1.694,3.833,3.833,0,0,0-.71-1.378,3.511,3.511,0,0,0-1.2-.937,3.921,3.921,0,0,0-1.727-.35,3.977,3.977,0,0,0-2.055.553,3.767,3.767,0,0,0-1.464,1.592A3.3,3.3,0,0,0,166.29,23.5,3.648,3.648,0,0,0,164.4,23a3.5,3.5,0,0,0-2.044.6,3.585,3.585,0,0,0-1.257,1.457h-.066q0-.339-.022-.847t-.066-.915H159q.044.52.066,1.2t.022,1.107h0V34Zm22.672,0a6.651,6.651,0,0,0,2.663-.517,5.4,5.4,0,0,0,2.081-1.617h0L187.023,30.7a3.837,3.837,0,0,1-3.209,1.584,3.812,3.812,0,0,1-1.36-.242,3.648,3.648,0,0,1-1.128-.671,3.286,3.286,0,0,1-.779-1.012,2.989,2.989,0,0,1-.314-1.243h8.744a2.684,2.684,0,0,0,.023-.352h0v-.352a6.437,6.437,0,0,0-.372-2.255,4.806,4.806,0,0,0-1.058-1.7,4.549,4.549,0,0,0-1.674-1.078,6.547,6.547,0,0,0-4.453.033,5.517,5.517,0,0,0-1.814,1.133,5.092,5.092,0,0,0-1.2,1.749,5.7,5.7,0,0,0-.43,2.233,5.549,5.549,0,0,0,.442,2.244,5.139,5.139,0,0,0,1.209,1.727,5.419,5.419,0,0,0,1.837,1.111A6.649,6.649,0,0,0,183.814,34ZM186,28h-6a3.158,3.158,0,0,1,.309-1.175,3.351,3.351,0,0,1,.681-.951A3.13,3.13,0,0,1,183.17,25a2.953,2.953,0,0,1,1.223.235,2.5,2.5,0,0,1,.872.638,2.732,2.732,0,0,1,.532.951A4.189,4.189,0,0,1,186,28Zm7.115,6V28.376a4.828,4.828,0,0,1,.173-1.3,3.257,3.257,0,0,1,.529-1.1,2.627,2.627,0,0,1,.9-.757,2.711,2.711,0,0,1,1.273-.282,3.656,3.656,0,0,1,.928.113h0L197,23.09a3.015,3.015,0,0,0-.8-.09,3.2,3.2,0,0,0-1.867.576,3.661,3.661,0,0,0-1.263,1.525h-.065q0-.339-.022-.87t-.065-.937H191q.043.52.065,1.2t.022,1.107h0V34ZM203.9,34a6.153,6.153,0,0,0,2.361-.429,4.715,4.715,0,0,0,1.736-1.2h0l-1.458-1.254a3.085,3.085,0,0,1-1.123.836,3.914,3.914,0,0,1-3.044,0,3.409,3.409,0,0,1-1.134-.825,3.577,3.577,0,0,1-.706-1.2,4.328,4.328,0,0,1,0-2.86,3.577,3.577,0,0,1,.706-1.2,3.441,3.441,0,0,1,1.123-.825,3.546,3.546,0,0,1,1.516-.308,3.317,3.317,0,0,1,1.481.341,2.63,2.63,0,0,1,1.042.847h0l1.574-1.21a4.2,4.2,0,0,0-1.817-1.276,6.382,6.382,0,0,0-2.3-.44,6.686,6.686,0,0,0-2.326.4,5.529,5.529,0,0,0-1.863,1.122,5.1,5.1,0,0,0-1.227,1.738A5.571,5.571,0,0,0,198,28.5a5.5,5.5,0,0,0,.451,2.266,5.12,5.12,0,0,0,1.238,1.727,5.625,5.625,0,0,0,1.863,1.111A6.756,6.756,0,0,0,203.9,34Zm10.911,0a6.651,6.651,0,0,0,2.663-.517,5.4,5.4,0,0,0,2.081-1.617h0L218.023,30.7a3.837,3.837,0,0,1-3.209,1.584,3.812,3.812,0,0,1-1.36-.242,3.648,3.648,0,0,1-1.128-.671,3.286,3.286,0,0,1-.779-1.012,2.989,2.989,0,0,1-.314-1.243h8.744a2.684,2.684,0,0,0,.023-.352h0v-.352a6.437,6.437,0,0,0-.372-2.255,4.806,4.806,0,0,0-1.058-1.7,4.549,4.549,0,0,0-1.674-1.078,6.547,6.547,0,0,0-4.453.033,5.517,5.517,0,0,0-1.814,1.133,5.092,5.092,0,0,0-1.2,1.749,5.7,5.7,0,0,0-.43,2.233,5.549,5.549,0,0,0,.442,2.244,5.139,5.139,0,0,0,1.209,1.727,5.419,5.419,0,0,0,1.837,1.111A6.649,6.649,0,0,0,214.814,34ZM218,28h-6a3.158,3.158,0,0,1,.309-1.175,3.351,3.351,0,0,1,.681-.951A3.13,3.13,0,0,1,215.17,25a2.953,2.953,0,0,1,1.223.235,2.5,2.5,0,0,1,.872.638,2.732,2.732,0,0,1,.532.951A4.189,4.189,0,0,1,218,28Z" fill="#fff"/>
      <text id="_4.8.3-2" data-name="4.8.3" transform="translate(220.045 50)" fill="#fff" font-size="15" font-family="Roboto" font-weight="500"><tspan x="-105" y="0">V5 Marketplace</tspan></text>
    </g>
  </g>
</svg>
