<svg xmlns="http://www.w3.org/2000/svg" width="152.25" height="40" viewBox="0 0 152.25 40">
  <g id="Group_105" data-name="Group 105" transform="translate(-1374 -1098)">
    <g id="Group_103" data-name="Group 103" transform="translate(1409 1104.863)">
      <g id="Spurtcommerce" transform="translate(4 6.608)">
        <path id="Spurt" d="M3.754,11.495a5.331,5.331,0,0,0,1.53-.216,3.69,3.69,0,0,0,1.267-.649A3.172,3.172,0,0,0,7.416,9.54,3.431,3.431,0,0,0,7.74,8a2.731,2.731,0,0,0-.3-1.344,2.833,2.833,0,0,0-.772-.9,4.219,4.219,0,0,0-1.035-.572Q5.068,4.975,4.542,4.8q-.464-.139-.85-.278A2.89,2.89,0,0,1,3.036,4.2a1.406,1.406,0,0,1-.425-.448,1.228,1.228,0,0,1-.155-.633,1.277,1.277,0,0,1,.178-.688A1.452,1.452,0,0,1,3.09,1.97a2.072,2.072,0,0,1,.618-.263,2.794,2.794,0,0,1,.68-.085,2.6,2.6,0,0,1,1.136.27,2.363,2.363,0,0,1,.873.672h0l1.267-1.39A4.134,4.134,0,0,0,6.172.294,5.2,5.2,0,0,0,4.48,0,5.6,5.6,0,0,0,3.02.193,4.057,4.057,0,0,0,1.738.78a3.074,3.074,0,0,0-.912,1A2.828,2.828,0,0,0,.479,3.214,2.986,2.986,0,0,0,.726,4.5a2.762,2.762,0,0,0,.641.873,3.28,3.28,0,0,0,.888.572,9.645,9.645,0,0,0,.989.371l.973.324a3.881,3.881,0,0,1,.8.363,1.8,1.8,0,0,1,.541.494,1.22,1.22,0,0,1,.2.718,1.454,1.454,0,0,1-.178.749,1.6,1.6,0,0,1-.463.5,1.854,1.854,0,0,1-.641.286,2.984,2.984,0,0,1-.7.085,3.023,3.023,0,0,1-1.321-.324A2.792,2.792,0,0,1,1.39,8.636h0L0,9.934A4.028,4.028,0,0,0,1.669,11.1,5.742,5.742,0,0,0,3.754,11.495Zm7.694,3.43v-4.7h.031a2.46,2.46,0,0,0,1.012.881,3.216,3.216,0,0,0,1.445.324A3.459,3.459,0,0,0,16.6,10.266a3.77,3.77,0,0,0,.726-1.251,4.563,4.563,0,0,0,.255-1.537,4.378,4.378,0,0,0-.263-1.53,3.733,3.733,0,0,0-.742-1.236,3.459,3.459,0,0,0-2.6-1.128,3.375,3.375,0,0,0-.919.116,3.519,3.519,0,0,0-.734.294,2.4,2.4,0,0,0-.548.4,2.685,2.685,0,0,0-.363.44h-.046V3.8H9.594V14.924Zm2.117-5.037a1.949,1.949,0,0,1-.912-.209,2.233,2.233,0,0,1-.688-.548,2.39,2.39,0,0,1-.433-.765,2.61,2.61,0,0,1-.147-.857,2.678,2.678,0,0,1,.147-.865,2.373,2.373,0,0,1,.433-.772,2.335,2.335,0,0,1,.688-.556,1.892,1.892,0,0,1,.912-.216,2.018,2.018,0,0,1,.942.209,1.979,1.979,0,0,1,.664.548,2.4,2.4,0,0,1,.394.765,2.889,2.889,0,0,1,.131.857,2.965,2.965,0,0,1-.131.865,2.383,2.383,0,0,1-.394.772,2.062,2.062,0,0,1-.664.556A1.959,1.959,0,0,1,13.565,9.888Zm8.482,1.545a2.464,2.464,0,0,0,1.445-.425,2.4,2.4,0,0,0,.858-.981h.031v1.19h1.761V3.8H24.287V7.879a2.557,2.557,0,0,1-.108.734,2.018,2.018,0,0,1-.317.641,1.618,1.618,0,0,1-.541.456,1.6,1.6,0,0,1-.765.178,1.249,1.249,0,0,1-.718-.185,1.332,1.332,0,0,1-.425-.471,1.835,1.835,0,0,1-.2-.641,5.26,5.26,0,0,1-.046-.68h0V3.8H19.312V8.436a4.03,4.03,0,0,0,.154,1.112,2.719,2.719,0,0,0,.487.958,2.452,2.452,0,0,0,.85.672A2.79,2.79,0,0,0,22.047,11.433Zm8.173-.216V7.246a2.582,2.582,0,0,1,.077-.541,2,2,0,0,1,.293-.664,1.854,1.854,0,0,1,.6-.556,1.967,1.967,0,0,1,1.02-.232,2.182,2.182,0,0,1,.255.015,2.6,2.6,0,0,1,.317.062h0v-1.7a.858.858,0,0,0-.216-.039c-.083-.005-.16-.008-.232-.008a2.158,2.158,0,0,0-1.3.4,2.7,2.7,0,0,0-.865,1.051h-.031V3.8H28.366v7.416Zm6.412.155a4.13,4.13,0,0,0,.649-.054,3.044,3.044,0,0,0,.587-.147h0l-.062-1.452a1.619,1.619,0,0,1-.386.116,2.293,2.293,0,0,1-.4.039q-.618,0-.8-.324a1.691,1.691,0,0,1-.178-.819h0V5.284H37.9V3.8H36.044V1.653H34.221V3.8h-1.3V5.284h1.3V8.745a4.853,4.853,0,0,0,.1,1.012,2.117,2.117,0,0,0,.371.834,1.827,1.827,0,0,0,.734.572A2.96,2.96,0,0,0,36.631,11.371Z" transform="translate(0 0)" fill="#191717" stroke="#181717" stroke-width="0.5"/>
        <path id="commerce" d="M42.842,11.417a3.927,3.927,0,0,0,1.576-.3,3.148,3.148,0,0,0,1.159-.842h0L44.6,9.393a2.069,2.069,0,0,1-.749.587,2.494,2.494,0,0,1-2.032,0,2.284,2.284,0,0,1-.757-.579,2.547,2.547,0,0,1-.471-.842,3.189,3.189,0,0,1,0-2.008,2.547,2.547,0,0,1,.471-.842,2.307,2.307,0,0,1,.749-.579,2.266,2.266,0,0,1,1.012-.216,2.123,2.123,0,0,1,.989.239,1.777,1.777,0,0,1,.7.595h0l1.051-.85A2.81,2.81,0,0,0,44.348,4a4.075,4.075,0,0,0-1.537-.309,4.264,4.264,0,0,0-1.553.278,3.659,3.659,0,0,0-1.244.788A3.587,3.587,0,0,0,39.2,5.979,4.088,4.088,0,0,0,38.9,7.555a4.041,4.041,0,0,0,.3,1.591,3.6,3.6,0,0,0,.827,1.213,3.723,3.723,0,0,0,1.244.78A4.308,4.308,0,0,0,42.842,11.417Zm7.632,0a4.221,4.221,0,0,0,1.56-.286,3.763,3.763,0,0,0,1.259-.8A3.706,3.706,0,0,0,54.128,9.1a3.959,3.959,0,0,0,.3-1.56,3.9,3.9,0,0,0-.3-1.553,3.642,3.642,0,0,0-.834-1.213,3.827,3.827,0,0,0-1.259-.8,4.4,4.4,0,0,0-3.121,0,3.742,3.742,0,0,0-1.251.8,3.7,3.7,0,0,0-.826,1.213,3.9,3.9,0,0,0-.3,1.553,3.959,3.959,0,0,0,.3,1.56,3.766,3.766,0,0,0,.826,1.228,3.681,3.681,0,0,0,1.251.8A4.222,4.222,0,0,0,50.474,11.417Zm0-1.221a2.4,2.4,0,0,1-1.043-.216,2.219,2.219,0,0,1-.765-.587,2.637,2.637,0,0,1-.471-.85,3.189,3.189,0,0,1,0-2.008,2.547,2.547,0,0,1,.471-.842,2.263,2.263,0,0,1,.765-.579,2.622,2.622,0,0,1,2.086,0,2.263,2.263,0,0,1,.765.579,2.542,2.542,0,0,1,.471.842,3.189,3.189,0,0,1,0,2.008,2.632,2.632,0,0,1-.471.85,2.219,2.219,0,0,1-.765.587A2.4,2.4,0,0,1,50.474,10.2Zm7.416,1.02V7.323a2.7,2.7,0,0,1,.533-1.754,1.652,1.652,0,0,1,1.336-.657,1.615,1.615,0,0,1,.726.147,1.3,1.3,0,0,1,.479.4,1.6,1.6,0,0,1,.263.61,3.729,3.729,0,0,1,.077.788h0v4.357h1.452V7.261a3.619,3.619,0,0,1,.1-.85,2.285,2.285,0,0,1,.324-.749,1.768,1.768,0,0,1,.579-.541,1.65,1.65,0,0,1,.85-.209A1.511,1.511,0,0,1,65.4,5.1a1.419,1.419,0,0,1,.494.494,2.163,2.163,0,0,1,.263.711,4.49,4.49,0,0,1,.077.85h0v4.063h1.452V6.674a4.016,4.016,0,0,0-.162-1.159,2.593,2.593,0,0,0-.5-.942,2.472,2.472,0,0,0-.85-.641,2.85,2.85,0,0,0-1.22-.239,2.882,2.882,0,0,0-1.452.379A2.612,2.612,0,0,0,62.463,5.16a2.278,2.278,0,0,0-.935-1.128,2.646,2.646,0,0,0-1.337-.34,2.531,2.531,0,0,0-1.444.409,2.476,2.476,0,0,0-.888,1h-.046q0-.232-.015-.579t-.046-.626H56.376q.031.355.046.819t.015.757h0v5.747Zm13.7,0V7.323a2.7,2.7,0,0,1,.533-1.754,1.653,1.653,0,0,1,1.336-.657,1.615,1.615,0,0,1,.726.147,1.3,1.3,0,0,1,.479.4,1.6,1.6,0,0,1,.263.61,3.712,3.712,0,0,1,.077.788h0v4.357h1.452V7.261a3.607,3.607,0,0,1,.1-.85,2.28,2.28,0,0,1,.324-.749,1.766,1.766,0,0,1,.579-.541,1.649,1.649,0,0,1,.85-.209A1.512,1.512,0,0,1,79.1,5.1a1.418,1.418,0,0,1,.494.494,2.163,2.163,0,0,1,.263.711,4.489,4.489,0,0,1,.077.85h0v4.063h1.452V6.674a4.016,4.016,0,0,0-.162-1.159,2.592,2.592,0,0,0-.5-.942,2.47,2.47,0,0,0-.85-.641,2.85,2.85,0,0,0-1.22-.239,2.883,2.883,0,0,0-1.452.379A2.61,2.61,0,0,0,76.167,5.16a2.278,2.278,0,0,0-.935-1.128,2.645,2.645,0,0,0-1.336-.34,2.531,2.531,0,0,0-1.445.409,2.478,2.478,0,0,0-.888,1h-.046q0-.232-.015-.579t-.046-.626H70.08q.031.355.046.819t.016.757h0v5.747Zm15.635.2A4.212,4.212,0,0,0,89,11.054a3.62,3.62,0,0,0,1.383-1.136h0L89.361,9.1a2.617,2.617,0,0,1-.85.788,2.446,2.446,0,0,1-1.282.324,2.418,2.418,0,0,1-1.653-.641,2.3,2.3,0,0,1-.517-.711,2.191,2.191,0,0,1-.209-.873h5.809a2.016,2.016,0,0,0,.015-.247h0V7.493a4.753,4.753,0,0,0-.247-1.584,3.41,3.41,0,0,0-.7-1.2,3.01,3.01,0,0,0-1.112-.757,4.129,4.129,0,0,0-2.959.023,3.642,3.642,0,0,0-1.205.8A3.591,3.591,0,0,0,83.652,6a4.208,4.208,0,0,0-.286,1.568,4.092,4.092,0,0,0,.293,1.576,3.619,3.619,0,0,0,.8,1.213,3.571,3.571,0,0,0,1.221.78A4.2,4.2,0,0,0,87.229,11.417Zm1.978-4.511H84.85a2.1,2.1,0,0,1,.224-.811,2.314,2.314,0,0,1,.494-.657A2.266,2.266,0,0,1,86.279,5a2.348,2.348,0,0,1,.873-.162A2.242,2.242,0,0,1,88.04,5a1.817,1.817,0,0,1,.634.44,1.864,1.864,0,0,1,.386.657,2.767,2.767,0,0,1,.147.811Zm4.944,4.31V7.37a3.16,3.16,0,0,1,.124-.888,2.189,2.189,0,0,1,.378-.749,1.862,1.862,0,0,1,.641-.518,2.015,2.015,0,0,1,.911-.193,2.733,2.733,0,0,1,.664.077h0l.062-1.344a2.254,2.254,0,0,0-.572-.062,2.367,2.367,0,0,0-1.337.394,2.537,2.537,0,0,0-.9,1.043h-.046q0-.232-.016-.595t-.046-.641H92.637q.031.355.046.819t.015.757h0v5.747Zm7.6.2a3.927,3.927,0,0,0,1.576-.3,3.15,3.15,0,0,0,1.159-.842h0l-.973-.881a2.072,2.072,0,0,1-.749.587,2.493,2.493,0,0,1-2.032,0,2.284,2.284,0,0,1-.757-.579,2.542,2.542,0,0,1-.471-.842,3.189,3.189,0,0,1,0-2.008,2.543,2.543,0,0,1,.471-.842,2.308,2.308,0,0,1,.749-.579,2.268,2.268,0,0,1,1.012-.216,2.124,2.124,0,0,1,.989.239,1.777,1.777,0,0,1,.7.595h0l1.051-.85a2.811,2.811,0,0,0-1.213-.9,4.075,4.075,0,0,0-1.537-.309,4.265,4.265,0,0,0-1.553.278,3.661,3.661,0,0,0-1.244.788,3.588,3.588,0,0,0-.819,1.221,4.093,4.093,0,0,0-.293,1.576,4.041,4.041,0,0,0,.3,1.591,3.6,3.6,0,0,0,.826,1.213,3.721,3.721,0,0,0,1.244.78A4.307,4.307,0,0,0,101.752,11.417Zm7.555,0a4.211,4.211,0,0,0,1.769-.363,3.619,3.619,0,0,0,1.383-1.136h0l-1.02-.819a2.616,2.616,0,0,1-.85.788,2.445,2.445,0,0,1-1.282.324,2.418,2.418,0,0,1-1.653-.641,2.3,2.3,0,0,1-.517-.711,2.191,2.191,0,0,1-.209-.873h5.809a2.014,2.014,0,0,0,.015-.247h0V7.493A4.753,4.753,0,0,0,112.5,5.91a3.41,3.41,0,0,0-.7-1.2,3.01,3.01,0,0,0-1.112-.757,4.129,4.129,0,0,0-2.959.023,3.642,3.642,0,0,0-1.205.8A3.591,3.591,0,0,0,105.73,6a4.2,4.2,0,0,0-.286,1.568,4.088,4.088,0,0,0,.293,1.576,3.616,3.616,0,0,0,.8,1.213,3.571,3.571,0,0,0,1.221.78A4.2,4.2,0,0,0,109.307,11.417Zm1.977-4.511h-4.357a2.092,2.092,0,0,1,.224-.811,2.315,2.315,0,0,1,.494-.657,2.266,2.266,0,0,1,.711-.44,2.347,2.347,0,0,1,.873-.162,2.243,2.243,0,0,1,.888.162,1.814,1.814,0,0,1,.633.44,1.86,1.86,0,0,1,.386.657,2.759,2.759,0,0,1,.147.811Z" transform="translate(0.248 0)" fill="#191717" stroke="#181717" stroke-width="0.5"/>
      </g>
      <text id="V-4.3" transform="translate(48 30.137)" fill="#191717" font-size="10" font-family="Roboto-Medium, Roboto" font-weight="500"><tspan x="0" y="0">v5 Marketplace</tspan></text>
      <g id="registered" transform="translate(0)">
        <path id="Path_659" data-name="Path 659" d="M5.25,7.5A2.25,2.25,0,1,1,7.5,5.25,2.25,2.25,0,0,1,5.25,7.5Zm0-4.154a1.9,1.9,0,1,0,1.9,1.9,1.9,1.9,0,0,0-1.9-1.9Z" transform="translate(-3 -3)" fill="#191717"/>
        <path id="Path_660" data-name="Path 660" d="M12.172,12.059A.172.172,0,0,1,12,11.887V10.172A.172.172,0,0,1,12.172,10h.515a.686.686,0,0,1,0,1.372h-.343v.515A.172.172,0,0,1,12.172,12.059Zm.172-1.029h.343a.343.343,0,0,0,0-.686h-.343Z" transform="translate(-10.436 -8.779)" fill="#191717"/>
        <path id="Path_661" data-name="Path 661" d="M15.034,16.274a.172.172,0,0,1,.274-.206l.515.686a.172.172,0,1,1-.274.206Z" transform="translate(-12.919 -13.744)" fill="#191717"/>
      </g>
    </g>
    <g id="Group-3" transform="translate(1374 1098)">
      <g id="Group-2">
        <path id="Polygon" d="M17.321,0,34.641,10V30L17.321,40,0,30V10Z" transform="translate(0)" fill="#078e05" fill-rule="evenodd"/>
        <path id="Path-8" d="M0,62.889l.008-19.93L17.354,72.8Z" transform="translate(0 -32.8)" fill="#028400" fill-rule="evenodd"/>
        <path id="Path-9" d="M0,9.993,34.625,30,17.365,0Z" fill="#027600" fill-rule="evenodd"/>
        <path id="Path-10" d="M73.649.25l17.223,10-6.354,9.178Z" transform="translate(-56.233 -0.191)" fill="#02ad00" fill-rule="evenodd"/>
      </g>
      <g id="Group" transform="translate(1.587 12.381)">
        <circle id="Oval" cx="1.587" cy="1.587" r="1.587" transform="translate(8.148 18.519)" fill="#fff"/>
        <circle id="Oval-Copy" cx="1.587" cy="1.587" r="1.587" transform="translate(21.481 18.519)" fill="#fff"/>
        <line id="Line" x2="3.81" transform="translate(0 0)" fill="none" stroke="#fff" stroke-linecap="square" stroke-width="1"/>
        <line id="Line-2" x2="3.598" y2="17.566" transform="translate(3.81 0)" fill="none" stroke="#fff" stroke-linecap="square" stroke-width="1"/>
        <line id="Line-3" x2="18.847" transform="translate(6.772 13.333)" fill="none" stroke="#fff" stroke-linecap="square" stroke-width="1"/>
        <line id="Line-3-2" data-name="Line-3" x2="18.847" transform="translate(7.619 17.566)" fill="none" stroke="#fff" stroke-linecap="square" stroke-width="1"/>
        <line id="Line-3-3" data-name="Line-3" x2="7.421" transform="translate(17.986 14.921)" fill="none" stroke="#fff" stroke-linecap="square" stroke-width="1"/>
        <line id="Line-3-Copy" x2="12.187" transform="translate(12.162 16.19)" fill="none" stroke="#fff" stroke-linecap="square" stroke-width="1"/>
        <path id="commerce-2" data-name="commerce" d="M32.994,45.976a1.084,1.084,0,0,0,.375-.065.767.767,0,0,0,.31-.213h0l-.244-.244a.634.634,0,0,1-.19.15.549.549,0,0,1-.248.051.583.583,0,0,1-.24-.048.543.543,0,0,1-.183-.131.6.6,0,0,1-.118-.2.676.676,0,0,1-.042-.238.809.809,0,0,1,.036-.242.634.634,0,0,1,.107-.206.5.5,0,0,1,.175-.141.552.552,0,0,1,.246-.051.561.561,0,0,1,.25.051.72.72,0,0,1,.2.15h0l.259-.236a.834.834,0,0,0-.314-.215,1.035,1.035,0,0,0-.379-.07,1.018,1.018,0,0,0-.387.07.858.858,0,0,0-.49.5,1.047,1.047,0,0,0-.069.385,1.032,1.032,0,0,0,.069.383.85.85,0,0,0,.194.3.884.884,0,0,0,.3.192A1.032,1.032,0,0,0,32.994,45.976Zm1.851,0a.956.956,0,0,0,.377-.074.967.967,0,0,0,.3-.2.939.939,0,0,0,.278-.672.919.919,0,0,0-.074-.37.963.963,0,0,0-.2-.3.97.97,0,0,0-1.364,0,.963.963,0,0,0-.2.3.919.919,0,0,0-.074.37.939.939,0,0,0,.278.672.967.967,0,0,0,.3.2A.956.956,0,0,0,34.845,45.976Zm0-.32a.62.62,0,0,1-.248-.048.547.547,0,0,1-.187-.13.571.571,0,0,1-.118-.2.787.787,0,0,1,0-.507.571.571,0,0,1,.118-.2.547.547,0,0,1,.187-.13.668.668,0,0,1,.5,0,.547.547,0,0,1,.187.13.571.571,0,0,1,.118.2.787.787,0,0,1,0,.507.571.571,0,0,1-.118.2.547.547,0,0,1-.187.13A.62.62,0,0,1,34.845,45.656Zm1.733.274v-.937a.826.826,0,0,1,.038-.265.527.527,0,0,1,.1-.185.419.419,0,0,1,.15-.109.451.451,0,0,1,.177-.036.393.393,0,0,1,.2.044.294.294,0,0,1,.114.122.554.554,0,0,1,.053.185,1.914,1.914,0,0,1,.013.236h0v.945h.343v-.987a.669.669,0,0,1,.107-.392.488.488,0,0,1,.556-.109.314.314,0,0,1,.118.116.458.458,0,0,1,.055.168,1.428,1.428,0,0,1,.013.2h0v1.006h.343V44.879a1.5,1.5,0,0,0-.029-.3.691.691,0,0,0-.1-.255.552.552,0,0,0-.21-.181.749.749,0,0,0-.343-.069.691.691,0,0,0-.324.084.578.578,0,0,0-.248.251.623.623,0,0,0-.225-.251.639.639,0,0,0-.339-.084.656.656,0,0,0-.223.036.753.753,0,0,0-.175.088.607.607,0,0,0-.122.109.3.3,0,0,0-.059.1h-.008v-.282h-.32v1.806Zm3.246,0v-.937a.826.826,0,0,1,.038-.265.527.527,0,0,1,.1-.185.419.419,0,0,1,.15-.109.451.451,0,0,1,.177-.036.393.393,0,0,1,.2.044.294.294,0,0,1,.114.122.554.554,0,0,1,.053.185,1.914,1.914,0,0,1,.013.236h0v.945h.343v-.987a.669.669,0,0,1,.107-.392.488.488,0,0,1,.556-.109.314.314,0,0,1,.118.116.458.458,0,0,1,.055.168,1.428,1.428,0,0,1,.013.2h0v1.006h.343V44.879a1.5,1.5,0,0,0-.029-.3.691.691,0,0,0-.1-.255.552.552,0,0,0-.21-.181.748.748,0,0,0-.343-.069.691.691,0,0,0-.324.084.578.578,0,0,0-.248.251.623.623,0,0,0-.225-.251.639.639,0,0,0-.339-.084.656.656,0,0,0-.223.036.753.753,0,0,0-.175.088.607.607,0,0,0-.122.109.3.3,0,0,0-.059.1H39.8v-.282h-.32v1.806Zm3.726.046a.953.953,0,0,0,.8-.37h0l-.259-.2a.9.9,0,0,1-.217.2.511.511,0,0,1-.278.074.7.7,0,0,1-.229-.038.626.626,0,0,1-.194-.107.535.535,0,0,1-.135-.166.453.453,0,0,1-.051-.215h1.448v-.122a1.269,1.269,0,0,0-.048-.345.864.864,0,0,0-.154-.3.8.8,0,0,0-.272-.219.892.892,0,0,0-.406-.084.95.95,0,0,0-.373.072.887.887,0,0,0-.3.2.93.93,0,0,0-.194.3.987.987,0,0,0-.07.375,1.064,1.064,0,0,0,.065.375.887.887,0,0,0,.185.3.842.842,0,0,0,.293.2A.994.994,0,0,0,43.55,45.976Zm.518-1.1H42.986a.466.466,0,0,1,.04-.185.572.572,0,0,1,.112-.17.561.561,0,0,1,.177-.124.551.551,0,0,1,.23-.048.592.592,0,0,1,.227.04.448.448,0,0,1,.162.11.461.461,0,0,1,.1.166.723.723,0,0,1,.036.21Zm1.12,1.051v-.907a.619.619,0,0,1,.133-.438.5.5,0,0,1,.385-.141.468.468,0,0,1,.084.008q.042.008.084.019h0l.015-.37a.48.48,0,0,0-.152-.023.589.589,0,0,0-.168.025.675.675,0,0,0-.154.067.612.612,0,0,0-.128.1.489.489,0,0,0-.091.131h-.008v-.278h-.343v1.806Zm1.855.046a1.084,1.084,0,0,0,.375-.065.767.767,0,0,0,.31-.213h0l-.244-.244a.634.634,0,0,1-.19.15.549.549,0,0,1-.248.051.583.583,0,0,1-.24-.048.543.543,0,0,1-.183-.131.6.6,0,0,1-.118-.2.676.676,0,0,1-.042-.238A.809.809,0,0,1,46.5,44.8a.634.634,0,0,1,.107-.206.5.5,0,0,1,.175-.141.552.552,0,0,1,.246-.051.561.561,0,0,1,.25.051.72.72,0,0,1,.2.15h0l.259-.236a.834.834,0,0,0-.314-.215,1.035,1.035,0,0,0-.379-.07,1.018,1.018,0,0,0-.387.07.858.858,0,0,0-.49.5,1.047,1.047,0,0,0-.069.385,1.032,1.032,0,0,0,.069.383.85.85,0,0,0,.194.3.884.884,0,0,0,.3.192A1.032,1.032,0,0,0,47.043,45.976Zm1.8,0a.953.953,0,0,0,.8-.37h0l-.259-.2a.9.9,0,0,1-.217.2.511.511,0,0,1-.278.074.7.7,0,0,1-.229-.038.626.626,0,0,1-.194-.107.536.536,0,0,1-.135-.166.453.453,0,0,1-.051-.215h1.448v-.122a1.269,1.269,0,0,0-.048-.345.864.864,0,0,0-.154-.3.8.8,0,0,0-.272-.219.892.892,0,0,0-.406-.084.95.95,0,0,0-.373.072.887.887,0,0,0-.3.2.93.93,0,0,0-.194.3.987.987,0,0,0-.07.375,1.064,1.064,0,0,0,.065.375.887.887,0,0,0,.185.3.842.842,0,0,0,.293.2A.994.994,0,0,0,48.845,45.976Zm.518-1.1H48.281a.466.466,0,0,1,.04-.185.572.572,0,0,1,.112-.17.562.562,0,0,1,.177-.124.55.55,0,0,1,.23-.048.592.592,0,0,1,.227.04.448.448,0,0,1,.162.11.461.461,0,0,1,.1.166.723.723,0,0,1,.036.21Z" transform="translate(-24.576 -33.973)" fill="#fff"/>
        <line id="Line-4" y1="12.063" x2="3.81" transform="translate(25.82 1.058)" fill="none" stroke="#fff" stroke-linecap="square" stroke-width="1"/>
        <path id="Spurt-2" data-name="Spurt" d="M28.457,14.5a2.787,2.787,0,0,0,.77-.107,1.975,1.975,0,0,0,.663-.328,1.6,1.6,0,0,0,.461-.56,1.762,1.762,0,0,0,.171-.8,1.306,1.306,0,0,0-.16-.674,1.54,1.54,0,0,0-.4-.453,2.137,2.137,0,0,0-.541-.293q-.3-.11-.571-.2-.19-.061-.343-.118a1.494,1.494,0,0,1-.263-.126.509.509,0,0,1-.168-.16.424.424,0,0,1-.057-.229.446.446,0,0,1,.072-.263.593.593,0,0,1,.179-.168.679.679,0,0,1,.24-.088,1.554,1.554,0,0,1,.263-.023,1.236,1.236,0,0,1,.522.126,1.176,1.176,0,0,1,.438.339h0l.83-.876a2.4,2.4,0,0,0-.834-.5,2.8,2.8,0,0,0-.933-.168,3.04,3.04,0,0,0-.754.1,2.062,2.062,0,0,0-.67.3,1.59,1.59,0,0,0-.48.526,1.527,1.527,0,0,0-.183.77,1.472,1.472,0,0,0,.118.621,1.359,1.359,0,0,0,.312.434,1.7,1.7,0,0,0,.442.293,4.551,4.551,0,0,0,.507.2q.267.084.476.156a1.749,1.749,0,0,1,.35.16.744.744,0,0,1,.217.194.434.434,0,0,1,.076.259.576.576,0,0,1-.061.274.5.5,0,0,1-.164.183.7.7,0,0,1-.24.1,1.3,1.3,0,0,1-.282.03,1.416,1.416,0,0,1-.644-.164,1.577,1.577,0,0,1-.522-.408h0l-.853.869a2.373,2.373,0,0,0,.9.575A3.178,3.178,0,0,0,28.457,14.5Zm4.276,1.691V13.94h.015a1.183,1.183,0,0,0,.488.385,1.593,1.593,0,0,0,.663.141,1.681,1.681,0,0,0,.762-.168,1.75,1.75,0,0,0,.568-.446,1.959,1.959,0,0,0,.354-.644,2.393,2.393,0,0,0,.122-.762,2.294,2.294,0,0,0-.126-.758,1.977,1.977,0,0,0-.358-.636,1.685,1.685,0,0,0-.568-.434,1.711,1.711,0,0,0-.747-.16,1.475,1.475,0,0,0-.728.171,1.539,1.539,0,0,0-.484.4h-.023v-.465H31.483v5.623ZM33.6,13.43a.84.84,0,0,1-.381-.084.909.909,0,0,1-.286-.221,1.012,1.012,0,0,1-.183-.312,1.022,1.022,0,0,1,0-.716,1.012,1.012,0,0,1,.183-.312.909.909,0,0,1,.286-.221.84.84,0,0,1,.381-.084.858.858,0,0,1,.389.084.848.848,0,0,1,.278.217.93.93,0,0,1,.168.309,1.148,1.148,0,0,1,.057.358,1.184,1.184,0,0,1-.057.362.967.967,0,0,1-.168.316.825.825,0,0,1-.278.221A.858.858,0,0,1,33.6,13.43ZM38,14.466a1.314,1.314,0,0,0,.377-.053,1.586,1.586,0,0,0,.328-.137,1.128,1.128,0,0,0,.259-.2,1.074,1.074,0,0,0,.179-.244h.015v.526h1.2V10.565h-1.25v2.05a.968.968,0,0,1-.171.571.572.572,0,0,1-.5.244.539.539,0,0,1-.282-.065.484.484,0,0,1-.171-.179.762.762,0,0,1-.088-.259,1.953,1.953,0,0,1-.023-.3h0V10.565H36.62v2.347a2.244,2.244,0,0,0,.072.568,1.4,1.4,0,0,0,.236.5,1.247,1.247,0,0,0,.427.354A1.379,1.379,0,0,0,38,14.466Zm4.756-.107v-1.95a.946.946,0,0,1,.046-.267.837.837,0,0,1,.149-.282.861.861,0,0,1,.274-.221.89.89,0,0,1,.423-.091q.076,0,.156.008a.973.973,0,0,1,.164.03h0l.053-1.1a.572.572,0,0,0-.118-.023,1.419,1.419,0,0,0-.149-.008,1.065,1.065,0,0,0-.617.183,1.232,1.232,0,0,0-.411.472h-.015v-.549h-1.2v3.794Zm3.423.091a2.319,2.319,0,0,0,.4-.034,2.063,2.063,0,0,0,.328-.08h0l-.015-.914a.667.667,0,0,1-.171.046,1.329,1.329,0,0,1-.194.015.442.442,0,0,1-.37-.133.649.649,0,0,1-.1-.4h0V11.5h.891v-.937h-.891v-1H44.821v1h-.6V11.5h.61v1.6a2.069,2.069,0,0,0,.069.552,1.075,1.075,0,0,0,.225.427.992.992,0,0,0,.415.274A1.868,1.868,0,0,0,46.178,14.451Z" transform="translate(-20.291 -7.058)" fill="#fff"/>
      </g>
    </g>
  </g>
</svg>
