<svg xmlns="http://www.w3.org/2000/svg" width="13.146" height="13.151" viewBox="0 0 13.146 13.151">
  <g id="Group_3323" data-name="Group 3323" transform="translate(-15.428 -271.426)">
    <path id="verify-svgrepo-com" d="M13.74,7.242l-.816-.948a1.33,1.33,0,0,1-.282-.756V4.518A1.163,1.163,0,0,0,11.483,3.36h-1.02a1.346,1.346,0,0,1-.756-.282l-.948-.816a1.209,1.209,0,0,0-1.512,0l-.942.822a1.384,1.384,0,0,1-.756.276H4.511A1.163,1.163,0,0,0,3.353,4.518V5.544a1.365,1.365,0,0,1-.276.75l-.81.954a1.208,1.208,0,0,0,0,1.5l.81.954a1.365,1.365,0,0,1,.276.75v1.026a1.163,1.163,0,0,0,1.158,1.158H5.549a1.346,1.346,0,0,1,.756.282l.948.816a1.209,1.209,0,0,0,1.512,0l.948-.816a1.33,1.33,0,0,1,.756-.282h1.02a1.163,1.163,0,0,0,1.158-1.158v-1.02A1.346,1.346,0,0,1,12.93,9.7l.816-.948A1.217,1.217,0,0,0,13.74,7.242Z" transform="translate(13.994 270.004)" fill="#1d8d15" stroke="#fff" stroke-width="1"/>
    <g id="verify-svgrepo-com-2" data-name="verify-svgrepo-com" transform="translate(13.994 270.006)" fill="none">
      <path d="M10.5,6.864l-2.9,2.9a.449.449,0,0,1-.636,0L5.513,8.31a.45.45,0,0,1,.636-.636L7.283,8.808l2.58-2.58a.45.45,0,0,1,.636.636Z" stroke="none"/>
      <path d="M 10.18137359619141 6.097334861755371 C 10.2968807220459 6.097334861755371 10.41238784790039 6.140837669372559 10.49939346313477 6.227842330932617 C 10.67340278625488 6.401852607727051 10.67340278625488 6.689872741699219 10.49939346313477 6.863892555236816 L 7.601222991943359 9.762062072753906 C 7.517212867736816 9.846073150634766 7.403213500976562 9.894072532653809 7.283203125 9.894072532653809 C 7.163192749023438 9.894072532653809 7.049193382263184 9.846073150634766 6.965183258056641 9.762062072753906 L 5.513072967529297 8.309972763061523 C 5.33906364440918 8.135963439941406 5.33906364440918 7.847942352294922 5.513072967529297 7.673933029174805 C 5.687085151672363 7.499921798706055 5.975103378295898 7.499922752380371 6.149113655090332 7.673933029174805 L 7.283203125 8.808002471923828 L 9.863353729248047 6.227842330932617 C 9.950358390808105 6.140837669372559 10.0658655166626 6.097334861755371 10.18137359619141 6.097334861755371 Z" stroke="none" fill="#fff"/>
    </g>
  </g>
</svg>
