<svg xmlns="http://www.w3.org/2000/svg" xmlns:xlink="http://www.w3.org/1999/xlink" width="22" height="21" viewBox="0 0 22 21">
  <defs>
    <clipPath id="clip-path">
      <rect id="Rectangle_3994" data-name="Rectangle 3994" width="22" height="21" transform="translate(29 666)" fill="#a7a6a0" stroke="#4c4644" stroke-width="0.2"/>
    </clipPath>
  </defs>
  <g id="Mask_Group_665" data-name="Mask Group 665" transform="translate(-29 -666)" clip-path="url(#clip-path)">
    <g id="Layer_2" data-name="Layer 2" transform="translate(28.279 664.779)">
      <path id="Union_9" data-name="Union 9" d="M-13992.591-230.78a2.685,2.685,0,0,1-2.687-2.687v-11.68a.745.745,0,0,1,.031-.253.06.06,0,0,0,0-.012l.008-.021a.658.658,0,0,1,.046-.1l2.647-5.3a1.707,1.707,0,0,1,1.528-.945h12.469a1.707,1.707,0,0,1,1.527.945l2.663,5.321s0,0,0,.006a.721.721,0,0,1,.075.32v11.721a2.69,2.69,0,0,1-2.687,2.687Zm-1.223-2.687a1.223,1.223,0,0,0,1.223,1.222h15.626a1.22,1.22,0,0,0,1.219-1.222v-10.987h-18.067Zm17.614-12.451-2.128-4.26a.245.245,0,0,0-.218-.137h-12.469a.244.244,0,0,0-.218.137l-2.129,4.26Z" transform="translate(13996.5 253)" fill="#a7a6a0" stroke="#4c4644" stroke-width="0.2"/>
      <path id="Union_10" data-name="Union 10" d="M-13992.166-245.455a.629.629,0,0,1-.431-.2l-2.512-2.514a.631.631,0,0,1,.016-.88.629.629,0,0,1,.876-.015l1.451,1.453v-3.536a.633.633,0,0,1,.631-.634.635.635,0,0,1,.633.634v3.533l1.449-1.45a.633.633,0,0,1,.879.015.637.637,0,0,1,.015.88l-2.5,2.5a.634.634,0,0,1-.446.217h-.062Z" transform="translate(14007.355 263.767)" fill="#a7a6a0" stroke="#4c4644" stroke-width="0.2"/>
      <path id="Path_6700" data-name="Path 6700" d="M188.016,153.767a.431.431,0,0,0-.156-.005,1.033,1.033,0,0,1-.913-1.024.454.454,0,1,0-.908,0,1.943,1.943,0,0,0,1.429,1.871v.454a.454.454,0,0,0,.908,0v-.427a1.94,1.94,0,0,0-.4-3.838,1.031,1.031,0,1,1,1.031-1.031.454.454,0,1,0,.908,0,1.943,1.943,0,0,0-1.542-1.9v-.413a.454.454,0,0,0-.908,0v.441a1.94,1.94,0,0,0,.511,3.811,1.031,1.031,0,0,1,.038,2.061Zm0,0" transform="translate(-179.256 -136.679)" fill="#a7a6a0"/>
    </g>
  </g>
</svg>
