<svg xmlns="http://www.w3.org/2000/svg" xmlns:xlink="http://www.w3.org/1999/xlink" width="22" height="21" viewBox="0 0 22 21">
  <defs>
    <clipPath id="clip-path">
      <rect id="Rectangle_3957" data-name="Rectangle 3957" width="22" height="21" transform="translate(509 90)" fill="#fff" stroke="#fff" stroke-width="0.1"/>
    </clipPath>
  </defs>
  <g id="Mask_Group_630" data-name="Mask Group 630" transform="translate(-509 -90)" clip-path="url(#clip-path)">
    <g id="Layer_3" transform="translate(505.92 86.42)">
      <g id="Group_3543" data-name="Group 3543" transform="translate(3.08 6.86)">
        <g id="ARC_424_" transform="translate(0 10.072)">
          <g id="Group_3524" data-name="Group 3524">
            <path id="Path_6574" data-name="Path 6574" d="M6.242,18.658a.447.447,0,0,1-.063,0,8.73,8.73,0,0,1-2.866-.938.44.44,0,1,1,.414-.777,7.823,7.823,0,0,0,2.577.843.44.44,0,0,1-.062.876Z" transform="translate(-3.08 -16.887)" fill="#fff" stroke="#fff" stroke-width="0.1"/>
          </g>
        </g>
        <g id="ARC_423_" transform="translate(18.399 10.073)">
          <g id="Group_3525" data-name="Group 3525">
            <path id="Path_6575" data-name="Path 6575" d="M21.917,18.658a.44.44,0,0,1-.062-.876,7.82,7.82,0,0,0,2.577-.843.44.44,0,0,1,.414.777,8.73,8.73,0,0,1-2.866.938A.521.521,0,0,1,21.917,18.658Z" transform="translate(-21.478 -16.887)" fill="#fff" stroke="#fff" stroke-width="0.1"/>
          </g>
        </g>
        <g id="ARC_422_" transform="translate(13.796 5.686)">
          <g id="Group_3526" data-name="Group 3526">
            <path id="Path_6576" data-name="Path 6576" d="M17.315,14.708a.44.44,0,0,1-.368-.68A3.354,3.354,0,0,1,19.765,12.5a.44.44,0,1,1,0,.88,2.474,2.474,0,0,0-2.081,1.128A.439.439,0,0,1,17.315,14.708Z" transform="translate(-16.875 -12.501)" fill="#fff" stroke="#fff" stroke-width="0.1"/>
          </g>
        </g>
        <g id="CIRCLE_38_" transform="translate(14.784 0.813)">
          <g id="Group_3527" data-name="Group 3527">
            <path id="Path_6577" data-name="Path 6577" d="M20.741,13.381A2.877,2.877,0,1,1,23.617,10.5,2.915,2.915,0,0,1,20.741,13.381Zm0-4.873a2,2,0,1,0,2,2A2.024,2.024,0,0,0,20.741,8.508Z" transform="translate(-17.863 -7.628)" fill="#fff" stroke="#fff" stroke-width="0.1"/>
          </g>
        </g>
        <g id="ARC_421_" transform="translate(18.196 5.687)">
          <g id="Group_3528" data-name="Group 3528">
            <path id="Path_6578" data-name="Path 6578" d="M24.639,16.306a.44.44,0,0,1-.44-.44,2.487,2.487,0,0,0-2.484-2.484.44.44,0,1,1,0-.88,3.368,3.368,0,0,1,3.364,3.364A.44.44,0,0,1,24.639,16.306Z" transform="translate(-21.275 -12.501)" fill="#fff" stroke="#fff" stroke-width="0.1"/>
          </g>
        </g>
        <g id="LINE_818_" transform="translate(16.246 5.686)">
          <g id="Group_3529" data-name="Group 3529">
            <path id="Path_6579" data-name="Path 6579" d="M21.715,13.381h-1.95a.44.44,0,0,1,0-.88h1.95a.44.44,0,0,1,0,.88Z" transform="translate(-19.326 -12.501)" fill="#fff" stroke="#fff" stroke-width="0.1"/>
          </g>
        </g>
        <g id="LINE_817_" transform="translate(21.12 8.611)">
          <g id="Group_3530" data-name="Group 3530">
            <path id="Path_6580" data-name="Path 6580" d="M24.639,17.768a.44.44,0,0,1-.44-.44V15.865a.44.44,0,0,1,.88,0v1.462a.44.44,0,0,1-.44.44Z" transform="translate(-24.199 -15.425)" fill="#fff" stroke="#fff" stroke-width="0.1"/>
          </g>
        </g>
        <g id="ARC_420_" transform="translate(5.362 6.499)">
          <g id="Group_3531" data-name="Group 3531">
            <path id="Path_6581" data-name="Path 6581" d="M8.881,18.092a.44.44,0,0,1-.44-.44,4.344,4.344,0,0,1,4.339-4.339.44.44,0,0,1,0,.88,3.462,3.462,0,0,0-3.459,3.459A.44.44,0,0,1,8.881,18.092Z" transform="translate(-8.441 -13.314)" fill="#fff" stroke="#fff" stroke-width="0.1"/>
          </g>
        </g>
        <g id="LINE_816_" transform="translate(9.261 6.499)">
          <g id="Group_3532" data-name="Group 3532">
            <path id="Path_6582" data-name="Path 6582" d="M15.379,14.194h-2.6a.44.44,0,0,1,0-.88h2.6a.44.44,0,1,1,0,.88Z" transform="translate(-12.34 -13.314)" fill="#fff" stroke="#fff" stroke-width="0.1"/>
          </g>
        </g>
        <g id="ARC_419_" transform="translate(4.875 5.686)">
          <g id="Group_3533" data-name="Group 3533">
            <path id="Path_6583" data-name="Path 6583" d="M10.844,14.708a.44.44,0,0,1-.369-.2,2.476,2.476,0,0,0-2.081-1.128.44.44,0,1,1,0-.88,3.353,3.353,0,0,1,2.818,1.527.44.44,0,0,1-.368.68Z" transform="translate(-7.954 -12.501)" fill="#fff" stroke="#fff" stroke-width="0.1"/>
          </g>
        </g>
        <g id="LINE_815_" transform="translate(5.362 10.398)">
          <g id="Group_3534" data-name="Group 3534">
            <path id="Path_6584" data-name="Path 6584" d="M8.881,20.042a.44.44,0,0,1-.44-.44v-1.95a.44.44,0,0,1,.88,0V19.6A.44.44,0,0,1,8.881,20.042Z" transform="translate(-8.441 -17.212)" fill="#fff" stroke="#fff" stroke-width="0.1"/>
          </g>
        </g>
        <g id="CIRCLE_37_" transform="translate(7.311)">
          <g id="Group_3535" data-name="Group 3535">
            <path id="Path_6585" data-name="Path 6585" d="M14.08,14.194A3.689,3.689,0,1,1,17.769,10.5,3.739,3.739,0,0,1,14.08,14.194Zm0-6.5A2.809,2.809,0,1,0,16.889,10.5,2.847,2.847,0,0,0,14.08,7.695Z" transform="translate(-10.39 -6.815)" fill="#fff" stroke="#fff" stroke-width="0.1"/>
          </g>
        </g>
        <g id="ARC_418_" transform="translate(11.86 6.499)">
          <g id="Group_3536" data-name="Group 3536">
            <path id="Path_6586" data-name="Path 6586" d="M19.278,18.092a.44.44,0,0,1-.44-.44,3.462,3.462,0,0,0-3.459-3.459.44.44,0,0,1,0-.88,4.344,4.344,0,0,1,4.339,4.339A.44.44,0,0,1,19.278,18.092Z" transform="translate(-14.939 -13.314)" fill="#fff" stroke="#fff" stroke-width="0.1"/>
          </g>
        </g>
        <g id="LINE_814_" transform="translate(15.759 10.398)">
          <g id="Group_3537" data-name="Group 3537">
            <path id="Path_6587" data-name="Path 6587" d="M19.278,20.042a.44.44,0,0,1-.44-.44v-1.95a.44.44,0,0,1,.88,0V19.6A.44.44,0,0,1,19.278,20.042Z" transform="translate(-18.838 -17.212)" fill="#fff" stroke="#fff" stroke-width="0.1"/>
          </g>
        </g>
        <g id="ARC_417_" transform="translate(5.361 12.347)">
          <g id="Group_3538" data-name="Group 3538">
            <path id="Path_6588" data-name="Path 6588" d="M14.08,21.344A11.481,11.481,0,0,1,8.674,19.99a.44.44,0,1,1,.414-.777,10.588,10.588,0,0,0,9.983,0,.44.44,0,1,1,.414.777,11.489,11.489,0,0,1-5.406,1.354Z" transform="translate(-8.441 -19.162)" fill="#fff" stroke="#fff" stroke-width="0.1"/>
          </g>
        </g>
        <g id="CIRCLE_36_" transform="translate(1.462 0.813)">
          <g id="Group_3539" data-name="Group 3539">
            <path id="Path_6589" data-name="Path 6589" d="M7.419,13.381a2.877,2.877,0,0,1,0-5.753,2.877,2.877,0,0,1,0,5.753Zm0-4.873a2,2,0,1,0,2,2A2.023,2.023,0,0,0,7.419,8.508Z" transform="translate(-4.542 -7.628)" fill="#fff" stroke="#fff" stroke-width="0.1"/>
          </g>
        </g>
        <g id="ARC_416_" transform="translate(0 5.687)">
          <g id="Group_3540" data-name="Group 3540">
            <path id="Path_6590" data-name="Path 6590" d="M3.52,16.306a.44.44,0,0,1-.44-.44A3.368,3.368,0,0,1,6.444,12.5a.44.44,0,1,1,0,.88A2.487,2.487,0,0,0,3.96,15.866.44.44,0,0,1,3.52,16.306Z" transform="translate(-3.08 -12.501)" fill="#fff" stroke="#fff" stroke-width="0.1"/>
          </g>
        </g>
        <g id="LINE_813_" transform="translate(2.925 5.686)">
          <g id="Group_3541" data-name="Group 3541" transform="translate(0)">
            <path id="Path_6591" data-name="Path 6591" d="M8.394,13.381H6.444a.44.44,0,1,1,0-.88h1.95a.44.44,0,1,1,0,.88Z" transform="translate(-6.004 -12.501)" fill="#fff" stroke="#fff" stroke-width="0.1"/>
          </g>
        </g>
        <g id="LINE_812_" transform="translate(0 8.611)">
          <g id="Group_3542" data-name="Group 3542">
            <path id="Path_6592" data-name="Path 6592" d="M3.52,17.768a.44.44,0,0,1-.44-.44V15.865a.44.44,0,0,1,.88,0v1.462a.44.44,0,0,1-.44.44Z" transform="translate(-3.08 -15.425)" fill="#fff" stroke="#fff" stroke-width="0.1"/>
          </g>
        </g>
      </g>
    </g>
  </g>
</svg>
