<svg xmlns="http://www.w3.org/2000/svg" xmlns:xlink="http://www.w3.org/1999/xlink" width="22" height="21" viewBox="0 0 22 21">
  <defs>
    <clipPath id="clip-path">
      <rect id="Rectangle_3985" data-name="Rectangle 3985" width="22" height="21" transform="translate(29 306)" fill="#a7a6a0" stroke="#a7a6a0" stroke-width="0.2"/>
    </clipPath>
  </defs>
  <g id="Mask_Group_655" data-name="Mask Group 655" transform="translate(-29 -306)" clip-path="url(#clip-path)">
    <g id="bill_2_" data-name="bill (2)" transform="translate(29 306.01)">
      <path id="Path_6682" data-name="Path 6682" d="M16.857,3.14h.029a.357.357,0,0,0,.049,0,.8.8,0,0,1,.78.8.356.356,0,1,0,.713,0,1.511,1.511,0,0,0-1.186-1.474V2.116a.356.356,0,1,0-.713,0v.359a1.509,1.509,0,0,0,.39,2.967.8.8,0,1,1-.8.8.356.356,0,1,0-.713,0A1.512,1.512,0,0,0,16.53,7.7v.391a.356.356,0,1,0,.713,0V7.713a1.509,1.509,0,0,0-.323-2.983.8.8,0,0,1-.062-1.59Zm0,0" fill="#a7a6a0" stroke="#a7a6a0" stroke-width="0.2"/>
      <path id="Path_6683" data-name="Path 6683" d="M16.94.017a5.114,5.114,0,0,0-4.765,3.347H3.328a.373.373,0,0,0-.356.372l-.084,12.5H.366A.351.351,0,0,0,0,16.58v1.587a2.8,2.8,0,0,0,2.673,2.788v.008h11v-.01c.089,0,.126.01.182.01h.008a2.8,2.8,0,0,0,2.8-2.8V10.141c.089,0,.183.007.276.007a5.065,5.065,0,0,0,0-10.131ZM2.809,20.25h0A2.1,2.1,0,0,1,.713,18.163v-1.21H11.049v1.2a2.8,2.8,0,0,0,.825,1.981c.037.037.084.066.123.111ZM15.95,18.163a2.087,2.087,0,0,1-2.083,2.087h-.007a2.1,2.1,0,0,1-2.1-2.092V16.58a.329.329,0,0,0-.34-.34H3.6L3.682,4.077h8.295a5.356,5.356,0,0,0-.1.99,5.026,5.026,0,0,0,.43,2.04H8.943a.356.356,0,0,0,0,.713H12.7a5.03,5.03,0,0,0,3.254,2.232Zm.989-8.727a4.348,4.348,0,1,1,4.348-4.348A4.347,4.347,0,0,1,16.94,9.436Zm0,0" fill="#a7a6a0" stroke="#a7a6a0" stroke-width="0.2"/>
      <path id="Path_6684" data-name="Path 6684" d="M6.655,9.479a1.105,1.105,0,1,0,1.141,1.1A1.124,1.124,0,0,0,6.655,9.479Zm0,1.5a.393.393,0,1,1,.428-.392A.411.411,0,0,1,6.655,10.975Zm0,0" fill="#a7a6a0" stroke="#a7a6a0" stroke-width="0.2"/>
      <path id="Path_6685" data-name="Path 6685" d="M8.586,10.582a.356.356,0,0,0,.356.356h4.752a.356.356,0,1,0,0-.713H8.943A.356.356,0,0,0,8.586,10.582Zm0,0" fill="#a7a6a0" stroke="#a7a6a0" stroke-width="0.2"/>
      <path id="Path_6686" data-name="Path 6686" d="M6.655,6.38A1.105,1.105,0,1,0,7.8,7.485,1.124,1.124,0,0,0,6.655,6.38Zm0,1.5a.393.393,0,1,1,.428-.392.411.411,0,0,1-.428.392Zm0,0" fill="#a7a6a0" stroke="#a7a6a0" stroke-width="0.2"/>
      <path id="Path_6687" data-name="Path 6687" d="M6.655,12.577a1.105,1.105,0,1,0,1.141,1.1A1.124,1.124,0,0,0,6.655,12.577Zm0,1.5a.393.393,0,1,1,.428-.392A.411.411,0,0,1,6.655,14.073Zm0,0" fill="#a7a6a0" stroke="#a7a6a0" stroke-width="0.2"/>
      <path id="Path_6688" data-name="Path 6688" d="M13.695,13.344H8.943a.356.356,0,0,0,0,.713h4.752a.356.356,0,1,0,0-.713Zm0,0" fill="#a7a6a0" stroke="#a7a6a0" stroke-width="0.2"/>
    </g>
  </g>
</svg>
