<svg xmlns="http://www.w3.org/2000/svg" xmlns:xlink="http://www.w3.org/1999/xlink" width="22" height="21" viewBox="0 0 22 21">
  <defs>
    <clipPath id="clip-path">
      <rect id="Rectangle_3925" data-name="Rectangle 3925" width="22" height="21" transform="translate(29 522)" fill="#fff" stroke="#fff" stroke-width="1"/>
    </clipPath>
  </defs>
  <g id="Mask_Group_648" data-name="Mask Group 648" transform="translate(-29 -522)" clip-path="url(#clip-path)">
    <g id="quote-request" transform="translate(29.5 522)">
      <path id="Path_6657" data-name="Path 6657" d="M.615,20.385V.615H15.381V16.652l-3.689,3.732Z" fill="none" stroke="#fff" stroke-linecap="round" stroke-linejoin="round" stroke-width="1.23"/>
      <path id="Path_6658" data-name="Path 6658" d="M11.692,20.385V16.652h3.691" fill="none" stroke="#fff" stroke-linecap="round" stroke-linejoin="round" stroke-width="1.23"/>
      <g id="Group_3577" data-name="Group 3577" transform="translate(-0.747)">
        <path id="Path_6659" data-name="Path 6659" d="M10.724,4.346H8.249A1.484,1.484,0,0,0,6.766,5.829h0A1.484,1.484,0,0,0,8.249,7.313h.991A1.484,1.484,0,0,1,10.724,8.8h0a1.484,1.484,0,0,1-1.484,1.484H6.772" transform="translate(0 0.743)" fill="none" stroke="#fff" stroke-linecap="round" stroke-linejoin="round" stroke-width="1.23"/>
        <line id="Line_450" data-name="Line 450" y2="1.976" transform="translate(8.748 11.024)" fill="none" stroke="#fff" stroke-linecap="round" stroke-linejoin="round" stroke-width="1.23"/>
        <line id="Line_451" data-name="Line 451" y2="1.97" transform="translate(8.748 3.119)" fill="none" stroke="#fff" stroke-linecap="round" stroke-linejoin="round" stroke-width="1.23"/>
      </g>
      <line id="Line_454" data-name="Line 454" x2="4.922" transform="translate(3.558 16.652)" fill="none" stroke="#fff" stroke-linecap="round" stroke-linejoin="round" stroke-width="1.23"/>
      <path id="Path_6660" data-name="Path 6660" d="M17.922,5.569V17.324a4.1,4.1,0,0,0,.728,2.333l.5.728.5-.728a4.1,4.1,0,0,0,.728-2.333V5.569Z" fill="none" stroke="#fff" stroke-linecap="round" stroke-linejoin="round" stroke-width="1.23"/>
      <line id="Line_455" data-name="Line 455" x2="2.463" transform="translate(17.922 17.301)" fill="none" stroke="#fff" stroke-linecap="round" stroke-linejoin="round" stroke-width="1.23"/>
      <line id="Line_456" data-name="Line 456" x2="2.463" transform="translate(17.922 9.272)" fill="none" stroke="#fff" stroke-linecap="round" stroke-linejoin="round" stroke-width="1.23"/>
      <line id="Line_457" data-name="Line 457" y1="1.844" transform="translate(19.112 3.734)" fill="none" stroke="#fff" stroke-linecap="round" stroke-linejoin="round" stroke-width="1.23"/>
    </g>
  </g>
</svg>
