<svg xmlns="http://www.w3.org/2000/svg" xmlns:xlink="http://www.w3.org/1999/xlink" width="22" height="21" viewBox="0 0 22 21">
  <defs>
    <clipPath id="clip-path">
      <rect id="Rectangle_3980" data-name="Rectangle 3980" width="22" height="21" transform="translate(749 90)" fill="#a7a6a0" stroke="#a7a6a0" stroke-width="1"/>
    </clipPath>
  </defs>
  <g id="Mask_Group_645" data-name="Mask Group 645" transform="translate(-749 -90)" clip-path="url(#clip-path)">
    <path id="ratings" d="M9.465,13.916l-2.389-.075-.81-2.249a1.015,1.015,0,0,0-1.91,0l-.81,2.249-2.389.075a1.015,1.015,0,0,0-.59,1.816L2.457,17.2l-.667,2.3a1.015,1.015,0,0,0,1.545,1.123l1.977-1.343,1.977,1.343a1.015,1.015,0,0,0,1.545-1.122l-.667-2.3,1.888-1.465a1.015,1.015,0,0,0-.59-1.816ZM7.347,16.508a.712.712,0,0,0-.249.765L7.8,19.7,5.714,18.279a.712.712,0,0,0-.8,0L2.822,19.7l.7-2.424a.712.712,0,0,0-.249-.765L1.282,14.96l2.523-.079a.712.712,0,0,0,.651-.473l.855-2.375.855,2.375a.712.712,0,0,0,.651.473l2.523.079Zm14.777-1.891a1,1,0,0,0-.933-.7L18.8,13.841l-.81-2.249a1.015,1.015,0,0,0-1.91,0l-.81,2.249-2.389.075a1.015,1.015,0,0,0-.59,1.816L14.182,17.2l-.667,2.3a1.015,1.015,0,0,0,1.545,1.122l1.977-1.343,1.977,1.343a1.015,1.015,0,0,0,1.545-1.122l-.667-2.3,1.888-1.465a1,1,0,0,0,.343-1.116Zm-3.052,1.891a.712.712,0,0,0-.249.765l.7,2.424-2.088-1.419a.712.712,0,0,0-.8,0L14.546,19.7l.7-2.424A.712.712,0,0,0,15,16.508L13.007,14.96l2.523-.079a.712.712,0,0,0,.651-.473l.855-2.375.855,2.375a.712.712,0,0,0,.651.473l2.523.079Zm-5.35-5.08a1.019,1.019,0,0,0,.974-1.3l-.667-2.3,1.888-1.465a1.015,1.015,0,0,0-.59-1.816l-2.389-.075-.81-2.249a1.015,1.015,0,0,0-1.91,0L9.41,4.476l-2.389.075a1.015,1.015,0,0,0-.59,1.816L8.319,7.832l-.667,2.3A1.015,1.015,0,0,0,9.2,11.25l1.977-1.343,1.977,1.343A1.013,1.013,0,0,0,13.722,11.428ZM11.174,8.789a.715.715,0,0,0-.4.125L8.684,10.332l.7-2.424a.712.712,0,0,0-.249-.765L7.145,5.6l2.523-.079a.712.712,0,0,0,.651-.473l.855-2.375.855,2.375a.712.712,0,0,0,.651.473L15.2,5.6,13.209,7.143a.712.712,0,0,0-.249.765l.7,2.424L11.577,8.914a.715.715,0,0,0-.4-.125Z" transform="translate(748.826 89.325)" fill="#a7a6a0" stroke="#a7a6a0" stroke-width="0.044"/>
  </g>
</svg>
