<svg xmlns="http://www.w3.org/2000/svg" xmlns:xlink="http://www.w3.org/1999/xlink" width="22" height="21" viewBox="0 0 22 21">
  <defs>
    <clipPath id="clip-path">
      <rect id="Rectangle_3917" data-name="Rectangle 3917" width="22" height="21" transform="translate(29 162)" fill="#fff" stroke="#fff" stroke-width="0.1"/>
    </clipPath>
  </defs>
  <g id="Mask_Group_650" data-name="Mask Group 650" transform="translate(-29 -162)" clip-path="url(#clip-path)">
    <path id="booking" d="M17.889,11.12V5.666a.344.344,0,0,0-.22-.321L9.08,2.005a.344.344,0,0,0-.25,0L.241,5.345a.344.344,0,0,0-.22.321v9.918a.344.344,0,0,0,.22.321l8.589,3.34a.344.344,0,0,0,.25,0l4.429-1.722a4.477,4.477,0,1,0,4.38-6.4ZM8.955,8.636,7.062,7.9,14.7,4.93l1.893.736ZM4.16,6.772,11.8,3.8l1.952.759L6.112,7.531Zm-.606.5,2.214.861V9.786L4.821,8.98A.345.345,0,0,0,4.5,8.913l-.941.293V7.275ZM8.955,2.7l1.893.736L3.209,6.4,1.316,5.666ZM.71,6.169l2.154.838V9.519a.458.458,0,0,0,.595.438l1.059-.329L5.7,10.634a.458.458,0,0,0,.756-.349V8.4l2.154.838V18.42L.71,15.348ZM9.3,18.42V9.241l7.9-3.072v4.95a4.478,4.478,0,0,0-3.941,5.761Zm8.245.952a3.788,3.788,0,1,1,3.788-3.788,3.793,3.793,0,0,1-3.788,3.788Z" transform="translate(28.979 161.478)" fill="#fff" stroke="#fff" stroke-width="0.1"/>
    <path id="recent" d="M4.4,6.807l.174,0A.146.146,0,1,0,4.57,6.51l-.537.013a.146.146,0,0,0-.142.15l.012.488A.146.146,0,0,0,4.2,7.153l0-.143A2,2,0,1,0,3.5,5.5a.146.146,0,0,0,.293,0A1.708,1.708,0,1,1,4.4,6.807Zm.95-2.235V5.5a.146.146,0,0,0,.146.146h.981a.146.146,0,1,0,0-.293H5.647V4.571a.146.146,0,0,0-.293,0Z" transform="translate(41.177 171.402)" fill="#fff" stroke="#fff" stroke-width="0.2" fill-rule="evenodd"/>
  </g>
</svg>
