<svg xmlns="http://www.w3.org/2000/svg" xmlns:xlink="http://www.w3.org/1999/xlink" width="22" height="21" viewBox="0 0 22 21">
  <defs>
    <clipPath id="clip-path">
      <rect id="Rectangle_3977" data-name="Rectangle 3977" width="22" height="21" transform="translate(1229 162)" fill="#a7a6a0" stroke="#4c4644" stroke-width="0.3"/>
    </clipPath>
  </defs>
  <g id="Mask_Group_641" data-name="Mask Group 641" transform="translate(-1229 -162)" clip-path="url(#clip-path)">
    <g id="user-settings_1_" data-name="user-settings (1)" transform="translate(1226.539 159.577)">
      <path id="Path_6637" data-name="Path 6637" d="M22.615,17.5h-.724a3.637,3.637,0,0,0-.481-1.152l.513-.514a.808.808,0,1,0-1.143-1.143l-.513.514a3.648,3.648,0,0,0-1.152-.481V14A.808.808,0,1,0,17.5,14v.724a3.648,3.648,0,0,0-1.152.481l-.513-.514a.808.808,0,1,0-1.143,1.143l.513.514a3.648,3.648,0,0,0-.481,1.152H14a.808.808,0,1,0,0,1.615h.724a3.637,3.637,0,0,0,.481,1.152l-.513.514a.808.808,0,1,0,1.142,1.143l.513-.514a3.648,3.648,0,0,0,1.152.481v.724a.808.808,0,0,0,1.615,0v-.724a3.647,3.647,0,0,0,1.152-.481l.513.514a.808.808,0,0,0,1.142-1.143l-.513-.514a3.648,3.648,0,0,0,.481-1.152h.724a.808.808,0,1,0,0-1.615Zm-2.854,2.262a.244.244,0,0,0-.014.022,2.052,2.052,0,0,1-2.878,0,.244.244,0,0,1-.014-.022c-.005-.006-.015-.009-.022-.014a2.052,2.052,0,0,1,0-2.878c.006-.006.015-.008.022-.014a.243.243,0,0,0,.014-.022,2.052,2.052,0,0,1,2.878,0,.244.244,0,0,1,.014.022c.005.006.015.009.022.014a2.052,2.052,0,0,1,0,2.878C19.777,19.754,19.768,19.755,19.762,19.762Z" fill="#a7a6a0" stroke="#4c4644" stroke-width="0.3"/>
      <path id="Path_6638" data-name="Path 6638" d="M12.923,12.654a5.115,5.115,0,1,1,5.115-5.115A5.121,5.121,0,0,1,12.923,12.654Zm0-8.615a3.5,3.5,0,1,0,3.5,3.5A3.5,3.5,0,0,0,12.923,4.038Zm-.3,18.577a.808.808,0,0,0-.808-.808H6.462a1.348,1.348,0,0,1-1.346-1.346,4.582,4.582,0,0,1,4.577-4.577h2.154a.808.808,0,1,0,0-1.615H9.692A6.2,6.2,0,0,0,3.5,20.462a2.964,2.964,0,0,0,2.962,2.962h5.352a.808.808,0,0,0,.808-.808Z" fill="#a7a6a0" stroke="#4c4644" stroke-width="0.3"/>
    </g>
  </g>
</svg>
