<svg xmlns="http://www.w3.org/2000/svg" xmlns:xlink="http://www.w3.org/1999/xlink" width="12" height="12" viewBox="0 0 12 12">
  <defs>
    <clipPath id="clip-path">
      <rect id="Rectangle_5860" data-name="Rectangle 5860" width="12" height="12" transform="translate(-489 6232)" fill="#fff" stroke="#2a2e34" stroke-width="0.8"/>
    </clipPath>
  </defs>
  <g id="Mask_Group_900" data-name="Mask Group 900" transform="translate(489 -6232)" clip-path="url(#clip-path)">
    <g id="contact-01-stroke-rounded" transform="translate(-488.13 6232.6)">
      <rect id="Rectangle_5859" data-name="Rectangle 5859" width="9.45" height="10.8" rx="1.86" transform="translate(0.81 0)" fill="none" stroke="#2a2e34" stroke-width="0.8"/>
      <path id="Path_7158" data-name="Path 7158" d="M5.045,6.447c-.34.227-1.23.692-.688,1.273a1.279,1.279,0,0,0,.931.487H7.4a1.279,1.279,0,0,0,.931-.487c.542-.581-.348-1.046-.688-1.273A2.317,2.317,0,0,0,5.045,6.447Z" transform="translate(-0.676 -0.107)" fill="none" stroke="#2a2e34" stroke-width="0.8"/>
      <path id="Path_7159" data-name="Path 7159" d="M7.276,4.336A1.08,1.08,0,1,1,6.2,3.256,1.08,1.08,0,0,1,7.276,4.336Z" transform="translate(-0.526 -0.556)" fill="none" stroke="#2a2e34" stroke-width="0.8"/>
      <path id="Path_7160" data-name="Path 7160" d="M2.513,2.791H1.163m1.35,3.24H1.163m1.35,3.24H1.163" transform="translate(-1.163 -0.631)" fill="none" stroke="#2a2e34" stroke-linecap="round" stroke-linejoin="round" stroke-width="0.8"/>
    </g>
  </g>
</svg>
