<svg xmlns="http://www.w3.org/2000/svg" width="183.245" height="48" viewBox="0 0 183.245 48">
  <g id="Group_16555" data-name="Group 16555" transform="translate(-32 -428)">
    <g id="Spurtcommerce" transform="translate(78.954 441.765)">
      <path id="Spurt" d="M4.52,13.794a6.438,6.438,0,0,0,1.842-.259,4.448,4.448,0,0,0,1.525-.779,3.808,3.808,0,0,0,1.041-1.308A4.106,4.106,0,0,0,9.319,9.6a3.268,3.268,0,0,0-.361-1.613,3.4,3.4,0,0,0-.929-1.08,5.084,5.084,0,0,0-1.246-.686Q6.1,5.97,5.468,5.76q-.559-.167-1.023-.334a3.484,3.484,0,0,1-.79-.386A1.69,1.69,0,0,1,3.144,4.5a1.47,1.47,0,0,1-.187-.76,1.529,1.529,0,0,1,.214-.826,1.745,1.745,0,0,1,.549-.553,2.5,2.5,0,0,1,.744-.316,3.374,3.374,0,0,1,.819-.1,3.139,3.139,0,0,1,1.368.324A2.844,2.844,0,0,1,7.7,3.077h0L9.227,1.409A4.981,4.981,0,0,0,7.431.353,6.279,6.279,0,0,0,5.394,0,6.763,6.763,0,0,0,3.636.232a4.892,4.892,0,0,0-1.543.7,3.693,3.693,0,0,0-1.1,1.2A3.385,3.385,0,0,0,.577,3.857,3.573,3.573,0,0,0,.874,5.4a3.315,3.315,0,0,0,.772,1.048,3.95,3.95,0,0,0,1.069.686,11.636,11.636,0,0,0,1.191.445l1.171.389A4.68,4.68,0,0,1,6.04,8.4,2.165,2.165,0,0,1,6.692,9a1.46,1.46,0,0,1,.241.862,1.74,1.74,0,0,1-.214.9,1.922,1.922,0,0,1-.557.6,2.236,2.236,0,0,1-.772.343,3.6,3.6,0,0,1-.843.1,3.649,3.649,0,0,1-1.59-.389,3.359,3.359,0,0,1-1.282-1.05h0L0,11.921a4.85,4.85,0,0,0,2.009,1.4,6.933,6.933,0,0,0,2.51.474Zm9.263,4.116V12.27h.037a2.959,2.959,0,0,0,1.218,1.057,3.882,3.882,0,0,0,1.74.389,4.171,4.171,0,0,0,3.207-1.4,4.52,4.52,0,0,0,.874-1.5,5.459,5.459,0,0,0,.307-1.844,5.238,5.238,0,0,0-.317-1.836,4.477,4.477,0,0,0-.893-1.483A4.171,4.171,0,0,0,16.826,4.3a4.076,4.076,0,0,0-1.106.139,4.245,4.245,0,0,0-.884.353,2.889,2.889,0,0,0-.66.48,3.224,3.224,0,0,0-.437.528h-.055V4.56H11.551V17.909Zm2.549-6.044a2.353,2.353,0,0,1-1.1-.251,2.687,2.687,0,0,1-.828-.658,2.866,2.866,0,0,1-.521-.918,3.123,3.123,0,0,1-.177-1.028,3.2,3.2,0,0,1,.177-1.038,2.845,2.845,0,0,1,.521-.926,2.809,2.809,0,0,1,.828-.667,2.284,2.284,0,0,1,1.1-.259,2.436,2.436,0,0,1,1.134.251,2.381,2.381,0,0,1,.8.658,2.877,2.877,0,0,1,.474.918A3.456,3.456,0,0,1,18.9,8.975a3.547,3.547,0,0,1-.158,1.038,2.856,2.856,0,0,1-.474.926,2.481,2.481,0,0,1-.8.667A2.365,2.365,0,0,1,16.332,11.866ZM26.543,13.72a2.974,2.974,0,0,0,1.74-.51,2.883,2.883,0,0,0,1.033-1.177h.037V13.46h2.12V4.56H29.24V9.455a3.059,3.059,0,0,1-.13.881,2.418,2.418,0,0,1-.382.769,1.925,1.925,0,0,1-1.572.761,1.508,1.508,0,0,1-.864-.222,1.6,1.6,0,0,1-.512-.565,2.2,2.2,0,0,1-.241-.769,6.291,6.291,0,0,1-.055-.816h0V4.56H23.251v5.563a4.821,4.821,0,0,0,.185,1.334,3.259,3.259,0,0,0,.586,1.15,2.951,2.951,0,0,0,1.023.806A3.368,3.368,0,0,0,26.543,13.72Zm9.84-.259V8.7a3.088,3.088,0,0,1,.093-.649,2.4,2.4,0,0,1,.353-.8,2.229,2.229,0,0,1,.722-.667A2.375,2.375,0,0,1,38.779,6.3a2.634,2.634,0,0,1,.307.018,3.14,3.14,0,0,1,.382.074h0V4.356a1.036,1.036,0,0,0-.26-.047c-.1-.006-.193-.01-.279-.01a2.6,2.6,0,0,0-1.565.48,3.242,3.242,0,0,0-1.041,1.261h-.037V4.56H34.151v8.9Zm7.72.186a4.988,4.988,0,0,0,.781-.065,3.675,3.675,0,0,0,.707-.176h0l-.075-1.742a1.954,1.954,0,0,1-.465.139,2.77,2.77,0,0,1-.482.047q-.744,0-.963-.389a2.024,2.024,0,0,1-.214-.983h0V6.341H45.63V4.56H43.4V1.984H41.2V4.56H39.635V6.341H41.2v4.153a5.8,5.8,0,0,0,.12,1.214,2.536,2.536,0,0,0,.447,1,2.2,2.2,0,0,0,.884.686,3.574,3.574,0,0,0,1.451.25Z" transform="translate(0 0)" fill="#191717" stroke="#181717" stroke-width="0.5"/>
      <path id="commerce" d="M43.646,12.963a4.742,4.742,0,0,0,1.9-.36,3.789,3.789,0,0,0,1.4-1.01h0l-1.176-1.058a2.49,2.49,0,0,1-.9.7,3.012,3.012,0,0,1-2.446,0,2.749,2.749,0,0,1-.911-.695,3.053,3.053,0,0,1-.567-1.01,3.815,3.815,0,0,1,0-2.41,3.053,3.053,0,0,1,.567-1.01,2.776,2.776,0,0,1,.9-.695,2.736,2.736,0,0,1,1.218-.259,2.563,2.563,0,0,1,1.191.287,2.138,2.138,0,0,1,.843.714h0l1.265-1.02a3.382,3.382,0,0,0-1.463-1.078,4.92,4.92,0,0,0-1.85-.371,5.149,5.149,0,0,0-1.87.334,4.407,4.407,0,0,0-1.5.946,4.3,4.3,0,0,0-.98,1.466A4.892,4.892,0,0,0,38.9,8.328a4.835,4.835,0,0,0,.361,1.909,4.319,4.319,0,0,0,1,1.456,4.484,4.484,0,0,0,1.5.936A5.2,5.2,0,0,0,43.646,12.963Zm9.189,0a5.1,5.1,0,0,0,1.878-.343,4.533,4.533,0,0,0,1.516-.96,4.446,4.446,0,0,0,1.005-1.477,4.737,4.737,0,0,0,.361-1.872,4.667,4.667,0,0,0-.361-1.864,4.37,4.37,0,0,0-1-1.456,4.61,4.61,0,0,0-1.516-.96,5.314,5.314,0,0,0-3.758,0,4.507,4.507,0,0,0-1.506.96,4.439,4.439,0,0,0-.994,1.456,4.666,4.666,0,0,0-.361,1.864,4.737,4.737,0,0,0,.361,1.872,4.518,4.518,0,0,0,.994,1.474,4.434,4.434,0,0,0,1.506.96,5.1,5.1,0,0,0,1.878.347Zm0-1.465a2.9,2.9,0,0,1-1.256-.259,2.671,2.671,0,0,1-.921-.7,3.161,3.161,0,0,1-.567-1.02,3.815,3.815,0,0,1,0-2.41,3.054,3.054,0,0,1,.567-1.01,2.724,2.724,0,0,1,.921-.695,3.166,3.166,0,0,1,2.511,0,2.724,2.724,0,0,1,.921.695,3.048,3.048,0,0,1,.567,1.01,3.815,3.815,0,0,1,0,2.41,3.156,3.156,0,0,1-.567,1.02,2.671,2.671,0,0,1-.921.7,2.9,2.9,0,0,1-1.256.264Zm8.928,1.224V8.05a3.233,3.233,0,0,1,.642-2.1,1.991,1.991,0,0,1,1.608-.788,1.95,1.95,0,0,1,.874.176,1.564,1.564,0,0,1,.577.48,1.917,1.917,0,0,1,.317.732,4.461,4.461,0,0,1,.093.946h0v5.228h1.748V7.976a4.329,4.329,0,0,1,.12-1.02,2.737,2.737,0,0,1,.39-.9,2.126,2.126,0,0,1,.7-.649,1.992,1.992,0,0,1,1.023-.251,1.824,1.824,0,0,1,.952.226,1.706,1.706,0,0,1,.595.593,2.59,2.59,0,0,1,.317.853,5.371,5.371,0,0,1,.093,1.02h0v4.876h1.748V7.271a4.8,4.8,0,0,0-.2-1.391,3.108,3.108,0,0,0-.6-1.13,2.975,2.975,0,0,0-1.023-.769,3.441,3.441,0,0,0-1.469-.287,3.479,3.479,0,0,0-1.748.455,3.139,3.139,0,0,0-1.251,1.306A2.736,2.736,0,0,0,66.143,4.1a3.194,3.194,0,0,0-1.61-.408,3.055,3.055,0,0,0-1.739.491,2.974,2.974,0,0,0-1.069,1.2H61.67q0-.278-.018-.695T61.6,3.938H59.94q.037.426.055.983t.018.908h0v6.9Zm16.494,0V8.05a3.233,3.233,0,0,1,.642-2.1,1.992,1.992,0,0,1,1.608-.788,1.95,1.95,0,0,1,.874.176,1.564,1.564,0,0,1,.577.48,1.916,1.916,0,0,1,.317.732,4.44,4.44,0,0,1,.093.946h0v5.228h1.748V7.976a4.316,4.316,0,0,1,.12-1.02,2.731,2.731,0,0,1,.39-.9,2.123,2.123,0,0,1,.7-.649,1.991,1.991,0,0,1,1.023-.251,1.825,1.825,0,0,1,.952.226,1.7,1.7,0,0,1,.595.593,2.59,2.59,0,0,1,.317.853,5.37,5.37,0,0,1,.093,1.02h0v4.876h1.748V7.271a4.8,4.8,0,0,0-.2-1.391,3.107,3.107,0,0,0-.6-1.13,2.973,2.973,0,0,0-1.023-.769,3.441,3.441,0,0,0-1.469-.287,3.48,3.48,0,0,0-1.748.455,3.136,3.136,0,0,0-1.246,1.306A2.736,2.736,0,0,0,82.642,4.1a3.193,3.193,0,0,0-1.608-.408,3.055,3.055,0,0,0-1.74.491,2.977,2.977,0,0,0-1.069,1.2h-.055q0-.278-.018-.695T78.1,3.938H76.439q.037.426.055.983t.019.908h0v6.9Zm18.824.24a5.086,5.086,0,0,0,2.137-.434,4.355,4.355,0,0,0,1.665-1.363h0l-1.23-.982a3.147,3.147,0,0,1-1.023.946,2.952,2.952,0,0,1-1.543.389,2.917,2.917,0,0,1-1.99-.769,2.76,2.76,0,0,1-.622-.853,2.622,2.622,0,0,1-.252-1.048h6.994a2.409,2.409,0,0,0,.018-.3h0v-.3a5.686,5.686,0,0,0-.3-1.9,4.089,4.089,0,0,0-.843-1.44A3.624,3.624,0,0,0,98.754,4a4.986,4.986,0,0,0-3.562.028,4.386,4.386,0,0,0-1.451.96,4.308,4.308,0,0,0-.962,1.47,5.035,5.035,0,0,0-.344,1.882,4.9,4.9,0,0,0,.353,1.891,4.191,4.191,0,0,0,2.433,2.392,5.071,5.071,0,0,0,1.865.336Zm2.381-5.413H94.222a2.514,2.514,0,0,1,.27-.973,2.777,2.777,0,0,1,.595-.788,2.73,2.73,0,0,1,.856-.524,2.835,2.835,0,0,1,1.051-.194,2.707,2.707,0,0,1,1.069.194,2.188,2.188,0,0,1,.763.528,2.235,2.235,0,0,1,.465.788,3.309,3.309,0,0,1,.177.973Zm5.952,5.172V8.106a3.78,3.78,0,0,1,.149-1.066,2.624,2.624,0,0,1,.455-.9,2.24,2.24,0,0,1,.772-.622,2.433,2.433,0,0,1,1.1-.232,3.3,3.3,0,0,1,.8.092h0l.075-1.613a2.722,2.722,0,0,0-.689-.074,2.857,2.857,0,0,0-1.61.473,3.047,3.047,0,0,0-1.084,1.252h-.055q0-.278-.019-.714t-.055-.769H103.6q.037.426.055.983t.018.908h0v6.9Zm9.15.24a4.742,4.742,0,0,0,1.9-.36,3.792,3.792,0,0,0,1.4-1.01h0l-1.171-1.057a2.494,2.494,0,0,1-.9.7,3.01,3.01,0,0,1-2.446,0,2.749,2.749,0,0,1-.911-.695,3.048,3.048,0,0,1-.567-1.01,3.815,3.815,0,0,1,0-2.41,3.049,3.049,0,0,1,.567-1.01,2.778,2.778,0,0,1,.9-.695,2.738,2.738,0,0,1,1.218-.259,2.564,2.564,0,0,1,1.191.287,2.138,2.138,0,0,1,.843.714h0l1.265-1.02a3.383,3.383,0,0,0-1.46-1.08,4.92,4.92,0,0,0-1.85-.371,5.15,5.15,0,0,0-1.87.334,4.409,4.409,0,0,0-1.5.946,4.3,4.3,0,0,0-.986,1.465,4.9,4.9,0,0,0-.353,1.891,4.836,4.836,0,0,0,.361,1.909,4.32,4.32,0,0,0,.994,1.456,4.482,4.482,0,0,0,1.5.936,5.2,5.2,0,0,0,1.889.338Zm9.1,0a5.084,5.084,0,0,0,2.13-.436,4.354,4.354,0,0,0,1.665-1.363h0l-1.228-.983a3.146,3.146,0,0,1-1.023.946,2.951,2.951,0,0,1-1.543.389,2.916,2.916,0,0,1-1.99-.769,2.761,2.761,0,0,1-.622-.853,2.622,2.622,0,0,1-.252-1.048h6.994a2.415,2.415,0,0,0,.018-.3h0V8.254a5.686,5.686,0,0,0-.3-1.9,4.089,4.089,0,0,0-.843-1.44,3.624,3.624,0,0,0-1.339-.908,4.986,4.986,0,0,0-3.562.028,4.386,4.386,0,0,0-1.451.96,4.308,4.308,0,0,0-.956,1.469,5.025,5.025,0,0,0-.344,1.882,4.892,4.892,0,0,0,.353,1.891,4.191,4.191,0,0,0,2.433,2.392,5.071,5.071,0,0,0,1.865.336Zm2.38-5.413H120.8a2.5,2.5,0,0,1,.27-.973,2.779,2.779,0,0,1,.595-.788,2.73,2.73,0,0,1,.856-.528,2.834,2.834,0,0,1,1.051-.194,2.708,2.708,0,0,1,1.069.194,2.184,2.184,0,0,1,.762.528,2.23,2.23,0,0,1,.465.788,3.3,3.3,0,0,1,.177.973Z" transform="translate(8.232 0.738)" fill="#191717" stroke="#181717" stroke-width="0.5"/>
    </g>
    <text id="V-4.3" transform="translate(212.303 471.8)" fill="#191717" font-size="10" font-family="Roboto" font-weight="500"><tspan x="-55" y="0">Marketplace</tspan></text>
    <g id="registered" transform="translate(74.138 436.236)">
      <path id="Path_659" data-name="Path 659" d="M5.709,8.4A2.7,2.7,0,1,1,8.418,5.7,2.7,2.7,0,0,1,5.709,8.4Zm0-4.985A2.28,2.28,0,1,0,8,5.7a2.284,2.284,0,0,0-2.288-2.28Z" transform="translate(-3 -3)" fill="#191717" stroke="#191717" stroke-width="0.2"/>
      <path id="Path_660" data-name="Path 660" d="M12.207,12.471A.207.207,0,0,1,12,12.264V10.206A.207.207,0,0,1,12.207,10h.62a.823.823,0,1,1,0,1.646h-.413v.618A.207.207,0,0,1,12.207,12.471Zm.207-1.235h.413a.412.412,0,1,0,0-.823h-.413Z" transform="translate(-10.117 -8.535)" fill="#191717" stroke="#191717" stroke-width="0.2"/>
      <path id="Path_661" data-name="Path 661" d="M15.039,16.327a.207.207,0,0,1,.33-.247l.62.823a.207.207,0,1,1-.33.247Z" transform="translate(-12.493 -13.291)" fill="#191717" stroke="#191717" stroke-width="0.2"/>
    </g>
    <line id="Line_1" data-name="Line 1" x2="138.454" transform="translate(76.546 461.6)" fill="none" stroke="#181717" stroke-width="1"/>
    <g id="Group-3" transform="translate(32 428)">
      <g id="Group-2">
        <path id="Polygon" d="M20.854,0,41.706,12V36L20.854,48,0,36V12Z" fill="#078e05" fill-rule="evenodd"/>
        <path id="Path-8" d="M0,66.875.01,42.959,20.893,78.768Z" transform="translate(0 -30.768)" fill="#028400" fill-rule="evenodd"/>
        <path id="Path-9" d="M0,11.992,41.687,36,20.907,0Z" fill="#027600" fill-rule="evenodd"/>
        <path id="Path-10" d="M73.649.25l20.736,12-7.65,11.014Z" transform="translate(-52.681 -0.179)" fill="#02ad00" fill-rule="evenodd"/>
      </g>
      <g id="Group" transform="translate(1.911 14.857)">
        <ellipse id="Oval" cx="1.911" cy="1.904" rx="1.911" ry="1.904" transform="translate(9.81 22.223)" fill="#fff"/>
        <ellipse id="Oval-Copy" cx="1.911" cy="1.904" rx="1.911" ry="1.904" transform="translate(25.862 22.223)" fill="#fff"/>
        <line id="Line" x2="4.587" fill="none" stroke="#fff" stroke-linecap="square" stroke-width="0.8"/>
        <line id="Line-2" x2="4.332" y2="21.079" transform="translate(4.587)" fill="none" stroke="#fff" stroke-linecap="square" stroke-width="0.8"/>
        <line id="Line-3" x2="22.691" transform="translate(8.153 16)" fill="none" stroke="#fff" stroke-linecap="square" stroke-width="0.8"/>
        <line id="Line-3-2" data-name="Line-3" x2="22.691" transform="translate(9.173 21.079)" fill="none" stroke="#fff" stroke-linecap="square" stroke-width="0.8"/>
        <line id="Line-3-3" data-name="Line-3" x2="8.935" transform="translate(21.654 17.905)" fill="none" stroke="#fff" stroke-linecap="square" stroke-width="0.8"/>
        <line id="Line-3-Copy" x2="14.673" transform="translate(14.642 19.428)" fill="none" stroke="#fff" stroke-linecap="square" stroke-width="0.8"/>
        <path id="commerce-2" data-name="commerce" d="M33.187,46.357a1.309,1.309,0,0,0,.451-.078.923.923,0,0,0,.373-.256h0l-.294-.293a.763.763,0,0,1-.229.18.663.663,0,0,1-.3.061.7.7,0,0,1-.289-.058.654.654,0,0,1-.22-.157.72.72,0,0,1-.142-.24.809.809,0,0,1-.051-.286.968.968,0,0,1,.043-.29.76.76,0,0,1,.129-.247.6.6,0,0,1,.211-.169.666.666,0,0,1,.3-.061.677.677,0,0,1,.3.061.867.867,0,0,1,.241.18h0l.312-.283a1,1,0,0,0-.378-.258,1.249,1.249,0,0,0-.456-.084,1.229,1.229,0,0,0-.466.084,1.031,1.031,0,0,0-.59.6,1.253,1.253,0,0,0-.083.462,1.235,1.235,0,0,0,.083.46,1.02,1.02,0,0,0,.234.36,1.065,1.065,0,0,0,.361.23,1.246,1.246,0,0,0,.461.082Zm2.229,0a1.147,1.147,0,0,0,.815-.329,1.125,1.125,0,0,0,.335-.806,1.1,1.1,0,0,0-.089-.444,1.155,1.155,0,0,0-.241-.36,1.171,1.171,0,0,0-1.642,0,1.155,1.155,0,0,0-.241.36,1.1,1.1,0,0,0-.089.444,1.125,1.125,0,0,0,.335.806,1.147,1.147,0,0,0,.817.329Zm0-.384a.749.749,0,0,1-.3-.058.659.659,0,0,1-.225-.156.685.685,0,0,1-.142-.24.941.941,0,0,1,0-.608.685.685,0,0,1,.142-.24.659.659,0,0,1,.225-.156.807.807,0,0,1,.6,0,.659.659,0,0,1,.225.156.685.685,0,0,1,.142.24.941.941,0,0,1,0,.608.685.685,0,0,1-.142.24.659.659,0,0,1-.225.156A.748.748,0,0,1,35.415,45.973ZM37.5,46.3V45.177a.988.988,0,0,1,.046-.318.632.632,0,0,1,.12-.222.5.5,0,0,1,.181-.131.545.545,0,0,1,.213-.043.474.474,0,0,1,.241.053.353.353,0,0,1,.137.146.663.663,0,0,1,.064.222,2.286,2.286,0,0,1,.016.283h0V46.3h.413V45.117a.8.8,0,0,1,.129-.47.589.589,0,0,1,.669-.131.378.378,0,0,1,.142.139.548.548,0,0,1,.066.2,1.708,1.708,0,0,1,.016.24h0V46.3h.413V45.04a1.794,1.794,0,0,0-.035-.36.828.828,0,0,0-.12-.306.664.664,0,0,0-.253-.217.9.9,0,0,0-.413-.083.834.834,0,0,0-.39.1.7.7,0,0,0-.3.3.749.749,0,0,0-.271-.3.771.771,0,0,0-.408-.1.792.792,0,0,0-.268.043.908.908,0,0,0-.211.106.73.73,0,0,0-.147.131.36.36,0,0,0-.071.12h-.01v-.338h-.385V46.3Zm3.908,0V45.177a.988.988,0,0,1,.046-.318.632.632,0,0,1,.12-.222.5.5,0,0,1,.181-.131.544.544,0,0,1,.213-.043.474.474,0,0,1,.241.053.353.353,0,0,1,.137.146.663.663,0,0,1,.064.222,2.29,2.29,0,0,1,.016.283h0V46.3h.413V45.117a.8.8,0,0,1,.129-.47.589.589,0,0,1,.669-.131.377.377,0,0,1,.142.139.548.548,0,0,1,.066.2,1.707,1.707,0,0,1,.016.24h0V46.3h.413V45.04a1.794,1.794,0,0,0-.035-.36.827.827,0,0,0-.12-.306.664.664,0,0,0-.253-.217.9.9,0,0,0-.413-.083.834.834,0,0,0-.39.1.7.7,0,0,0-.3.3.748.748,0,0,0-.271-.3.771.771,0,0,0-.408-.1.792.792,0,0,0-.268.043.907.907,0,0,0-.211.106.73.73,0,0,0-.147.131.36.36,0,0,0-.071.12h-.008v-.338H41V46.3Zm4.486.055a1.149,1.149,0,0,0,.963-.444h0l-.312-.24a1.083,1.083,0,0,1-.261.24.617.617,0,0,1-.335.089.845.845,0,0,1-.276-.046.754.754,0,0,1-.234-.128.642.642,0,0,1-.163-.2.542.542,0,0,1-.061-.258h1.743v-.146a1.518,1.518,0,0,0-.058-.414,1.036,1.036,0,0,0-.185-.36.963.963,0,0,0-.327-.263,1.077,1.077,0,0,0-.489-.1,1.147,1.147,0,0,0-.449.086,1.068,1.068,0,0,0-.361.24,1.116,1.116,0,0,0-.234.36,1.181,1.181,0,0,0-.084.45,1.273,1.273,0,0,0,.078.45,1.064,1.064,0,0,0,.223.36,1.014,1.014,0,0,0,.353.24,1.2,1.2,0,0,0,.468.084Zm.624-1.32h-1.3a.558.558,0,0,1,.048-.222.686.686,0,0,1,.135-.2.675.675,0,0,1,.213-.149.665.665,0,0,1,.277-.058.715.715,0,0,1,.273.048.54.54,0,0,1,.2.132.553.553,0,0,1,.12.2.866.866,0,0,1,.043.252ZM47.868,46.3V45.209a.741.741,0,0,1,.16-.526.6.6,0,0,1,.464-.169.565.565,0,0,1,.1.01q.051.01.1.023h0l.018-.444a.58.58,0,0,0-.183-.028.711.711,0,0,0-.2.03.814.814,0,0,0-.185.08.737.737,0,0,0-.154.12.587.587,0,0,0-.11.157h-.01v-.334h-.413V46.3Zm2.233.055a1.309,1.309,0,0,0,.451-.078.924.924,0,0,0,.373-.256h0l-.294-.293a.763.763,0,0,1-.229.18.663.663,0,0,1-.3.061.7.7,0,0,1-.289-.058.654.654,0,0,1-.22-.157.719.719,0,0,1-.142-.24.809.809,0,0,1-.051-.286.968.968,0,0,1,.045-.282.76.76,0,0,1,.129-.247.6.6,0,0,1,.211-.169.667.667,0,0,1,.3-.061.677.677,0,0,1,.3.061.867.867,0,0,1,.241.18h0l.312-.283a1,1,0,0,0-.378-.258,1.25,1.25,0,0,0-.456-.084,1.229,1.229,0,0,0-.466.084,1.031,1.031,0,0,0-.59.6,1.253,1.253,0,0,0-.083.462,1.235,1.235,0,0,0,.083.46,1.02,1.02,0,0,0,.234.36,1.065,1.065,0,0,0,.361.23,1.246,1.246,0,0,0,.46.077Zm2.167,0a1.149,1.149,0,0,0,.963-.444h0l-.312-.24a1.082,1.082,0,0,1-.261.24.617.617,0,0,1-.335.089.845.845,0,0,1-.276-.046.754.754,0,0,1-.234-.128.644.644,0,0,1-.163-.2.542.542,0,0,1-.061-.258h1.743V45.22a1.518,1.518,0,0,0-.058-.414,1.035,1.035,0,0,0-.185-.36.963.963,0,0,0-.327-.263,1.077,1.077,0,0,0-.489-.1,1.147,1.147,0,0,0-.449.086,1.068,1.068,0,0,0-.361.24,1.116,1.116,0,0,0-.234.36,1.181,1.181,0,0,0-.084.45,1.273,1.273,0,0,0,.078.45,1.064,1.064,0,0,0,.223.36,1.014,1.014,0,0,0,.353.24,1.2,1.2,0,0,0,.471.088Zm.624-1.32h-1.3a.558.558,0,0,1,.048-.222.686.686,0,0,1,.135-.2.677.677,0,0,1,.213-.149.664.664,0,0,1,.277-.058.715.715,0,0,1,.273.048.54.54,0,0,1,.2.132.553.553,0,0,1,.12.2.865.865,0,0,1,.043.252Z" transform="translate(-23.052 -31.953)" fill="#fff"/>
        <line id="Line-4" y1="14.476" x2="4.587" transform="translate(31.086 1.27)" fill="none" stroke="#fff" stroke-linecap="square" stroke-width="0.8"/>
        <path id="Spurt-2" data-name="Spurt" d="M28.868,15.634a3.366,3.366,0,0,0,.927-.128,2.381,2.381,0,0,0,.8-.394,1.921,1.921,0,0,0,.555-.672,2.109,2.109,0,0,0,.206-.96,1.563,1.563,0,0,0-.193-.809,1.85,1.85,0,0,0-.482-.544,2.575,2.575,0,0,0-.651-.352q-.361-.132-.687-.24-.229-.073-.413-.142a1.8,1.8,0,0,1-.317-.151.612.612,0,0,1-.2-.192.507.507,0,0,1-.069-.275.534.534,0,0,1,.087-.316.713.713,0,0,1,.216-.2.819.819,0,0,1,.289-.106,1.877,1.877,0,0,1,.317-.028,1.492,1.492,0,0,1,.628.151,1.415,1.415,0,0,1,.527.407h0l1-1.051a2.891,2.891,0,0,0-1-.6,3.381,3.381,0,0,0-1.123-.2,3.671,3.671,0,0,0-.908.12,2.487,2.487,0,0,0-.807.36,1.91,1.91,0,0,0-.578.631,1.828,1.828,0,0,0-.22.924,1.761,1.761,0,0,0,.142.745,1.631,1.631,0,0,0,.376.521,2.047,2.047,0,0,0,.532.352,5.49,5.49,0,0,0,.61.24q.321.1.573.187a2.109,2.109,0,0,1,.421.192.9.9,0,0,1,.261.233.52.52,0,0,1,.092.311.689.689,0,0,1-.073.329.6.6,0,0,1-.2.22.844.844,0,0,1-.289.12,1.57,1.57,0,0,1-.34.036,1.709,1.709,0,0,1-.775-.2,1.9,1.9,0,0,1-.628-.49h0l-1.027,1.043a2.858,2.858,0,0,0,1.084.69,3.837,3.837,0,0,0,1.344.236Zm5.148,2.029v-2.7h.018a1.423,1.423,0,0,0,.588.462,1.923,1.923,0,0,0,.8.169,2.029,2.029,0,0,0,.917-.2,2.106,2.106,0,0,0,.684-.535,2.348,2.348,0,0,0,.426-.773,2.863,2.863,0,0,0,.147-.914,2.745,2.745,0,0,0-.152-.91,2.371,2.371,0,0,0-.431-.763,2.028,2.028,0,0,0-.684-.521,2.066,2.066,0,0,0-.9-.192,1.781,1.781,0,0,0-.876.205,1.852,1.852,0,0,0-.583.48h-.028v-.558h-1.43v6.748ZM35.06,14.35a1.014,1.014,0,0,1-.459-.1,1.094,1.094,0,0,1-.344-.265,1.235,1.235,0,0,1,0-1.608,1.094,1.094,0,0,1,.344-.265,1.014,1.014,0,0,1,.459-.1,1.036,1.036,0,0,1,.468.1,1.02,1.02,0,0,1,.335.26,1.115,1.115,0,0,1,.2.371,1.373,1.373,0,0,1,.069.43,1.417,1.417,0,0,1-.069.434,1.159,1.159,0,0,1-.2.379.993.993,0,0,1-.335.265A1.036,1.036,0,0,1,35.06,14.35Zm5.3,1.243a1.587,1.587,0,0,0,.454-.064,1.913,1.913,0,0,0,.395-.164,1.358,1.358,0,0,0,.312-.24,1.289,1.289,0,0,0,.216-.293h.018v.631H43.2V10.912h-1.5v2.46a1.159,1.159,0,0,1-.206.685.689.689,0,0,1-.6.293.651.651,0,0,1-.34-.078.582.582,0,0,1-.206-.215.912.912,0,0,1-.106-.311,2.337,2.337,0,0,1-.028-.36h0V10.912H38.7v2.816a2.684,2.684,0,0,0,.087.682,1.678,1.678,0,0,0,.284.6,1.5,1.5,0,0,0,.514.425A1.665,1.665,0,0,0,40.357,15.593Zm5.726-.128v-2.34a1.132,1.132,0,0,1,.055-.32,1,1,0,0,1,.179-.338,1.036,1.036,0,0,1,.33-.265,1.074,1.074,0,0,1,.509-.109q.092,0,.188.01a1.175,1.175,0,0,1,.2.036h0l.064-1.32a.691.691,0,0,0-.142-.028,1.714,1.714,0,0,0-.179-.01,1.285,1.285,0,0,0-.743.22,1.48,1.48,0,0,0-.495.566h-.018v-.659H44.585V15.46Zm4.121.109a2.8,2.8,0,0,0,.482-.041,2.49,2.49,0,0,0,.395-.1h0l-.018-1.1a.8.8,0,0,1-.206.055,1.6,1.6,0,0,1-.234.018.533.533,0,0,1-.445-.16.777.777,0,0,1-.12-.48h0v-1.74H51.13V10.909H50.058v-1.2H48.57v1.2h-.722v1.124h.734v1.92a2.476,2.476,0,0,0,.083.662,1.289,1.289,0,0,0,.271.512,1.2,1.2,0,0,0,.5.329,2.256,2.256,0,0,0,.768.118Z" transform="translate(-19.037 -6.703)" fill="#fff"/>
      </g>
    </g>
    <rect id="Rectangle_2" data-name="Rectangle 2" width="20.467" height="13.2" rx="6" transform="translate(194.533 430.4)" fill="#047600"/>
    <text id="V-4.3-2" data-name="V-4.3" transform="translate(210.145 440.6)" fill="#fff" font-size="10" font-family="Roboto-Regular, Roboto"><tspan x="-11" y="0">V5</tspan></text>
  </g>
</svg>
