<svg xmlns="http://www.w3.org/2000/svg" width="75.752" height="16" viewBox="0 0 75.752 16">
  <g id="Group" transform="translate(-0.048 -0.029)">
    <path id="Fill-1" d="M23,7.535a1.566,1.566,0,0,1-.7.982,2.8,2.8,0,0,1-1.45.314H18.878l.695-2.592h1.979a1.953,1.953,0,0,1,1.282.313A.918.918,0,0,1,23,7.535m2.049-.056a2.19,2.19,0,0,0-.313-2.16,3.186,3.186,0,0,0-2.418-.752H17.9l-2.658,9.921H17.39l1.072-4h1.407a1.526,1.526,0,0,1,.746.153.674.674,0,0,1,.322.543l.383,3.3h2.3l-.373-3.079A1.217,1.217,0,0,0,22.3,10.2a4.056,4.056,0,0,0,1.771-1.017,3.712,3.712,0,0,0,.978-1.7" transform="translate(-4.918 -1.469)" fill="#072654" fill-rule="evenodd"/>
    <path id="Fill-3" d="M34.8,12.215a3.2,3.2,0,0,1-.829,1.533,1.882,1.882,0,0,1-1.34.529,1.116,1.116,0,0,1-1.079-.522,2.076,2.076,0,0,1-.02-1.512,3.252,3.252,0,0,1,.846-1.547,1.9,1.9,0,0,1,1.361-.557,1.072,1.072,0,0,1,1.055.537,2.2,2.2,0,0,1,.006,1.54ZM35.743,8.7l-.269,1a1.575,1.575,0,0,0-.674-.864,2.25,2.25,0,0,0-1.238-.321,3.523,3.523,0,0,0-1.741.467,4.6,4.6,0,0,0-1.461,1.317,5.747,5.747,0,0,0-.916,1.937,4.129,4.129,0,0,0-.116,1.916,2.075,2.075,0,0,0,.759,1.275,2.408,2.408,0,0,0,1.5.446A3.33,3.33,0,0,0,33,15.573a3.273,3.273,0,0,0,1.133-.85l-.28,1.045h2.076L37.819,8.7Z" transform="translate(-9.455 -2.749)" fill="#072654" fill-rule="evenodd"/>
    <path id="Fill-5" d="M49.131,8.79H43.1l-.422,1.575h3.511l-4.642,4.013-.4,1.477h6.228L47.8,14.28H44.037l4.713-4.069Z" transform="translate(-13.302 -2.836)" fill="#072654" fill-rule="evenodd"/>
    <path id="Fill-7" d="M58.176,12.2a3.245,3.245,0,0,1-.83,1.561,1.871,1.871,0,0,1-1.329.515q-1.631,0-1.074-2.076a3.221,3.221,0,0,1,.834-1.553,1.906,1.906,0,0,1,1.352-.523,1.072,1.072,0,0,1,1.051.523,2.223,2.223,0,0,1-.005,1.553m1.215-3.233a3.417,3.417,0,0,0-1.831-.446,4.917,4.917,0,0,0-2.091.446,4.54,4.54,0,0,0-1.639,1.282,5.2,5.2,0,0,0-.976,1.951,3.721,3.721,0,0,0-.069,1.951,2.1,2.1,0,0,0,.952,1.282,3.479,3.479,0,0,0,1.852.446,4.834,4.834,0,0,0,2.071-.446,4.564,4.564,0,0,0,1.632-1.282,5.2,5.2,0,0,0,.975-1.951,3.723,3.723,0,0,0,.07-1.951,2.113,2.113,0,0,0-.945-1.282" transform="translate(-17.035 -2.749)" fill="#072654" fill-rule="evenodd"/>
    <path id="Fill-9" d="M92.052,12.215a3.2,3.2,0,0,1-.829,1.533,1.882,1.882,0,0,1-1.341.529,1.116,1.116,0,0,1-1.079-.522,2.074,2.074,0,0,1-.02-1.512A3.254,3.254,0,0,1,89.63,10.7a1.905,1.905,0,0,1,1.362-.557,1.072,1.072,0,0,1,1.055.537,2.2,2.2,0,0,1,.006,1.54Zm.94-3.511-.269,1a1.575,1.575,0,0,0-.674-.864,2.249,2.249,0,0,0-1.238-.321,3.524,3.524,0,0,0-1.742.467,4.6,4.6,0,0,0-1.46,1.317,5.741,5.741,0,0,0-.916,1.937,4.132,4.132,0,0,0-.116,1.916,2.073,2.073,0,0,0,.759,1.275,2.408,2.408,0,0,0,1.5.446,3.331,3.331,0,0,0,1.406-.307,3.273,3.273,0,0,0,1.133-.85l-.28,1.045h2.076L95.069,8.7Z" transform="translate(-27.983 -2.749)" fill="#072654" fill-rule="evenodd"/>
    <path id="Fill-11" d="M70.56,10.605l.529-1.923a1.562,1.562,0,0,0-.715-.139A2.852,2.852,0,0,0,69,8.9a3.009,3.009,0,0,0-.971.846l.275-1.035H66.233l-1.907,7.064h2.1l.99-3.692a2.341,2.341,0,0,1,.776-1.261,2.149,2.149,0,0,1,1.4-.453,2.058,2.058,0,0,1,.968.237" transform="translate(-20.803 -2.756)" fill="#072654" fill-rule="evenodd"/>
    <path id="Fill-13" d="M78.813,12.242a3.128,3.128,0,0,1-.823,1.512,1.89,1.89,0,0,1-1.338.522,1.094,1.094,0,0,1-1.063-.529,2.131,2.131,0,0,1-.014-1.533,3.2,3.2,0,0,1,.837-1.54,1.9,1.9,0,0,1,1.35-.537A1.052,1.052,0,0,1,78.8,10.7a2.232,2.232,0,0,1,.011,1.547m1.471-3.253a2.319,2.319,0,0,0-1.491-.467,3.305,3.305,0,0,0-1.511.362,3.138,3.138,0,0,0-1.164.989l.006-.046L76.478,8.7H74.423L73.9,10.657c-.006.023-.011.044-.017.067l-2.158,8.054h2.1l1.087-4.054a1.449,1.449,0,0,0,.664.85,2.346,2.346,0,0,0,1.242.307,3.644,3.644,0,0,0,1.75-.446,4.34,4.34,0,0,0,1.442-1.275,5.649,5.649,0,0,0,.9-1.916,4.276,4.276,0,0,0,.122-1.937,2.157,2.157,0,0,0-.755-1.317" transform="translate(-23.198 -2.749)" fill="#072654" fill-rule="evenodd"/>
    <path id="Fill-15" d="M107.595,8.792v0h-1.275l-.114,0h-.661l-.338.471c-.027.036-.054.071-.084.113l-.037.055L102.4,13.175l-.558-4.385h-2.2l1.115,6.663-2.463,3.411h2.194l.6-.845.052-.072.7-.987.02-.028,3.116-4.418,2.626-3.718,0,0Z" transform="translate(-31.796 -2.836)" fill="#072654" fill-rule="evenodd"/>
    <path id="Fill-17" d="M6.948,4.235l-.63,2.318,3.6-2.331L7.565,13.017l2.394,0L13.441.029Z" transform="translate(-2.029 0)" fill="#3395ff" fill-rule="evenodd"/>
    <path id="Fill-19" d="M1.039,11.938l-.991,3.7H4.954L6.962,8.114,1.039,11.938" transform="translate(0 -2.617)" fill="#072654" fill-rule="evenodd"/>
  </g>
</svg>
