<svg id="youtube_5_" data-name="youtube (5)" xmlns="http://www.w3.org/2000/svg" width="48" height="32" viewBox="0 0 48 32">
  <path id="Path_6822" data-name="Path 6822" d="M47.011,5.007A5.877,5.877,0,0,0,42.781.979C39.024,0,24,0,24,0S8.975,0,5.219.941A5.994,5.994,0,0,0,.988,5.007C0,8.583,0,16,0,16s0,7.454.988,10.993a5.878,5.878,0,0,0,4.231,4.028C9.015,32,24,32,24,32s15.024,0,18.781-.941a5.877,5.877,0,0,0,4.231-4.028C48,23.454,48,16.038,48,16.038S48.039,8.583,47.011,5.007Zm0,0" fill="red"/>
  <path id="Path_6823" data-name="Path 6823" d="M204.969,116.188l12.494-6.852-12.494-6.852Zm0,0" transform="translate(-185.753 -93.336)" fill="#fff"/>
</svg>
