<svg xmlns="http://www.w3.org/2000/svg" width="17.1" height="16" viewBox="0 0 17.1 16">
  <g id="Page-1-Copy-2" transform="translate(0.55)">
    <g id="Spurt-design-sysrtem--7April22">
      <g id="Megaphone">
        <g id="Group_13" data-name="Group 13" transform="translate(16 16) rotate(180)">
          <rect id="Rectangle" width="16" height="16" fill="none"/>
          <g id="Group_113" data-name="Group 113" transform="translate(-2 -1.705)">
            <path id="Path" d="M0,11.124v-9.9A.64.64,0,0,1,.285.694L1.164.107A.64.64,0,0,1,2.14.485L3.2,4.724" transform="translate(11.6 2.31)" fill="none" stroke="#fff" stroke-linecap="round" stroke-linejoin="round" stroke-width="1.1" fill-rule="evenodd"/>
            <path id="Path-2" data-name="Path" d="M12.8,3.666a3.2,3.2,0,1,1,0,6.4H9.6a14.552,14.552,0,0,0-8.548,3.516A.64.64,0,0,1,0,13.093V.64A.64.64,0,0,1,1.052.15,14.552,14.552,0,0,0,9.6,3.666Z" transform="translate(2 3.367)" fill="none" stroke="#fff" stroke-linecap="round" stroke-linejoin="round" stroke-width="1.1" fill-rule="evenodd"/>
          </g>
        </g>
      </g>
    </g>
  </g>
</svg>
