<svg xmlns="http://www.w3.org/2000/svg" xmlns:xlink="http://www.w3.org/1999/xlink" width="16" height="16" viewBox="0 0 16 16">
  <defs>
    <clipPath id="clip-path">
      <rect id="Rectangle_5055" data-name="Rectangle 5055" width="16" height="16" transform="translate(244 280)" fill="#fff" stroke="#707070" stroke-width="1"/>
    </clipPath>
  </defs>
  <g id="Mask_Group_455" data-name="Mask Group 455" transform="translate(-244 -280)" clip-path="url(#clip-path)">
    <path id="cross-selling_1_" data-name="cross-selling (1)" d="M5.016,3.688H6.827l1.839,7.16a1.37,1.37,0,0,0,.042,2.67,1.516,1.516,0,1,0,1.825.03h4.744a1.516,1.516,0,1,0,1.865,0h.249a.39.39,0,1,0,0-.779h-8.4a.591.591,0,0,1,0-1.182H15.82A1.807,1.807,0,0,0,17.581,10.2l1.149-4.769a.39.39,0,0,0-.379-.481H14.488a8.562,8.562,0,0,0-.966-1.508,7.772,7.772,0,0,1,2.289-1.675l-.206.389a.39.39,0,1,0,.688.365L17,1.2a.39.39,0,0,0-.249-.56L15.291.27a.39.39,0,1,0-.19.756l.3.074A8.52,8.52,0,0,0,13,2.848a8.521,8.521,0,0,0-2.4-1.748l.3-.074a.39.39,0,1,0-.19-.756L9.259.635a.39.39,0,0,0-.249.56l.7,1.326a.39.39,0,0,0,.688-.365l-.206-.389a7.772,7.772,0,0,1,2.289,1.675,8.562,8.562,0,0,0-.966,1.508H7.955L7.506,3.2a.39.39,0,0,0-.377-.293H5.016a.39.39,0,1,0,0,.779Zm11.193,11.79a.737.737,0,1,1,.737-.737A.738.738,0,0,1,16.209,15.479Zm-6.609,0a.737.737,0,1,1,.737-.737.738.738,0,0,1-.737.737ZM13,4.051a7.874,7.874,0,0,1,.6.9H12.406a7.887,7.887,0,0,1,.6-.9ZM11.175,5.729a8.456,8.456,0,0,0-.473,1.83.39.39,0,1,0,.771.109,7.6,7.6,0,0,1,.546-1.939h1.968a7.6,7.6,0,0,1,.546,1.939.39.39,0,0,0,.771-.109,8.459,8.459,0,0,0-.473-1.83h3.027l-1.033,4.288a1.017,1.017,0,0,1-1,.791H9.46l-1.3-5.079Z" transform="translate(240.316 279.742)" fill="#fff"/>
  </g>
</svg>
