<svg xmlns="http://www.w3.org/2000/svg" xmlns:xlink="http://www.w3.org/1999/xlink" width="16" height="16" viewBox="0 0 16 16">
  <defs>
    <clipPath id="clip-path">
      <rect id="Rectangle_5054" data-name="Rectangle 5054" width="16" height="16" transform="translate(44 280)" fill="#fff" stroke="#707070" stroke-width="1"/>
    </clipPath>
  </defs>
  <g id="Mask_Group_454" data-name="Mask Group 454" transform="translate(-44 -280)" clip-path="url(#clip-path)">
    <g id="coupon_4_" data-name="coupon (4)" transform="translate(43.864 279.864)">
      <path id="Path_5560" data-name="Path 5560" d="M11.564,8.526a1.238,1.238,0,0,0,0,2.475,1.238,1.238,0,0,0,0-2.475Zm-.426,1.239a.424.424,0,0,1,.848,0A.424.424,0,0,1,11.138,9.765Z" fill="#fff"/>
      <path id="Path_5561" data-name="Path 5561" d="M8.309,7.746a1.238,1.238,0,0,0,0-2.475A1.238,1.238,0,0,0,8.309,7.746Zm0-1.661a.424.424,0,0,1,0,.848A.424.424,0,0,1,8.309,6.084Z" fill="#fff"/>
      <path id="Path_5562" data-name="Path 5562" d="M12.578,5.5A.408.408,0,0,0,12,5.5L7.287,10.188a.407.407,0,1,0,.574.577l4.714-4.69A.407.407,0,0,0,12.578,5.5Z" fill="#fff"/>
      <path id="Path_5563" data-name="Path 5563" d="M4.8,5.715a.407.407,0,0,0-.407.407V7.165a.407.407,0,1,0,.814,0V6.122A.407.407,0,0,0,4.8,5.715Z" fill="#fff"/>
      <path id="Path_5564" data-name="Path 5564" d="M4.8,8.7a.407.407,0,0,0-.407.407v1.042a.407.407,0,1,0,.814,0V9.107A.407.407,0,0,0,4.8,8.7Z" fill="#fff"/>
      <path id="Path_5565" data-name="Path 5565" d="M15.392,6.792a1.41,1.41,0,0,0,.744-1.247V4.149A1.421,1.421,0,0,0,14.716,2.73H1.555A1.421,1.421,0,0,0,.136,4.149V5.543A1.41,1.41,0,0,0,.879,6.79,1.525,1.525,0,0,1,1.5,8.855a1.527,1.527,0,0,1-.625.625,1.41,1.41,0,0,0-.744,1.249v1.394a1.421,1.421,0,0,0,1.419,1.419H14.716a1.421,1.421,0,0,0,1.419-1.419V10.728a1.41,1.41,0,0,0-.744-1.247,1.534,1.534,0,0,1,0-2.689Zm-1.34,2.447a2.336,2.336,0,0,0,.957.957.6.6,0,0,1,.313.53V12.12a.606.606,0,0,1-.606.606H5.207c-.022-.353.14-1.027-.407-1.041-.547.013-.385.691-.407,1.043H1.555a.606.606,0,0,1-.606-.606V10.728a.6.6,0,0,1,.313-.53,2.338,2.338,0,0,0,0-4.122.6.6,0,0,1-.313-.53v-1.4a.606.606,0,0,1,.606-.606H4.393c.022.353-.141,1.029.407,1.043.547-.013.385-.691.407-1.043h9.509a.606.606,0,0,1,.606.606V5.543a.6.6,0,0,1-.313.53A2.338,2.338,0,0,0,14.052,9.239Z" fill="#fff"/>
    </g>
  </g>
</svg>
