<svg xmlns="http://www.w3.org/2000/svg" xmlns:xlink="http://www.w3.org/1999/xlink" width="16" height="16" viewBox="0 0 16 16">
  <defs>
    <clipPath id="clip-path">
      <rect id="Rectangle_5030" data-name="Rectangle 5030" width="16" height="16" transform="translate(185 57)" fill="#fff" stroke="#707070" stroke-width="1"/>
    </clipPath>
  </defs>
  <g id="Mask_Group_445" data-name="Mask Group 445" transform="translate(-185 -57)" clip-path="url(#clip-path)">
    <g id="product-management_1_" data-name="product-management (1)" transform="translate(184.693 59.882)">
      <g id="Group_13966" data-name="Group 13966" transform="translate(6.629 0.462)">
        <path id="Path_5507" data-name="Path 5507" d="M14.878,9.773H6.4a.6.6,0,0,1-.6-.6V8.288h.522v.886a.078.078,0,0,0,.077.077h8.479a.078.078,0,0,0,.077-.077V1.062a.078.078,0,0,0-.077-.077H6.4a.078.078,0,0,0-.077.077V2.068H5.8V1.062a.6.6,0,0,1,.6-.6h8.479a.6.6,0,0,1,.6.6V9.174A.6.6,0,0,1,14.878,9.773Z" transform="translate(-5.8 -0.462)" fill="#fff" stroke="#fff" stroke-width="0.2"/>
        <path id="Path_5508" data-name="Path 5508" d="M11.284,3.908H9.1a.352.352,0,0,1-.352-.352V.689h.522v2.7h1.842V.689h.522V3.556a.352.352,0,0,1-.352.352Z" transform="translate(-5.355 -0.428)" fill="#fff" stroke="#fff" stroke-width="0.2"/>
        <path id="Path_5509" data-name="Path 5509" d="M11.25,6.46H9.036a.261.261,0,0,1,0-.522H11.25a.261.261,0,0,1,0,.522Z" transform="translate(-5.351 0.364)" fill="#fff" stroke="#fff" stroke-width="0.2"/>
      </g>
      <path id="Path_5510" data-name="Path 5510" d="M5.26,9.757H4.545a.632.632,0,0,1-.6-.551L3.8,8.574a3.559,3.559,0,0,1-.528-.219L2.723,8.7a.634.634,0,0,1-.816-.035L1.4,8.158a.631.631,0,0,1-.036-.816l.345-.548a3.6,3.6,0,0,1-.219-.528L.858,6.123a.632.632,0,0,1-.552-.6V4.8a.632.632,0,0,1,.552-.6l.632-.144a3.524,3.524,0,0,1,.219-.528l-.345-.548A.632.632,0,0,1,1.4,2.164l.5-.505a.636.636,0,0,1,.816-.037l.55.346A3.6,3.6,0,0,1,3.8,1.749l.144-.631a.632.632,0,0,1,.6-.552H5.26a.632.632,0,0,1,.6.552l.144.631a3.6,3.6,0,0,1,.528.219l.548-.346a.637.637,0,0,1,.816.036l.506.507a.632.632,0,0,1,.036.817L8.1,3.53a3.575,3.575,0,0,1,.219.528l.631.144a.632.632,0,0,1,.552.6v.715a.632.632,0,0,1-.552.6l-.632.144a3.554,3.554,0,0,1-.219.528l.345.549a.631.631,0,0,1-.037.817l-.5.505a.634.634,0,0,1-.817.036l-.548-.345a3.525,3.525,0,0,1-.528.219l-.144.632a.632.632,0,0,1-.6.551Zm-2-1.965a.261.261,0,0,1,.129.034,3.032,3.032,0,0,0,.7.29.261.261,0,0,1,.185.194l.178.781c0,.006.034.144.094.144H5.26c.061,0,.093-.139.094-.144l.178-.781a.261.261,0,0,1,.186-.194,3,3,0,0,0,.7-.289.261.261,0,0,1,.268.006l.677.426c.005,0,.127.079.171.036l.5-.505C8.078,7.747,8,7.626,8,7.621l-.426-.677a.261.261,0,0,1-.006-.268,3.027,3.027,0,0,0,.289-.7.261.261,0,0,1,.194-.186l.781-.178c.006,0,.146-.034.146-.094V4.8c0-.048-.1-.082-.145-.093l-.78-.178a.261.261,0,0,1-.194-.185,3.052,3.052,0,0,0-.29-.7.261.261,0,0,1,.006-.268L8,2.7c.028-.044.071-.136.037-.169L7.53,2.028c-.042-.042-.165.034-.171.037l-.676.426a.261.261,0,0,1-.268.006,3.077,3.077,0,0,0-.7-.29.261.261,0,0,1-.185-.194l-.178-.78c0-.006-.034-.146-.094-.146H4.545c-.061,0-.093.139-.094.145l-.178.78a.261.261,0,0,1-.185.194,3.078,3.078,0,0,0-.7.29.261.261,0,0,1-.268-.006l-.677-.427s-.127-.078-.17-.036l-.5.505c-.035.035.008.126.036.17l.426.677a.261.261,0,0,1,.006.268,3,3,0,0,0-.289.7.261.261,0,0,1-.194.186l-.781.178c-.051.011-.146.046-.146.093V5.52c0,.061.139.093.145.094l.78.178a.261.261,0,0,1,.194.185,3.079,3.079,0,0,0,.29.7.261.261,0,0,1-.006.268l-.426.677c0,.005-.079.127-.037.168l.506.507c.043.042.164-.033.17-.036l.677-.427a.261.261,0,0,1,.139-.04Z" transform="translate(0 0.016)" fill="#fff" stroke="#fff" stroke-width="0.2"/>
      <path id="Path_5511" data-name="Path 5511" d="M4.567,6.863A2.037,2.037,0,1,1,6.6,4.827,2.039,2.039,0,0,1,4.567,6.863Zm0-3.551A1.515,1.515,0,1,0,6.081,4.827,1.517,1.517,0,0,0,4.567,3.312Z" transform="translate(0.336 0.351)" fill="#fff" stroke="#fff" stroke-width="0.2"/>
    </g>
  </g>
</svg>
