<svg xmlns="http://www.w3.org/2000/svg" xmlns:xlink="http://www.w3.org/1999/xlink" width="17" height="17" viewBox="0 0 17 17">
  <defs>
    <clipPath id="clip-path">
      <rect id="Rectangle_3900" data-name="Rectangle 3900" width="17" height="17" transform="translate(24 270)" fill="#fff" stroke="#fff" stroke-width="1"/>
    </clipPath>
  </defs>
  <g id="Mask_Group_501" data-name="Mask Group 501" transform="translate(-24 -270)" clip-path="url(#clip-path)">
    <path id="briefcase_5_" data-name="briefcase (5)" d="M16.277,4.015H12.323V3.053a1.266,1.266,0,0,0-1.266-1.266H7.028A1.266,1.266,0,0,0,5.762,3.053v.962H1.809A1.266,1.266,0,0,0,.543,5.281v9.751A1.266,1.266,0,0,0,1.809,16.3H16.277a1.266,1.266,0,0,0,1.266-1.266V5.281a1.266,1.266,0,0,0-1.266-1.266ZM6.485,3.053a.543.543,0,0,1,.543-.543h4.029a.543.543,0,0,1,.543.543v.962H6.485ZM1.266,5.281a.543.543,0,0,1,.543-.543H16.277a.543.543,0,0,1,.543.543v2.3a2.376,2.376,0,0,1-2.373,2.373H10.527V8.84a.362.362,0,0,0-.362-.362H7.919a.362.362,0,0,0-.362.362V9.958H3.639A2.376,2.376,0,0,1,1.266,7.585ZM9.8,9.2v2.235H8.281V9.2Zm7.015,5.831a.543.543,0,0,1-.543.543H1.809a.543.543,0,0,1-.543-.543V9.571a3.091,3.091,0,0,0,2.373,1.11H7.558V11.8a.362.362,0,0,0,.362.362h2.246a.362.362,0,0,0,.362-.362V10.681h3.919a3.091,3.091,0,0,0,2.373-1.11Z" transform="translate(23.457 269.458)" fill="#fff" stroke="#fff" stroke-width="0.181"/>
  </g>
</svg>
