<svg xmlns="http://www.w3.org/2000/svg" xmlns:xlink="http://www.w3.org/1999/xlink" width="20" height="20" viewBox="0 0 20 20">
  <defs>
    <clipPath id="clip-path">
      <rect id="Rectangle_3773" data-name="Rectangle 3773" width="20" height="20" transform="translate(24 319)" fill="#191919" stroke="#707070" stroke-width="1"/>
    </clipPath>
  </defs>
  <g id="Mask_Group_116" data-name="Mask Group 116" transform="translate(-24 -319)" clip-path="url(#clip-path)">
    <g id="like_1_" data-name="like (1)" transform="translate(24 320.165)">
      <g id="Group_3522" data-name="Group 3522" transform="translate(0 0)">
        <path id="Path_3114" data-name="Path 3114" d="M18.541,2.726a5.037,5.037,0,0,0-8.043.579,7.669,7.669,0,0,0-.5.807,7.662,7.662,0,0,0-.5-.807,5.037,5.037,0,0,0-8.043-.579A6.062,6.062,0,0,0,0,6.753a7.424,7.424,0,0,0,2.045,4.871,45.521,45.521,0,0,0,5.117,4.781c.774.66,1.574,1.342,2.426,2.087l.026.022a.586.586,0,0,0,.772,0l.026-.022c.852-.746,1.652-1.428,2.426-2.087a45.515,45.515,0,0,0,5.117-4.781A7.424,7.424,0,0,0,20,6.753,6.062,6.062,0,0,0,18.541,2.726ZM12.078,15.513c-.667.569-1.354,1.154-2.078,1.783-.724-.629-1.411-1.214-2.078-1.783-4.065-3.464-6.75-5.752-6.75-8.76A4.893,4.893,0,0,1,2.338,3.5,3.911,3.911,0,0,1,5.313,2.163a3.95,3.95,0,0,1,3.233,1.82,6.947,6.947,0,0,1,.9,1.784.586.586,0,0,0,1.114,0,6.947,6.947,0,0,1,.9-1.784A3.867,3.867,0,0,1,17.662,3.5a4.892,4.892,0,0,1,1.167,3.252C18.828,9.761,16.143,12.049,12.078,15.513Z" transform="translate(0 -0.991)" fill="#191919"/>
      </g>
    </g>
  </g>
</svg>
