<svg xmlns="http://www.w3.org/2000/svg" xmlns:xlink="http://www.w3.org/1999/xlink" width="17" height="17" viewBox="0 0 17 17">
  <defs>
    <clipPath id="clip-path">
      <rect id="Rectangle_3902" data-name="Rectangle 3902" width="17" height="17" transform="translate(24 319)" fill="#fff" stroke="#707070" stroke-width="1"/>
    </clipPath>
  </defs>
  <g id="Mask_Group_503" data-name="Mask Group 503" transform="translate(-24 -319)" clip-path="url(#clip-path)">
    <g id="like_1_" data-name="like (1)" transform="translate(24 319)">
      <g id="Group_3608" data-name="Group 3608">
        <path id="Path_12429" data-name="Path 12429" d="M15.76,2.466a4.282,4.282,0,0,0-6.836.492,6.518,6.518,0,0,0-.423.686,6.513,6.513,0,0,0-.423-.686A4.282,4.282,0,0,0,1.24,2.466,5.153,5.153,0,0,0,0,5.889a6.31,6.31,0,0,0,1.738,4.14,38.693,38.693,0,0,0,4.35,4.064c.658.561,1.338,1.14,2.062,1.774l.022.019a.5.5,0,0,0,.656,0l.022-.019c.724-.634,1.4-1.213,2.063-1.774a38.688,38.688,0,0,0,4.35-4.064A6.31,6.31,0,0,0,17,5.889,5.153,5.153,0,0,0,15.76,2.466ZM10.266,13.335c-.567.483-1.151.981-1.766,1.516-.615-.535-1.2-1.032-1.766-1.516C3.279,10.391,1,8.445,1,5.889a4.159,4.159,0,0,1,.992-2.764A3.325,3.325,0,0,1,4.516,1.987,3.358,3.358,0,0,1,7.264,3.534,5.9,5.9,0,0,1,8.026,5.05a.5.5,0,0,0,.947,0,5.905,5.905,0,0,1,.762-1.516,3.287,3.287,0,0,1,5.276-.409A4.159,4.159,0,0,1,16,5.889C16,8.445,13.721,10.391,10.266,13.335Z" fill="#fff"/>
      </g>
    </g>
  </g>
</svg>
