<svg xmlns="http://www.w3.org/2000/svg" xmlns:xlink="http://www.w3.org/1999/xlink" width="20" height="20" viewBox="0 0 20 20">
  <defs>
    <clipPath id="clip-path">
      <rect id="Rectangle_3896" data-name="Rectangle 3896" width="20" height="20" transform="translate(24 221)" fill="#191919" stroke="#707070" stroke-width="1"/>
    </clipPath>
  </defs>
  <g id="Mask_Group_498" data-name="Mask Group 498" transform="translate(-24 -221)" clip-path="url(#clip-path)">
    <g id="logistic" transform="translate(24.001 222.68)">
      <path id="Path_12420" data-name="Path 12420" d="M20.116,3.594a.475.475,0,0,0-.345-.318L12.592,1.584a.474.474,0,0,0-.468.151L10.149,4,8.214,1.735a.472.472,0,0,0-.47-.154L.507,3.266a.479.479,0,0,0-.248.781l2.1,2.35L.292,8.76a.478.478,0,0,0,.046.673,17.735,17.735,0,0,0,2.1.553v5.092a.476.476,0,0,0,.312.445l7.219,2.655a.524.524,0,0,0,.333,0l7.238-2.732a.478.478,0,0,0,.309-.445V9.963l1.79-.426A.476.476,0,0,0,20,8.964c.132-.026-2.049-2.486-2.068-2.557l2.091-2.35a.473.473,0,0,0,.1-.462ZM1.5,4.012,7.678,2.575l1.6,1.864L3.16,5.869Zm.025,4.78L3.162,6.928,9.255,8.385,7.6,10.224Zm8.133,8.257-6.268-2.3V10.211l4.26,1.006a.478.478,0,0,0,.463-.145L9.668,9.35Zm.483-9.431L5.063,6.4l5.082-1.189L15.228,6.4Zm6.755,7.05-6.285,2.374.005-7.637,1.419,1.673a.491.491,0,0,0,.474.155L16.9,10.19Zm1.773-5.879-6.1,1.45L11.008,8.391,17.119,6.93ZM17.13,5.866l-6.1-1.426,1.627-1.866,6.123,1.443Z" transform="translate(-0.14 -1.568)" fill="#191919"/>
    </g>
  </g>
</svg>
