<svg xmlns="http://www.w3.org/2000/svg" xmlns:xlink="http://www.w3.org/1999/xlink" width="17" height="17" viewBox="0 0 17 17">
  <defs>
    <clipPath id="clip-path">
      <rect id="Rectangle_3772" data-name="Rectangle 3772" width="17" height="17" transform="translate(24 221)" fill="#fff" stroke="#707070" stroke-width="1"/>
    </clipPath>
  </defs>
  <g id="Mask_Group_114" data-name="Mask Group 114" transform="translate(-24 -221)" clip-path="url(#clip-path)">
    <g id="logistic" transform="translate(23.861 220.86)">
      <path id="Path_3113" data-name="Path 3113" d="M17.119,3.29a.4.4,0,0,0-.293-.27l-6.1-1.439a.4.4,0,0,0-.4.128L8.647,3.632,7,1.71a.4.4,0,0,0-.4-.131L.452,3.011a.407.407,0,0,0-.211.664l1.782,2L.269,7.681a.406.406,0,0,0,.039.572,15.075,15.075,0,0,0,1.789.47v4.328a.4.4,0,0,0,.265.378L8.5,15.687a.445.445,0,0,0,.283,0l6.153-2.322a.406.406,0,0,0,.262-.378V8.7l1.521-.362a.4.4,0,0,0,.3-.487c.112-.022-1.742-2.113-1.758-2.173l1.778-2a.4.4,0,0,0,.082-.393ZM1.3,3.645,6.547,2.424,7.9,4.008l-5.2,1.215Zm.021,4.063L2.709,6.124,7.887,7.363,6.479,8.926Zm6.913,7.019L2.906,12.769V8.914l3.621.855a.406.406,0,0,0,.394-.123L8.238,8.183Zm.41-8.016L4.325,5.677l4.32-1.01,4.32,1.01ZM14.387,12.7,9.044,14.721l0-6.491,1.206,1.422a.418.418,0,0,0,.4.132L14.387,8.9Zm1.507-5L10.71,8.938,9.378,7.367l5.194-1.242ZM14.582,5.222,9.395,4.01l1.383-1.586,5.2,1.226Z" fill="#fff"/>
    </g>
  </g>
</svg>
