<svg xmlns="http://www.w3.org/2000/svg" xmlns:xlink="http://www.w3.org/1999/xlink" width="20" height="20" viewBox="0 0 20 20">
  <defs>
    <clipPath id="clip-path">
      <rect id="Rectangle_3771" data-name="Rectangle 3771" width="20" height="20" transform="translate(24 270)" fill="#191919" stroke="#191919" stroke-width="1"/>
    </clipPath>
  </defs>
  <g id="Mask_Group_115" data-name="Mask Group 115" transform="translate(-24 -270)" clip-path="url(#clip-path)">
    <path id="briefcase_5_" data-name="briefcase (5)" d="M19.053,4.408H14.4V3.276a1.489,1.489,0,0,0-1.489-1.489H8.172A1.489,1.489,0,0,0,6.683,3.276V4.408H2.032A1.489,1.489,0,0,0,.543,5.9V17.37a1.489,1.489,0,0,0,1.489,1.489H19.053a1.489,1.489,0,0,0,1.489-1.489V5.9a1.489,1.489,0,0,0-1.489-1.489ZM7.534,3.276a.638.638,0,0,1,.638-.638h4.74a.638.638,0,0,1,.638.638V4.408H7.534ZM1.394,5.9a.638.638,0,0,1,.638-.638H19.053a.638.638,0,0,1,.638.638V8.608A2.8,2.8,0,0,1,16.9,11.4H12.289V10.085a.426.426,0,0,0-.426-.426H9.221a.426.426,0,0,0-.426.426V11.4H4.185A2.8,2.8,0,0,1,1.394,8.608ZM11.438,10.51v2.63H9.647V10.51Zm8.253,6.86a.638.638,0,0,1-.638.638H2.032a.638.638,0,0,1-.638-.638V10.944a3.636,3.636,0,0,0,2.791,1.306H8.8v1.315a.426.426,0,0,0,.426.426h2.643a.426.426,0,0,0,.426-.426V12.251H16.9a3.636,3.636,0,0,0,2.791-1.306Z" transform="translate(23.457 269.677)" fill="#191919" stroke="#191919" stroke-width="0.181"/>
  </g>
</svg>
