<svg xmlns="http://www.w3.org/2000/svg" xmlns:xlink="http://www.w3.org/1999/xlink" width="17" height="17" viewBox="0 0 17 17">
  <defs>
    <clipPath id="clip-path">
      <rect id="Rectangle_3899" data-name="Rectangle 3899" width="17" height="17" transform="translate(24 172)" fill="#fff" stroke="#000" stroke-width="0.3"/>
    </clipPath>
  </defs>
  <g id="Mask_Group_500" data-name="Mask Group 500" transform="translate(-24 -172)" clip-path="url(#clip-path)">
    <g id="lists" transform="translate(22.785 170.786)">
      <path id="Path_12421" data-name="Path 12421" d="M13.964,18.214A3.039,3.039,0,0,0,17,15.179V4.25a3.039,3.039,0,0,0-3.036-3.036h-8.5A3.039,3.039,0,0,0,2.429,4.25V15.179a3.039,3.039,0,0,0,3.036,3.036ZM3.643,4.25A1.823,1.823,0,0,1,5.464,2.429h8.5A1.823,1.823,0,0,1,15.786,4.25V15.179A1.823,1.823,0,0,1,13.964,17h-8.5a1.823,1.823,0,0,1-1.821-1.821Z" fill="#fff" stroke="#000" stroke-width="0.3"/>
      <path id="Path_12422" data-name="Path 12422" d="M8.5,10.321h4.857a.607.607,0,0,0,0-1.214H8.5a.607.607,0,1,0,0,1.214Z" fill="#fff" stroke="#000" stroke-width="0.3"/>
      <path id="Path_12423" data-name="Path 12423" d="M8.5,7.286h4.857a.607.607,0,0,0,0-1.214H8.5a.607.607,0,1,0,0,1.214Z" fill="#fff" stroke="#000" stroke-width="0.3"/>
      <path id="Path_12424" data-name="Path 12424" d="M8.5,13.357h4.857a.607.607,0,0,0,0-1.214H8.5a.607.607,0,1,0,0,1.214Z" fill="#fff" stroke="#000" stroke-width="0.3"/>
      <path id="Path_12425" data-name="Path 12425" d="M6.083,7.286a.607.607,0,1,0,0-1.214H6.077a.607.607,0,0,0,.006,1.214Z" fill="#fff" stroke="#000" stroke-width="0.3"/>
      <path id="Path_12426" data-name="Path 12426" d="M6.083,10.321a.607.607,0,1,0,0-1.214H6.077a.607.607,0,0,0,.006,1.214Z" fill="#fff" stroke="#000" stroke-width="0.3"/>
      <path id="Path_12427" data-name="Path 12427" d="M6.083,13.357a.607.607,0,1,0,0-1.214H6.077a.607.607,0,0,0,.006,1.214Z" fill="#fff" stroke="#000" stroke-width="0.3"/>
    </g>
  </g>
</svg>
