<svg xmlns="http://www.w3.org/2000/svg" xmlns:xlink="http://www.w3.org/1999/xlink" width="21" height="21" viewBox="0 0 21 21">
  <defs>
    <clipPath id="clip-path">
      <rect id="Rectangle_688" data-name="Rectangle 688" width="21" height="21" transform="translate(28 477)" fill="#4f5f6d" stroke="#4f5f6d" stroke-width="0.2"/>
    </clipPath>
  </defs>
  <g id="Mask_Group_80" data-name="Mask Group 80" transform="translate(-28 -477)" clip-path="url(#clip-path)">
    <g id="Layer_x0020_1" transform="translate(26.606 475.606)">
      <g id="_486778328">
        <g id="Group_928" data-name="Group 928">
          <path id="_486777776" d="M11.905,19.553a.229.229,0,0,1-.227-.2c-.4-3.407-2.062-11.094-3.81-13.639a4.664,4.664,0,0,0-.82-.955,3.576,3.576,0,0,0,.172.74c1.454,4.655,1.715,8.493,1.948,13.817a.229.229,0,0,1-.458.02c-.231-5.288-.49-9.1-1.928-13.7C6.518,4.784,6.522,4.4,6.8,4.267c.315-.153.8.245,1.447,1.184a24.754,24.754,0,0,1,2.479,6.643,60.952,60.952,0,0,1,1.409,7.2.23.23,0,0,1-.2.255h-.027Z" fill="#4f5f6d" stroke="#4f5f6d" stroke-width="0.2" fill-rule="evenodd"/>
          <path id="_486777992" d="M14.873,19.553h-.01a.229.229,0,0,1-.219-.239c.233-5.326.494-9.166,1.947-13.817a3.641,3.641,0,0,0,.172-.74,4.666,4.666,0,0,0-.82.955c-1.748,2.545-3.41,10.232-3.81,13.639a.229.229,0,0,1-.456-.053,60.963,60.963,0,0,1,1.409-7.2,24.755,24.755,0,0,1,2.479-6.643c.645-.938,1.132-1.337,1.447-1.184.276.134.28.517.015,1.366-1.436,4.6-1.7,8.41-1.926,13.7a.23.23,0,0,1-.229.219Z" fill="#4f5f6d" stroke="#4f5f6d" stroke-width="0.2" fill-rule="evenodd"/>
          <path id="_486777848" d="M17.465,19.553h-.011a.229.229,0,0,1-.219-.239,30.931,30.931,0,0,1,2-8.277c.268-.79.521-1.535.751-2.273.04-.128.067-.228.085-.306a4.148,4.148,0,0,0-.411.515c-.17.247-.374.537-.59.843-1.352,1.915-3.614,5.119-3.848,7.112a.229.229,0,1,1-.456-.053c.248-2.109,2.463-5.246,3.928-7.323.216-.305.42-.594.587-.838.71-1.034,1-.894,1.1-.847.266.129.211.507.047,1.034-.232.743-.486,1.491-.754,2.283a30.588,30.588,0,0,0-1.972,8.15.229.229,0,0,1-.229.219Z" fill="#4f5f6d" stroke="#4f5f6d" stroke-width="0.2" fill-rule="evenodd"/>
          <path id="_486778400" d="M6.323,19.553a.23.23,0,0,1-.229-.219,30.59,30.59,0,0,0-1.972-8.15c-.268-.792-.522-1.54-.754-2.283-.165-.527-.22-.9.047-1.034.1-.046.384-.187,1.095.847.177.256.393.563.623.886,1.462,2.065,3.672,5.185,3.918,7.277a.229.229,0,1,1-.456.054c-.232-1.976-2.489-5.162-3.837-7.066-.23-.325-.448-.633-.626-.892a4.2,4.2,0,0,0-.41-.515c.018.078.044.179.084.306.231.737.483,1.483.751,2.273a30.931,30.931,0,0,1,2,8.277.229.229,0,0,1-.219.239h-.01Z" fill="#4f5f6d" stroke="#4f5f6d" stroke-width="0.2" fill-rule="evenodd"/>
        </g>
        <path id="_486777920" d="M19.573,19.553h-.01a.229.229,0,0,1-.219-.239,9.035,9.035,0,0,1,1.412-3.792,15.17,15.17,0,0,0,1.017-2.086c-1.044.95-4.031,4.4-4.078,5.88a.229.229,0,0,1-.458-.015c.059-1.814,3.507-5.553,4.242-6.217.068-.062.138-.132.2-.2.214-.217.383-.388.581-.268s.121.418.033.7a13.743,13.743,0,0,1-1.14,2.426A8.71,8.71,0,0,0,19.8,19.333.23.23,0,0,1,19.573,19.553Z" fill="#4f5f6d" stroke="#4f5f6d" stroke-width="0.2" fill-rule="evenodd"/>
        <path id="_486777800" d="M4.215,19.553a.229.229,0,0,1-.229-.219A8.71,8.71,0,0,0,2.63,15.742a13.78,13.78,0,0,1-1.14-2.426c-.088-.282-.179-.573.033-.7s.367.052.581.268c.067.068.137.138.205.2.735.664,4.183,4.407,4.243,6.232a.229.229,0,0,1-.459.015c-.048-1.485-3.035-4.945-4.079-5.9a15.183,15.183,0,0,0,1.018,2.086,9.033,9.033,0,0,1,1.411,3.792.229.229,0,0,1-.219.239h-.01Z" fill="#4f5f6d" stroke="#4f5f6d" stroke-width="0.2" fill-rule="evenodd"/>
        <path id="_486778064" d="M19.573,19.553H4.215a.229.229,0,1,1,0-.458H19.573a.229.229,0,1,1,0,.458Z" fill="#4f5f6d" stroke="#4f5f6d" stroke-width="0.2" fill-rule="evenodd"/>
      </g>
    </g>
  </g>
</svg>
