<svg xmlns="http://www.w3.org/2000/svg" xmlns:xlink="http://www.w3.org/1999/xlink" width="21" height="21" viewBox="0 0 21 21">
  <defs>
    <clipPath id="clip-path">
      <rect id="Rectangle_672" data-name="Rectangle 672" width="21" height="21" transform="translate(28 181)" fill="#4f5f6d" stroke="#4f5f6e" stroke-width="0.2"/>
    </clipPath>
  </defs>
  <g id="Mask_Group_72" data-name="Mask Group 72" transform="translate(-28 -181)" clip-path="url(#clip-path)">
    <g id="shirt-design" transform="translate(25.881 178.882)">
      <path id="Path_2959" data-name="Path 2959" d="M12.664,21.932H6.612a.4.4,0,0,1-.4-.4V10.474L4.92,10.69a.4.4,0,0,1-.342-.1L2.249,8.42a.4.4,0,0,1,.015-.606c.016-.014,1.666-1.4,3.621-3.054A6.009,6.009,0,0,1,10.4,3.34a.4.4,0,0,1,.341.429,2.013,2.013,0,0,0,.472,1.394,1.747,1.747,0,0,0,1.421.392.4.4,0,1,1,.062.806,2.506,2.506,0,0,1-2.057-.628,2.619,2.619,0,0,1-.7-1.615,5.126,5.126,0,0,0-.929.065,5.266,5.266,0,0,0-2.607,1.2c-1.423,1.2-2.685,2.268-3.273,2.761L4.981,9.862,6.544,9.6a.4.4,0,0,1,.472.4V21.124h5.648a.4.4,0,1,1,0,.808Z" fill="#4f5f6d" stroke="#4f5f6e" stroke-width="0.2"/>
      <path id="Path_2960" data-name="Path 2960" d="M18.626,21.932H12.574a.4.4,0,1,1,0-.808h5.648V10a.4.4,0,0,1,.471-.4l1.563.262L22.1,8.141c-.587-.493-1.848-1.556-3.273-2.763a5.266,5.266,0,0,0-2.607-1.2,5.149,5.149,0,0,0-.929-.065,2.607,2.607,0,0,1-.7,1.615,2.5,2.5,0,0,1-2.056.629.4.4,0,0,1,.063-.805,1.742,1.742,0,0,0,1.424-.4,2.02,2.02,0,0,0,.469-1.39.4.4,0,0,1,.341-.429,6.008,6.008,0,0,1,4.513,1.421c1.955,1.656,3.6,3.04,3.621,3.054a.4.4,0,0,1,.015.606l-2.328,2.168a.4.4,0,0,1-.342.1l-1.291-.218V21.528A.4.4,0,0,1,18.626,21.932Z" fill="#4f5f6d" stroke="#4f5f6e" stroke-width="0.2"/>
    </g>
  </g>
</svg>
