<svg xmlns="http://www.w3.org/2000/svg" xmlns:xlink="http://www.w3.org/1999/xlink" width="21" height="21" viewBox="0 0 21 21">
  <defs>
    <clipPath id="clip-path">
      <rect id="Rectangle_44" data-name="Rectangle 44" width="21" height="21" transform="translate(28 144)" fill="#4f5f6d" stroke="#4f5f6d" stroke-width="0.2"/>
    </clipPath>
  </defs>
  <g id="Mask_Group_71" data-name="Mask Group 71" transform="translate(-28 -144)" clip-path="url(#clip-path)">
    <g id="Layer_x0020_1" transform="translate(27.999 143.999)">
      <path id="Path_2958" data-name="Path 2958" d="M11.656,16.789H9.346a10.269,10.269,0,0,1-9.33-6.311A.249.249,0,0,1,.2,10.15a8.706,8.706,0,0,1,2.054-.092A8.582,8.582,0,0,1,1.77,7.919a.249.249,0,0,1,.268-.268,8.535,8.535,0,0,1,1.973.431,8.591,8.591,0,0,1,.1-2.039.249.249,0,0,1,.328-.189A8.646,8.646,0,0,1,6.508,6.977a8.618,8.618,0,0,1,.67-2.238.249.249,0,0,1,.366-.1A8.584,8.584,0,0,1,9.153,6.135,8.621,8.621,0,0,1,10.311,4.3a.248.248,0,0,1,.379,0,8.627,8.627,0,0,1,1.171,1.86,8.575,8.575,0,0,1,1.59-1.472.249.249,0,0,1,.366.1,8.606,8.606,0,0,1,.663,2.2,8.651,8.651,0,0,1,2.085-1.133.249.249,0,0,1,.328.189A8.619,8.619,0,0,1,16.981,8.2a8.522,8.522,0,0,1,1.928-.415.248.248,0,0,1,.268.268,8.55,8.55,0,0,1-.443,2.008,8.707,8.707,0,0,1,2.062.092.249.249,0,0,1,.189.328,10.269,10.269,0,0,1-9.33,6.311ZM9.456,6.663a.247.247,0,0,1-.013.039A9.83,9.83,0,0,0,10.5,16.139a9.755,9.755,0,0,0,0-11.286,8.3,8.3,0,0,0-1.045,1.81Zm.363,9.371a10.032,10.032,0,0,1-1.6-5.838q.011-.4.049-.785h0A9.122,9.122,0,0,0,4.547,6.426a8.263,8.263,0,0,0-.016,1.954.246.246,0,0,1,.008.039,9.914,9.914,0,0,0,5.28,7.614ZM8.355,8.727a9.994,9.994,0,0,1,.576-2.084A8.279,8.279,0,0,0,7.5,5.223a8.316,8.316,0,0,0-.548,2.1,10.111,10.111,0,0,1,1.4,1.406ZM12.08,6.67a10,10,0,0,1,.566,2.057,10.115,10.115,0,0,1,1.388-1.4,8.308,8.308,0,0,0-.543-2.059,8.274,8.274,0,0,0-1.411,1.4Zm.656,2.741a10.179,10.179,0,0,1-1.554,6.622,9.785,9.785,0,0,0,5.272-9.607A9.121,9.121,0,0,0,12.736,9.411ZM16.92,8.74a9.9,9.9,0,0,1-.417,1.751,9.855,9.855,0,0,1,1.687-.378,8.24,8.24,0,0,0,.462-1.807,8.209,8.209,0,0,0-1.732.434Zm-.636,2.345A10.334,10.334,0,0,1,11.751,16.3a9.826,9.826,0,0,0,8.661-5.706A8.878,8.878,0,0,0,16.284,11.085ZM9.25,16.3a10.334,10.334,0,0,1-4.533-5.211A8.877,8.877,0,0,0,.589,10.59,9.826,9.826,0,0,0,9.25,16.3ZM4.5,10.492a9.866,9.866,0,0,1-.433-1.869,8.228,8.228,0,0,0-1.771-.448,8.275,8.275,0,0,0,.512,1.938A9.853,9.853,0,0,1,4.5,10.492Z" fill="#4f5f6d" stroke="#4f5f6d" stroke-width="0.2" fill-rule="evenodd"/>
    </g>
  </g>
</svg>
