 <svg width="7" height="12" viewBox="0 0 7 12" fill="none" xmlns="http://www.w3.org/2000/svg">
                        <path d="M6.0498 1.60449C6.0498 1.76991 5.99261 1.93891 5.87891 2.06641L2.36621 6.00391L5.87891 9.93555L5.95313 10.0381C6.10168 10.2913 6.07695 10.6383 5.87891 10.8604L5.78613 10.9443C5.55475 11.1123 5.2329 11.0794 5.03516 10.8447L5.03418 10.8457L1.12109 6.45898C1.00379 6.32739 0.950195 6.16167 0.950195 5.99707C0.950258 5.87205 0.984272 5.7439 1.04785 5.63574L1.12109 5.53516L5.03906 1.14258C5.26829 0.885614 5.64961 0.885735 5.87891 1.14258L5.9541 1.24512C6.01811 1.35407 6.04975 1.48037 6.0498 1.60449Z" fill="black" stroke="black" stroke-width="0.1" />
                    </svg>