<svg width="6" height="10" viewBox="0 0 6 10" fill="none" xmlns="http://www.w3.org/2000/svg">
                            <path d="M0.950195 8.5166C0.950195 8.38204 0.996086 8.24366 1.08887 8.13965L3.89355 4.99707L1.08887 1.8584L1.02832 1.77441C0.90763 1.56832 0.927866 1.28627 1.08887 1.10547L1.16504 1.03613C1.35414 0.898847 1.61763 0.925779 1.7793 1.11719L1.78027 1.11621L4.91113 4.62598C5.00667 4.73324 5.04978 4.86823 5.0498 5.00195C5.0498 5.10351 5.02234 5.2078 4.9707 5.2959L4.91113 5.37793L1.77637 8.89258C1.58897 9.10265 1.27627 9.10265 1.08887 8.89258L1.02832 8.80859C0.976258 8.7199 0.95027 8.61741 0.950195 8.5166Z" fill="black" stroke="black" stroke-width="0.1" />
                          </svg>