<svg xmlns="http://www.w3.org/2000/svg" xmlns:xlink="http://www.w3.org/1999/xlink" width="21" height="21" viewBox="0 0 21 21">
  <defs>
    <clipPath id="clip-path">
      <rect id="Rectangle_675" data-name="Rectangle 675" width="21" height="21" transform="translate(28 218)" fill="#4f5f6d" stroke="#4f5f6d" stroke-width="0.2"/>
    </clipPath>
  </defs>
  <g id="Mask_Group_73" data-name="Mask Group 73" transform="translate(-28 -218)" clip-path="url(#clip-path)">
    <g id="Layer_1" transform="translate(24.472 214.444)">
      <g id="Group_922" data-name="Group 922">
        <g id="Group_921" data-name="Group 921">
          <g id="Group_910" data-name="Group 910">
            <path id="Path_2961" data-name="Path 2961" d="M13.539,17.586a.3.3,0,1,0-.3.3A.3.3,0,0,0,13.539,17.586Z" fill="#4f5f6d" stroke="#4f5f6d" stroke-width="0.2" fill-rule="evenodd"/>
          </g>
          <g id="Group_911" data-name="Group 911">
            <path id="Path_2962" data-name="Path 2962" d="M19.314,22.066a.3.3,0,1,0-.3.3A.3.3,0,0,0,19.314,22.066Z" fill="#4f5f6d" stroke="#4f5f6d" stroke-width="0.2" fill-rule="evenodd"/>
          </g>
          <g id="Group_912" data-name="Group 912">
            <path id="Path_2963" data-name="Path 2963" d="M10.514,22.276a.3.3,0,1,0-.3.3A.3.3,0,0,0,10.514,22.276Z" fill="#4f5f6d" stroke="#4f5f6d" stroke-width="0.2" fill-rule="evenodd"/>
          </g>
          <g id="Group_920" data-name="Group 920">
            <g id="Group_913" data-name="Group 913">
              <path id="Path_2964" data-name="Path 2964" d="M10.854,16.414c-.346,0-.674-.012-.974-.035a.328.328,0,1,1,.05-.654c.284.022.595.033.924.033a8.943,8.943,0,0,0,3.071-.471,9.613,9.613,0,0,1,3.263-.5c.167,0,.331,0,.488.008a.328.328,0,0,1-.022.656c-.15-.005-.306-.008-.465-.008a8.944,8.944,0,0,0-3.071.471,9.614,9.614,0,0,1-3.263.5Z" fill="#4f5f6d" stroke="#4f5f6d" stroke-width="0.2" fill-rule="evenodd"/>
            </g>
            <g id="Group_914" data-name="Group 914">
              <path id="Path_2965" data-name="Path 2965" d="M11.035,20.362a1.144,1.144,0,1,1,1.144-1.144A1.145,1.145,0,0,1,11.035,20.362Zm0-1.631a.487.487,0,1,0,.487.487.488.488,0,0,0-.487-.487Z" fill="#4f5f6d" stroke="#4f5f6d" stroke-width="0.2" fill-rule="evenodd"/>
            </g>
            <g id="Group_915" data-name="Group 915">
              <path id="Path_2966" data-name="Path 2966" d="M16.444,18.8a1.091,1.091,0,1,1,1.091-1.091A1.092,1.092,0,0,1,16.444,18.8Zm0-1.525a.434.434,0,1,0,.434.434A.435.435,0,0,0,16.444,17.279Z" fill="#4f5f6d" stroke="#4f5f6d" stroke-width="0.2" fill-rule="evenodd"/>
            </g>
            <g id="Group_916" data-name="Group 916">
              <path id="Path_2967" data-name="Path 2967" d="M14.892,22.9a1.192,1.192,0,1,1,1.192-1.192A1.193,1.193,0,0,1,14.892,22.9Zm0-1.728a.536.536,0,1,0,.536.536.536.536,0,0,0-.536-.536Z" fill="#4f5f6d" stroke="#4f5f6d" stroke-width="0.2" fill-rule="evenodd"/>
            </g>
            <g id="Group_919" data-name="Group 919">
              <g id="Group_917" data-name="Group 917">
                <path id="Path_2968" data-name="Path 2968" d="M16.186,5.622H11.871a1.033,1.033,0,1,1,0-2.066h4.315a1.033,1.033,0,1,1,0,2.066Zm-4.315-1.41a.377.377,0,0,0,0,.754h4.315a.377.377,0,1,0,0-.754Z" fill="#4f5f6d" stroke="#4f5f6d" stroke-width="0.2" fill-rule="evenodd"/>
              </g>
              <g id="Group_918" data-name="Group 918">
                <path id="Path_2969" data-name="Path 2969" d="M20.329,24.556H7.728a1.787,1.787,0,0,1-1.547-.794,1.238,1.238,0,0,1-.039-1.241l5.512-10.512V5.294a.328.328,0,1,1,.656,0v6.8a.328.328,0,0,1-.038.152L6.724,22.826a.582.582,0,0,0,.02.6,1.132,1.132,0,0,0,.985.477h12.6a1.132,1.132,0,0,0,.985-.477.582.582,0,0,0,.02-.6l-5.55-10.583a.328.328,0,0,1-.038-.152v-6.8a.328.328,0,0,1,.656,0v6.715l5.512,10.512a1.238,1.238,0,0,1-.039,1.241,1.787,1.787,0,0,1-1.547.794Z" fill="#4f5f6d" stroke="#4f5f6d" stroke-width="0.2" fill-rule="evenodd"/>
              </g>
            </g>
          </g>
        </g>
      </g>
    </g>
  </g>
</svg>
