<svg width="40" height="40" viewBox="0 0 40 40" fill="none" xmlns="http://www.w3.org/2000/svg">
<path d="M14.4938 33.125H23.75V30H2.5V33.125H8.00625C8.33449 32.555 8.80715 32.0815 9.37661 31.7523C9.94607 31.4231 10.5922 31.2498 11.25 31.2498C11.9078 31.2498 12.5539 31.4231 13.1234 31.7523C13.6929 32.0815 14.1655 32.555 14.4938 33.125Z" fill="#212121"/>
<path d="M3.75 34.375V35C3.75 35.1658 3.81585 35.3247 3.93306 35.4419C4.05027 35.5592 4.20924 35.625 4.375 35.625H7.55625C7.48124 35.2117 7.48124 34.7883 7.55625 34.375H3.75Z" fill="#212121"/>
<path d="M14.9438 34.375C15.0189 34.7883 15.0189 35.2117 14.9438 35.625H27.5563C27.4813 35.2117 27.4813 34.7883 27.5563 34.375H14.9438Z" fill="#212121"/>
<path d="M11.25 37.5C12.6307 37.5 13.75 36.3807 13.75 35C13.75 33.6193 12.6307 32.5 11.25 32.5C9.86929 32.5 8.75 33.6193 8.75 35C8.75 36.3807 9.86929 37.5 11.25 37.5Z" fill="#212121"/>
<path d="M34.4937 33.125H37.5V30.625C37.5 29.7962 37.1708 29.0013 36.5847 28.4153C35.9987 27.8292 35.2038 27.5 34.375 27.5H28.125C27.6282 27.4985 27.1521 27.3005 26.8008 26.9492C26.4495 26.5979 26.2515 26.1218 26.25 25.625V21.875H25V33.125H28.0063C28.3345 32.555 28.8071 32.0815 29.3766 31.7523C29.9461 31.4231 30.5922 31.2498 31.25 31.2498C31.9078 31.2498 32.5539 31.4231 33.1234 31.7523C33.6929 32.0815 34.1655 32.555 34.4937 33.125ZM29.375 29.375H28.125C27.9592 29.375 27.8003 29.3092 27.6831 29.1919C27.5658 29.0747 27.5 28.9158 27.5 28.75C27.5 28.5842 27.5658 28.4253 27.6831 28.3081C27.8003 28.1908 27.9592 28.125 28.125 28.125H29.375C29.5408 28.125 29.6997 28.1908 29.8169 28.3081C29.9342 28.4253 30 28.5842 30 28.75C30 28.9158 29.9342 29.0747 29.8169 29.1919C29.6997 29.3092 29.5408 29.375 29.375 29.375Z" fill="#212121"/>
<path d="M31.25 37.5C32.6307 37.5 33.75 36.3807 33.75 35C33.75 33.6193 32.6307 32.5 31.25 32.5C29.8693 32.5 28.75 33.6193 28.75 35C28.75 36.3807 29.8693 37.5 31.25 37.5Z" fill="#212121"/>
<path d="M36.8751 35.625C37.0409 35.625 37.1998 35.5592 37.317 35.4419C37.4343 35.3247 37.5001 35.1658 37.5001 35V34.375H34.9438C35.0189 34.7883 35.0189 35.2117 34.9438 35.625H36.8751Z" fill="#212121"/>
<path d="M18.75 19.375H18.125V24.375H18.75C19.2473 24.375 19.7242 24.1775 20.0758 23.8258C20.4275 23.4742 20.625 22.9973 20.625 22.5V21.25C20.625 20.7527 20.4275 20.2758 20.0758 19.9242C19.7242 19.5725 19.2473 19.375 18.75 19.375Z" fill="#212121"/>
<path d="M32.1625 26.25L31.0437 23.7313C30.7983 23.1787 30.3978 22.7092 29.8908 22.3797C29.3838 22.0503 28.7921 21.8749 28.1875 21.875H27.5V25.625C27.5 25.7908 27.5658 25.9497 27.6831 26.0669C27.8003 26.1842 27.9592 26.25 28.125 26.25H32.1625Z" fill="#212121"/>
<path d="M13.125 19.375C12.7935 19.375 12.4755 19.5067 12.2411 19.7411C12.0067 19.9755 11.875 20.2935 11.875 20.625V23.125C11.875 23.4565 12.0067 23.7745 12.2411 24.0089C12.4755 24.2433 12.7935 24.375 13.125 24.375C13.4565 24.375 13.7745 24.2433 14.0089 24.0089C14.2433 23.7745 14.375 23.4565 14.375 23.125V20.625C14.375 20.2935 14.2433 19.9755 14.0089 19.7411C13.7745 19.5067 13.4565 19.375 13.125 19.375Z" fill="#212121"/>
<path d="M23.75 13.75H2.5V28.75H23.75V13.75ZM6.25 24.375H7.5C7.66576 24.375 7.82473 24.3092 7.94194 24.1919C8.05915 24.0747 8.125 23.9158 8.125 23.75C8.125 23.5842 8.19085 23.4253 8.30806 23.3081C8.42527 23.1908 8.58424 23.125 8.75 23.125C8.91576 23.125 9.07473 23.1908 9.19194 23.3081C9.30915 23.4253 9.375 23.5842 9.375 23.75C9.375 24.2473 9.17746 24.7242 8.82583 25.0758C8.47419 25.4275 7.99728 25.625 7.5 25.625H6.25C5.75272 25.625 5.27581 25.4275 4.92417 25.0758C4.57254 24.7242 4.375 24.2473 4.375 23.75V20C4.375 19.5027 4.57254 19.0258 4.92417 18.6742C5.27581 18.3225 5.75272 18.125 6.25 18.125H7.5C7.99728 18.125 8.47419 18.3225 8.82583 18.6742C9.17746 19.0258 9.375 19.5027 9.375 20C9.375 20.1658 9.30915 20.3247 9.19194 20.4419C9.07473 20.5592 8.91576 20.625 8.75 20.625C8.58424 20.625 8.42527 20.5592 8.30806 20.4419C8.19085 20.3247 8.125 20.1658 8.125 20C8.125 19.8342 8.05915 19.6753 7.94194 19.5581C7.82473 19.4408 7.66576 19.375 7.5 19.375H6.25C6.08424 19.375 5.92527 19.4408 5.80806 19.5581C5.69085 19.6753 5.625 19.8342 5.625 20V23.75C5.625 23.9158 5.69085 24.0747 5.80806 24.1919C5.92527 24.3092 6.08424 24.375 6.25 24.375ZM15.625 23.125C15.625 23.788 15.3616 24.4239 14.8928 24.8928C14.4239 25.3616 13.788 25.625 13.125 25.625C12.462 25.625 11.8261 25.3616 11.3572 24.8928C10.8884 24.4239 10.625 23.788 10.625 23.125V20.625C10.625 19.962 10.8884 19.3261 11.3572 18.8572C11.8261 18.3884 12.462 18.125 13.125 18.125C13.788 18.125 14.4239 18.3884 14.8928 18.8572C15.3616 19.3261 15.625 19.962 15.625 20.625V23.125ZM21.875 22.5C21.874 23.3285 21.5444 24.1228 20.9586 24.7086C20.3728 25.2944 19.5785 25.624 18.75 25.625H17.5C17.3342 25.625 17.1753 25.5592 17.0581 25.4419C16.9408 25.3247 16.875 25.1658 16.875 25V18.75C16.875 18.5842 16.9408 18.4253 17.0581 18.3081C17.1753 18.1908 17.3342 18.125 17.5 18.125H18.75C19.5785 18.126 20.3728 18.4556 20.9586 19.0414C21.5444 19.6272 21.874 20.4215 21.875 21.25V22.5Z" fill="#212121"/>
</svg>
