<svg xmlns="http://www.w3.org/2000/svg" xmlns:xlink="http://www.w3.org/1999/xlink" width="21" height="21" viewBox="0 0 21 21">
  <defs>
    <clipPath id="clip-path">
      <rect id="Rectangle_679" data-name="Rectangle 679" width="21" height="21" transform="translate(28 292)" fill="#4f5f6d" stroke="#707070" stroke-width="1"/>
    </clipPath>
  </defs>
  <g id="Mask_Group_75" data-name="Mask Group 75" transform="translate(-28 -292)" clip-path="url(#clip-path)">
    <g id="Layer_x0020_1" transform="translate(27.909 294.994)">
      <path id="Path_2975" data-name="Path 2975" d="M8.277,8.535H4.68a.37.37,0,0,1,0-.739h3.6A.37.37,0,0,1,8.277,8.535Zm6.91,6.171H13.364a.371.371,0,0,1-.37-.37V12.378a.363.363,0,0,1,.37-.37h.727V10.789h-.727a.363.363,0,0,1-.37-.37V8.474a.363.363,0,0,1,.37-.37h4.372a.363.363,0,0,1,.37.37V10.05h.727a.371.371,0,0,1,.37.37v1.589h.727a.363.363,0,0,1,.37.37c.051.771.166,1.371.153,2.079.035.182-.012.153-.743.249a13.528,13.528,0,0,1-1.377,0C15.193,14.7,15.187,14.706,15.187,14.706Zm-1.453-.739h3.633V12.748H13.733Zm4.372,0h1.453V12.748H18.106Zm-3.276-1.958h3.633V10.789H14.829Zm-1.1-1.958h3.633V8.843H13.733Zm3.67-3.5H13.019a.371.371,0,0,1-.37-.37V4.237a.371.371,0,0,1,.37-.37H17.4a.371.371,0,0,1,.37.37V6.183A.371.371,0,0,1,17.4,6.552Zm-4.015-.739h3.646V4.606H13.388Zm-2.131,9.04a2.465,2.465,0,0,1-1.724-.887l-.6.135a9.266,9.266,0,0,1-5.148-.049c-.16-.037-.3-.074-.357-.086a2.49,2.49,0,0,1-1.724.887c-1.059,0-1.552-1.244.062-2.328a59.851,59.851,0,0,1,0-10.186C-.517.825,1.379-1.109,3.35.838A.327.327,0,0,0,3.424.9l.6-.135A9.174,9.174,0,0,1,9.151.813,3.423,3.423,0,0,0,9.533.9,2.487,2.487,0,0,1,11.257.012c1.059,0,1.552,1.244-.062,2.328a61.148,61.148,0,0,1,0,10.186C12.809,13.6,12.317,14.854,11.257,14.854Zm-1.7-1.626c.37,0,.517.271.838.53.456.37,1.1.468,1.1.222,0-.308-.431-.653-.714-.85-.456-.3-.32-.53-.271-1.133a62.7,62.7,0,0,0,0-9.127c-.086-1.084-.148-.764.591-1.367.209-.172.7-.751.16-.751a1.744,1.744,0,0,0-1.145.616c-.419.419-.665.283-1.355.111a8.658,8.658,0,0,0-4.816.062c-.911.222-.776.074-1.379-.431-.456-.37-1.1-.468-1.1-.222,0,.32.431.653.714.85.456.308.308.53.271,1.133a59.411,59.411,0,0,0,0,9.127c.074,1.084.148.764-.591,1.367-.209.185-.7.751-.16.751a1.753,1.753,0,0,0,1.133-.6c.431-.419.677-.283,1.367-.123a8.522,8.522,0,0,0,4.779-.062A3.081,3.081,0,0,1,9.558,13.228ZM9.533,10.1H3.412a.379.379,0,0,1-.37-.37V5.148a.371.371,0,0,1,.37-.37H9.533a.363.363,0,0,1,.37.37V9.73A.371.371,0,0,1,9.533,10.1ZM3.781,9.361H9.176V5.518H3.781Zm4.5-2.291H4.68a.37.37,0,0,1,0-.739h3.6A.37.37,0,0,1,8.277,7.07Z" fill="#4f5f6d" fill-rule="evenodd"/>
    </g>
  </g>
</svg>
