<svg xmlns="http://www.w3.org/2000/svg" width="8.3" height="10.3" viewBox="0 0 8.3 10.3">
  <g id="copy_1_" data-name="copy (1)" transform="translate(-48.5 0.15)">
    <g id="Group_207" data-name="Group 207" transform="translate(48.65)">
      <path id="Path_2732" data-name="Path 2732" d="M54.109,85.4H49.443a.794.794,0,0,0-.793.793v6.694a.794.794,0,0,0,.793.793h4.666a.794.794,0,0,0,.793-.793V86.193A.8.8,0,0,0,54.109,85.4Zm.236,7.486a.239.239,0,0,1-.238.238H49.441a.239.239,0,0,1-.238-.238V86.193a.239.239,0,0,1,.238-.238h4.666a.239.239,0,0,1,.238.238Z" transform="translate(-48.65 -83.681)" fill="#767676" stroke="#767676" stroke-width="0.3"/>
      <path id="Path_2733" data-name="Path 2733" d="M140.909,0h-4.666a.794.794,0,0,0-.793.793.277.277,0,1,0,.555,0,.239.239,0,0,1,.238-.238h4.666a.239.239,0,0,1,.238.238V7.488a.239.239,0,0,1-.238.238.277.277,0,0,0,0,.555.794.794,0,0,0,.793-.793V.793A.794.794,0,0,0,140.909,0Z" transform="translate(-133.702)" fill="#767676" stroke="#767676" stroke-width="0.3"/>
    </g>
  </g>
</svg>
