<svg width="24" height="24" viewBox="0 0 24 24" fill="none" xmlns="http://www.w3.org/2000/svg">
<path d="M23.0625 22.3904H0.9375C0.419719 22.3904 0 21.9707 0 21.4529V8.39014C0 7.87236 0.419719 7.45264 0.9375 7.45264H23.0625C23.5803 7.45264 24 7.87236 24 8.39014V21.4529C24 21.9707 23.5803 22.3904 23.0625 22.3904Z" fill="#F7E87C"/>
<path d="M23.0625 7.45264H7.21875V22.3904H23.0625C23.5803 22.3904 24 21.9707 24 21.4529V8.39014C24 7.8724 23.5803 7.45264 23.0625 7.45264Z" fill="#FDB91F"/>
<path d="M16.4531 12.812H12.9375C12.5492 12.812 12.2344 12.4972 12.2344 12.1089C12.2344 11.7206 12.5492 11.4058 12.9375 11.4058H16.4531C16.8414 11.4058 17.1562 11.7206 17.1562 12.1089C17.1562 12.4972 16.8414 12.812 16.4531 12.812Z" fill="#FC8B28"/>
<path d="M19.2656 15.6245H12.9375C12.5492 15.6245 12.2344 15.3097 12.2344 14.9214C12.2344 14.5331 12.5492 14.2183 12.9375 14.2183H19.2656C19.6539 14.2183 19.9688 14.5331 19.9688 14.9214C19.9688 15.3097 19.6539 15.6245 19.2656 15.6245Z" fill="#FC8B28"/>
<path d="M19.2656 18.437H12.9375C12.5492 18.437 12.2344 18.1222 12.2344 17.7339C12.2344 17.3456 12.5492 17.0308 12.9375 17.0308H19.2656C19.6539 17.0308 19.9688 17.3456 19.9688 17.7339C19.9688 18.1222 19.6539 18.437 19.2656 18.437Z" fill="#FC8B28"/>
<path d="M7.21875 22.3905C6.83044 22.3905 6.51562 22.0757 6.51562 21.6874V7.15674C6.51562 6.76843 6.83044 6.45361 7.21875 6.45361C7.60706 6.45361 7.92188 6.76843 7.92188 7.15674V21.6874C7.92188 22.0757 7.60706 22.3905 7.21875 22.3905Z" fill="#FF5857"/>
<path d="M7.21875 6.45361V22.3905C7.60706 22.3905 7.92188 22.0757 7.92188 21.6874V7.15674C7.92188 6.76843 7.60706 6.45361 7.21875 6.45361Z" fill="#FE1B5C"/>
<path d="M11.5078 1.60938C10.5042 1.60938 9.58561 2.11197 9.04308 2.95572L7.21875 5.31367L5.39442 2.95577C4.85194 2.11202 3.93338 1.60938 2.92969 1.60938C1.31428 1.60938 0 2.92366 0 4.53906C0 6.15447 1.31428 7.46875 2.92969 7.46875C2.94047 7.46875 2.9512 7.46852 2.96287 7.46814L5.60967 7.46852L4.2195 9.50514C4.00059 9.82586 4.08309 10.2633 4.40386 10.4823C4.72463 10.7012 5.16206 10.6187 5.38102 10.2979L7.2345 7.58252L9.34223 10.5061C9.47967 10.6967 9.69483 10.7981 9.91317 10.7981C10.0556 10.7981 10.1994 10.755 10.3238 10.6653C10.6388 10.4382 10.71 9.99873 10.4829 9.68378L8.88586 7.46856L11.4743 7.46823C11.4855 7.46861 11.4966 7.46884 11.5078 7.46884C13.1233 7.46884 14.4375 6.15456 14.4375 4.53916C14.4375 2.92375 13.1233 1.60938 11.5078 1.60938ZM2.95355 6.06194C2.95148 6.06194 2.94942 6.06194 2.94736 6.06194C2.93925 6.06198 2.93114 6.06222 2.92219 6.0625C2.08561 6.05842 1.40625 5.37662 1.40625 4.53906C1.40625 3.69906 2.08969 3.01562 2.92969 3.01562C3.45802 3.01562 3.94116 3.28384 4.22217 3.73305C4.23455 3.75283 4.24791 3.772 4.26216 3.79042L6.01997 6.06231L2.95355 6.06194ZM11.5151 6.0625C11.5074 6.06227 11.4998 6.06208 11.4922 6.06198C11.4894 6.06198 11.4867 6.06194 11.484 6.06194L8.41753 6.06236L10.1753 3.79042C10.1896 3.77195 10.203 3.75283 10.2153 3.73305C10.4963 3.28384 10.9795 3.01562 11.5078 3.01562C12.3479 3.01562 13.0312 3.69906 13.0312 4.53906C13.0312 5.37667 12.3518 6.05861 11.5151 6.0625Z" fill="#FE1B5C"/>
<path d="M11.5078 1.60938C10.5042 1.60938 9.58561 2.11197 9.04308 2.95572L7.21875 5.31367V7.60563L7.2345 7.58256L9.34223 10.5062C9.47967 10.6968 9.69483 10.7981 9.91317 10.7981C10.0556 10.7981 10.1994 10.755 10.3238 10.6653C10.6388 10.4382 10.71 9.99878 10.4829 9.68383L8.88586 7.46861L11.4743 7.46828C11.4855 7.46866 11.4966 7.46889 11.5078 7.46889C13.1233 7.46889 14.4375 6.15461 14.4375 4.5392C14.4375 2.9238 13.1233 1.60938 11.5078 1.60938ZM11.5151 6.0625C11.5074 6.06227 11.4998 6.06208 11.4922 6.06198C11.4894 6.06198 11.4867 6.06194 11.484 6.06194L8.41753 6.06236L10.1753 3.79042C10.1896 3.77195 10.203 3.75283 10.2153 3.73305C10.4963 3.28384 10.9795 3.01562 11.5078 3.01562C12.3479 3.01562 13.0312 3.69906 13.0312 4.53906C13.0312 5.37667 12.3518 6.05861 11.5151 6.0625Z" fill="#C40047"/>
</svg>
