<svg width="18" height="18" viewBox="0 0 18 18" fill="none" xmlns="http://www.w3.org/2000/svg">
<g clip-path="url(#clip0_566_1728)">
<path fill-rule="evenodd" clip-rule="evenodd" d="M5.92782 0H12.0231L17.4045 5.38137V15.7172C17.4045 16.9733 16.3778 18 15.1217 18H5.92782C4.67172 18 3.64502 16.9733 3.64502 15.7172V2.2828C3.64502 1.02667 4.67169 0 5.92782 0Z" fill="#00733B"/>
<path fill-rule="evenodd" clip-rule="evenodd" d="M12.0229 0L17.4043 5.38137H12.6032C12.2832 5.38137 12.0229 5.12111 12.0229 4.80115V0Z" fill="#005C2F"/>
<path fill-rule="evenodd" clip-rule="evenodd" d="M1.09671 7.66406H13.4941C13.7698 7.66406 13.9952 7.88934 13.9952 8.16507V12.7132C13.9952 12.9889 13.7699 13.2152 13.4941 13.2152H1.09671C0.82102 13.2152 0.595703 12.9889 0.595703 12.7132V8.16507C0.595703 7.88934 0.820984 7.66406 1.09671 7.66406Z" fill="#005C2F"/>
<path d="M3.63303 9.81762V11.0603C3.63303 11.4157 3.92216 11.7048 4.27755 11.7048C4.63291 11.7048 4.92204 11.4157 4.92204 11.0603C4.92204 10.8998 5.05215 10.7697 5.21264 10.7697C5.37316 10.7697 5.50324 10.8998 5.50324 11.0603C5.50324 11.7362 4.95339 12.2861 4.27752 12.2861C3.60164 12.2861 3.05176 11.7362 3.05176 11.0603V9.81762C3.05176 9.14175 3.60164 8.5919 4.27752 8.5919C4.95339 8.5919 5.50324 9.14178 5.50324 9.81762C5.50324 9.97815 5.37313 10.1083 5.21264 10.1083C5.05211 10.1083 4.92204 9.97815 4.92204 9.81762C4.92204 9.46227 4.63291 9.17314 4.27755 9.17314C3.92216 9.17314 3.63303 9.46227 3.63303 9.81762ZM7.0737 9.17314H7.53664C7.72357 9.17314 7.87562 9.32519 7.87562 9.51212C7.87562 9.67264 8.00573 9.80272 8.16622 9.80272C8.32674 9.80272 8.45682 9.67261 8.45682 9.51212C8.45682 9.00471 8.04402 8.5919 7.53661 8.5919H7.07367C6.48403 8.5919 6.00428 9.07119 6.00428 9.66023C6.00428 10.1816 6.27218 10.436 6.49689 10.5575C6.78205 10.7118 7.1417 10.7296 7.3874 10.7296C7.65656 10.7296 7.87555 10.9481 7.87555 11.2167C7.87555 11.4858 7.65656 11.7048 7.3874 11.7048H6.92446C6.73757 11.7048 6.58549 11.5528 6.58549 11.3658C6.58549 11.2053 6.45537 11.0752 6.29489 11.0752C6.13436 11.0752 6.00428 11.2053 6.00428 11.3658C6.00428 11.8732 6.41709 12.2861 6.9245 12.2861H7.38744C7.97708 12.2861 8.45682 11.8063 8.45682 11.2167C8.45682 10.6276 7.97708 10.1483 7.38744 10.1483C6.64589 10.1483 6.58556 9.92724 6.58556 9.66019C6.58556 9.39167 6.80451 9.17314 7.0737 9.17314ZM11.3399 8.6067C11.1877 8.55608 11.0231 8.63859 10.9725 8.79089L10.2145 11.0734L9.45638 8.79089C9.40579 8.63859 9.24137 8.55615 9.08896 8.6067C8.93663 8.65729 8.85416 8.82179 8.90475 8.97412L9.93866 12.0871C9.97814 12.2059 10.0892 12.2861 10.2145 12.2861C10.3397 12.2861 10.4508 12.2059 10.4903 12.0871L11.5241 8.97412C11.5747 8.82179 11.4923 8.65729 11.3399 8.6067Z" fill="white"/>
</g>
<defs>
<clipPath id="clip0_566_1728">
<rect width="18" height="18" fill="white"/>
</clipPath>
</defs>
</svg>
