<svg xmlns="http://www.w3.org/2000/svg" xmlns:xlink="http://www.w3.org/1999/xlink" width="124" height="40" viewBox="0 0 124 40">
  <defs>
    <clipPath id="clip-path">
      <rect id="Rectangle_3710" data-name="Rectangle 3710" width="124" height="40" transform="translate(484 520)" fill="#fff" stroke="#707070" stroke-width="1"/>
    </clipPath>
    <clipPath id="clip-path-2">
      <rect id="Rectangle_576" data-name="Rectangle 576" width="124" height="32.632" transform="translate(378.526 463.368)" fill="#e593e5"/>
    </clipPath>
  </defs>
  <g id="Mask_Group_95" data-name="Mask Group 95" transform="translate(-484 -520)" clip-path="url(#clip-path)">
    <g id="Mask_Group_53" data-name="Mask Group 53" transform="translate(105.474 60.316)" clip-path="url(#clip-path-2)">
      <g id="philips-zenia" transform="translate(399.924 455.671)">
        <path id="Path_2753" data-name="Path 2753" d="M4.866,20.44a1.979,1.979,0,1,0,0,3.953H16.3c-4.865,2.126-9.756,4.265-9.765,4.267C3.7,29.754.48,31.46.48,34.939c0,3.42,2.692,5.543,7.024,5.543h18.3a1.979,1.979,0,1,0,0-3.953H7.505c-2.848,0-2.848-1.115-2.848-1.589,0-.388,0-1.3,3.528-2.649l.093-.038,18.4-8.043a1.948,1.948,0,0,0,1.163-2.219,2.066,2.066,0,0,0-2.039-1.55H4.866Zm78.856,1.866V34.142c0,3.907-2.366,3.907-3.147,3.907-1.842,0-2.958-.611-4.937-2.7L64.086,21.361a2.066,2.066,0,0,0-2.225-.623,1.9,1.9,0,0,0-1.347,1.788V38.515a2,2,0,0,0,4,0v-10.5l8.028,9.72q.041.049.082.094c2.389,2.533,4.458,4,7.953,4,4.405,0,7.144-2.945,7.144-7.688V22.305a2,2,0,0,0-4,0Zm7.09,0V38.928a2,2,0,0,0,4,0V22.305a2,2,0,0,0-4,0Zm4.606-7.254a2.611,2.611,0,1,1-2.611-2.471,2.541,2.541,0,0,1,2.611,2.471ZM54.2,36.676H37.755c-1.761,0-3.248-1.026-3.248-2.241V31.464a5.355,5.355,0,0,0,3.275.936l12.666.029c4.031,0,7.3-2.638,7.3-5.971s-3.263-6.044-7.28-6.044H37.755c-4,0-7.244,2.7-7.244,6.025v7.995c0,3.32,3.249,6.024,7.244,6.024H54.2a1.894,1.894,0,1,0,0-3.783Zm-3.74-12.482c.14,0,.285.011.426.023,1.588.148,2.861,1.109,2.861,2.239,0,1.224-1.5,2.141-3.284,2.141L37.8,28.615c-.928,0-3.291-.388-3.291-2.159,0-1.224,1.5-2.262,3.275-2.262Zm50.329,0h16.446c1.76,0,3.249,1.028,3.249,2.242V29.41a5.349,5.349,0,0,0-3.274-.936l-12.669-.029c-4.03,0-7.295,2.637-7.295,5.969s3.263,6.044,7.278,6.044h12.71c4,0,7.244-2.7,7.244-6.024v-8c0-3.32-3.25-6.023-7.244-6.023H100.79a1.893,1.893,0,1,0,0,3.781Zm3.74,12.482a4.151,4.151,0,0,1-.427-.022c-1.588-.148-2.862-1.114-2.862-2.239,0-1.224,1.5-2.141,3.284-2.141l12.668-.017c.928,0,3.292.387,3.292,2.158,0,1.224-1.5,2.261-3.274,2.261Z" transform="translate(-21.879 -3.192)" fill-rule="evenodd"/>
      </g>
    </g>
  </g>
</svg>
