<svg xmlns="http://www.w3.org/2000/svg" xmlns:xlink="http://www.w3.org/1999/xlink" width="124" height="40" viewBox="0 0 124 40">
  <defs>
    <clipPath id="clip-path">
      <rect id="Rectangle_3711" data-name="Rectangle 3711" width="124" height="40" transform="translate(658 520)" fill="#fff" stroke="#707070" stroke-width="1"/>
    </clipPath>
    <clipPath id="clip-path-2">
      <rect id="Rectangle_577" data-name="Rectangle 577" width="124" height="32.632" transform="translate(541.684 463.368)" fill="#e593e5"/>
    </clipPath>
  </defs>
  <g id="Mask_Group_96" data-name="Mask Group 96" transform="translate(-658 -520)" clip-path="url(#clip-path)">
    <g id="Mask_Group_54" data-name="Mask Group 54" transform="translate(116.316 60.316)" clip-path="url(#clip-path-2)">
      <g id="reichelt" transform="translate(541.205 452.624)">
        <path id="Path_2755" data-name="Path 2755" d="M39.511,29.68H28.743l.139.84A2.416,2.416,0,0,0,31.29,32.8a2.874,2.874,0,0,0,2.535-1.532l.379-.609,5.016,2.294-.408.582a8.877,8.877,0,0,1-7.888,3.868c-4.889.007-8.376-3.624-8.466-8.8-.1-5.775,3.992-9.752,9.8-9a8.064,8.064,0,0,1,7.087,7.335c.055.478.09.95.109,1.429Zm-6.185-3.434-.15-.686A2.012,2.012,0,0,0,31.1,23.77c-1.09.018-1.812.659-2.2,1.977l-.144.5Zm32.514-2.47-4.684,2.855-.09-.356a2.643,2.643,0,0,0-2.493-2.139c-1.578-.02-2.937,1.539-2.811,4.568.1,2.412,1.1,3.616,2.5,3.66a2.862,2.862,0,0,0,2.571-1.809,4.079,4.079,0,0,0,.259-.576l.138-.375,4.63,2.742-.36.725a8.051,8.051,0,0,1-6.985,4.276c-5.209.285-8.647-3.041-8.84-8.66-.186-5.453,3.047-9.036,8.418-9.12a8.167,8.167,0,0,1,7.335,3.557l.408.653Zm37.553,5.9H92.626l.139.84A2.417,2.417,0,0,0,95.173,32.8a2.873,2.873,0,0,0,2.535-1.532l.379-.609,5.016,2.3-.408.582a8.879,8.879,0,0,1-7.889,3.868c-4.889.007-8.376-3.624-8.465-8.8-.1-5.775,3.992-9.752,9.8-9a8.063,8.063,0,0,1,7.086,7.335c.055.478.091.95.109,1.429ZM97.21,26.246l-.15-.686a2.012,2.012,0,0,0-2.078-1.79c-1.09.018-1.812.659-2.2,1.977l-.144.5h4.568ZM19.894,32.133l-2.458-4.487.571-.227c2.391-.95,3.916-3.508,3.686-6.655-.265-3.738-2.5-6.061-6.142-6.352a29.021,29.021,0,0,0-3.028-.1H.48v4.61H2.4L2.4,32.112H.48v4.612H8.14l.925.007v-.007H11V32.11H9.066V28.832h1.963l4.064,7.889h7.324V32.132H19.894ZM12.329,24.2,9.041,24.2V18.921h1.822v-.01h.979c2.137,0,3.173.912,3.222,2.62A2.488,2.488,0,0,1,12.329,24.2Zm35.539,7.928V20.334H40.156v4.611H41.75v7.179H40.143v4.61h9.508V32.123H47.868Zm38.367.041H84.786V27.292c0-.724-.018-1.455-.06-2.179-.181-3.331-1.53-4.961-4.528-5.485a6.465,6.465,0,0,0-1.054-.1,5.662,5.662,0,0,0-4.487,1.863l-.45.511-.02-.007.008-7.509h-.013v-.007H66.405v4.61h1.638V32.133H66.405v4.611h9.551V32.133H74.206V28.348c0-.3,0-.6.012-.906a2.327,2.327,0,0,1,1.861-2.447,2.737,2.737,0,0,1,.861.033,2.009,2.009,0,0,1,1.713,2.03l.013.311v4.8h0v4.568h7.567V32.167h0ZM124.48,20.342h-3.516v-6.31l-6.208,1.287-.015,5.025h-1.931v4.611h1.906v7.037c-.03,3.493,1.4,4.96,5.3,4.922a21.966,21.966,0,0,0,2.385-.071l1.949-.155v-4.6l-1.713.091c-1.083.041-1.713-.482-1.753-1.328l-.007-.233V24.954h3.6V20.342Zm-13.1,11.791V14.358h-7.818v4.61h1.7V32.133h-1.713v4.61h9.563v-4.61Z" transform="translate(0 4.081)" fill="#cc2229" fill-rule="evenodd"/>
        <path id="Path_2756" data-name="Path 2756" d="M29.493,17.991,19.365,12.63,9.237,17.991l10.129,5.362Z" transform="translate(25.528)" fill="#f2ca30" fill-rule="evenodd"/>
      </g>
    </g>
  </g>
</svg>
