<svg xmlns="http://www.w3.org/2000/svg" xmlns:xlink="http://www.w3.org/1999/xlink" width="124" height="40" viewBox="0 0 124 40">
  <defs>
    <clipPath id="clip-path">
      <rect id="Rectangle_3709" data-name="Rectangle 3709" width="124" height="40" transform="translate(310 520)" fill="#fff" stroke="#707070" stroke-width="1"/>
    </clipPath>
    <clipPath id="clip-path-2">
      <rect id="Rectangle_575" data-name="Rectangle 575" width="124" height="32.632" transform="translate(215.368 463.368)" fill="#e593e5"/>
    </clipPath>
    <linearGradient id="linear-gradient" x1="0.5" y1="0.635" x2="0.5" y2="-0.365" gradientUnits="objectBoundingBox">
      <stop offset="0" stop-color="#f7e830"/>
      <stop offset="1" stop-color="#fdcb06"/>
    </linearGradient>
    <radialGradient id="radial-gradient" cx="0.496" cy="3.536" r="4.378" gradientUnits="objectBoundingBox">
      <stop offset="0.596" stop-color="#f29405"/>
      <stop offset="0.736" stop-color="#f7d01e"/>
      <stop offset="1" stop-color="#fdcb06"/>
    </radialGradient>
    <linearGradient id="linear-gradient-2" x1="0.491" y1="11.655" x2="0.499" y2="10.674" gradientUnits="objectBoundingBox">
      <stop offset="0" stop-color="#fada1c"/>
      <stop offset="1" stop-color="#fdcb06"/>
    </linearGradient>
    <linearGradient id="linear-gradient-3" x1="101.001" y1="11.748" x2="101.009" y2="10.768" xlink:href="#linear-gradient-2"/>
    <clipPath id="clip-path-3">
      <path id="Path_2750" data-name="Path 2750" d="M26.048,9.3a.489.489,0,0,1-.042-.231l-.037,0a.525.525,0,0,0-.447-.408c-.163-.014-.374-.009-.471.148-.184.249-.1.571-.106.848,0,.019,0,.051,0,.069a3.224,3.224,0,0,1-.055.558.4.4,0,0,0-.042.18,4.254,4.254,0,0,1-.447,1.255.466.466,0,0,0-.087.18,6.232,6.232,0,0,1-.475.683.591.591,0,0,0-.074.082,4.506,4.506,0,0,1-.383.4.884.884,0,0,0-.082.06,3,3,0,0,1-.521.408c-.023.014-.046.033-.074.051A7.417,7.417,0,0,1,18.7,14.705a7.5,7.5,0,0,1-3.451-.729c-.019-.009-.064-.028-.082-.037a4.616,4.616,0,0,1-.53-.3c-.037-.019-.073-.042-.115-.06a3.527,3.527,0,0,1-.485-.341c-.051-.046-.106-.082-.163-.125a3.91,3.91,0,0,1-.48-.438,1.5,1.5,0,0,0-.111-.115,4.6,4.6,0,0,1-1.1-1.85,5.7,5.7,0,0,1-.194-1.725.618.618,0,0,0-.794-.24c-.115.082-.129.235-.217.341a5.418,5.418,0,0,0,1.545,4.138.075.075,0,0,0,.051.073c.184.17.365.346.549.512a.734.734,0,0,0,.111.092c.184.153.383.29.577.434a.979.979,0,0,0,.115.073,5.188,5.188,0,0,0,.766.424.6.6,0,0,0,.069.047,8.321,8.321,0,0,0,2.791.8,1.491,1.491,0,0,1,.318.033c.461.028.923.014,1.387,0a8.3,8.3,0,0,0,4.087-1.31l.014.019c.037-.033.069-.06.106-.087.189-.139.374-.286.558-.438a1.4,1.4,0,0,0,.129-.111,6.085,6.085,0,0,0,.609-.678l.028.014c.014-.023.037-.069.051-.092.157-.212.3-.434.438-.653.009-.014.032-.037.042-.051l-.024-.023c.014-.019.046-.055.06-.073a5.412,5.412,0,0,0,.558-1.632.082.082,0,0,0,.051-.073,4.343,4.343,0,0,0,.051-.544,3.142,3.142,0,0,0,.037-.688Z"/>
    </clipPath>
  </defs>
  <g id="Mask_Group_94" data-name="Mask Group 94" transform="translate(-310 -520)" clip-path="url(#clip-path)">
    <g id="Mask_Group_52" data-name="Mask Group 52" transform="translate(94.632 60.316)" clip-path="url(#clip-path-2)">
      <g id="flipkart" transform="translate(304.303 461.198)">
        <path id="Path_2736" data-name="Path 2736" d="M34.935,7.824c-.014-.047-.028-.092-.046-.139q-16.393.007-32.777,0a.191.191,0,0,0-.051.106q0,12.712,0,25.418a2.057,2.057,0,0,0,.653,1.171c.014,0,.046.009.06.014a1.6,1.6,0,0,0,.646.351c.17-.009.337.064.507.047H17.484a1.1,1.1,0,0,0,.388-.033c0-.019.009-.051.014-.069s.009-.073.014-.1c.29-1.623.571-3.253.881-4.876l.028-.207c-1.255,0-2.514,0-3.769,0-.3-.009-.618,0-.923-.037-.521-.023-1.047,0-1.569-.055-.646,0-1.287-.06-1.933-.06-.507-.051-1.02-.033-1.531-.055-.332-.042-.674-.023-1.01-.037-.549-.06-1.107-.019-1.656-.082-.582,0-1.163-.046-1.744-.06a.065.065,0,0,0,.009-.028c.194,0,.383-.009.577-.014.429-.055.862-.019,1.291-.082.448,0,.89-.06,1.338-.06.4-.055.8-.023,1.194-.082.466,0,.923-.06,1.387-.064.383-.051.77-.023,1.154-.073.448,0,.89-.064,1.338-.06.438-.051.886-.037,1.324-.082-.042-.17-.073-.341-.111-.512-.033-.106-.163-.082-.245-.1q-1.5-.215-2.994-.424c.064-.051.153-.028.226-.037.775-.06,1.545-.129,2.32-.184.175-.009.346-.042.521-.046a6.028,6.028,0,0,0-.231-.724c-1.656-.254-3.312-.48-4.964-.752.429-.069.862-.1,1.291-.148l.037-.014c1.37-.143,2.745-.3,4.115-.438,1.739-.009,3.474,0,5.213,0,.055-.009.153.019.163-.06.143-.747.281-1.495.424-2.242a11.193,11.193,0,0,1,1-3,8.87,8.87,0,0,1,3.432-3.671,9.89,9.89,0,0,1,4.535-1.264,7.124,7.124,0,0,1,1.536.033,2.147,2.147,0,0,1,.937.4,1.57,1.57,0,0,1,.443.692,11.013,11.013,0,0,1,.434,1.891,1.462,1.462,0,0,1-.087.784.992.992,0,0,1-.632.408c-.89.231-1.822.014-2.713.231a3.3,3.3,0,0,0-1.882,1.149,5.352,5.352,0,0,0-1,2.379c-.125.756-.281,1.513-.408,2.274.876,0,1.758,0,2.639,0a.928.928,0,0,1,.853.526,2.537,2.537,0,0,1,.082,1.352,4.919,4.919,0,0,1-.42,1.463,1.652,1.652,0,0,1-.932.89,1.86,1.86,0,0,1-.7.069c-.775,0-1.55.009-2.325,0-.125.571-.207,1.149-.318,1.725-.2,1.121-.4,2.247-.6,3.372,0,.037-.009.115-.009.157.365.019.728,0,1.093.009,2.7,0,5.411,0,8.12,0a1.616,1.616,0,0,0,.839-.2c.153-.055.245-.189.379-.263s.163-.226.277-.326a1.538,1.538,0,0,0,.254-.683.413.413,0,0,0,.069-.009C34.93,24.8,34.944,16.316,34.935,7.824Z" stroke="#fcd109" stroke-width="0.004" fill="url(#linear-gradient)"/>
        <path id="Path_2737" data-name="Path 2737" d="M6.363,2.242a5,5,0,0,1,1.2-.069q11.3.007,22.6,0a3.8,3.8,0,0,1,1.255.365c.332.134.678.24,1.01.383a.549.549,0,0,1,.171.139c0,.609,0,1.224,0,1.836a1.554,1.554,0,0,0,.033.485c.1.014.148.087.212.148a6.249,6.249,0,0,1,.839.549c.415.3.858.554,1.264.858a.769.769,0,0,1-.033.355,1.921,1.921,0,0,0-.028.4q-16.393.007-32.777,0a1.6,1.6,0,0,0-.046-.448c-.009-.12-.051-.277.064-.36.461-.326.95-.613,1.4-.955.281-.18.554-.365.826-.549a.587.587,0,0,0,.037-.309c0-.669,0-1.338,0-2.007.157-.2.429-.226.646-.326.438-.163.881-.326,1.315-.494m.028.082c-.591.226-1.185.443-1.776.669-.082.014-.12.082-.163.143a1.3,1.3,0,0,1,.009.139c0,.554,0,1.107,0,1.661a1.158,1.158,0,0,0,.037.4,1.142,1.142,0,0,1-.2.163c-.669.434-1.315.9-1.984,1.333C2.191,6.9,2.061,7,2.1,7.147c-.023.082.019.153.106.129,1.449-.009,2.893.009,4.341-.014,2.154,0,4.3,0,6.459,0l.033-.014a1.255,1.255,0,0,0,.3.014H25.046c1.224,0,2.459,0,3.691,0,2.03,0,4.064.019,6.094.009.06-.014.082-.055.055-.129,0-.073.023-.175-.055-.221-.326-.153-.6-.388-.909-.571-.111-.092-.254-.143-.337-.268-.318-.18-.613-.4-.928-.6a.939.939,0,0,1-.157-.148,1.124,1.124,0,0,0,.037-.3c0-.586,0-1.171,0-1.757a.255.255,0,0,0-.074-.259c-.554-.2-1.1-.408-1.651-.613a1.887,1.887,0,0,0-.544-.157H6.689a1.8,1.8,0,0,0-.3.082Z" fill="#f8f3b5" stroke="#f8f3b5" stroke-width="0.004"/>
        <path id="Path_2738" data-name="Path 2738" d="M4.461,3.27c.408.171.839.268,1.25.434.221.087.29.326.387.521a1.921,1.921,0,0,1-.326.249c-.424.286-.858.563-1.278.858a1.158,1.158,0,0,1-.037-.4c0-.554,0-1.107,0-1.661ZM31.286,3.7c.408-.163.839-.272,1.251-.434,0,.586,0,1.171,0,1.757a1.124,1.124,0,0,1-.037.3c-.36-.249-.724-.485-1.084-.729a4.25,4.25,0,0,1-.526-.383c.1-.194.17-.429.392-.516Z" fill="#f7b402" stroke="#f7b402" stroke-width="0.004"/>
        <path id="Path_2739" data-name="Path 2739" d="M11.5,3.894a.869.869,0,0,1,1.031.862.879.879,0,0,1-1.047.826,1,1,0,0,1-.521-.355.866.866,0,0,1-.069-.839.825.825,0,0,1,.6-.494Zm13.161.29a.887.887,0,0,1,.862-.286.863.863,0,0,1,.217,1.592.891.891,0,0,1-1.061-.18.878.878,0,0,1-.02-1.125Z" fill="#bda727" stroke="#bda727" stroke-width="0.004"/>
        <path id="Path_2740" data-name="Path 2740" d="M5.771,4.475A1.921,1.921,0,0,0,6.1,4.226l.032.033c.033.24.009.485.019.724-.014.72.014,1.444-.019,2.163-1.343,0-2.685-.009-4.028,0-.037-.153.092-.245.207-.314.669-.429,1.315-.9,1.984-1.333a1.142,1.142,0,0,0,.2-.163c.42-.3.853-.571,1.278-.858Zm25.077-.092a.287.287,0,0,1,.046-.163,4.257,4.257,0,0,0,.526.383c.36.245.724.48,1.084.728a.947.947,0,0,0,.157.148c.314.2.609.42.928.6.082.125.226.175.337.268.309.184.586.42.909.571.082.047.051.148.055.221-1.343,0-2.681,0-4.023,0a5.486,5.486,0,0,1-.014-.549c0-.734-.009-1.477,0-2.214Z" fill="#f7e62d" stroke="#f7e62d" stroke-width="0.004"/>
        <path id="Path_2741" data-name="Path 2741" d="M34.89,7.141c-1.343,0-2.681,0-4.023,0a5.487,5.487,0,0,1-.014-.549c0-.734-.009-1.477,0-2.214a.287.287,0,0,1,.046-.163c.1-.194.17-.429.392-.516.408-.163.839-.272,1.251-.434a.255.255,0,0,0-.074-.259c-.554-.2-1.1-.408-1.651-.613a1.887,1.887,0,0,0-.544-.157H6.689a1.8,1.8,0,0,0-.3.082c-.591.226-1.185.443-1.776.669-.082.014-.12.082-.163.143a1.3,1.3,0,0,1,.009.139c.408.171.839.268,1.25.434.221.087.29.326.387.521l.032.033c.033.24.009.485.019.724-.014.72.014,1.444-.019,2.163-1.343,0-2.685-.009-4.028,0-.023.082.019.153.106.129,1.449-.009,2.893.009,4.341-.014,2.154,0,4.3,0,6.459,0l.033-.014a1.255,1.255,0,0,0,.3.014H25.047c1.224,0,2.459,0,3.691,0,2.03,0,4.064.019,6.094.009.06-.014.082-.055.055-.129ZM10.9,4.387a.825.825,0,0,1,.6-.494.869.869,0,0,1,1.033.862.879.879,0,0,1-1.047.826,1,1,0,0,1-.521-.355.866.866,0,0,1-.069-.839Zm13.766-.2a.887.887,0,0,1,.862-.286.863.863,0,0,1,.217,1.592.891.891,0,0,1-1.061-.18.878.878,0,0,1-.019-1.125Z" stroke="#fcd109" stroke-width="0.004" fill="url(#radial-gradient)"/>
        <path id="Path_2742" data-name="Path 2742" d="M25.838,9.169c.064.014-.336-.385-.258-.4a.861.861,0,0,1,.692-.031c.339.177.255.592.216.746a.835.835,0,0,1-.255.392.445.445,0,0,1-.233.1c.042-.226-.092-.263-.1-.494Z" stroke="#fcd109" stroke-width="0.004" fill="url(#linear-gradient-2)"/>
        <path id="Path_2743" data-name="Path 2743" d="M11.095,9.418c-.009.231-.143.268-.1.494a.445.445,0,0,1-.234-.1.835.835,0,0,1-.255-.392c-.038-.153-.122-.571.216-.746a.861.861,0,0,1,.692.031c.082.019-.326.418-.258.4l-.06.312Z" stroke="#fcd109" stroke-width="0.004" fill="url(#linear-gradient-3)"/>
        <path id="Path_2744" data-name="Path 2744" d="M25.234,12.123a.255.255,0,0,1,.208-.06A10.75,10.75,0,0,1,23.271,15.4a3.255,3.255,0,0,1-.326.257c-.111.082-.22.157-.326.236s-.211.148-.314.225a4.315,4.315,0,0,1-.784.429,7.367,7.367,0,0,1-1.679.544,4.923,4.923,0,0,1-.688.1,4.016,4.016,0,0,1-.881.042c-.163.028-.3-.064-.461-.047q-.2-.029-.408-.069t-.408-.1a7.066,7.066,0,0,1-4.8-4.458,2.453,2.453,0,0,1-.041-.446q.1.194.2.384a6.765,6.765,0,0,0,4.584,3.8c.163.074.341.048.5.113a1.288,1.288,0,0,1,.42.042c.475.009.95,0,1.425,0a.7.7,0,0,0,.189-.042,6.076,6.076,0,0,0,2.29-.571q.217-.1.427-.21.184-.1.358-.21t.333-.235a7.642,7.642,0,0,0,2.093-2.561C25.069,12.442,25.156,12.274,25.234,12.123Z" fill="#bda727" stroke="#bda727" stroke-width="0.004"/>
        <path id="Path_2745" data-name="Path 2745" d="M24.482,16.224a9.89,9.89,0,0,1,4.535-1.264,7.124,7.124,0,0,1,1.536.033,2.147,2.147,0,0,1,.937.4,1.987,1.987,0,0,1-.4-.069,6.877,6.877,0,0,0-1.154-.055,12.114,12.114,0,0,0-3.308.392,7.765,7.765,0,0,0-1.637.664,8.173,8.173,0,0,0-2.33,1.91,10,10,0,0,0-2.159,4.714c-.157.918-.337,1.831-.48,2.754-.231.023-.466.009-.7.009q-1.522-.007-3.045-.019c-.217.009-.429-.042-.646-.028-1.845.009-3.691,0-5.536,0l.037-.014c1.37-.143,2.745-.3,4.115-.438,1.739-.009,3.474,0,5.213,0,.055-.009.153.019.163-.06.143-.747.281-1.495.424-2.242a11.2,11.2,0,0,1,.993-3.007,8.87,8.87,0,0,1,3.434-3.672Z" fill="#0d69b3" stroke="#0d69b3" stroke-width="0.004"/>
        <path id="Path_2746" data-name="Path 2746" d="M26.631,15.657a12.115,12.115,0,0,1,3.308-.392,6.877,6.877,0,0,1,1.154.055,1.986,1.986,0,0,0,.4.069,1.57,1.57,0,0,1,.443.692,11.013,11.013,0,0,1,.434,1.891,1.462,1.462,0,0,1-.087.784.992.992,0,0,1-.632.408c-.89.231-1.822.014-2.712.231a3.3,3.3,0,0,0-1.882,1.149,5.351,5.351,0,0,0-1,2.38c-.125.756-.281,1.513-.408,2.274a4.1,4.1,0,0,0-.12.535c.872.014,1.744,0,2.615.009.332-.009.664.009,1-.014a2.537,2.537,0,0,1,.082,1.352,4.919,4.919,0,0,1-.42,1.463,1.652,1.652,0,0,1-.932.89,1.86,1.86,0,0,1-.7.069c-.775,0-1.55.009-2.325,0-.125.571-.207,1.149-.318,1.725-.2,1.121-.4,2.247-.6,3.372,0,.037-.009.115-.009.157v0c-2.016,0-4.028,0-6.043,0,0-.019.009-.051.014-.069s.009-.073.014-.1c0,.037.009.106.014.139.125.014.351.082.383-.1.314-1.7.6-3.4.928-5.1a.972.972,0,0,0-.383,0c-.019.064-.037.129-.06.193l.028-.207c-1.255,0-2.514,0-3.769,0-.3-.009-.618,0-.923-.037-.521-.023-1.047,0-1.569-.055-.646,0-1.287-.06-1.933-.06-.507-.051-1.02-.033-1.531-.055-.332-.042-.674-.023-1.01-.037-.549-.06-1.107-.019-1.656-.082-.582,0-1.162-.046-1.744-.06a.065.065,0,0,0,.009-.028c.194,0,.383-.009.577-.014.429-.055.862-.019,1.291-.082.448,0,.89-.06,1.338-.06.4-.055.8-.023,1.194-.082.466,0,.923-.06,1.387-.064.383-.051.77-.023,1.154-.073.448,0,.89-.064,1.338-.06.438-.051.886-.037,1.324-.082-.042-.17-.073-.341-.111-.512-.033-.106-.163-.082-.245-.1q-1.5-.215-2.994-.424c.064-.051.153-.028.226-.037.775-.06,1.545-.13,2.32-.184.175-.009.346-.042.521-.047a6.03,6.03,0,0,0-.231-.724c-1.656-.254-3.312-.48-4.964-.752.429-.069.862-.1,1.291-.148,1.845,0,3.691.014,5.536,0,.217-.014.429.037.646.028q1.522.014,3.045.019c.231,0,.466.014.7-.009.143-.923.326-1.836.48-2.754a10,10,0,0,1,2.159-4.714,8.173,8.173,0,0,1,2.33-1.91,7.765,7.765,0,0,1,1.645-.654Z" fill="#107bd4" stroke="#107bd4" stroke-width="0.004"/>
        <path id="Path_2747" data-name="Path 2747" d="M25.644,25.2c.876,0,1.758,0,2.639,0a.928.928,0,0,1,.853.526c-.332.023-.664,0-1,.014-.872-.009-1.744,0-2.615-.009a4.079,4.079,0,0,1,.12-.535Zm-6.8,4.324a.972.972,0,0,1,.383,0c-.326,1.7-.613,3.4-.928,5.1-.033.179-.259.115-.383.1,0-.033-.009-.1-.014-.139.29-1.623.571-3.253.881-4.876.023-.064.042-.129.06-.194Z" fill="#0d69b3" stroke="#0d69b3" stroke-width="0.004"/>
        <path id="Path_2748" data-name="Path 2748" d="M26.048,9.3a.489.489,0,0,1-.042-.231l-.037,0a.525.525,0,0,0-.447-.408c-.163-.014-.374-.009-.471.148-.184.249-.1.571-.106.848,0,.019,0,.051,0,.069a3.224,3.224,0,0,1-.055.558.4.4,0,0,0-.042.18,4.254,4.254,0,0,1-.447,1.255.466.466,0,0,0-.087.18,6.232,6.232,0,0,1-.475.683.591.591,0,0,0-.074.082,4.506,4.506,0,0,1-.383.4.884.884,0,0,0-.082.06,3,3,0,0,1-.521.408c-.023.014-.046.033-.074.051A7.417,7.417,0,0,1,18.7,14.705a7.5,7.5,0,0,1-3.451-.729c-.019-.009-.064-.028-.082-.037a4.616,4.616,0,0,1-.53-.3c-.037-.019-.073-.042-.115-.06a3.527,3.527,0,0,1-.485-.341c-.051-.046-.106-.082-.163-.125a3.91,3.91,0,0,1-.48-.438,1.5,1.5,0,0,0-.111-.115,4.6,4.6,0,0,1-1.1-1.85,5.7,5.7,0,0,1-.194-1.725.618.618,0,0,0-.794-.24c-.115.082-.129.235-.217.341a5.418,5.418,0,0,0,1.545,4.138.075.075,0,0,0,.051.073c.184.17.365.346.549.512a.734.734,0,0,0,.111.092c.184.153.383.29.577.434a.979.979,0,0,0,.115.073,5.188,5.188,0,0,0,.766.424.6.6,0,0,0,.069.047,8.321,8.321,0,0,0,2.791.8,1.491,1.491,0,0,1,.318.033c.461.028.923.014,1.387,0a8.3,8.3,0,0,0,4.087-1.31l.014.019c.037-.033.069-.06.106-.087.189-.139.374-.286.558-.438a1.4,1.4,0,0,0,.129-.111,6.085,6.085,0,0,0,.609-.678l.028.014c.014-.023.037-.069.051-.092.157-.212.3-.434.438-.653.009-.014.032-.037.042-.051l-.024-.023c.014-.019.046-.055.06-.073a5.412,5.412,0,0,0,.558-1.632.082.082,0,0,0,.051-.073,4.343,4.343,0,0,0,.051-.544,3.142,3.142,0,0,0,.037-.688Z" fill="#fff" stroke="#fff" stroke-width="0.004"/>
        <g id="Group_219" data-name="Group 219" clip-path="url(#clip-path-3)">
          <path id="Path_2749" data-name="Path 2749" d="M10.618,9.142c.374.117,1.233-.178,1.477.092m-1.261,1.045c.358-.125,1.127-.42,1.446-.245M11.2,11.421c.173.056.515-.245.684-.338a2.519,2.519,0,0,1,.792-.277m-.923,1.811a2.611,2.611,0,0,1,.653-.645c.256-.179.956-.653,1.256-.489m-1.387,2c.2-.163.286-.446.5-.616a4.346,4.346,0,0,1,.916-.369m-.545,1.617c.06-.446.513-.984.946-.946m-.277,1.569c.228-.023.422-.534.576-.707a1.468,1.468,0,0,1,.777-.431m-.031,1.691c-.015-.326.319-1.248.707-1.2m.277,1.507c-.016-.382.181-1.529.646-1.569m.369,2.184a1.977,1.977,0,0,1,.339-1.691m.923,1.814c-.047-.445-.489-1.344,0-1.691m1.353,1.387a2.561,2.561,0,0,1-.245-1.477m1.54,1.261a3.066,3.066,0,0,1-.426-.915c-.037-.2.028-.5,0-.653m1.507,1.107a1.608,1.608,0,0,1-.339-1.446m1.387.984a3.59,3.59,0,0,1-.523-1.569m1.538.584c-.39-.263-.888-.739-.83-1.261m1.906.431A3.311,3.311,0,0,1,23.6,11.94m2.153.123c-.427-.091-1.84-.643-1.753-1.2m2.214.123a6.518,6.518,0,0,1-1.937-.83M26.523,10a6.018,6.018,0,0,1-1.3-.213c-.423-.073-.816-.215-1.228-.308m2.153-.431a5.379,5.379,0,0,1-2.061-.431" fill="none" stroke="#d1d1d1" stroke-width="0.092"/>
        </g>
        <g id="Group_220" data-name="Group 220">
          <path id="Path_2751" data-name="Path 2751" d="M-66.435,11.268a2.692,2.692,0,0,1,2.005.252,1.357,1.357,0,0,1,.454,1.173,2.039,2.039,0,0,1-.933,1.828,3.182,3.182,0,0,1-1.841.265,1.393,1.393,0,0,1-1.047-.653,2.091,2.091,0,0,1,.024-1.744,2.091,2.091,0,0,1,1.338-1.119Zm-20,.795a.789.789,0,0,1,.769-.706c2.914,0,5.815.012,8.716,0a.844.844,0,0,1,.807.391c.215.379.025.795,0,1.185-.088.529-.063,1.236-.681,1.437-2.121.063-4.238,0-6.357.025-.2,1.337-.391,2.661-.593,3.986,0,.051.013.163.013.215,1.55-.012,3.1,0,4.654-.012a.8.8,0,0,1,.594.215.8.8,0,0,1,.251.58c-.038.467-.139.921-.2,1.387a.822.822,0,0,1-.631.668c-1.728.038-3.481-.038-5.209.038-.277,1.9-.605,3.809-.9,5.711a.783.783,0,0,1-.719.719q-1.078.019-2.157,0a.77.77,0,0,1-.582-.3.77.77,0,0,1-.136-.643q1.154-7.454,2.358-14.9Zm12.814-.681c.653-.051,1.324-.012,1.98-.025a.816.816,0,0,1,.845.706,8.755,8.755,0,0,1-.126.984c-.529,3.381-1.072,6.76-1.6,10.141a3.958,3.958,0,0,0-.051,1.677c.189.555,1.034.315,1.236.9a4.253,4.253,0,0,1-.051,1.438c-.038.631-.757.769-1.248.908a3.337,3.337,0,0,1-3.141-.833,2.937,2.937,0,0,1-.479-2.358q1-6.432,2.018-12.878a.763.763,0,0,1,.618-.653Zm25.037.681a.8.8,0,0,1,.757-.706h1.917a.8.8,0,0,1,.6.3.8.8,0,0,1,.156.655c-.441,2.8-.9,5.6-1.337,8.4a2.958,2.958,0,0,0,1.892-.769,11.73,11.73,0,0,0,1.9-2.979c.163-.416.252-1.021.795-1.1.719-.025,1.45-.012,2.169,0a.761.761,0,0,1,.594.326.761.761,0,0,1,.1.67,8.974,8.974,0,0,1-.832,1.876,14.246,14.246,0,0,1-2.6,3.292c.467,1.4,1.061,2.762,1.577,4.137.151.454.517.984.176,1.425-.391.529-1.123.264-1.665.326-.571-.063-1.387.227-1.7-.416-.593-1.375-1.085-2.788-1.69-4.161a7.623,7.623,0,0,1-1.072-.012l-.1.2c-.189,1.261-.391,2.522-.593,3.784a.751.751,0,0,1-.643.593c-.668.025-1.349.012-2.03.012a.786.786,0,0,1-.681-.441,1.393,1.393,0,0,1-.012-.816q1.173-7.3,2.321-14.6Zm35.051,1.375a.785.785,0,0,1,.782-.58c.5.013,1.021-.012,1.539.013a.757.757,0,0,1,.522.27.757.757,0,0,1,.172.562c-.076.719-.252,1.438-.3,2.157.489,0,1-.012,1.488,0a.778.778,0,0,1,.561.28.778.778,0,0,1,.173.6c-.063.391-.152.769-.215,1.16a.821.821,0,0,1-.653.644c-.605.038-1.2-.025-1.795.038-.252,1.69-.529,3.38-.795,5.07a1.787,1.787,0,0,0,.163,1.173c.34.416.933.265,1.413.316a.83.83,0,0,1,.555.908c-.063.429-.076.857-.176,1.273-.152.467-.693.555-1.11.668a4.384,4.384,0,0,1-3.494-.365,3.087,3.087,0,0,1-1-2.952c.265-2.039.681-4.074.908-6.13-.353.012-.782.063-1.047-.252-.3-.315-.152-.782-.1-1.173.076-.416.063-.959.517-1.185a5.145,5.145,0,0,1,1.173-.088c.24-.807.467-1.614.719-2.409Zm-7.126,4.086a6.868,6.868,0,0,1,2.85-1.778.8.8,0,0,1,.727.081.8.8,0,0,1,.358.638c-.088.693-.252,1.375-.365,2.056a.8.8,0,0,1-.681.668,5.963,5.963,0,0,0-3.166,1.841c-.215.265-.529.517-.571.883-.265,1.766-.543,3.532-.816,5.3a.778.778,0,0,1-.757.719H-25a.79.79,0,0,1-.578-.258.79.79,0,0,1-.2-.6c.555-3.494,1.11-6.975,1.652-10.469a.768.768,0,0,1,.643-.734c.467-.025.933-.012,1.413-.012a.758.758,0,0,1,.734.734c0,.543-.051,1.1-.063,1.652a5.727,5.727,0,0,0,.744-.719Zm-47.147-1.6a14.194,14.194,0,0,1,2.069-.063.776.776,0,0,1,.87.593,4.046,4.046,0,0,1-.088,1.034q-.776,4.862-1.539,9.724a.774.774,0,0,1-.734.719c-.681,0-1.362.013-2.056-.012a.794.794,0,0,1-.52-.345.794.794,0,0,1-.11-.614c.542-3.368,1.061-6.723,1.6-10.09a1.006,1.006,0,0,1,.506-.945Zm40.816.163a20.165,20.165,0,0,0-5.7-.416,6.557,6.557,0,0,0-4.465,2.384,8.751,8.751,0,0,0-1.614,6.608,4.471,4.471,0,0,0,1.55,2.888,3.834,3.834,0,0,0,2.964.571,7.133,7.133,0,0,0,3.594-2.194c.051.429-.051.857-.025,1.274a.782.782,0,0,0,.769.734h1.288a.773.773,0,0,0,.719-.719q.816-5.127,1.614-10.229a.8.8,0,0,0-.159-.594.8.8,0,0,0-.534-.3Zm-3.545,5.942a9.727,9.727,0,0,1-2.005,2.535,2.078,2.078,0,0,1-1.652.644c-.605-.126-.9-.757-1.034-1.3a5.547,5.547,0,0,1,.769-4.175,2.7,2.7,0,0,1,1.577-1.173A5.5,5.5,0,0,1-30.1,18.7l.051.051c-.113,1.1-.326,2.182-.489,3.279Zm-21.215-1.892A5.216,5.216,0,0,0-52.99,16.6a3.191,3.191,0,0,0-2.4-1,5.73,5.73,0,0,0-3.91,1.627c-.24.189-.4.467-.668.618,0-.416.038-.832.025-1.261a.749.749,0,0,0-.734-.734H-61.96a.792.792,0,0,0-.757.744q-1.192,7.568-2.4,15.135a.783.783,0,0,0,.164.648.783.783,0,0,0,.6.285,16.9,16.9,0,0,0,2.121-.051c.555-.152.543-.795.631-1.261.2-1.11.341-2.22.467-3.345,2.485.479,5.373.152,7.227-1.728a8.708,8.708,0,0,0,2.144-6.155Zm-3.532,1.273a5.083,5.083,0,0,1-1.3,3.182c-1.047,1-2.636.857-3.922.517a.861.861,0,0,1-.076-.152c.2-1.1.3-2.208.555-3.292a7.721,7.721,0,0,1,2.787-2.982,1.17,1.17,0,0,1,1.4.252,3.546,3.546,0,0,1,.555,2.472Z" fill="#107bd4" stroke="#107bd4" stroke-width="0.005"/>
        </g>
      </g>
    </g>
  </g>
</svg>
