<svg xmlns="http://www.w3.org/2000/svg" xmlns:xlink="http://www.w3.org/1999/xlink" width="124" height="40" viewBox="0 0 124 40">
  <defs>
    <clipPath id="clip-path">
      <rect id="Rectangle_3713" data-name="Rectangle 3713" width="124" height="40" transform="translate(1006 520)" fill="#fff" stroke="#707070" stroke-width="1"/>
    </clipPath>
    <clipPath id="clip-path-2">
      <rect id="Rectangle_579" data-name="Rectangle 579" width="124" height="32.632" transform="translate(868 469.895)" fill="#e593e5"/>
    </clipPath>
  </defs>
  <g id="Mask_Group_98" data-name="Mask Group 98" transform="translate(-1006 -520)" clip-path="url(#clip-path)">
    <g id="Mask_Group_56" data-name="Mask Group 56" transform="translate(138 53.789)" clip-path="url(#clip-path-2)">
      <g id="decathlon-logo-1" transform="translate(868 470.752)">
        <path id="Path_2761" data-name="Path 2761" d="M0,.04V30.8l124,.082V.04Z" fill="#1482c2"/>
        <g id="Group_221" data-name="Group 221">
          <path id="Path_2762" data-name="Path 2762" d="M49.579,7.416,42.635,17.7a3.952,3.952,0,1,1-3.3-6.118,6.337,6.337,0,0,1,.706-.058,5.808,5.808,0,0,1,4.063,1.69l2.074-3.143a9.147,9.147,0,0,0-6.4-2.716c-4.466,0-8.558,3.686-8.558,8.143a8.12,8.12,0,0,0,8.128,8.058,8.33,8.33,0,0,0,5.821-2.429h4.784l.029,2.429h4.152V7.416H49.58Zm-1.9,10.17,2.275-3.169.029,3.169Zm14.408,5.973H57.937V11.186H54.71V7.443l10.605-.027v3.77H62.088ZM79.148,7.416H75l-.027,6.028h-4.9l-.031-6.028H65.891V23.559h4.178V17.186H75v6.373h4.15Zm33.256,0v7.513L106.7,7.417l-3.776.026-.029,5.888A8.138,8.138,0,0,0,86.928,15.5a8.767,8.767,0,0,0,1.123,4.144H83.939V7.416H79.71V23.559h9.668V21.3a8.554,8.554,0,0,0,5.677,2.259,8.2,8.2,0,0,0,7.839-5.859l.029,5.859h4.18V15.7l5.675,7.856h3.774l0-16.143H112.4Zm-17.349,12.2A4.134,4.134,0,1,1,98,18.428a4.115,4.115,0,0,1-2.947,1.189M26.2,19.644V17.385h4.455l-.008-3.941H26.2V11.388h4.909L31.1,7.417l-9.453.026v5.547A8.2,8.2,0,0,0,14.62,7.443L7.441,7.417V23.559h7.205a8.21,8.21,0,0,0,7-5.514v5.514h9.463L31.1,19.643H26.2Zm-9.137-1.686a2.553,2.553,0,0,1-2.42,1.885H11.994V11.186h2.651a2.518,2.518,0,0,1,2.42,1.916,7.473,7.473,0,0,1,.408,2.4,7.808,7.808,0,0,1-.408,2.458" fill="#fff"/>
        </g>
      </g>
    </g>
  </g>
</svg>
