<svg xmlns="http://www.w3.org/2000/svg" xmlns:xlink="http://www.w3.org/1999/xlink" width="124" height="40" viewBox="0 0 124 40">
  <defs>
    <clipPath id="clip-path">
      <rect id="Rectangle_3712" data-name="Rectangle 3712" width="124" height="40" transform="translate(832 520)" fill="#fff" stroke="#707070" stroke-width="1"/>
    </clipPath>
    <clipPath id="clip-path-2">
      <rect id="Rectangle_578" data-name="Rectangle 578" width="124" height="32.632" transform="translate(704.842 469.895)" fill="#e593e5"/>
    </clipPath>
  </defs>
  <g id="Mask_Group_97" data-name="Mask Group 97" transform="translate(-832 -520)" clip-path="url(#clip-path)">
    <g id="Mask_Group_55" data-name="Mask Group 55" transform="translate(127.158 53.789)" clip-path="url(#clip-path-2)">
      <g id="aquatrax-52097" transform="translate(750.526 469.895)">
        <path id="Path_2758" data-name="Path 2758" d="M125.439,15.2h-5.573l-2.984,2.636c.066-.4.066-.879.133-1.357.066-.639.133-1.038.133-1.278h-6.437l-.065,4.153-4.313,4,1.592-8.147H98.3l-8.292,8.543,1-1.677a4.849,4.849,0,0,0,.728-1.439.95.95,0,0,0-.53-.478,5.466,5.466,0,0,0-2.389-.48A11.237,11.237,0,0,0,92,19.2a3.35,3.35,0,0,0,1.659-1.438c.464-.8.464-1.357,0-1.757a5.179,5.179,0,0,0-2.322-.64c-1.061-.082-3.182-.163-6.3-.163H65.86L64.8,17.035l.332-1.837H55.511l-6.369,6.633c.066-.163.133-.24.2-.4L53.123,15.2h-6.7L42.242,22.15a4.349,4.349,0,0,1-.663.878,2.6,2.6,0,0,1-.929.163c-.4,0-.6-.082-.663-.163a1.536,1.536,0,0,1,.331-.8L44.564,15.2h-6.7L36.6,17.357c.066-.163.066-.319.133-.479a1.065,1.065,0,0,0-.6-.879,4.834,4.834,0,0,0-2.19-.719,25.86,25.86,0,0,0-3.782-.239c-1.261,0-2.389.082-3.517.163a13.1,13.1,0,0,0-2.855.72,4.116,4.116,0,0,0-1.85.954,5.7,5.7,0,0,0-1.194,1.438l-1.725,2.876c-.067,0-.067.082-.133.163l1.194-6.15H10.462L1.44,24.546h6.9l1.327-1.677h2.455l-.6,1.677h6.767l.2-1.2a3.21,3.21,0,0,0,1.393.72,14.217,14.217,0,0,0,3.649.478c-.2.32-.264.56-.2.72a2.385,2.385,0,0,0,.8.32,18.514,18.514,0,0,0,2.455.082h5.042l.729-1.119H30.034c-.729,0-1.261-.082-1.393-.082-.2-.082-.2-.245-.133-.4a18.091,18.091,0,0,0,2.787-.48,5.408,5.408,0,0,0,1.658-.64,9.563,9.563,0,0,0,.862-.958,2.547,2.547,0,0,0-.331.8q-.2.48.4.959a4.847,4.847,0,0,0,2.189.728,27.285,27.285,0,0,0,3.916.238,26.3,26.3,0,0,0,3.714-.238,14.089,14.089,0,0,0,2.919-.64c.332-.163.663-.32.929-.48l-1.061,1.2h6.9l1.326-1.677h2.456l-.664,1.677h6.771l1.459-7.505h3.916l-4.513,7.505h6.7l4.446-7.505H79.2l-4.513,7.505h6.635l2.587-4.234a4.675,4.675,0,0,1,1.592.163c.133.163.066.479-.265.959l-1.867,3.108H96.182l1.328-1.677h2.455L99.3,24.548h12.207l1.526-1.6c.662-.64,1.326-1.278,1.924-1.917a12.651,12.651,0,0,0-.067,3.514h6.171l-.465-5.191,4.843-4.154ZM12.917,21.273H10.662A52.249,52.249,0,0,1,14.377,17.2a41.13,41.13,0,0,0-1.459,4.073ZM29.9,17.6l-2.654,4.231a3.951,3.951,0,0,1-.8,1.038,1.6,1.6,0,0,1-.994.24c-.4,0-.664-.082-.664-.163-.065-.163.066-.478.4-1.039l2.654-4.312a2.622,2.622,0,0,1,.8-.879,2.819,2.819,0,0,1,.862-.163c.4,0,.6.082.663.163.065.163,0,.4-.265.879Zm28.063,3.671H55.643c.729-.878,1.924-2.236,3.715-4.073q-.9,2.4-1.393,4.073ZM87.62,17.52,87.289,18a1.332,1.332,0,0,1-.863.72,7.194,7.194,0,0,1-1.659.163l1.26-2.077a6.8,6.8,0,0,1,1.526.082c.2.163.267.319.067.639Zm13.071,3.753H98.435c.734-.878,1.924-2.236,3.716-4.073-.6,1.6-1.061,2.956-1.459,4.073Z" transform="translate(-47.124 -4.038)" fill="#fff22d" fill-rule="evenodd"/>
        <path id="Path_2759" data-name="Path 2759" d="M125.44,15.2h-5.573l-2.985,2.636c.067-.4.067-.878.133-1.357.066-.64.133-1.039.133-1.278h-6.437l-.065,4.153-4.313,4,1.593-8.147H98.3l-8.291,8.542.994-1.679a4.822,4.822,0,0,0,.729-1.437c0-.163-.2-.318-.53-.479a5.5,5.5,0,0,0-2.389-.479A11.216,11.216,0,0,0,92,19.193a3.345,3.345,0,0,0,1.659-1.438c.464-.8.464-1.357,0-1.756a5.166,5.166,0,0,0-2.322-.64c-1.061-.082-3.182-.163-6.3-.163H65.86L64.8,17.033l.332-1.837H55.511l-6.369,6.63c.066-.163.133-.24.2-.4l3.781-6.23h-6.7l-4.179,6.95a4.349,4.349,0,0,1-.663.878,2.611,2.611,0,0,1-.929.163c-.4,0-.6-.082-.663-.163a1.533,1.533,0,0,1,.331-.8l4.242-7.03H37.863L36.6,17.352a1.3,1.3,0,0,0,.133-.479,1.061,1.061,0,0,0-.6-.878,4.825,4.825,0,0,0-2.19-.719,25.85,25.85,0,0,0-3.782-.239c-1.261,0-2.389.082-3.516.163a13.143,13.143,0,0,0-2.855.719,4.122,4.122,0,0,0-1.858.959,5.711,5.711,0,0,0-1.193,1.437l-1.725,2.876c-.066,0-.066.082-.133.163l1.194-6.15H10.462L1.44,24.545h6.9l1.326-1.677h2.455l-.6,1.677h6.767l.2-1.2a3.217,3.217,0,0,0,1.393.72,14.222,14.222,0,0,0,3.649.478q-.3.48-.2.72a2.384,2.384,0,0,0,.8.32,18.506,18.506,0,0,0,2.455.082h5.042l.729-1.119H30.035c-.734,0-1.261-.082-1.393-.082-.2-.082-.2-.245-.133-.4a18.274,18.274,0,0,0,2.788-.48,5.4,5.4,0,0,0,1.661-.637,9.812,9.812,0,0,0,.862-.958,2.547,2.547,0,0,0-.331.8q-.2.48.4.959a4.851,4.851,0,0,0,2.19.72,27.278,27.278,0,0,0,3.916.238,26.308,26.308,0,0,0,3.715-.238,14.106,14.106,0,0,0,2.92-.64c.331-.163.662-.32.928-.48l-1.061,1.2h6.9l1.326-1.677h2.456l-.663,1.677h6.767l1.459-7.505h3.916l-4.512,7.505h6.7l4.446-7.505h3.916L74.7,24.545H81.33l2.587-4.232a4.694,4.694,0,0,1,1.592.163c.133.163.066.479-.265.959l-1.871,3.111H96.182l1.328-1.677h2.455L99.3,24.545h12.208l1.526-1.6c.662-.64,1.326-1.278,1.924-1.917a12.726,12.726,0,0,0-.066,3.514h6.17l-.464-5.191,4.842-4.154ZM12.917,21.27H10.662A51.906,51.906,0,0,1,14.377,17.2a41.034,41.034,0,0,0-1.459,4.073ZM29.9,17.6,27.247,21.83a3.979,3.979,0,0,1-.8,1.038,1.6,1.6,0,0,1-.994.24c-.4,0-.663-.082-.663-.163-.066-.163.066-.48.4-1.038l2.654-4.313a2.623,2.623,0,0,1,.8-.879,2.84,2.84,0,0,1,.862-.163c.4,0,.6.082.663.163.067.162,0,.4-.265.882ZM57.965,21.27H55.644c.727-.875,1.924-2.236,3.715-4.073q-.895,2.4-1.393,4.073Zm29.656-3.753L87.289,18a1.328,1.328,0,0,1-.862.719,7.179,7.179,0,0,1-1.659.163l1.26-2.077a6.791,6.791,0,0,1,1.526.082c.2.163.267.32.068.64Zm13.071,3.753H98.436c.734-.878,1.924-2.236,3.716-4.073-.6,1.6-1.061,2.953-1.459,4.073Z" transform="translate(-47.124 -4.036)" fill="none" stroke="#000" stroke-linecap="round" stroke-linejoin="round" stroke-width="1.224"/>
        <path id="Path_2760" data-name="Path 2760" d="M125.439,15.2h-5.573l-2.984,2.636c.066-.4.066-.879.133-1.357a12.7,12.7,0,0,1,.133-1.278h-6.437l-.065,4.153-4.313,4,1.592-8.147H98.238l-8.227,8.543,1-1.677c.463-.8.729-1.2.662-1.439,0-.163-.133-.32-.464-.478a5.466,5.466,0,0,0-2.389-.48A11.237,11.237,0,0,0,92,19.2a3.35,3.35,0,0,0,1.659-1.438c.464-.8.464-1.357,0-1.757a5.179,5.179,0,0,0-2.322-.64c-1.061-.082-3.182-.163-6.3-.163H65.86l-1.127,1.84.4-1.837H55.511l-6.369,6.63c.066-.163.133-.24.2-.4L53.123,15.2h-6.7L42.242,22.15a4.207,4.207,0,0,1-.729.878,1.958,1.958,0,0,1-.863.163c-.4,0-.6-.082-.663-.163-.066-.163.066-.4.331-.8L44.564,15.2h-6.7l-1.327,2.156a.666.666,0,0,0,.133-.479c.066-.32-.133-.639-.53-.879a4.834,4.834,0,0,0-2.19-.719,25.86,25.86,0,0,0-3.782-.239c-1.261,0-2.389.082-3.517.163a12.168,12.168,0,0,0-2.855.72,4.116,4.116,0,0,0-1.851.954,5.7,5.7,0,0,0-1.194,1.438l-1.725,2.876c-.067,0-.067.082-.133.163l1.194-6.15H10.462L1.44,24.546h6.9l1.327-1.677h2.455l-.6,1.677h6.767l.2-1.2a3.21,3.21,0,0,0,1.393.72,14.217,14.217,0,0,0,3.649.478c-.2.32-.264.56-.2.72a1.515,1.515,0,0,0,.8.32,18.514,18.514,0,0,0,2.455.082h5.042l.662-1.119H30.033c-.8,0-1.261-.082-1.393-.082-.2-.082-.2-.245-.133-.4a17.079,17.079,0,0,0,2.721-.48,5.9,5.9,0,0,0,1.725-.64,9.562,9.562,0,0,0,.862-.958c-.2.4-.331.638-.4.8a.968.968,0,0,0,.464.959,4.847,4.847,0,0,0,2.189.728,27.285,27.285,0,0,0,3.916.238,26.3,26.3,0,0,0,3.714-.238,12.536,12.536,0,0,0,2.855-.64,6.994,6.994,0,0,0,1-.48l-1.061,1.2h6.9l1.326-1.677h2.456l-.664,1.677H63.28l1.459-7.505h3.916l-4.513,7.505h6.634l4.513-7.505h3.916l-4.513,7.505h6.626L83.9,20.318a5,5,0,0,1,1.592.163c.133.163.066.479-.265.959l-1.858,3.108H96.182l1.328-1.677h2.455L99.3,24.548h12.207l1.526-1.6c.662-.64,1.326-1.278,1.924-1.917a12.651,12.651,0,0,0-.067,3.514h6.171l-.465-5.191,4.844-4.154ZM12.917,21.273H10.595q1.1-1.317,3.782-4.073a41.129,41.129,0,0,0-1.459,4.073ZM29.835,17.6l-2.588,4.231a2.887,2.887,0,0,1-.8,1.038,1.6,1.6,0,0,1-.994.24c-.4,0-.664-.082-.664-.163-.065-.163.066-.478.4-1.039l2.654-4.312c.265-.479.53-.8.8-.879a2.819,2.819,0,0,1,.862-.163c.4,0,.6.082.663.163.065.163-.066.4-.331.879ZM57.9,21.273H55.643c.729-.878,1.924-2.236,3.715-4.073-.6,1.6-1.061,2.956-1.459,4.073ZM87.621,17.52,87.289,18a1.332,1.332,0,0,1-.863.72,7.664,7.664,0,0,1-1.659.163l1.26-2.077a6.8,6.8,0,0,1,1.526.082c.2.163.267.319.067.639Zm13.071,3.753H98.436c.734-.878,1.924-2.236,3.716-4.073-.6,1.6-1.062,2.956-1.459,4.073Z" transform="translate(-47.124 -4.038)" fill="#fff22d" fill-rule="evenodd"/>
      </g>
    </g>
  </g>
</svg>
