<svg xmlns="http://www.w3.org/2000/svg" xmlns:xlink="http://www.w3.org/1999/xlink" width="124" height="40" viewBox="0 0 124 40">
  <defs>
    <clipPath id="clip-path">
      <rect id="Rectangle_3714" data-name="Rectangle 3714" width="124" height="40" transform="translate(1180 520)" fill="#fff" stroke="#707070" stroke-width="1"/>
    </clipPath>
    <clipPath id="clip-path-2">
      <rect id="Rectangle_572" data-name="Rectangle 572" width="124" height="32.632" transform="translate(52.211 463.368)" fill="#e593e5"/>
    </clipPath>
  </defs>
  <g id="Mask_Group_99" data-name="Mask Group 99" transform="translate(-1180 -520)" clip-path="url(#clip-path)">
    <g id="Mask_Group_51" data-name="Mask Group 51" transform="translate(1127.79 60.316)" clip-path="url(#clip-path-2)">
      <g id="surface1" transform="translate(52.211 471.282)">
        <path id="Path_2735" data-name="Path 2735" d="M94.651,6.526c1.432.56,3.353.791,4.818,1.242a3.747,3.747,0,0,1,3.053,3.872c-.007,2.8-2.024,5.124-6.014,5.108a10.492,10.492,0,0,1-4.885-1.4L91.3,11.429h.392A5.027,5.027,0,0,0,96.775,15.9c2.092.009,3.764-.967,4.148-2.832a2.625,2.625,0,0,0-1.876-3.345c-1.239-.444-3.133-.69-4.813-1.246-1.808-.6-3.028-1.747-3.023-3.791C91.218,1.8,93.866.028,97.267.052A10.329,10.329,0,0,1,101.3.9l.266,3.434h-.344a4.166,4.166,0,0,0-4.343-3.5c-2.417-.009-3.855,1.43-4.049,2.8a2.529,2.529,0,0,0,1.82,2.892Zm-91.209,0a2.524,2.524,0,0,1-1.821-2.89C1.815,2.264,3.253.825,5.671.834a4.165,4.165,0,0,1,4.342,3.5h.347L10.093.9A10.328,10.328,0,0,0,6.055.055C2.654.031.007,1.8,0,4.693,0,6.733,1.215,7.885,3.018,8.484c1.678.556,3.572.8,4.813,1.246a2.626,2.626,0,0,1,1.876,3.345c-.384,1.865-2.056,2.841-4.149,2.832A5.026,5.026,0,0,1,.477,11.433H.085l.326,3.916A10.492,10.492,0,0,0,5.3,16.75c3.99.016,6.007-2.309,6.013-5.108A3.746,3.746,0,0,0,8.264,7.77C6.8,7.32,4.876,7.088,3.443,6.526Zm118.967-4.8c0-1.075.956-1.04,1.59-1.04V.338h-5.139v.35c.638,0,1.593-.039,1.593,1.04V15.134c0,1.08-.956,1.04-1.59,1.04v.35H124v-.35c-.638,0-1.594.04-1.594-1.04Zm-44.927,1,5.011,13.8h1.486L88.892,2.358C89.419.836,90.123.687,91.134.687V.338h-4.87V.687a5.178,5.178,0,0,1,1.154.082.927.927,0,0,1,.665,1.159,6.2,6.2,0,0,1-.313,1.081L83.853,14.439h-.047L79.9,3.7a10.221,10.221,0,0,1-.52-1.749A1.024,1.024,0,0,1,79.752.875,1.852,1.852,0,0,1,80.827.688V.339H75.164V.688c1.317,0,1.785.566,2.319,2.039ZM37.176,1.915c.241-.671-.008-1.009-.38-1.142a2.344,2.344,0,0,0-.767-.082V.339h3.129l5.2,13.8c.562,1.406.954,2.039,2.345,2.039v.349H41.045v-.349a1.831,1.831,0,0,0,1.074-.187,1.013,1.013,0,0,0,.354-1.078,10.267,10.267,0,0,0-.544-1.749l-.807-2.143H34.793l-1.007,2.837a6.2,6.2,0,0,0-.326,1.081.916.916,0,0,0,.653,1.16,5.189,5.189,0,0,0,1.149.082v.349H30.39v-.349c1.012,0,1.722-.163,2.264-1.67L37.176,1.914Zm3.654,8.33L37.889,2.425h-.047l-2.774,7.82ZM51.492,9.137v.042l6.513,7.342H61.46v-.35a3.89,3.89,0,0,1-2.733-1.523L54.233,9.59c2.872-.315,5.292-1.818,5.292-4.869C59.525,2.144,57.47.337,53.6.337H47.53v.35c.639,0,1.594-.04,1.594,1.04l0,13.406c0,1.079-.956,1.04-1.589,1.04v.35h5.139v-.35c-.638,0-1.594.039-1.594-1.04l0-14.067H52.34c1.55,0,5.283-.075,5.283,3.809,0,4.036-3.734,4.259-5.283,4.259Zm55.253-7.408c0-1.079.955-1.04,1.589-1.04V.336h-5.139V.687c.637,0,1.593-.039,1.593,1.04l0,13.406c0,1.08-.956,1.04-1.589,1.04v.35h5.139v-.35c-.638,0-1.593.04-1.593-1.04Zm8.526,13.14-6.363-7.243s4.638-5.068,5.131-5.6a3.508,3.508,0,0,1,2.9-1.339V.337h-5.329v.35a5.993,5.993,0,0,1,1.264.082c.529.185.6.718-.052,1.433l-5.7,6.208v.021l7.037,8.092h3.421v-.349a3.647,3.647,0,0,1-2.318-1.305ZM29.272.338v.35a5.179,5.179,0,0,1,1.154.082.948.948,0,0,1,.7,1.16,6.249,6.249,0,0,1-.3,1.08L26.9,14.439h-.044L23.25,3.7a9.89,9.89,0,0,1-.477-1.748,1.051,1.051,0,0,1,.4-1.078A1.885,1.885,0,0,1,24.246.688V.338H18.635v.35c1.317,0,1.767.565,2.264,2.039l1.356,4.055-2.578,7.657h-.044L15.969,3.7a9.988,9.988,0,0,1-.489-1.748A1.047,1.047,0,0,1,15.87.874,1.884,1.884,0,0,1,16.955.687V.337H11.308v.35c1.317,0,1.771.565,2.276,2.039l4.693,13.8h1.505l2.872-8.547,2.855,8.547h1.506L31.892,2.358C32.413.843,33.13.687,34.142.687V.337ZM68.865.052c5.288,0,7.387,4.493,7.387,8.15,0,4.315-3.027,8.55-7.737,8.55-4.794,0-7.461-3.761-7.461-8.3C61.054,3.542,64.673.052,68.865.052Zm-5,11.883a7.348,7.348,0,0,0,3.48,3.345,5.221,5.221,0,0,0,3.889.035c3.076-1.232,3.17-5.183,3.191-5.613.163-3.191-1.224-6.511-3.76-7.891a5.5,5.5,0,0,0-5.282.024c-1.325.758-2.551,2.257-2.712,5.119a9.348,9.348,0,0,0,1.194,4.982" fill="#1a1818"/>
      </g>
    </g>
  </g>
</svg>
