<svg xmlns="http://www.w3.org/2000/svg" xmlns:xlink="http://www.w3.org/1999/xlink" width="15" height="15" viewBox="0 0 15 15">
  <defs>
    <clipPath id="clip-path">
      <rect id="Rectangle_3792" data-name="Rectangle 3792" width="15" height="15" transform="translate(24 221)" fill="#191919" stroke="#707070" stroke-width="1"/>
    </clipPath>
  </defs>
  <g id="Mask_Group_225" data-name="Mask Group 225" transform="translate(-24 -221)" clip-path="url(#clip-path)">
    <g id="logistic" transform="translate(24.001 222.26)">
      <path id="Path_5608" data-name="Path 5608" d="M15.122,3.087a.356.356,0,0,0-.259-.238L9.479,1.58a.355.355,0,0,0-.351.113l-1.482,1.7L6.2,1.693a.354.354,0,0,0-.353-.116L.415,2.842a.359.359,0,0,0-.186.586L1.8,5.191.254,6.962a.358.358,0,0,0,.035.505,13.3,13.3,0,0,0,1.578.415V11.7a.357.357,0,0,0,.234.334l5.414,1.991a.393.393,0,0,0,.25,0l5.429-2.049a.358.358,0,0,0,.232-.334V7.864l1.342-.32a.357.357,0,0,0,.264-.43c.1-.02-1.537-1.864-1.551-1.918l1.568-1.763a.355.355,0,0,0,.072-.347ZM1.163,3.4l4.63-1.078,1.2,1.4L2.4,4.794Zm.019,3.585,1.224-1.4,4.57,1.093L5.733,8.06Zm6.1,6.193-4.7-1.727V8.05l3.2.754A.358.358,0,0,0,6.123,8.7L7.286,7.4Zm.362-7.073L3.832,5.194,7.644,4.3l3.812.891Zm5.067,5.287L8,13.173,8,7.446,9.065,8.7a.368.368,0,0,0,.355.116l3.29-.783Zm1.33-4.41L9.466,8.071,8.291,6.685l4.583-1.1ZM12.883,4.792,8.306,3.723l1.22-1.4,4.593,1.082Z" transform="translate(-0.14 -1.568)" fill="#191919"/>
    </g>
  </g>
</svg>
