<svg xmlns="http://www.w3.org/2000/svg" xmlns:xlink="http://www.w3.org/1999/xlink" width="15" height="15" viewBox="0 0 15 15">
  <defs>
    <clipPath id="clip-path">
      <rect id="Rectangle_3794" data-name="Rectangle 3794" width="15" height="15" transform="translate(24 270)" fill="#191919" stroke="#191919" stroke-width="1"/>
    </clipPath>
  </defs>
  <g id="Mask_Group_227" data-name="Mask Group 227" transform="translate(-24 -270)" clip-path="url(#clip-path)">
    <path id="briefcase_5_" data-name="briefcase (5)" d="M14.426,3.753H10.937V2.9A1.117,1.117,0,0,0,9.82,1.787H6.265A1.117,1.117,0,0,0,5.148,2.9v.849H1.66A1.117,1.117,0,0,0,.543,4.87v8.6A1.117,1.117,0,0,0,1.66,14.591H14.426a1.117,1.117,0,0,0,1.117-1.117V4.87a1.117,1.117,0,0,0-1.117-1.117ZM5.786,2.9a.479.479,0,0,1,.479-.479H9.82A.479.479,0,0,1,10.3,2.9v.849H5.786ZM1.181,4.87a.479.479,0,0,1,.479-.479H14.426a.479.479,0,0,1,.479.479V6.9A2.1,2.1,0,0,1,12.811,9H9.353V8.01a.319.319,0,0,0-.319-.319H7.052a.319.319,0,0,0-.319.319V9H3.274A2.1,2.1,0,0,1,1.181,6.9Zm7.534,3.46V10.3H7.371V8.329Zm6.19,5.145a.479.479,0,0,1-.479.479H1.66a.479.479,0,0,1-.479-.479V8.655a2.727,2.727,0,0,0,2.094.98H6.732v.986a.319.319,0,0,0,.319.319H9.034a.319.319,0,0,0,.319-.319V9.635h3.458a2.727,2.727,0,0,0,2.093-.98Z" transform="translate(23.457 269.311)" fill="#191919" stroke="#191919" stroke-width="0.181"/>
  </g>
</svg>
