<svg xmlns="http://www.w3.org/2000/svg" xmlns:xlink="http://www.w3.org/1999/xlink" width="15" height="15" viewBox="0 0 15 15">
  <defs>
    <clipPath id="clip-path">
      <rect id="Rectangle_3795" data-name="Rectangle 3795" width="15" height="15" transform="translate(24 319)" fill="#191919" stroke="#707070" stroke-width="1"/>
    </clipPath>
  </defs>
  <g id="Mask_Group_228" data-name="Mask Group 228" transform="translate(-24 -319)" clip-path="url(#clip-path)">
    <g id="like_1_" data-name="like (1)" transform="translate(24 319.874)">
      <g id="Group_3539" data-name="Group 3539" transform="translate(0 0)">
        <path id="Path_5616" data-name="Path 5616" d="M13.906,2.292a3.778,3.778,0,0,0-6.032.434,5.751,5.751,0,0,0-.373.605,5.747,5.747,0,0,0-.373-.605,3.778,3.778,0,0,0-6.032-.434A4.547,4.547,0,0,0,0,5.312,5.568,5.568,0,0,0,1.534,8.966a34.141,34.141,0,0,0,3.838,3.586c.58.495,1.181,1.006,1.82,1.565l.019.017a.439.439,0,0,0,.579,0l.019-.017c.639-.559,1.239-1.071,1.82-1.565a34.136,34.136,0,0,0,3.838-3.586A5.568,5.568,0,0,0,15,5.312,4.547,4.547,0,0,0,13.906,2.292Zm-4.847,9.59c-.5.426-1.015.865-1.558,1.337-.543-.472-1.058-.911-1.558-1.337C2.893,9.285.879,7.568.879,5.312a3.669,3.669,0,0,1,.875-2.439,2.934,2.934,0,0,1,2.231-1A2.963,2.963,0,0,1,6.409,3.235a5.21,5.21,0,0,1,.673,1.338.439.439,0,0,0,.836,0,5.211,5.211,0,0,1,.673-1.338,2.9,2.9,0,0,1,4.656-.361,3.669,3.669,0,0,1,.875,2.439C14.121,7.568,12.107,9.285,9.058,11.883Z" transform="translate(0 -0.991)" fill="#191919"/>
      </g>
    </g>
  </g>
</svg>
