<svg xmlns="http://www.w3.org/2000/svg" xmlns:xlink="http://www.w3.org/1999/xlink" width="15" height="15" viewBox="0 0 15 15">
  <defs>
    <clipPath id="clip-path">
      <rect id="Rectangle_3791" data-name="Rectangle 3791" width="15" height="15" transform="translate(24 123)" fill="#191919"/>
    </clipPath>
  </defs>
  <g id="Mask_Group_224" data-name="Mask Group 224" transform="translate(-24 -123)" clip-path="url(#clip-path)">
    <path id="user_12_" data-name="user (12)" d="M13,8.962a6.613,6.613,0,0,0-1.687-1.056.551.551,0,1,0-.448,1.008,5.515,5.515,0,0,1,1.406.876,2.2,2.2,0,0,1,.745,1.653v1.02a.552.552,0,0,1-.551.551H1.654a.552.552,0,0,1-.551-.551v-1.02A2.2,2.2,0,0,1,1.848,9.79,7.752,7.752,0,0,1,7.059,8.162a4.086,4.086,0,1,0-2.486-.847A7.667,7.667,0,0,0,1.12,8.962,3.3,3.3,0,0,0,0,11.443v1.02a1.656,1.656,0,0,0,1.654,1.654H12.463a1.656,1.656,0,0,0,1.654-1.654v-1.02A3.3,3.3,0,0,0,13,8.962ZM4.081,4.081A2.978,2.978,0,1,1,7.059,7.059,2.981,2.981,0,0,1,4.081,4.081Zm0,0" transform="translate(24.441 123.882)" fill="#191919"/>
  </g>
</svg>
