<svg xmlns="http://www.w3.org/2000/svg" width="16.273" height="16.2" viewBox="0 0 16.273 16.2">
  <g id="editing" transform="translate(0.1 0.1)">
    <path id="Path_3115" data-name="Path 3115" d="M12.969,86.359a.469.469,0,0,0-.469.469V93.7a.782.782,0,0,1-.781.781h-10A.782.782,0,0,1,.938,93.7v-10a.782.782,0,0,1,.781-.781H8.594a.469.469,0,0,0,0-.938H1.719A1.721,1.721,0,0,0,0,83.7v10a1.721,1.721,0,0,0,1.719,1.719h10A1.721,1.721,0,0,0,13.438,93.7V86.828A.469.469,0,0,0,12.969,86.359Z" transform="translate(0 -79.421)" fill="#2874f0" stroke="#2874f0" stroke-width="0.2"/>
    <path id="Path_3116" data-name="Path 3116" d="M189.238,1.2,188.354.32a1.1,1.1,0,0,0-1.547,0l-7.071,7.071a.469.469,0,0,0-.128.24l-.442,2.21a.469.469,0,0,0,.552.552l2.21-.442a.469.469,0,0,0,.24-.128l7.071-7.071h0a1.1,1.1,0,0,0,0-1.547ZM181.6,9.059l-1.381.276.276-1.381L186.255,2.2l1.1,1.1Zm6.971-6.971-.552.552-1.1-1.1.552-.552a.156.156,0,0,1,.221,0l.884.884A.156.156,0,0,1,188.575,2.088Z" transform="translate(-173.558)" fill="#2874f0" stroke="#2874f0" stroke-width="0.2"/>
  </g>
</svg>
