<svg width="120" height="121" viewBox="0 0 120 121" fill="none" xmlns="http://www.w3.org/2000/svg">
<path d="M40.123 44.1079L46.8285 84.8728H93.8418L97.0105 50.2181L40.123 44.1079Z" fill="#F5F5F5"/>
<path d="M86.757 56.9705C87.0844 56.9996 87.4027 57.0933 87.6935 57.2463C87.9844 57.3994 88.2419 57.6086 88.4512 57.862C88.6605 58.1154 88.8174 58.4078 88.9129 58.7222C89.0083 59.0367 89.0403 59.367 89.007 59.694L87.3148 76.4682C87.2706 76.8785 87.0712 77.2563 86.7575 77.5244C86.4437 77.7925 86.0393 77.9304 85.6272 77.9101C85.215 77.8897 84.8262 77.7125 84.5404 77.4148C84.2546 77.1171 84.0934 76.7215 84.0898 76.3088L84.0547 59.4502C84.054 59.1052 84.1252 58.7638 84.2638 58.4478C84.4023 58.1318 84.6051 57.8481 84.8594 57.6148C85.1136 57.3815 85.4136 57.2038 85.7404 57.0928C86.0671 56.9819 86.4133 56.9402 86.757 56.9705Z" fill="#A9AFC4"/>
<path style="mix-blend-mode:multiply" d="M96.003 61.2524L93.8421 84.8751H81.4437C77.3445 74.1384 84.6312 62.4196 96.003 61.2524Z" fill="url(#paint0_linear_844_4251)"/>
<path d="M73.5871 104.593C75.9145 104.593 77.8012 102.706 77.8012 100.379C77.8012 98.0517 75.9145 96.165 73.5871 96.165C71.2597 96.165 69.373 98.0517 69.373 100.379C69.373 102.706 71.2597 104.593 73.5871 104.593Z" fill="#5E6175"/>
<path d="M73.5871 101.898C74.4259 101.898 75.1059 101.218 75.1059 100.379C75.1059 99.5403 74.4259 98.8604 73.5871 98.8604C72.7483 98.8604 72.0684 99.5403 72.0684 100.379C72.0684 101.218 72.7483 101.898 73.5871 101.898Z" fill="#F5F5F5"/>
<path d="M32.0959 104.593C34.4233 104.593 36.31 102.706 36.31 100.379C36.31 98.0517 34.4233 96.165 32.0959 96.165C29.7685 96.165 27.8818 98.0517 27.8818 100.379C27.8818 102.706 29.7685 104.593 32.0959 104.593Z" fill="#5E6175"/>
<path d="M32.0959 101.898C32.9347 101.898 33.6146 101.218 33.6146 100.379C33.6146 99.5403 32.9347 98.8604 32.0959 98.8604C31.2571 98.8604 30.5771 99.5403 30.5771 100.379C30.5771 101.218 31.2571 101.898 32.0959 101.898Z" fill="#F5F5F5"/>
<path d="M32.0957 105.299C31.1223 105.299 30.1707 105.01 29.3613 104.469C28.5519 103.929 27.921 103.16 27.5485 102.26C27.176 101.361 27.0785 100.371 27.2684 99.4167C27.4583 98.462 27.9271 97.585 28.6154 96.8967C29.3038 96.2083 30.1807 95.7396 31.1355 95.5497C32.0902 95.3597 33.0799 95.4572 33.9792 95.8297C34.8786 96.2023 35.6473 96.8331 36.1881 97.6425C36.7289 98.4519 37.0176 99.4035 37.0176 100.377C37.0176 101.682 36.499 102.934 35.576 103.857C34.653 104.78 33.4011 105.299 32.0957 105.299ZM32.0957 96.8613C31.4004 96.8613 30.7207 97.0675 30.1425 97.4538C29.5644 97.8401 29.1138 98.3892 28.8477 99.0316C28.5816 99.674 28.512 100.381 28.6476 101.063C28.7833 101.745 29.1181 102.371 29.6098 102.863C30.1015 103.355 30.7279 103.689 31.4098 103.825C32.0918 103.961 32.7987 103.891 33.4411 103.625C34.0835 103.359 34.6325 102.908 35.0188 102.33C35.4051 101.752 35.6113 101.072 35.6113 100.377C35.6095 99.4458 35.2383 98.5534 34.5791 97.8956C33.92 97.2378 33.0269 96.8684 32.0957 96.8684V96.8613Z" fill="#5E6175"/>
<path d="M73.5938 105.299C72.6203 105.299 71.6687 105.01 70.8593 104.469C70.0499 103.929 69.4191 103.16 69.0465 102.26C68.674 101.361 68.5765 100.371 68.7664 99.4167C68.9564 98.462 69.4251 97.585 70.1135 96.8967C70.8018 96.2083 71.6788 95.7396 72.6335 95.5497C73.5883 95.3597 74.5779 95.4572 75.4773 95.8297C76.3766 96.2023 77.1453 96.8331 77.6861 97.6425C78.227 98.4519 78.5156 99.4035 78.5156 100.377C78.5156 101.682 77.9971 102.934 77.074 103.857C76.151 104.78 74.8991 105.299 73.5938 105.299ZM73.5938 96.8613C72.8984 96.8613 72.2187 97.0675 71.6406 97.4538C71.0624 97.8401 70.6118 98.3892 70.3457 99.0316C70.0797 99.674 70.01 100.381 70.1457 101.063C70.2813 101.745 70.6162 102.371 71.1078 102.863C71.5995 103.355 72.2259 103.689 72.9079 103.825C73.5899 103.961 74.2967 103.891 74.9391 103.625C75.5815 103.359 76.1306 102.908 76.5169 102.33C76.9032 101.752 77.1094 101.072 77.1094 100.377C77.1075 99.4458 76.7363 98.5534 76.0772 97.8956C75.4181 97.2378 74.5249 96.8684 73.5938 96.8684V96.8613Z" fill="#5E6175"/>
<path d="M34.1777 30.7749L37.162 27.7906L38.1563 28.7848L35.172 31.7691L34.1777 30.7749Z" fill="#5E6175"/>
<path d="M30.5 24.8398H31.9062V29.0609H30.5V24.8398Z" fill="#5E6175"/>
<path d="M37.0078 33.791H41.2289V35.1973H37.0078V33.791Z" fill="#5E6175"/>
<path d="M40.1232 44.1079H21.7881L32.7896 84.8728H46.8287L40.1232 44.1079Z" fill="#F5F5F5"/>
<path d="M94.484 85.5787H46.2309L39.2793 43.3115L97.7746 49.5928L94.484 85.5787ZM47.4262 84.1725H93.1996L96.2465 50.8443L40.9668 44.9053L47.4262 84.1725Z" fill="#5E6175"/>
<path d="M47.6555 85.5787H32.25L20.8594 43.4053H40.7109L47.6555 85.5787ZM33.3281 84.1725H46.0008L39.525 44.8115H22.7062L33.3281 84.1725Z" fill="#5E6175"/>
<path d="M41.7516 44.8113H21.4875L12.5625 35.502H32.9766L41.7516 44.8113ZM22.0875 43.4051H38.4938L32.3695 36.9082H15.8602L22.0875 43.4051Z" fill="#5E6175"/>
<path d="M30.9566 38.6168H10.1465C9.51955 38.5973 8.92485 38.3345 8.48829 37.8841C8.05174 37.4337 7.80762 36.8311 7.80762 36.2039C7.80762 35.5767 8.05174 34.9741 8.48829 34.5237C8.92485 34.0733 9.51955 33.8106 10.1465 33.791H30.9566C31.5835 33.8106 32.1783 34.0733 32.6148 34.5237C33.0514 34.9741 33.2955 35.5767 33.2955 36.2039C33.2955 36.8311 33.0514 37.4337 32.6148 37.8841C32.1783 38.3345 31.5835 38.5973 30.9566 38.6168ZM10.1465 35.1879C9.88789 35.2004 9.64404 35.3119 9.46545 35.4993C9.28686 35.6867 9.18724 35.9357 9.18724 36.1945C9.18724 36.4534 9.28686 36.7024 9.46545 36.8898C9.64404 37.0772 9.88789 37.1887 10.1465 37.2012H30.9566C31.2152 37.1887 31.4591 37.0772 31.6376 36.8898C31.8162 36.7024 31.9159 36.4534 31.9159 36.1945C31.9159 35.9357 31.8162 35.6867 31.6376 35.4993C31.4591 35.3119 31.2152 35.2004 30.9566 35.1879H10.1465Z" fill="#5E6175"/>
<path d="M30.9568 34.4849H10.1466C9.70414 34.5012 9.28523 34.6886 8.97796 35.0074C8.6707 35.3263 8.49902 35.7518 8.49902 36.1946C8.49902 36.6374 8.6707 37.063 8.97796 37.3818C9.28523 37.7007 9.70414 37.888 10.1466 37.9044H30.9568C31.3993 37.888 31.8182 37.7007 32.1255 37.3818C32.4327 37.063 32.6044 36.6374 32.6044 36.1946C32.6044 35.7518 32.4327 35.3263 32.1255 35.0074C31.8182 34.6886 31.3993 34.5012 30.9568 34.4849Z" fill="#5E6175"/>
<path d="M47.5313 101.082H32.0859V84.873H33.4922V99.6762H46.125V84.873H47.5313V101.082Z" fill="#5E6175"/>
<path d="M87.8953 101.082H46.125V84.873H47.5312V99.6762H87.8953V101.082Z" fill="#5E6175"/>
<path d="M46.8283 104.593C49.1557 104.593 51.0424 102.706 51.0424 100.379C51.0424 98.0517 49.1557 96.165 46.8283 96.165C44.501 96.165 42.6143 98.0517 42.6143 100.379C42.6143 102.706 44.501 104.593 46.8283 104.593Z" fill="#5E6175"/>
<path d="M87.8977 104.593C90.225 104.593 92.1117 102.706 92.1117 100.379C92.1117 98.0517 90.225 96.165 87.8977 96.165C85.5703 96.165 83.6836 98.0517 83.6836 100.379C83.6836 102.706 85.5703 104.593 87.8977 104.593Z" fill="#5E6175"/>
<path d="M46.8281 105.299C45.8547 105.299 44.9031 105.01 44.0937 104.469C43.2843 103.929 42.6534 103.16 42.2809 102.26C41.9084 101.361 41.8109 100.371 42.0008 99.4167C42.1907 98.462 42.6595 97.585 43.3478 96.8967C44.0362 96.2083 44.9132 95.7396 45.8679 95.5497C46.8227 95.3597 47.8123 95.4572 48.7116 95.8297C49.611 96.2023 50.3797 96.8331 50.9205 97.6425C51.4613 98.4519 51.75 99.4035 51.75 100.377C51.75 101.682 51.2314 102.934 50.3084 103.857C49.3854 104.78 48.1335 105.299 46.8281 105.299ZM46.8281 96.8613C46.1328 96.8613 45.4531 97.0675 44.875 97.4538C44.2968 97.8401 43.8462 98.3892 43.5801 99.0316C43.314 99.674 43.2444 100.381 43.3801 101.063C43.5157 101.745 43.8505 102.371 44.3422 102.863C44.8339 103.355 45.4603 103.689 46.1423 103.825C46.8242 103.961 47.5311 103.891 48.1735 103.625C48.8159 103.359 49.365 102.908 49.7513 102.33C50.1376 101.752 50.3438 101.072 50.3438 100.377C50.3419 99.4458 49.9707 98.5534 49.3116 97.8956C48.6525 97.2378 47.7593 96.8684 46.8281 96.8684V96.8613Z" fill="#5E6175"/>
<path d="M87.8906 105.299C86.9172 105.299 85.9656 105.01 85.1562 104.469C84.3468 103.929 83.7159 103.16 83.3434 102.26C82.9709 101.361 82.8734 100.371 83.0633 99.4167C83.2532 98.462 83.722 97.585 84.4103 96.8967C85.0987 96.2083 85.9757 95.7396 86.9304 95.5497C87.8852 95.3597 88.8748 95.4572 89.7741 95.8297C90.6735 96.2023 91.4422 96.8331 91.983 97.6425C92.5238 98.4519 92.8125 99.4035 92.8125 100.377C92.8125 101.682 92.2939 102.934 91.3709 103.857C90.4479 104.78 89.196 105.299 87.8906 105.299ZM87.8906 96.8613C87.1953 96.8613 86.5156 97.0675 85.9375 97.4538C85.3593 97.8401 84.9087 98.3892 84.6426 99.0316C84.3765 99.674 84.3069 100.381 84.4426 101.063C84.5782 101.745 84.913 102.371 85.4047 102.863C85.8964 103.355 86.5228 103.689 87.2048 103.825C87.8867 103.961 88.5936 103.891 89.236 103.625C89.8784 103.359 90.4275 102.908 90.8138 102.33C91.2001 101.752 91.4063 101.072 91.4063 100.377C91.4044 99.4458 91.0332 98.5534 90.3741 97.8956C89.715 97.2378 88.8218 96.8684 87.8906 96.8684V96.8613Z" fill="#5E6175"/>
<path d="M46.8147 101.898C47.6534 101.898 48.3334 101.218 48.3334 100.379C48.3334 99.5403 47.6534 98.8604 46.8147 98.8604C45.9759 98.8604 45.2959 99.5403 45.2959 100.379C45.2959 101.218 45.9759 101.898 46.8147 101.898Z" fill="#F5F5F5"/>
<path d="M87.8977 101.898C88.7364 101.898 89.4164 101.218 89.4164 100.379C89.4164 99.5403 88.7364 98.8604 87.8977 98.8604C87.0589 98.8604 86.3789 99.5403 86.3789 100.379C86.3789 101.218 87.0589 101.898 87.8977 101.898Z" fill="#F5F5F5"/>
<path d="M55.1445 53.912C55.8572 53.9753 56.5203 54.3032 57.0032 54.8312C57.486 55.3592 57.7536 56.0489 57.7531 56.7643V76.2878C57.7344 76.6916 57.5673 77.0743 57.2838 77.3625C57.0002 77.6507 56.6203 77.8241 56.2168 77.8494C55.8133 77.8746 55.4147 77.75 55.0975 77.4995C54.7802 77.2489 54.5666 76.89 54.4977 76.4917L52.0508 57.1229C51.9973 56.6987 52.0396 56.2678 52.1744 55.862C52.3092 55.4562 52.5332 55.0857 52.8299 54.7777C53.1266 54.4698 53.4885 54.2322 53.889 54.0824C54.2896 53.9326 54.7186 53.8744 55.1445 53.912Z" fill="#A9AFC4"/>
<path d="M71.7709 55.6179C72.1471 55.6515 72.513 55.7589 72.8476 55.9341C73.1823 56.1092 73.4792 56.3486 73.7212 56.6385C73.9633 56.9285 74.1458 57.2633 74.2584 57.6239C74.3709 57.9844 74.4113 58.3637 74.3771 58.7398L72.7646 76.4234C72.7553 76.8585 72.5735 77.2721 72.2592 77.5732C71.9449 77.8743 71.5239 78.0382 71.0888 78.0289C70.6537 78.0196 70.2401 77.8378 69.939 77.5235C69.6379 77.2092 69.474 76.7882 69.4834 76.3531L68.6443 58.625C68.6235 58.2143 68.6912 57.8039 68.8426 57.4216C68.9941 57.0393 69.2258 56.6939 69.5222 56.4089C69.8186 56.1238 70.1727 55.9057 70.5606 55.7692C70.9486 55.6328 71.3613 55.5812 71.7709 55.6179Z" fill="#A9AFC4"/>
<path d="M10.6523 103.893H87.8977V105.299H10.6523V103.893Z" fill="#5E6175"/>
<path d="M58.641 41.7268V40.3205C59.0512 40.3496 59.4635 40.3236 59.8668 40.2432L60.2113 41.6049C59.6963 41.7197 59.1676 41.7608 58.641 41.7268ZM56.2973 41.7268H54.891V40.3205H56.2973V41.7268ZM62.4988 40.0158L61.3434 39.2166C61.5542 38.9134 61.6966 38.5679 61.7605 38.2041L63.1457 38.4385C63.0487 39.0054 62.8278 39.544 62.4988 40.0158ZM61.4301 36.4346C61.2379 36.1191 60.9806 35.8482 60.6754 35.64L61.4676 34.4682C61.9419 34.7896 62.3415 35.2092 62.6395 35.6986L61.4301 36.4346ZM58.852 35.1971H57.4457V33.7908H58.852V35.1971ZM55.102 35.1971C54.5915 35.2237 54.0797 35.2002 53.5738 35.1268L53.8246 33.7416C54.2479 33.798 54.6756 33.8144 55.102 33.7908V35.1971ZM51.1621 33.833C50.7745 33.4322 50.4653 32.9624 50.2504 32.4478L51.5465 31.9064C51.6937 32.2593 51.906 32.5813 52.1723 32.8557L51.1621 33.833ZM51.3965 30.0361L50.0254 29.7244C50.1487 29.1801 50.3738 28.6641 50.6887 28.2033L51.8605 28.9955C51.6357 29.3073 51.4719 29.6588 51.3777 30.0314L51.3965 30.0361ZM53.3301 27.84L52.8262 26.5158C53.3453 26.3253 53.8951 26.2323 54.448 26.2416V27.6478C54.0604 27.6397 53.6747 27.7049 53.3113 27.84H53.3301ZM68.0605 27.6525V26.2463C68.4808 26.2739 68.9028 26.2558 69.3191 26.1924L69.6051 27.5705C69.0888 27.6568 68.5643 27.6843 68.0418 27.6525H68.0605ZM65.7168 27.6525H64.3105V26.2463H65.7168V27.6525ZM61.9668 27.6525H60.5605V26.2463H61.9668V27.6525ZM58.2168 27.6525H56.8105V26.2463H58.2168V27.6525ZM71.9535 26.0775L70.8309 25.2291C71.0574 24.9367 71.2174 24.5983 71.2996 24.2377L72.673 24.5377C72.5477 25.0971 72.3022 25.6225 71.9535 26.0775ZM71.3488 22.0486C71.3488 22.0252 71.2387 22.0346 72.7551 22.0346L71.3488 22.0486Z" fill="#A9AFC4"/>
<path style="mix-blend-mode:multiply" d="M72.04 21.2332C72.04 20.7986 72.1256 20.3683 72.292 19.9668C72.4583 19.5652 72.702 19.2004 73.0093 18.8931C73.3166 18.5858 73.6815 18.3421 74.083 18.1757C74.4845 18.0094 74.9148 17.9238 75.3494 17.9238H77.8971C77.8971 18.3586 77.8114 18.7891 77.6449 19.1908C77.4785 19.5925 77.2345 19.9574 76.927 20.2647C76.6194 20.5721 76.2543 20.8158 75.8525 20.982C75.4507 21.1481 75.0201 21.2335 74.5854 21.2332H72.04Z" fill="url(#paint1_linear_844_4251)"/>
<path style="mix-blend-mode:multiply" d="M72.0406 21.2332C72.0406 20.7986 71.955 20.3683 71.7887 19.9668C71.6224 19.5652 71.3786 19.2004 71.0713 18.8931C70.764 18.5858 70.3992 18.3421 69.9977 18.1757C69.5962 18.0094 69.1658 17.9238 68.7312 17.9238H66.1836C66.1836 18.3586 66.2693 18.7891 66.4357 19.1908C66.6022 19.5925 66.8462 19.9574 67.1537 20.2647C67.4613 20.5721 67.8264 20.8158 68.2281 20.982C68.6299 21.1481 69.0605 21.2335 69.4953 21.2332H72.0406Z" fill="url(#paint2_linear_844_4251)"/>
<path d="M74.5854 21.9363H71.3369V21.2332C71.3382 20.1694 71.7613 19.1495 72.5135 18.3973C73.2657 17.6451 74.2856 17.2219 75.3494 17.2207H78.6002V17.9238C78.599 18.988 78.1755 20.0083 77.4228 20.7606C76.67 21.5128 75.6496 21.9357 74.5854 21.9363ZM72.8393 20.5301H74.5854C75.1562 20.5321 75.712 20.3471 76.1679 20.0035C76.6237 19.6598 76.9544 19.1763 77.1096 18.627H75.3611C74.7906 18.6251 74.2351 18.8101 73.7797 19.1538C73.3242 19.4975 72.9939 19.9809 72.8393 20.5301Z" fill="#5E6175"/>
<path d="M72.7437 21.9363H69.4953C68.4311 21.9357 67.4106 21.5128 66.6579 20.7606C65.9052 20.0083 65.4817 18.988 65.4805 17.9238V17.2207H68.7312C69.795 17.2219 70.8149 17.6451 71.5671 18.3973C72.3194 19.1495 72.7425 20.1694 72.7437 21.2332V21.9363ZM66.9828 18.627C67.1374 19.1744 67.4664 19.6565 67.9198 19.9999C68.3733 20.3434 68.9265 20.5295 69.4953 20.5301H71.2508C71.0966 19.9828 70.7681 19.5008 70.315 19.1573C69.862 18.8138 69.3092 18.6276 68.7406 18.627H66.9828Z" fill="#5E6175"/>
<path style="mix-blend-mode:multiply" d="M89.5316 22.8878C89.2234 22.5802 88.979 22.2149 88.8122 21.8127C88.6454 21.4105 88.5596 20.9794 88.5596 20.544C88.5596 20.1087 88.6454 19.6776 88.8122 19.2754C88.979 18.8732 89.2234 18.5079 89.5316 18.2003L91.3339 16.3979C91.6417 16.7057 91.8859 17.0711 92.0526 17.4732C92.2192 17.8754 92.3049 18.3064 92.3049 18.7417C92.3049 19.177 92.2192 19.608 92.0526 20.0102C91.8859 20.4123 91.6417 20.7777 91.3339 21.0854L89.5316 22.8878Z" fill="url(#paint3_linear_844_4251)"/>
<path style="mix-blend-mode:multiply" d="M89.5314 22.8875C89.224 22.5791 88.8587 22.3344 88.4565 22.1675C88.0543 22.0005 87.6232 21.9146 87.1877 21.9146C86.7522 21.9146 86.321 22.0005 85.9189 22.1675C85.5167 22.3344 85.1514 22.5791 84.8439 22.8875L83.0439 24.6875C83.3512 24.9962 83.7165 25.2411 84.1187 25.4083C84.5209 25.5754 84.9521 25.6615 85.3877 25.6615C85.8232 25.6615 86.2545 25.5754 86.6567 25.4083C87.0589 25.2411 87.4242 24.9962 87.7314 24.6875L89.5314 22.8875Z" fill="url(#paint4_linear_844_4251)"/>
<path d="M89.5315 23.8814L89.0347 23.3846C88.6618 23.0119 88.3659 22.5695 88.1641 22.0825C87.9623 21.5955 87.8584 21.0735 87.8584 20.5463C87.8584 20.0191 87.9623 19.4971 88.1641 19.0101C88.3659 18.5231 88.6618 18.0806 89.0347 17.708L91.3339 15.4111L91.8307 15.908C92.2036 16.2806 92.4995 16.7231 92.7013 17.2101C92.9031 17.6971 93.007 18.2191 93.007 18.7463C93.007 19.2735 92.9031 19.7955 92.7013 20.2825C92.4995 20.7695 92.2036 21.2119 91.8307 21.5846L89.5315 23.8814ZM91.2659 17.4666L90.0307 18.7041C89.6285 19.107 89.3692 19.6306 89.2926 20.1948C89.216 20.759 89.3263 21.3327 89.6065 21.8283L90.8417 20.5932C91.2445 20.1902 91.5045 19.6665 91.582 19.102C91.6594 18.5375 91.5501 17.9632 91.2706 17.4666H91.2659Z" fill="#5E6175"/>
<path d="M82.5594 25.1844L82.0625 24.6875L84.3594 22.3906C84.732 22.0177 85.1745 21.7219 85.6615 21.5201C86.1485 21.3182 86.6705 21.2144 87.1977 21.2144C87.7248 21.2144 88.2468 21.3182 88.7338 21.5201C89.2208 21.7219 89.6633 22.0177 90.0359 22.3906L90.5328 22.8875L88.2336 25.1844C87.8615 25.5577 87.4193 25.854 86.9325 26.0562C86.4456 26.2583 85.9236 26.3624 85.3965 26.3624C84.8693 26.3624 84.3474 26.2583 83.8605 26.0562C83.3737 25.854 82.9315 25.5577 82.5594 25.1844ZM84.118 24.6219C84.6139 24.901 85.1877 25.01 85.7516 24.9321C86.3154 24.8543 86.8381 24.5938 87.2398 24.1906L88.475 22.9554C87.979 22.6767 87.4056 22.5678 86.842 22.6452C86.2784 22.7227 85.7555 22.9822 85.3531 23.3844L84.118 24.6219Z" fill="#5E6175"/>
<path d="M97.7794 44.8109L97.7489 43.4046C98.1285 43.398 98.5033 43.3184 98.8528 43.1703L99.4083 44.4617C98.8928 44.6817 98.3398 44.8002 97.7794 44.8109ZM75.8068 44.1078H74.4005V42.7015H75.8068V44.1078ZM95.1568 44.007C94.7 43.6833 94.3094 43.2751 94.006 42.8046L95.1778 42.0429C95.3849 42.3624 95.6505 42.64 95.9607 42.8609L95.1568 44.007ZM101.464 42.6382L100.25 41.9351C100.441 41.6076 100.566 41.2463 100.62 40.8711L102.012 41.0703C101.933 41.6235 101.746 42.1561 101.464 42.6382ZM75.8068 40.3578H74.4005C74.3703 39.8304 74.4169 39.3014 74.5388 38.7875L75.9005 39.1367C75.8117 39.5372 75.7801 39.9484 75.8068 40.3578ZM94.7161 40.1914H93.3099C93.3339 39.7964 93.2911 39.4002 93.1833 39.0195L94.5286 38.6093C94.6783 39.1227 94.7417 39.6573 94.7161 40.1914ZM102.057 38.6234H100.651V37.2171H102.057V38.6234ZM76.906 37.5687L76.02 36.4765C76.4551 36.1236 76.954 35.8579 77.4896 35.6937L77.9021 37.0367C77.539 37.1486 77.2009 37.3292 76.906 37.5687ZM92.1052 37.4867C91.801 37.2602 91.4554 37.0954 91.088 37.0015L91.4396 35.6398C91.9827 35.7776 92.4932 36.0214 92.9419 36.357L92.1052 37.4867ZM88.9294 36.9078H87.5232V35.5015H88.9294V36.9078ZM85.1794 36.9078H83.7732V35.5015H85.1794V36.9078ZM81.4294 36.9078H80.0232V35.5015H81.4294V36.9078ZM102.054 34.8734H100.648V33.4671H102.054V34.8734ZM102.054 31.1234H100.648V29.7171H102.054V31.1234ZM100.508 27.6078C100.393 27.2462 100.209 26.9103 99.9661 26.6187L101.047 25.7187C101.406 26.15 101.678 26.6466 101.848 27.1812L100.508 27.6078ZM98.3982 25.6296C97.9929 25.5462 97.5782 25.5179 97.1653 25.5453V24.139C97.6905 24.1086 98.2172 24.1504 98.731 24.2632L98.3982 25.6296ZM94.8216 25.5453H93.4153V24.139H94.8216V25.5453Z" fill="#A9AFC4"/>
<path d="M25.0289 83.5019C24.6776 83.5019 24.3317 83.4155 24.0217 83.2502C23.7117 83.0849 23.4472 82.8458 23.2515 82.5541C23.0558 82.2624 22.9349 81.927 22.8995 81.5774C22.8642 81.2279 22.9154 80.8751 23.0487 80.5501C23.182 80.225 23.3933 79.9378 23.6638 79.7138C23.9344 79.4898 24.256 79.3358 24.6002 79.2655C24.9444 79.1952 25.3006 79.2107 25.6373 79.3106C25.9741 79.4106 26.2811 79.5919 26.5312 79.8386C26.8345 80.1362 27.0423 80.5175 27.1279 80.9337C27.2135 81.3499 27.1731 81.7822 27.0119 82.1754C26.8507 82.5686 26.5759 82.9048 26.2227 83.141C25.8694 83.3773 25.4538 83.5029 25.0289 83.5019ZM25.0289 80.6284C24.8836 80.6284 24.7416 80.6716 24.6208 80.7524C24.5001 80.8332 24.4061 80.9481 24.3507 81.0824C24.2953 81.2167 24.281 81.3644 24.3097 81.5069C24.3384 81.6493 24.4087 81.78 24.5118 81.8824C24.6149 81.9848 24.746 82.0543 24.8886 82.0821C25.0312 82.1099 25.1789 82.0947 25.3129 82.0384C25.4468 81.9822 25.5611 81.8874 25.6411 81.7662C25.7211 81.6449 25.7634 81.5026 25.7625 81.3573C25.7612 81.1636 25.6834 80.9782 25.5459 80.8416C25.4085 80.7051 25.2226 80.6284 25.0289 80.6284Z" fill="#5E6175"/>
<path d="M17.5901 94.616C17.0136 94.616 16.4499 94.4453 15.9702 94.1254C15.4904 93.8056 15.1161 93.3509 14.8944 92.8186C14.6727 92.2864 14.6136 91.7004 14.7243 91.1345C14.8351 90.5687 15.111 90.0483 15.517 89.639C15.9231 89.2297 16.4413 88.9497 17.0062 88.8344C17.5711 88.7191 18.1575 88.7736 18.6916 88.991C19.2256 89.2085 19.6833 89.5791 20.0069 90.0563C20.3306 90.5334 20.5058 91.0957 20.5105 91.6723C20.5132 92.0577 20.4398 92.4398 20.2943 92.7967C20.1488 93.1535 19.9342 93.4781 19.6627 93.7517C19.3913 94.0253 19.0685 94.2425 18.7128 94.3909C18.3571 94.5392 17.9755 94.6157 17.5901 94.616ZM17.5901 90.184C17.2902 90.184 16.997 90.2731 16.7478 90.44C16.4985 90.6069 16.3045 90.844 16.1902 91.1214C16.076 91.3987 16.0467 91.7038 16.1061 91.9978C16.1655 92.2918 16.3108 92.5615 16.5237 92.7728C16.7367 92.9841 17.0075 93.1273 17.302 93.1844C17.5965 93.2415 17.9013 93.2099 18.1777 93.0935C18.4542 92.9771 18.6898 92.7812 18.8548 92.5307C19.0197 92.2801 19.1065 91.9863 19.1042 91.6863C19.1005 91.287 18.9394 90.9053 18.6559 90.624C18.3725 90.3427 17.9895 90.1846 17.5901 90.184Z" fill="#5E6175"/>
<path d="M97.8098 92.4149C105.405 92.4149 111.563 86.2575 111.563 78.6618C111.563 71.0662 105.405 64.9087 97.8098 64.9087C90.2141 64.9087 84.0566 71.0662 84.0566 78.6618C84.0566 86.2575 90.2141 92.4149 97.8098 92.4149Z" fill="#F5F5F5"/>
<path d="M97.8096 93.1203C94.9498 93.1208 92.1542 92.2732 89.7762 90.6847C87.3982 89.0963 85.5446 86.8383 84.4499 84.1964C83.3552 81.5545 83.0685 78.6473 83.6262 75.8424C84.1838 73.0376 85.5607 70.4611 87.5826 68.4388C89.6046 66.4165 92.1809 65.0392 94.9856 64.4811C97.7904 63.923 100.698 64.2092 103.34 65.3035C105.982 66.3978 108.24 68.251 109.829 70.6287C111.418 73.0065 112.266 75.802 112.266 78.6617C112.262 82.4948 110.738 86.1699 108.028 88.8806C105.318 91.5912 101.643 93.116 97.8096 93.1203ZM97.8096 65.6117C95.2279 65.6113 92.704 66.3764 90.5572 67.8105C88.4104 69.2445 86.7371 71.283 85.7489 73.6681C84.7607 76.0532 84.502 78.6778 85.0056 81.2099C85.5091 83.742 86.7523 86.0679 88.5778 87.8935C90.4034 89.719 92.7293 90.9622 95.2614 91.4657C97.7935 91.9693 100.418 91.7106 102.803 90.7224C105.188 89.7342 107.227 88.0609 108.661 85.9141C110.095 83.7673 110.86 81.2434 110.86 78.6617C110.855 75.202 109.479 71.8852 107.033 69.4388C104.586 66.9924 101.269 65.6161 97.8096 65.6117Z" fill="#5E6175"/>
<path d="M90.4189 82.2124L101.355 71.276L105.059 74.9795L94.1224 85.9159L90.4189 82.2124Z" fill="#E1830E"/>
<path d="M90.4209 74.9795L94.1244 71.276L105.061 82.2124L101.357 85.9159L90.4209 74.9795Z" fill="#E1830E"/>
<defs>
<linearGradient id="paint0_linear_844_4251" x1="80.2905" y1="73.0626" x2="96.003" y2="73.0626" gradientUnits="userSpaceOnUse">
<stop stop-color="#CACFDD"/>
<stop offset="1" stop-color="#EEF0F1"/>
</linearGradient>
<linearGradient id="paint1_linear_844_4251" x1="72.04" y1="19.5785" x2="77.8971" y2="19.5785" gradientUnits="userSpaceOnUse">
<stop stop-color="#CACFDD"/>
<stop offset="1" stop-color="#EEF0F1"/>
</linearGradient>
<linearGradient id="paint2_linear_844_4251" x1="66.1836" y1="19.5785" x2="72.0406" y2="19.5785" gradientUnits="userSpaceOnUse">
<stop stop-color="#CACFDD"/>
<stop offset="1" stop-color="#EEF0F1"/>
</linearGradient>
<linearGradient id="paint3_linear_844_4251" x1="88.6619" y1="21.5013" x2="92.8204" y2="17.3428" gradientUnits="userSpaceOnUse">
<stop stop-color="#CACFDD"/>
<stop offset="1" stop-color="#EEF0F1"/>
</linearGradient>
<linearGradient id="paint4_linear_844_4251" x1="84.5033" y1="25.6595" x2="88.6618" y2="21.5011" gradientUnits="userSpaceOnUse">
<stop stop-color="#CACFDD"/>
<stop offset="1" stop-color="#EEF0F1"/>
</linearGradient>
</defs>
</svg>
