<svg xmlns="http://www.w3.org/2000/svg" xmlns:xlink="http://www.w3.org/1999/xlink" width="21" height="21" viewBox="0 0 21 21">
  <defs>
    <clipPath id="clip-path">
      <rect id="Rectangle_686" data-name="Rectangle 686" width="21" height="21" transform="translate(28 403)" fill="#4f5f6d" stroke="#4f5f6d" stroke-width="0.2"/>
    </clipPath>
  </defs>
  <g id="Mask_Group_78" data-name="Mask Group 78" transform="translate(-28 -403)" clip-path="url(#clip-path)">
    <g id="Layer_x0020_1" transform="translate(27.99 402.989)">
      <path id="Path_2987" data-name="Path 2987" d="M5.738,14.877a2.485,2.485,0,0,1-.754-.166H.831v3.22A2.262,2.262,0,0,0,3.09,20.19H6.31V15.468c-1.159,1.272-1.993,1.379-2.239,1.379a.461.461,0,0,1-.062,0l.082-.817-.017,0c.013,0,.647-.013,1.664-1.148ZM.831,13.891H3.892a1.841,1.841,0,0,1-.1-2.519,1.84,1.84,0,0,1,2.517.1V.831H3.09A2.262,2.262,0,0,0,.831,3.09ZM7.13.831V11.473a1.84,1.84,0,0,1,2.521-.1,1.84,1.84,0,0,1-.1,2.519H20.19V3.09A2.262,2.262,0,0,0,17.931.831H7.13Zm13.06,13.88H8.457a2.487,2.487,0,0,1-.756.166c1.018,1.136,1.653,1.15,1.666,1.15l-.017,0,.082.817-.063,0c-.244,0-1.079-.106-2.239-1.379V20.19h10.8a2.262,2.262,0,0,0,2.259-2.259Zm-2.259,6.3H3.09a3.082,3.082,0,0,1-3.08-3.08V3.09A3.082,3.082,0,0,1,3.09.01H17.931a3.082,3.082,0,0,1,3.08,3.08V17.931A3.082,3.082,0,0,1,17.931,21.01Zm-9.75-7.073a.41.41,0,0,1,.057-.024,1.691,1.691,0,0,0,.5-.347c.668-.668.639-1.3.33-1.613s-.945-.337-1.613.33a1.7,1.7,0,0,0-.341.488.409.409,0,0,1-.385.289H6.716a.41.41,0,0,1-.378-.25,1.635,1.635,0,0,0-.359-.528,1.559,1.559,0,0,0-1.068-.54.749.749,0,0,0-.54.21c-.309.309-.337.945.33,1.613a1.7,1.7,0,0,0,.5.347.409.409,0,0,1,.057.025,1.681,1.681,0,0,0,1.273,0,.411.411,0,0,1,.388.005,1.676,1.676,0,0,0,1.261,0Z" fill="#4f5f6d" stroke="#4f5f6d" stroke-width="0.2" fill-rule="evenodd"/>
    </g>
  </g>
</svg>
