<svg xmlns="http://www.w3.org/2000/svg" xmlns:xlink="http://www.w3.org/1999/xlink" width="20" height="20" viewBox="0 0 20 20">
  <defs>
    <clipPath id="clip-path">
      <rect id="Rectangle_296" data-name="Rectangle 296" width="20" height="20" transform="translate(480 32)" fill="#fff" stroke="#333" stroke-width="1"/>
    </clipPath>
  </defs>
  <g id="Mask_Group_35" data-name="Mask Group 35" transform="translate(-480 -32)" clip-path="url(#clip-path)">
    <g id="_x32_023_x5F_41_-_Layer_78_x2C__Network_x2C__protection_x2C__security_x2C__shield_x2C__web" transform="translate(480.336 32.336)">
      <g id="Group_132" data-name="Group 132">
        <g id="Group_131" data-name="Group 131">
          <g id="Group_124" data-name="Group 124" transform="translate(4.718)">
            <path id="Path_2692" data-name="Path 2692" d="M11.527,20c-1.339,0-2.586-1.02-3.512-2.873a15.477,15.477,0,0,1-1.4-6.761,15.477,15.477,0,0,1,1.4-6.761C8.941,1.755,10.189.735,11.527.735s2.586,1.02,3.512,2.873a15.478,15.478,0,0,1,1.4,6.761,15.477,15.477,0,0,1-1.4,6.761C14.113,18.982,12.866,20,11.527,20Zm0-18.874c-1.182,0-2.3.943-3.161,2.655a15.082,15.082,0,0,0-1.361,6.585,15.082,15.082,0,0,0,1.361,6.585c.856,1.712,1.979,2.655,3.161,2.655s2.3-.943,3.161-2.655a15.082,15.082,0,0,0,1.361-6.585,15.082,15.082,0,0,0-1.361-6.585C13.832,2.071,12.709,1.128,11.527,1.128Z" transform="translate(-6.612 -0.735)" fill="#fff" stroke="#333" stroke-width="0.5"/>
          </g>
          <g id="Group_128" data-name="Group 128" transform="translate(0 0)">
            <g id="Group_125" data-name="Group 125" transform="translate(0 3.146)">
              <path id="Path_2693" data-name="Path 2693" d="M17.4,17.629a.2.2,0,0,1-.1-.025,14.753,14.753,0,0,0-6.937-1.548A14.753,14.753,0,0,0,3.431,17.6a.2.2,0,0,1-.242-.041,9.632,9.632,0,0,1,0-12.845.2.2,0,0,1,.242-.041,14.753,14.753,0,0,0,6.937,1.548,14.753,14.753,0,0,0,6.937-1.548.2.2,0,0,1,.242.041,9.632,9.632,0,0,1,0,12.845.2.2,0,0,1-.147.065Zm-7.033-1.966a15.332,15.332,0,0,1,6.99,1.521,9.238,9.238,0,0,0,0-12.087,15.332,15.332,0,0,1-6.99,1.522A15.332,15.332,0,0,1,3.379,5.1a9.239,9.239,0,0,0,0,12.087A15.333,15.333,0,0,1,10.368,15.663Z" transform="translate(-0.735 -4.653)" fill="#fff" stroke="#333" stroke-width="0.5"/>
            </g>
            <g id="Group_126" data-name="Group 126" transform="translate(2.404)">
              <path id="Path_2694" data-name="Path 2694" d="M10.959,5.846a15.153,15.153,0,0,1-7.129-1.6.2.2,0,0,1-.051-.3,9.632,9.632,0,0,1,14.359,0,.2.2,0,0,1-.051.3,15.153,15.153,0,0,1-7.129,1.6ZM4.241,4.024a15.041,15.041,0,0,0,6.717,1.429,15.04,15.04,0,0,0,6.717-1.429,9.238,9.238,0,0,0-13.435,0Z" transform="translate(-3.729 -0.735)" fill="#fff" stroke="#333" stroke-width="0.5"/>
            </g>
            <g id="Group_127" data-name="Group 127" transform="translate(2.404 14.155)">
              <path id="Path_2695" data-name="Path 2695" d="M10.959,23.479a9.648,9.648,0,0,1-7.18-3.211.2.2,0,0,1,.051-.3,15.153,15.153,0,0,1,7.129-1.6,15.153,15.153,0,0,1,7.129,1.6.2.2,0,0,1,.051.3,9.648,9.648,0,0,1-7.18,3.211ZM4.241,20.19a9.238,9.238,0,0,0,13.435,0,15.04,15.04,0,0,0-6.717-1.429A15.04,15.04,0,0,0,4.241,20.19Z" transform="translate(-3.729 -18.367)" fill="#fff" stroke="#333" stroke-width="0.5"/>
            </g>
          </g>
          <g id="Group_129" data-name="Group 129" transform="translate(0 9.437)">
            <path id="Path_2696" data-name="Path 2696" d="M19.805,12.883H.931a.2.2,0,0,1,0-.393H19.805a.2.2,0,0,1,0,.393Z" transform="translate(-0.735 -12.49)" fill="#fff" stroke="#333" stroke-width="0.5"/>
          </g>
          <g id="Group_130" data-name="Group 130" transform="translate(9.437)">
            <path id="Path_2697" data-name="Path 2697" d="M12.686,20a.2.2,0,0,1-.2-.2V.931a.2.2,0,0,1,.393,0V19.805A.2.2,0,0,1,12.686,20Z" transform="translate(-12.49 -0.735)" fill="#fff" stroke="#333" stroke-width="0.5"/>
          </g>
        </g>
      </g>
    </g>
  </g>
</svg>
