<svg xmlns="http://www.w3.org/2000/svg" width="17.569" height="17.2" viewBox="0 0 17.569 17.2">
  <g id="delivery-box-01-stroke-rounded_4_" data-name="delivery-box-01-stroke-rounded (4)" transform="translate(-1.215 -1.4)">
    <path id="Path_12585" data-name="Path 12585" d="M2,12.343V8H18v4.343c0,3.232,0,4.849-1.041,5.853s-2.718,1-6.07,1H9.111c-3.352,0-5.028,0-6.07-1S2,15.575,2,12.343Z" transform="translate(0 -1.2)" fill="none" stroke="#333" stroke-linecap="round" stroke-linejoin="round" stroke-width="1.2"/>
    <path id="Path_12586" data-name="Path 12586" d="M2,6.8l.769-1.846c.6-1.432.895-2.148,1.5-2.551S5.649,2,7.2,2h5.6c1.551,0,2.327,0,2.931.4s.9,1.119,1.5,2.551L18,6.8" fill="none" stroke="#333" stroke-linecap="round" stroke-width="1.2"/>
    <path id="Path_12587" data-name="Path 12587" d="M12,6.8V2" transform="translate(-2)" fill="none" stroke="#333" stroke-linecap="round" stroke-width="1.2"/>
    <path id="Path_12588" data-name="Path 12588" d="M10,12h3.2" transform="translate(-1.6 -2)" fill="none" stroke="#333" stroke-linecap="round" stroke-width="1.2"/>
  </g>
</svg>
