<svg width="20" height="20" viewBox="0 0 20 20" fill="none" xmlns="http://www.w3.org/2000/svg">
<mask id="mask0_3_46" style="mask-type:luminance" maskUnits="userSpaceOnUse" x="0" y="0" width="20" height="20">
<path d="M20 0H0V20H20V0Z" fill="white"/>
</mask>
<g mask="url(#mask0_3_46)">
<path d="M9.9675 18.5559C9.69406 18.556 9.4299 18.4568 9.22416 18.2766C8.4475 17.5975 7.69834 16.9584 7.03666 16.3959C5.32552 15.0315 3.72729 13.5314 2.2575 11.91C1.07257 10.6323 0.394355 8.96621 0.349999 7.22417C0.324175 5.71237 0.868983 4.24636 1.87584 3.11834C2.36452 2.58582 2.9594 2.16165 3.62209 1.87314C4.28479 1.58464 5.00059 1.43822 5.72334 1.44334C6.81996 1.43854 7.88569 1.80641 8.74584 2.48667C9.21201 2.85129 9.62344 3.28095 9.9675 3.7625C10.3116 3.28095 10.723 2.85129 11.1892 2.48667C12.0493 1.80641 13.115 1.43854 14.2116 1.44334C14.9344 1.43822 15.6502 1.58464 16.3129 1.87314C16.9756 2.16165 17.5705 2.58582 18.0591 3.11834C19.066 4.24636 19.6109 5.71237 19.585 7.22417C19.5407 8.96622 18.8625 10.6323 17.6775 11.91C16.2089 13.5301 14.6121 15.0291 12.9025 16.3925C12.24 16.9566 11.49 17.5959 10.7117 18.2775C10.5059 18.4575 10.2409 18.556 9.9675 18.5559ZM5.72334 2.57C5.15637 2.56556 4.59477 2.67999 4.07476 2.90591C3.55474 3.13184 3.08784 3.46422 2.70416 3.88167C1.88948 4.80197 1.45122 5.99534 1.47666 7.22417C1.51934 8.7049 2.10617 10.118 3.125 11.1933C4.5547 12.7613 6.10681 14.2131 7.76666 15.535C8.43334 16.1009 9.18334 16.7416 9.965 17.4259C10.7525 16.74 11.5058 16.0984 12.1708 15.5316C13.8294 14.2106 15.3804 12.76 16.8091 11.1933C17.8282 10.1181 18.4154 8.705 18.4584 7.22417C18.4837 5.99534 18.0455 4.80197 17.2309 3.88167C16.8471 3.46422 16.3802 3.13184 15.8602 2.90591C15.3402 2.67999 14.7786 2.56556 14.2116 2.57C13.3649 2.567 12.5421 2.85172 11.8783 3.3775C11.3567 3.79524 10.9161 4.30505 10.5783 4.88167C10.5153 4.98752 10.4259 5.07519 10.3188 5.13606C10.2117 5.19695 10.0907 5.22896 9.9675 5.22896C9.84432 5.22896 9.72325 5.19695 9.61617 5.13606C9.50909 5.07519 9.41966 4.98752 9.35666 4.88167C9.01899 4.30499 8.57836 3.79515 8.05666 3.3775C7.39285 2.85172 6.57014 2.567 5.72334 2.57Z" fill="#191919" stroke="#191919" stroke-width="0.3"/>
</g>
</svg>
