<svg xmlns="http://www.w3.org/2000/svg" width="19" height="19" viewBox="0 0 19 19">
  <path id="info_4_" data-name="info (4)" d="M10.346,1a9.5,9.5,0,1,0,9.5,9.5A9.513,9.513,0,0,0,10.346,1Zm0,17.643A8.143,8.143,0,1,1,18.493,10.5a8.155,8.155,0,0,1-8.147,8.141Zm1.644-3.779a.677.677,0,0,1-.676.679,1.6,1.6,0,0,1-1.6-1.6V10.28a.249.249,0,0,0-.25-.247H9.374a.679.679,0,0,1,0-1.357h.088a1.6,1.6,0,0,1,1.6,1.6v3.658a.249.249,0,0,0,.25.247A.677.677,0,0,1,11.99,14.863ZM9.669,6.974V6.137a.676.676,0,1,1,1.351,0v.837a.676.676,0,1,1-1.351,0Z" transform="translate(-0.844 -1)" fill="#b9b9b9"/>
</svg>
