<svg width="18" height="18" viewBox="0 0 18 18" fill="none" xmlns="http://www.w3.org/2000/svg">
<g clip-path="url(#clip0_566_1710)">
<path d="M10.6243 0H3.90591C3.25903 0 2.73169 0.527344 2.73169 1.17773V16.8258C2.73169 17.4762 3.25903 18 3.90942 18.0035H15.7043C16.3547 18.0035 16.8786 17.4762 16.8821 16.8258L16.8469 5.20312L10.6243 0Z" fill="#4EB3F2"/>
<path d="M10.6243 0L10.6067 5.08008C10.6067 5.08008 10.6243 5.20312 10.7297 5.20312H16.8469L10.6243 0Z" fill="#0077CC"/>
<path d="M1.59958 8.67383H13.4683C13.732 8.67383 13.9465 8.88828 13.9465 9.15195V14.4535C13.9465 14.7172 13.732 14.9316 13.4683 14.9316H1.59958C1.33591 14.9316 1.12146 14.7172 1.12146 14.4535V9.15195C1.12146 8.88828 1.33591 8.67383 1.59958 8.67383Z" fill="#0077CC"/>
<path d="M4.88684 10.5156H5.70247V11.9465C5.70247 12.2453 5.67434 12.4773 5.62161 12.632C5.56184 12.7973 5.44934 12.9379 5.30168 13.0293C5.13997 13.1383 4.93606 13.191 4.68293 13.191C4.41575 13.191 4.21184 13.1559 4.06418 13.082C3.92356 13.0117 3.80403 12.9027 3.72668 12.7656C3.64231 12.6074 3.59309 12.4316 3.58606 12.2523L4.36301 12.1469C4.3595 12.2348 4.37004 12.3227 4.39465 12.407C4.41223 12.4598 4.44739 12.509 4.49309 12.5441C4.53176 12.5687 4.57747 12.5828 4.62668 12.5793C4.70754 12.5863 4.78489 12.5441 4.82708 12.4773C4.86926 12.4105 4.89036 12.2945 4.89036 12.1363L4.88684 10.5156Z" fill="white"/>
<path d="M6.24036 10.5156H7.59387C7.88918 10.5156 8.11067 10.5859 8.25481 10.7266C8.40247 10.8672 8.47629 11.0676 8.47629 11.3242C8.47629 11.5914 8.39543 11.7988 8.23723 11.9465C8.07903 12.0941 7.83293 12.1715 7.50598 12.1715H7.0595V13.1488H6.24387V10.5156H6.24036ZM7.0595 11.6406H7.25989C7.41809 11.6406 7.52707 11.6125 7.59036 11.5598C7.65364 11.507 7.68879 11.4297 7.68528 11.3488C7.68879 11.2715 7.65715 11.1941 7.6009 11.1379C7.54465 11.0816 7.4427 11.05 7.29153 11.05H7.0595V11.6406Z" fill="white"/>
<path d="M10.2235 12.1953V11.6469H11.4821V12.7684C11.243 12.9336 11.0286 13.0426 10.8423 13.1023C10.6278 13.1656 10.4063 13.1973 10.1848 13.1902C9.87195 13.1902 9.61882 13.1375 9.42195 13.032C9.22507 12.923 9.06336 12.7578 8.96492 12.5574C8.85242 12.3324 8.79617 12.0828 8.8032 11.8332C8.8032 11.5449 8.86297 11.2953 8.97898 11.0844C9.09851 10.8734 9.28133 10.7012 9.49929 10.5992C9.67859 10.5148 9.91765 10.4727 10.22 10.4727C10.5118 10.4727 10.7298 10.5008 10.8739 10.55C11.0145 10.5992 11.1376 10.6836 11.2325 10.7961C11.3344 10.9191 11.4083 11.0633 11.4469 11.218L10.663 11.3586C10.6348 11.2672 10.5786 11.1863 10.4977 11.1301C10.4098 11.0738 10.3079 11.0457 10.2024 11.0527C10.0407 11.0457 9.8825 11.116 9.77703 11.2391C9.67156 11.3621 9.61882 11.559 9.61882 11.8262C9.61882 12.1109 9.67156 12.3148 9.78054 12.4379C9.88601 12.5609 10.0372 12.6207 10.2305 12.6207C10.3184 12.6207 10.4063 12.6066 10.4907 12.582C10.5891 12.5469 10.6841 12.5012 10.7755 12.4484V12.2023L10.2235 12.1953Z" fill="white"/>
</g>
<defs>
<clipPath id="clip0_566_1710">
<rect width="18" height="18" fill="white"/>
</clipPath>
</defs>
</svg>
