<svg xmlns="http://www.w3.org/2000/svg" xmlns:xlink="http://www.w3.org/1999/xlink" width="21" height="21" viewBox="0 0 21 21">
  <defs>
    <clipPath id="clip-path">
      <rect id="Rectangle_676" data-name="Rectangle 676" width="21" height="21" transform="translate(28 255)" fill="#4e5e6c" stroke="#4f5f6d" stroke-width="0.8"/>
    </clipPath>
  </defs>
  <g id="Mask_Group_74" data-name="Mask Group 74" transform="translate(-28 -255)" clip-path="url(#clip-path)">
    <g id="coffee-machine" transform="translate(29.675 254.33)">
      <rect id="Rectangle_707" data-name="Rectangle 707" width="4.02" height="5.359" transform="translate(8.49 12.51)" fill="none" stroke="#4f5f6d" stroke-linecap="round" stroke-linejoin="round" stroke-width="0.8"/>
      <path id="Path_2970" data-name="Path 2970" d="M12.564,15.189H13.85a1.34,1.34,0,0,0,0-2.68H12.51" fill="none" stroke="#4f5f6d" stroke-linecap="round" stroke-linejoin="round" stroke-width="0.8"/>
      <path id="Path_2973" data-name="Path 2973" d="M.451,20.549V1.791H9.83a2.678,2.678,0,0,1,2.68,2.68V7.15h-6.7V17.869h6.7a2.01,2.01,0,0,1,2.01,2.01v.67H.451Z" fill="none" stroke="#4f5f6d" stroke-linecap="round" stroke-linejoin="round" stroke-width="0.8"/>
      <path id="Path_2974" data-name="Path 2974" d="M8.49,7.218V9.83h4.02V7.15" fill="none" stroke="#4f5f6d" stroke-linecap="round" stroke-linejoin="round" stroke-width="0.8"/>
      <line id="Line_49" data-name="Line 49" x2="4.496" transform="translate(12.703 8.49)" fill="none" stroke="#4f5f6d" stroke-linecap="round" stroke-linejoin="round" stroke-width="0.8"/>
      <line id="XMLID_00000151501251691304861360000002072984486424729778_" y1="0.004" transform="translate(5.811 4.469)" fill="none" stroke="#4f5f6d" stroke-linecap="round" stroke-linejoin="round" stroke-width="0.8"/>
      <line id="XMLID_00000138570347808366269420000007098244442423959998_" y1="0.004" transform="translate(3.131 4.471)" fill="none" stroke="#4f5f6d" stroke-linecap="round" stroke-linejoin="round" stroke-width="0.8"/>
    </g>
  </g>
</svg>
