<svg xmlns="http://www.w3.org/2000/svg" xmlns:xlink="http://www.w3.org/1999/xlink" width="21" height="21" viewBox="0 0 21 21">
  <defs>
    <clipPath id="clip-path">
      <rect id="Rectangle_693" data-name="Rectangle 693" width="21" height="21" transform="translate(28 551)" fill="#4f5f6d" stroke="#4f5f6e" stroke-width="0.2"/>
    </clipPath>
    <clipPath id="clip-path-2">
      <rect id="Rectangle_708" data-name="Rectangle 708" width="21" height="21" fill="#4f5f6d" stroke="#4f5f6e" stroke-width="0.2"/>
    </clipPath>
  </defs>
  <g id="Mask_Group_82" data-name="Mask Group 82" transform="translate(-28 -551)" clip-path="url(#clip-path)">
    <g id="metal_1" data-name="metal 1" transform="translate(28 551)" clip-path="url(#clip-path-2)">
      <path id="Path_2992" data-name="Path 2992" d="M20.973,11.176,19.316,6.6v0l-.007-.017a.3.3,0,0,0-.087-.117h0L19.2,6.446l0,0A.34.34,0,0,0,19.11,6.4L17,5.783a.315.315,0,0,0-.176.6l1.657.487L12.49,14.16,8.261,12.953a.313.313,0,0,0-.391.214c0,.013,0,.021-.008.034l-.944,3.914c-.158-1.493-.323-2.988-.484-4.481a.315.315,0,0,0-.227-.269L2.3,11.248,5.565,7.636A.314.314,0,1,0,5.1,7.211L1.491,11.2a.321.321,0,0,0-.068.129.085.085,0,0,0-.007.03L.008,17.178a.317.317,0,0,0,.227.378l6.481,1.718,6.46,1.709a.312.312,0,0,0,.3-.06.32.32,0,0,0,.057-.065l7.4-9.363A.317.317,0,0,0,20.973,11.176ZM.693,17.027l1.26-5.221,3.881,1.109.6,5.632ZM13.51,19.881c-.179-1.754-.39-3.517-.581-5.268l5.983-7.28L20.33,11.24ZM7.174,18.745l1.231-5.1,3.91,1.117.6,5.5Z" fill="#4f5f6d" stroke="#4f5f6e" stroke-width="0.2"/>
      <path id="Path_2993" data-name="Path 2993" d="M17.213,6.01V6l-.006-.019,0-.008L15.54,1.386l0-.006a.312.312,0,0,0-.032-.061h0l-.018-.024a.3.3,0,0,0-.121-.091.306.306,0,0,0-.056-.018L11.34.013l-.009,0h0L11.3,0h0l-.025,0h-.057a.315.315,0,0,0-.195.1L5.444,6.125a.308.308,0,0,0-.056.068l-.007.011,0,0a.307.307,0,0,0-.034.092l-1.72,5.648a.322.322,0,0,0,.21.395h0l6.577,1.877.022,0h.005l.028,0h0a.318.318,0,0,0,.3-.145l6.385-7.8A.312.312,0,0,0,17.213,6.01ZM10.758,13.1l-.383-5.251,4.761-5.739,1.415,3.91ZM11.35.672l3.35.986L9.947,7.384,6.221,6.209ZM4.322,11.827,5.863,6.758,9.752,7.984l.4,5.51Z" fill="#4f5f6d" stroke="#4f5f6e" stroke-width="0.2"/>
    </g>
  </g>
</svg>
