<svg width="18" height="18" viewBox="0 0 18 18" fill="none" xmlns="http://www.w3.org/2000/svg">
<path fill-rule="evenodd" clip-rule="evenodd" d="M9 0C4.03594 0 0 4.03594 0 9C0 13.9641 4.03594 18 9 18C13.9641 18 18 13.9641 18 9C18 4.03594 13.9641 0 9 0Z" fill="#ADADAD"/>
<path fill-rule="evenodd" clip-rule="evenodd" d="M13.352 5.96592C13.57 6.18389 13.57 6.54248 13.352 6.76045L8.07861 12.0339C7.96963 12.1429 7.82549 12.1991 7.68135 12.1991C7.53721 12.1991 7.39307 12.1429 7.28408 12.0339L4.64736 9.39717C4.42939 9.1792 4.42939 8.82061 4.64736 8.60264C4.86533 8.38467 5.22393 8.38467 5.44189 8.60264L7.68135 10.8421L12.5575 5.96592C12.7755 5.74443 13.1341 5.74443 13.352 5.96592Z" fill="white"/>
</svg>
