<svg xmlns="http://www.w3.org/2000/svg" xmlns:xlink="http://www.w3.org/1999/xlink" width="56" height="16" viewBox="0 0 56 16">
  <defs>
    <clipPath id="clip-path">
      <rect id="Rectangle_5316" data-name="Rectangle 5316" width="56" height="16" transform="translate(825 1298)" fill="#fff" stroke="#707070" stroke-width="1"/>
    </clipPath>
  </defs>
  <g id="Mask_Group_750" data-name="Mask Group 750" transform="translate(-825 -1298)" clip-path="url(#clip-path)">
    <g id="PayPal" transform="translate(825 1298.577)">
      <path id="Path_12494" data-name="Path 12494" d="M-275.594,13.14a.234.234,0,0,0-.231.2l-1.334,8.46a.216.216,0,0,0,.049.174.217.217,0,0,0,.165.076h1.582a.234.234,0,0,0,.231-.2l.392-2.484a.234.234,0,0,1,.231-.2h1.438a3.412,3.412,0,0,0,3.368-2.888,2.768,2.768,0,0,0-2.9-3.141Zm1.538,1.889h1.151c.947,0,1.256.559,1.158,1.177a1.322,1.322,0,0,1-1.493,1.076h-1.171Zm7.571.575a3.6,3.6,0,0,0-1.375.3,3.593,3.593,0,0,0-1.994,2.257s-.768,2.268.968,3.514a2.964,2.964,0,0,0,3.422-.074l-.031.2a.217.217,0,0,0,.049.174.217.217,0,0,0,.164.076h1.5a.234.234,0,0,0,.231-.2l.914-5.794a.217.217,0,0,0-.049-.174.217.217,0,0,0-.164-.076h-1.5a.234.234,0,0,0-.231.2l-.049.312a2.608,2.608,0,0,0-1.855-.712Zm.049,1.83a1.539,1.539,0,0,1,.472.069,1.328,1.328,0,0,1,.909,1.505,1.682,1.682,0,0,1-1.686,1.443,1.54,1.54,0,0,1-.472-.069,1.33,1.33,0,0,1-.911-1.505,1.685,1.685,0,0,1,1.689-1.443Z" transform="translate(293.501 -10.171)" fill="#003087"/>
      <path id="Path_12495" data-name="Path 12495" d="M-232.338,13.14a.234.234,0,0,0-.231.2L-233.9,21.8a.217.217,0,0,0,.049.174.217.217,0,0,0,.165.076h1.582a.234.234,0,0,0,.231-.2l.392-2.484a.234.234,0,0,1,.231-.2h1.438a3.411,3.411,0,0,0,3.368-2.888,2.767,2.767,0,0,0-2.9-3.141Zm1.538,1.889h1.151c.947,0,1.256.559,1.158,1.177a1.322,1.322,0,0,1-1.493,1.076h-1.171Zm7.571.575a3.6,3.6,0,0,0-1.375.3,3.593,3.593,0,0,0-1.994,2.257s-.768,2.268.968,3.514a2.964,2.964,0,0,0,3.422-.074l-.031.2a.217.217,0,0,0,.049.174.216.216,0,0,0,.165.076h1.5a.234.234,0,0,0,.231-.2l.914-5.794a.217.217,0,0,0-.049-.175.217.217,0,0,0-.165-.076h-1.5a.234.234,0,0,0-.231.2l-.049.312a2.608,2.608,0,0,0-1.855-.712Zm.049,1.83a1.539,1.539,0,0,1,.472.069,1.328,1.328,0,0,1,.909,1.505,1.682,1.682,0,0,1-1.686,1.443,1.541,1.541,0,0,1-.472-.069,1.33,1.33,0,0,1-.911-1.505,1.685,1.685,0,0,1,1.689-1.443Z" transform="translate(271.873 -10.171)" fill="#0070e0"/>
      <path id="Path_12496" data-name="Path 12496" d="M-246.858,18.473a.176.176,0,0,0-.167.23l1.647,5.11-1.489,2.408a.176.176,0,0,0,.149.268h1.76a.293.293,0,0,0,.25-.141l4.6-7.607a.176.176,0,0,0-.15-.266h-1.76a.293.293,0,0,0-.252.144l-1.81,3.056L-245,18.639a.234.234,0,0,0-.224-.166Z" transform="translate(278.437 -12.838)" fill="#003087"/>
      <path id="Path_12497" data-name="Path 12497" d="M-203.005,13.14a.234.234,0,0,0-.231.2l-1.334,8.46a.217.217,0,0,0,.049.175.217.217,0,0,0,.165.076h1.582a.234.234,0,0,0,.231-.2l1.334-8.46a.217.217,0,0,0-.049-.174.217.217,0,0,0-.164-.076Z" transform="translate(257.207 -10.171)" fill="#0070e0"/>
      <path id="Path_12498" data-name="Path 12498" d="M-301.531,13.14a.428.428,0,0,0-.423.361l-.7,4.454a.428.428,0,0,1,.423-.361h2.058a4.2,4.2,0,0,0,4.15-3.558,3.438,3.438,0,0,0,.04-.462,3.906,3.906,0,0,0-1.822-.434Z" transform="translate(306.248 -10.171)" fill="#001c64"/>
      <path id="Path_12499" data-name="Path 12499" d="M-297.039,14.008a3.443,3.443,0,0,1-.041.462,4.2,4.2,0,0,1-4.15,3.558h-2.058a.428.428,0,0,0-.423.361l-.646,4.093-.4,2.568a.347.347,0,0,0,.079.28.347.347,0,0,0,.264.122h2.234a.428.428,0,0,0,.423-.361l.588-3.732a.428.428,0,0,1,.423-.361h1.315a4.2,4.2,0,0,0,4.15-3.558,3.262,3.262,0,0,0-1.755-3.431Z" transform="translate(307.302 -10.605)" fill="#0070e0"/>
      <path id="Path_12500" data-name="Path 12500" d="M-307.66,7.2a.428.428,0,0,0-.423.361l-1.753,11.114a.348.348,0,0,0,.343.4h2.6l.645-4.093.7-4.454a.428.428,0,0,1,.423-.361h3.724a3.908,3.908,0,0,1,1.822.434,3.43,3.43,0,0,0-3.617-3.4Z" transform="translate(309.84 -7.202)" fill="#003087"/>
    </g>
  </g>
</svg>
