<svg xmlns="http://www.w3.org/2000/svg" width="62" height="16" viewBox="0 0 62 16">
  <g id="Group_14011" data-name="Group 14011" transform="translate(-764.669 -1262.014)">
    <g id="Group_2676" data-name="Group 2676" transform="translate(764.669 1262.014)">
      <path id="Path_5653" data-name="Path 5653" d="M310.068,405.819q-4.388,0-8.777-.005c-.232,0-.316.036-.3.279.023.49,0,.981.008,1.472a1.361,1.361,0,0,0,1.35,1.365c.327.023.519.192.514.452s-.226.443-.558.435a2.271,2.271,0,0,1-2.238-2.23c-.007-2.157,0-4.314,0-6.471,0-.926,0-1.852,0-2.777a2.274,2.274,0,0,1,2.4-2.3q7.625,0,15.25,0a2.275,2.275,0,0,1,2.408,2.293c0,.5.01,1,0,1.5,0,.177.05.212.226.211,1.273-.008,2.546,0,3.82-.008a.718.718,0,0,1,.62.285q1.538,1.9,3.093,3.79a.753.753,0,0,1,.181.509c-.006,1.537,0,3.074,0,4.611,0,.437-.155.585-.607.586-.331,0-.662.015-.991,0-.229-.013-.318.047-.388.271a2.6,2.6,0,0,1-2.207,1.892,2.743,2.743,0,0,1-2.817-1.169,1.932,1.932,0,0,1-.342-.729c-.043-.2-.124-.269-.36-.268-2.789.012-5.579.008-8.368.008-.622,0-1.244.011-1.866-.006-.224-.006-.306.054-.364.263a2.827,2.827,0,0,1-5.387-.007,2.643,2.643,0,0,1,1.94-3.257,2.792,2.792,0,0,1,3.432,1.817c.077.267.192.308.445.308q4.359-.012,8.718,0c.234,0,.309-.039.3-.279-.018-.851-.016-1.7,0-2.555,0-.224-.044-.289-.294-.289C315.958,405.823,313.013,405.819,310.068,405.819Z" transform="translate(-300.059 -396.041)"/>
      <path id="Path_5654" data-name="Path 5654" d="M643.742,487.92c0-1.25,0-2.5-.005-3.749,0-.194.047-.244.253-.242,1.166.01,2.332.008,3.5,0a.411.411,0,0,1,.363.168q1.378,1.7,2.772,3.4a.476.476,0,0,1,.119.326c0,1.3-.006,2.592,0,3.888,0,.176-.039.245-.236.229a2.8,2.8,0,0,1-.664-.02c-.217-.077-.165-.359-.248-.545a2.839,2.839,0,0,0-2.7-1.645,2.773,2.773,0,0,0-2.582,1.946.362.362,0,0,1-.5.259c-.139-.047-.069-.157-.069-.235C643.741,490.438,643.742,489.179,643.742,487.92Z" transform="translate(-623.677 -479.044)" fill="#fefefe"/>
      <path id="Path_5655" data-name="Path 5655" d="M524,438.521c0-.694,0-1.388,0-2.082,0-.4.164-.562.58-.554a11.015,11.015,0,0,1,1.744.047,2.223,2.223,0,0,1,1.857,1.952,5.48,5.48,0,0,1-.031,1.522,2.281,2.281,0,0,1-2.23,1.807c-.466.01-.933.006-1.4,0a.458.458,0,0,1-.52-.5C523.993,439.983,524,439.252,524,438.521Z" transform="translate(-510.929 -433.66)" fill="#fefefe"/>
      <path id="Path_5656" data-name="Path 5656" d="M440.159,438.512a7.058,7.058,0,0,1-.049,1.2,1.832,1.832,0,0,1-1.768,1.39,3.666,3.666,0,0,1-1.014-.061,1.8,1.8,0,0,1-1.365-1.675q-.015-.93,0-1.86a1.858,1.858,0,0,1,1.828-1.742c1.686-.11,2.5.9,2.371,2.2C440.145,438.127,440.159,438.285,440.159,438.512Z" transform="translate(-428.026 -433.552)" fill="#fefefe"/>
      <path id="Path_5657" data-name="Path 5657" d="M350.841,436.012c.253,0,.506-.005.758,0a.445.445,0,1,1,0,.885c-.447.007-.894,0-1.341,0a1.363,1.363,0,0,0-1.431,1.37c0,.287-.005.574,0,.861a1.363,1.363,0,0,0,1.394,1.322c.447.007.894,0,1.341,0,.32,0,.524.176.528.437a.455.455,0,0,1-.516.448,11.435,11.435,0,0,1-1.8-.046,2.228,2.228,0,0,1-1.874-2.114,6.369,6.369,0,0,1,.04-1.357,2.294,2.294,0,0,1,2.259-1.812C350.414,436.009,350.628,436.012,350.841,436.012Z" transform="translate(-345.094 -433.788)" fill="#fefefe"/>
      <path id="Path_5658" data-name="Path 5658" d="M662.5,503.536c-.67,0-1.34,0-2.01,0-.379,0-.551-.164-.552-.525q0-1.249,0-2.5c0-.364.171-.529.546-.532.573,0,1.146,0,1.718,0a.588.588,0,0,1,.478.217q1.116,1.28,2.236,2.557a.436.436,0,0,1,.1.534.51.51,0,0,1-.508.252C663.838,503.533,663.168,503.536,662.5,503.536Z" transform="translate(-638.937 -494.202)"/>
      <path id="Path_5659" data-name="Path 5659" d="M542.287,453.731a3.544,3.544,0,0,1-.039.7,1.381,1.381,0,0,1-1.343,1.033c-.262.005-.525,0-.787,0-.124,0-.166-.028-.166-.153,0-1.083,0-2.166,0-3.249,0-.067-.032-.161.1-.155a6.656,6.656,0,0,1,1.133.036,1.336,1.336,0,0,1,1.1,1.3C542.289,453.392,542.287,453.54,542.287,453.731Z" transform="translate(-525.955 -448.801)"/>
      <path id="Path_5660" data-name="Path 5660" d="M454.31,453.8c0,.286,0,.573,0,.859a.913.913,0,0,1-.96.906c-.145,0-.291,0-.436,0a.909.909,0,0,1-.934-.9q-.01-.873,0-1.746a.906.906,0,0,1,.959-.906q.2,0,.407,0a.912.912,0,0,1,.964.93C454.313,453.227,454.31,453.513,454.31,453.8Z" transform="translate(-443.111 -448.898)"/>
    </g>
    <text id="Cash_on_Delivery" data-name="Cash on
Delivery" transform="translate(796.669 1269.014)" fill="#0c0c0c" font-size="8" font-family="Roboto-Medium, Roboto" font-weight="500"><tspan x="0" y="0">Cash on</tspan><tspan x="0" y="7">Delivery</tspan></text>
  </g>
</svg>
