<svg id="Group_13970" data-name="Group 13970" xmlns="http://www.w3.org/2000/svg" width="246.279" height="240" viewBox="0 0 246.279 240">
  <g id="Group_13962" data-name="Group 13962" transform="translate(0 19.269)">
    <path id="Path_6744" data-name="Path 6744" d="M3054.069,748.529a2.026,2.026,0,1,1,2.026-2.026A2.028,2.028,0,0,1,3054.069,748.529Zm0-2.969a.943.943,0,1,0,.943.943A.944.944,0,0,0,3054.069,745.561Z" transform="translate(-2845.599 -716.37)" fill="#dedede"/>
    <path id="Path_6745" data-name="Path 6745" d="M2820.032,1092.032a.465.465,0,0,0-.637-.164l-1.543.912-.912-1.543a.465.465,0,1,0-.8.473l.912,1.543-1.543.912a.465.465,0,0,0,.473.8l1.543-.912.912,1.543a.465.465,0,1,0,.8-.473l-.912-1.543,1.543-.912A.465.465,0,0,0,2820.032,1092.032Z" transform="translate(-2650.117 -1002.48)" fill="#dedede"/>
    <path id="Path_6746" data-name="Path 6746" d="M2855.382,1136.289a2.026,2.026,0,1,1,2.026-2.026A2.028,2.028,0,0,1,2855.382,1136.289Zm0-2.969a.943.943,0,1,0,.943.943A.944.944,0,0,0,2855.382,1133.321Z" transform="translate(-2681.555 -1036.521)" fill="#dedede"/>
    <path id="Path_6747" data-name="Path 6747" d="M3222.206,1523.222a.465.465,0,0,0-.214.622l.785,1.611-1.611.785a.465.465,0,1,0,.407.836l1.612-.785.785,1.612a.465.465,0,1,0,.836-.407l-.785-1.611,1.612-.785a.466.466,0,0,0,.258-.472.457.457,0,0,0-.044-.15.465.465,0,0,0-.622-.214l-1.612.785-.785-1.611A.465.465,0,0,0,3222.206,1523.222Z" transform="translate(-2985.017 -1359.295)" fill="#dedede"/>
    <path id="Path_6748" data-name="Path 6748" d="M2977.266,1732.32a2.026,2.026,0,1,1,2.026-2.026A2.028,2.028,0,0,1,2977.266,1732.32Zm0-2.969a.943.943,0,1,0,.943.943A.944.944,0,0,0,2977.266,1729.352Z" transform="translate(-2782.188 -1528.629)" fill="#dedede"/>
    <path id="Path_6749" data-name="Path 6749" d="M1868.352,1659.57a.465.465,0,0,0-.036.657l1.2,1.334-1.335,1.2a.465.465,0,1,0,.621.693l1.334-1.2,1.2,1.334a.465.465,0,1,0,.692-.621l-1.2-1.334,1.335-1.2a.466.466,0,0,0,.119-.524.456.456,0,0,0-.083-.132.465.465,0,0,0-.657-.036l-1.335,1.2-1.2-1.334A.465.465,0,0,0,1868.352,1659.57Z" transform="translate(-1868.024 -1471.81)" fill="#dedede"/>
    <path id="Path_6750" data-name="Path 6750" d="M2086.493,1830.047a2.026,2.026,0,1,1,2.026-2.026A2.028,2.028,0,0,1,2086.493,1830.047Zm0-2.969a.943.943,0,1,0,.943.943A.944.944,0,0,0,2086.493,1827.079Z" transform="translate(-2046.728 -1609.316)" fill="#dedede"/>
    <path id="Path_6751" data-name="Path 6751" d="M1884.6,955.144a.465.465,0,0,0-.021.657l1.226,1.307-1.307,1.226a.465.465,0,0,0,.636.678l1.307-1.227,1.226,1.307a.465.465,0,1,0,.678-.636l-1.226-1.307,1.307-1.226a.465.465,0,0,0-.636-.678l-1.307,1.226-1.226-1.307A.465.465,0,0,0,1884.6,955.144Z" transform="translate(-1881.506 -890.201)" fill="#dedede"/>
    <path id="Path_6752" data-name="Path 6752" d="M1953.866,1017.66a2.026,2.026,0,1,1,2.026-2.026A2.028,2.028,0,0,1,1953.866,1017.66Zm0-2.969a.943.943,0,1,0,.943.943A.944.944,0,0,0,1953.866,1014.692Z" transform="translate(-1937.226 -938.576)" fill="#dedede"/>
    <path id="Path_6753" data-name="Path 6753" d="M3251.856,1053.258a.465.465,0,0,0-.394.527l.256,1.774-1.774.256a.465.465,0,0,0,.133.921l1.774-.256.256,1.774a.465.465,0,1,0,.92-.133l-.256-1.774,1.774-.256a.465.465,0,1,0-.133-.92l-1.774.256-.256-1.774A.465.465,0,0,0,3251.856,1053.258Z" transform="translate(-3008.665 -971.308)" fill="#dedede"/>
    <path id="Path_6754" data-name="Path 6754" d="M2422.737,583.274a.465.465,0,0,0-.511.413l-.19,1.782-1.782-.19a.465.465,0,0,0-.1.925l1.783.19-.19,1.782a.465.465,0,1,0,.925.1l.19-1.783,1.782.19a.465.465,0,0,0,.469-.263.456.456,0,0,0,.042-.15.465.465,0,0,0-.413-.512l-1.782-.19.19-1.782A.465.465,0,0,0,2422.737,583.274Z" transform="translate(-2323.543 -583.272)" fill="#dedede"/>
  </g>
  <g id="Group_13965" data-name="Group 13965" transform="translate(25.143)">
    <g id="Group_13963" data-name="Group 13963">
      <path id="Path_6755" data-name="Path 6755" d="M2651.271,472.76a8.413,8.413,0,0,0-8.414,8.413V558.9a11.044,11.044,0,0,1-11.043,11.043h-54.841V483.192a10.432,10.432,0,0,1,10.433-10.432Z" transform="translate(-2478.505 -472.76)" fill="#f2f2f2"/>
      <path id="Path_6756" data-name="Path 6756" d="M2759.525,768.557h-27.871V721.729a8.414,8.414,0,1,1,16.828,0v35.785A11.043,11.043,0,0,0,2759.525,768.557Z" transform="translate(-2606.216 -671.372)" fill="#dedede"/>
      <path id="Path_6757" data-name="Path 6757" d="M2257.884,713.315a8.414,8.414,0,0,0-8.414,8.414V878.39a10.433,10.433,0,0,1-10.432,10.432h-80.964a10.432,10.432,0,0,1-10.432-10.432V723.747a10.432,10.432,0,0,1,10.432-10.432Z" transform="translate(-2124.031 -671.372)" fill="#f2f2f2"/>
      <path id="Path_6758" data-name="Path 6758" d="M2127.235,1640.212H2022.66a10.432,10.432,0,0,1-10.432-10.432v-6.4H2116.8v6.4A10.432,10.432,0,0,0,2127.235,1640.212Z" transform="translate(-2012.228 -1422.763)" fill="#dedede"/>
    </g>
    <g id="Group_13964" data-name="Group 13964" transform="translate(34.668 109.953)">
      <path id="Path_6759" data-name="Path 6759" d="M2226.174,1133.036v-4.063h-10.966a4.507,4.507,0,0,1-3.113-.939,3.274,3.274,0,0,1-1.038-2.556,2.487,2.487,0,0,1,.153-.841,4.363,4.363,0,0,1,.459-.9q.306-.469.634-.906t.808-1.07l11.577-15.487a17.612,17.612,0,0,1,1.868-2.217,2.476,2.476,0,0,1,1.758-.688q3.321,0,3.32,3.8v16.907h.939a6.637,6.637,0,0,1,2.7.459,1.967,1.967,0,0,1,1.016,2.01,2.092,2.092,0,0,1-.83,1.846,4.369,4.369,0,0,1-2.49.579h-1.333v4.063a3.629,3.629,0,0,1-.742,2.5,2.782,2.782,0,0,1-3.965-.022A3.607,3.607,0,0,1,2226.174,1133.036Zm-9.393-8.956h9.393v-12.691Z" transform="translate(-2211.058 -1103.372)" fill="#047600"/>
      <path id="Path_6760" data-name="Path 6760" d="M2394.788,1120.931a37.475,37.475,0,0,1-.437,6.16,14.352,14.352,0,0,1-1.617,4.675,10.736,10.736,0,0,1-3.845,3.976,10.443,10.443,0,0,1-11.195-.481,11.433,11.433,0,0,1-3.965-5.2,19.3,19.3,0,0,1-.994-4.008,33.3,33.3,0,0,1-.317-4.751,45.575,45.575,0,0,1,.35-5.942,19.618,19.618,0,0,1,1.092-4.543,9.775,9.775,0,0,1,9.612-6.444,10.94,10.94,0,0,1,4.085.732,9.323,9.323,0,0,1,3.222,2.141,12.247,12.247,0,0,1,2.348,3.484Q2394.788,1114.334,2394.788,1120.931Zm-5.985-.437a36.443,36.443,0,0,0-.48-6.542,8.055,8.055,0,0,0-1.617-3.845,3.959,3.959,0,0,0-3.146-1.3,4.042,4.042,0,0,0-4.008,2.905q-1.125,2.905-1.125,8.956a38.483,38.483,0,0,0,.481,6.728,8.449,8.449,0,0,0,1.616,3.965,4.221,4.221,0,0,0,6.226-.055,8.673,8.673,0,0,0,1.594-4A40.757,40.757,0,0,0,2388.8,1120.494Z" transform="translate(-2344.285 -1104.198)" fill="#047600"/>
      <path id="Path_6761" data-name="Path 6761" d="M2531.11,1133.036v-4.063h-10.966a4.506,4.506,0,0,1-3.113-.939,3.273,3.273,0,0,1-1.038-2.556,2.476,2.476,0,0,1,.153-.841,4.336,4.336,0,0,1,.458-.9q.306-.469.634-.906t.808-1.07l11.577-15.487a17.653,17.653,0,0,1,1.868-2.217,2.475,2.475,0,0,1,1.758-.688q3.321,0,3.321,3.8v16.907h.939a6.634,6.634,0,0,1,2.7.459,1.967,1.967,0,0,1,1.016,2.01,2.092,2.092,0,0,1-.83,1.846,4.369,4.369,0,0,1-2.49.579h-1.332v4.063a3.629,3.629,0,0,1-.743,2.5,2.782,2.782,0,0,1-3.965-.022A3.607,3.607,0,0,1,2531.11,1133.036Zm-9.393-8.956h9.393v-12.691Z" transform="translate(-2462.826 -1103.372)" fill="#047600"/>
    </g>
    <line id="Line_512" data-name="Line 512" x2="35.384" transform="translate(98.468 42.247)" fill="none" stroke="#dedede" stroke-width="1"/>
  </g>
  <g id="Group_13969" data-name="Group 13969" transform="translate(130.176 129.717)">
    <g id="Group_13968" data-name="Group 13968">
      <path id="Path_6762" data-name="Path 6762" d="M2846.7,1448.8h0a3.968,3.968,0,0,1-5.611,0L2817,1424.709l-3.061-3.061a19.787,19.787,0,0,0,5.61-5.611l27.151,27.151A3.967,3.967,0,0,1,2846.7,1448.8Z" transform="translate(-2779.184 -1381.286)" fill="#9c9c9c"/>
      <path id="Path_6763" data-name="Path 6763" d="M2826.546,1423.035l6.277,6.278a19.8,19.8,0,0,1-5.61,5.611h0l-3.216-3.217-3.061-3.061A19.791,19.791,0,0,0,2826.546,1423.035Z" transform="translate(-2784.963 -1387.063)" fill="#5e5e5e"/>
      <g id="Group_13967" data-name="Group 13967">
        <path id="Path_6764" data-name="Path 6764" d="M2662.462,1239.625a23.93,23.93,0,0,0-47.838,1.032,24.274,24.274,0,0,0,.151,2.706,23.742,23.742,0,0,0,2.29,7.834h0a24.018,24.018,0,0,0,7.3,8.73q.751.555,1.546,1.05a23.944,23.944,0,0,0,26.525-.827h0a24.071,24.071,0,0,0,5.61-5.61h0a23.83,23.83,0,0,0,4.436-13.882Q2662.484,1240.137,2662.462,1239.625Zm-23.908,20.7a19.673,19.673,0,1,1,19.673-19.672q0,.449-.021.893a19.581,19.581,0,0,1-3.22,9.928,19.8,19.8,0,0,1-5.611,5.611,19.609,19.609,0,0,1-10.822,3.24Z" transform="translate(-2614.624 -1216.726)" fill="#b8b8b8"/>
        <g id="Group_13966" data-name="Group 13966" transform="translate(7.195 7.196)">
          <path id="Path_6765" data-name="Path 6765" d="M2657.729,1276.895a1.837,1.837,0,0,1-1.837-1.837A17.06,17.06,0,0,1,2672.953,1258a1.837,1.837,0,0,1,0,3.674,13.386,13.386,0,0,0-13.386,13.386A1.837,1.837,0,0,1,2657.729,1276.895Z" transform="translate(-2655.892 -1257.997)" fill="#fff"/>
        </g>
      </g>
    </g>
  </g>
</svg>
