<svg width="18" height="18" viewBox="0 0 18 18" fill="none" xmlns="http://www.w3.org/2000/svg">
<g clip-path="url(#clip0_531_1232)">
<path d="M11.25 5.625C11.25 5.625 11.625 5.625 12 6.375C12 6.375 13.1911 4.5 14.25 4.125" stroke="white" stroke-width="1.5" stroke-linecap="round" stroke-linejoin="round"/>
<path d="M16.5 5.25C16.5 7.32107 14.821 9 12.75 9C10.679 9 9 7.32107 9 5.25C9 3.17893 10.679 1.5 12.75 1.5C14.821 1.5 16.5 3.17893 16.5 5.25Z" stroke="white" stroke-width="1.5" stroke-linecap="round"/>
<path d="M17.0625 9.93313C17.062 9.62241 16.8097 9.37101 16.499 9.37161C16.1884 9.37213 15.937 9.62443 15.9375 9.93508L17.0625 9.93313ZM6.79936 5.06445C7.11002 5.06268 7.36043 4.80942 7.35868 4.49877C7.35692 4.18812 7.10365 3.93771 6.793 3.93946L6.79936 5.06445ZM10.125 15.9376H7.875V17.0626H10.125V15.9376ZM7.875 15.9376C6.45233 15.9376 5.43265 15.9367 4.64921 15.8482C3.87612 15.7609 3.40769 15.5946 3.05422 15.3154L2.35697 16.1983C2.9445 16.6624 3.65132 16.8676 4.52294 16.9661C5.38422 17.0634 6.47874 17.0626 7.875 17.0626V15.9376ZM0.9375 10.5001C0.9375 11.8117 0.936428 12.8488 1.04072 13.6667C1.14699 14.5 1.37011 15.1793 1.86974 15.7397L2.70947 14.9911C2.41949 14.6658 2.24781 14.239 2.15669 13.5244C2.06357 12.7942 2.0625 11.8415 2.0625 10.5001H0.9375ZM3.05422 15.3154C2.92909 15.2167 2.81378 15.1081 2.70947 14.9911L1.86974 15.7397C2.01801 15.9061 2.18108 16.0594 2.35697 16.1983L3.05422 15.3154ZM15.9375 10.5001C15.9375 11.8415 15.9364 12.7942 15.8433 13.5244C15.7522 14.239 15.5805 14.6658 15.2905 14.9911L16.1302 15.7397C16.6299 15.1793 16.853 14.5 16.9593 13.6667C17.0635 12.8488 17.0625 11.8117 17.0625 10.5001H15.9375ZM10.125 17.0626C11.5213 17.0626 12.6157 17.0634 13.477 16.9661C14.3487 16.8676 15.0555 16.6624 15.643 16.1983L14.9458 15.3154C14.5923 15.5946 14.1238 15.7609 13.3507 15.8482C12.5674 15.9367 11.5477 15.9376 10.125 15.9376V17.0626ZM15.2905 14.9911C15.1862 15.1081 15.0709 15.2167 14.9458 15.3154L15.643 16.1983C15.8189 16.0594 15.982 15.9061 16.1302 15.7397L15.2905 14.9911ZM2.0625 10.5001C2.0625 9.15861 2.06357 8.20588 2.15669 7.47575C2.24781 6.76115 2.41949 6.3343 2.70947 6.00906L1.86974 5.26041C1.37011 5.82081 1.14699 6.50007 1.04072 7.33344C0.936428 8.15128 0.9375 9.18838 0.9375 10.5001H2.0625ZM2.35697 4.80177C2.18108 4.94067 2.01801 5.09409 1.86974 5.26041L2.70947 6.00906C2.81378 5.89206 2.92909 5.78346 3.05422 5.68465L2.35697 4.80177ZM17.0625 10.5001C17.0625 10.3057 17.0628 10.1154 17.0625 9.93313L15.9375 9.93508C15.9378 10.1161 15.9375 10.303 15.9375 10.5001H17.0625ZM6.793 3.93946C5.73733 3.94544 4.87808 3.96975 4.17419 4.08084C3.45976 4.19359 2.86397 4.40137 2.35697 4.80177L3.05422 5.68465C3.35967 5.44342 3.75093 5.28656 4.34957 5.19209C4.95873 5.09595 5.73854 5.07045 6.79936 5.06445L6.793 3.93946Z" fill="white"/>
<path d="M7.5 13.5H8.625" stroke="white" stroke-width="1.5" stroke-miterlimit="10" stroke-linecap="round" stroke-linejoin="round"/>
<path d="M10.875 13.5H13.5" stroke="white" stroke-width="1.5" stroke-miterlimit="10" stroke-linecap="round" stroke-linejoin="round"/>
<path d="M1.875 8.25H7.5" stroke="white" stroke-width="1.5" stroke-linecap="round" stroke-linejoin="round"/>
</g>
<defs>
<clipPath id="clip0_531_1232">
<rect width="18" height="18" fill="white"/>
</clipPath>
</defs>
</svg>
