<svg xmlns="http://www.w3.org/2000/svg" xmlns:xlink="http://www.w3.org/1999/xlink" width="20" height="20" viewBox="0 0 20 20">
  <defs>
    <clipPath id="clip-path">
      <rect id="Rectangle_21" data-name="Rectangle 21" width="20" height="20" transform="translate(606 136)" fill="#fff" stroke="#fff" stroke-width="1.5"/>
    </clipPath>
  </defs>
  <g id="Mask_Group_2" data-name="Mask Group 2" transform="translate(-606 -136)" clip-path="url(#clip-path)">
    <g id="paypal-stroke-rounded" transform="translate(604.416 134.89)">
      <path id="Path_12" data-name="Path 12" d="M5.843,4.483,3.874,16.356c-.166,1-.249,1.5.027,1.827s.78.327,1.789.327h.372c.761,0,1.142,0,1.4-.226s.313-.6.421-1.362l.432-3.043a4.479,4.479,0,0,1,.078-.464,1.844,1.844,0,0,1,1.569-1.368,4.412,4.412,0,0,1,.468-.012h1.075a6.139,6.139,0,0,0,5.979-4.8A4.4,4.4,0,0,0,13.214,1.86H8.922a4.333,4.333,0,0,0-1.951.217,1.843,1.843,0,0,0-.595.506A4.392,4.392,0,0,0,5.843,4.483Z" transform="translate(0)" fill="none" stroke="#fff" stroke-width="1.5"/>
      <path id="Path_13" data-name="Path 13" d="M7.667,18.077,7.455,19.31a.928.928,0,0,0,.922,1.08h1.841a.932.932,0,0,0,.923-.773l.675-4a.932.932,0,0,1,.923-.773h1.668a5.082,5.082,0,0,0,4.973-3.945,3.585,3.585,0,0,0-1.762-3.916" transform="translate(-0.021 -0.029)" fill="none" stroke="#fff" stroke-width="1.5"/>
    </g>
  </g>
</svg>
