<svg width="18" height="18" viewBox="0 0 18 18" fill="none" xmlns="http://www.w3.org/2000/svg">
<path d="M6 12H11.4474C14.8131 12 15.325 9.8856 15.9458 6.80181C16.1249 5.91233 16.2144 5.4676 15.9991 5.1713C15.7838 4.875 15.371 4.875 14.5456 4.875H4.5" stroke="white" stroke-width="1.5" stroke-linecap="round"/>
<path d="M6 12L4.03405 2.6362C3.86711 1.96844 3.26714 1.5 2.57884 1.5H1.875" stroke="white" stroke-width="1.5" stroke-linecap="round"/>
<path d="M6.66 12H6.35143C5.32891 12 4.5 12.8635 4.5 13.9285C4.5 14.1061 4.63815 14.25 4.80857 14.25H13.125" stroke="white" stroke-width="1.5" stroke-linecap="round" stroke-linejoin="round"/>
<path d="M7.875 16.5C8.49632 16.5 9 15.9963 9 15.375C9 14.7537 8.49632 14.25 7.875 14.25C7.25368 14.25 6.75 14.7537 6.75 15.375C6.75 15.9963 7.25368 16.5 7.875 16.5Z" stroke="white" stroke-width="1.5"/>
<path d="M13.125 16.5C13.7463 16.5 14.25 15.9963 14.25 15.375C14.25 14.7537 13.7463 14.25 13.125 14.25C12.5037 14.25 12 14.7537 12 15.375C12 15.9963 12.5037 16.5 13.125 16.5Z" stroke="white" stroke-width="1.5"/>
</svg>
