<svg xmlns="http://www.w3.org/2000/svg" xmlns:xlink="http://www.w3.org/1999/xlink" width="144" height="200" viewBox="0 0 144 200">
  <defs>
    <clipPath id="clip-path">
      <rect id="Rectangle_5401" data-name="Rectangle 5401" width="56" height="56" transform="translate(5799 8368)" fill="#fff" stroke="#707070" stroke-width="1"/>
    </clipPath>
  </defs>
  <g id="png" transform="translate(-5755 -8296)">
    <rect id="Rectangle_5400" data-name="Rectangle 5400" width="144" height="200" transform="translate(5755 8296)" fill="#f0f7f5"/>
    <g id="Mask_Group_765" data-name="Mask Group 765" clip-path="url(#clip-path)">
      <g id="Layer_4" transform="translate(5796.455 8365.454)">
        <g id="Group_14080" data-name="Group 14080">
          <path id="Path_12608" data-name="Path 12608" d="M53.057,20.333v32.7a5.513,5.513,0,0,1-5.513,5.513h-34a5.513,5.513,0,0,1-5.513-5.513V8.059a5.514,5.514,0,0,1,5.513-5.513H36.317Z" fill="#00c884"/>
          <path id="Path_12609" data-name="Path 12609" d="M53.057,20.333H39.992a3.676,3.676,0,0,1-3.676-3.676V2.545Z" fill="#83ffcc"/>
          <g id="Group_14079" data-name="Group 14079">
            <path id="Path_12610" data-name="Path 12610" d="M18.23,40.873V44.6H15.584V33.623h4.379a5.115,5.115,0,0,1,2.229.463,3.5,3.5,0,0,1,1.5,1.321,3.623,3.623,0,0,1,.531,1.942,3.176,3.176,0,0,1-1.152,2.566,4.772,4.772,0,0,1-3.155.958Zm0-2.043h1.733a1.625,1.625,0,0,0,1.173-.384,1.421,1.421,0,0,0,.4-1.084,1.776,1.776,0,0,0-.416-1.231,1.48,1.48,0,0,0-1.131-.466H18.23Z" fill="#fff"/>
            <path id="Path_12611" data-name="Path 12611" d="M34.8,44.6H32.167l-3.891-6.831V44.6H25.631V33.623h2.645l3.884,6.831V33.623H34.8V44.6Z" fill="#fff"/>
            <path id="Path_12612" data-name="Path 12612" d="M45.455,43.242a4.236,4.236,0,0,1-1.788,1.091,7.693,7.693,0,0,1-2.577.416,4.592,4.592,0,0,1-3.442-1.321,5.333,5.333,0,0,1-1.382-3.669l-.007-.951a6.532,6.532,0,0,1,.574-2.832,4.235,4.235,0,0,1,1.641-1.859,4.637,4.637,0,0,1,2.466-.654,4.857,4.857,0,0,1,3.188.941,3.982,3.982,0,0,1,1.321,2.8H42.9a2.08,2.08,0,0,0-.589-1.313,1.893,1.893,0,0,0-1.282-.391,1.726,1.726,0,0,0-1.536.844,4.492,4.492,0,0,0-.549,2.412v.664a4.425,4.425,0,0,0,.56,2.47,2,2,0,0,0,1.77.825,2.234,2.234,0,0,0,1.536-.459v-1.7H40.972V38.733h4.483Z" fill="#fff"/>
          </g>
        </g>
      </g>
    </g>
  </g>
</svg>
