<svg xmlns="http://www.w3.org/2000/svg" width="80.002" height="100" viewBox="0 0 80.002 100">
  <g id="Group_3572" data-name="Group 3572" transform="translate(-12226.984 1031.628)">
    <path id="Path_8032" data-name="Path 8032" d="M1967.849,701.87a7.344,7.344,0,0,0-.378.694c-.235.472-.066.714-.066.714Z" transform="translate(10334.429 -1689.603)" fill="#fff"/>
    <path id="Path_8033" data-name="Path 8033" d="M1966.647,702.641a.059.059,0,0,0,.031-.009.055.055,0,0,0,.013-.076c-.006-.009-.145-.228.07-.658a7.351,7.351,0,0,1,.378-.691.053.053,0,0,0,.009-.041.052.052,0,0,0-.024-.035.053.053,0,0,0-.075.014,7.4,7.4,0,0,0-.387.7c-.246.495-.07.76-.063.768A.053.053,0,0,0,1966.647,702.641Z" transform="translate(10335.183 -1688.911)" fill="#31313c"/>
    <path id="Path_12380" data-name="Path 12380" d="M0,0,70.381.042l.054,90.715L.054,90.715Z" transform="matrix(0.995, 0.097, -0.097, 0.995, 12235.81, -1029.734)" fill="#464646"/>
    <path id="Path_8945" data-name="Path 8945" d="M1086.808,335.03H1016.43V244.31h54.6l15.775,16.916Z" transform="translate(11213.512 -1266.822)" fill="#fff"/>
    <path id="Path_8946" data-name="Path 8946" d="M1084.977,333.161H1014.27V242.11h54.843l.049.053,15.814,16.965Zm-70.377-.333h70.045V259.259l-15.681-16.816H1014.6Z" transform="translate(11215.51 -1264.789)" fill="#6f6f6f"/>
    <path id="Path_8947" data-name="Path 8947" d="M1739.26,244.31l15.774,16.916H1739.26Z" transform="translate(10545.286 -1266.822)" fill="#fff"/>
    <path id="Path_8948" data-name="Path 8948" d="M1753,259.369h-15.774a.167.167,0,0,1-.166-.167V242.286a.166.166,0,0,1,.287-.114l15.775,16.916a.168.168,0,0,1,.031.18.166.166,0,0,1-.152.1Zm-15.609-.334h15.225l-15.225-16.328Z" transform="translate(10547.319 -1264.798)" fill="#464646"/>
    <rect id="Rectangle_3832" data-name="Rectangle 3832" width="24.499" height="23.698" rx="11.849" transform="translate(12250.594 -965.856)" fill="#02ad02"/>
    <path id="Path_8949" data-name="Path 8949" d="M1349.139,1056.5a1.378,1.378,0,0,1-1.117-.575l-7.025-9.764a1.394,1.394,0,0,1,.309-1.94,1.375,1.375,0,0,1,1.928.311l5.754,8,6.284-11.257a1.376,1.376,0,0,1,1.88-.531,1.393,1.393,0,0,1,.527,1.891l-7.34,13.15a1.379,1.379,0,0,1-1.125.707C1349.189,1056.5,1349.164,1056.5,1349.139,1056.5Z" transform="translate(10913.706 -2002.563)" fill="#fff"/>
    <path id="Path_8950" data-name="Path 8950" d="M1117.028,141.222a3.543,3.543,0,0,1-2.946-5.5l3.691-5.594a.321.321,0,0,1,.566.027.325.325,0,0,1-.03.331l-3.691,5.594a2.9,2.9,0,1,0,4.843,3.186L1126.893,128a1.711,1.711,0,0,0-.474-2.362l-.44-.294a1.989,1.989,0,0,0-2.612.337l-5.172,7.856a.321.321,0,0,1-.564-.028.326.326,0,0,1,.028-.329l5.173-7.856a2.642,2.642,0,0,1,3.5-.518l.44.293a2.359,2.359,0,0,1,.658,3.259L1120,139.622A3.564,3.564,0,0,1,1117.028,141.222Z" transform="translate(11123.779 -1156)" fill="#ffd097"/>
    <path id="Path_8951" data-name="Path 8951" d="M1215.707,208.164a.27.27,0,0,1-.234-.405l1.466-2.584a.268.268,0,0,1,.367-.1.271.271,0,0,1,.1.369l-1.466,2.58A.269.269,0,0,1,1215.707,208.164Z" transform="translate(11029.537 -1230.535)" fill="#d3993d" style="mix-blend-mode: overlay;isolation: isolate"/>
    <rect id="Rectangle_3833" data-name="Rectangle 3833" width="23.813" height="0.684" transform="translate(12251.311 -1004.934)" fill="#464646"/>
    <rect id="Rectangle_3834" data-name="Rectangle 3834" width="23.813" height="0.684" transform="translate(12242.642 -1000.421)" fill="#464646"/>
    <rect id="Rectangle_3835" data-name="Rectangle 3835" width="15.445" height="0.684" transform="translate(12268.348 -1000.421)" fill="#464646"/>
    <rect id="Rectangle_3836" data-name="Rectangle 3836" width="13.418" height="0.684" transform="translate(12239.988 -997.577)" fill="#464646"/>
    <rect id="Rectangle_3837" data-name="Rectangle 3837" width="13.418" height="0.684" transform="translate(12255.227 -997.577)" fill="#464646"/>
    <rect id="Rectangle_3838" data-name="Rectangle 3838" width="15.445" height="0.684" transform="translate(12271.002 -997.577)" fill="#464646"/>
    <rect id="Rectangle_3839" data-name="Rectangle 3839" width="8.911" height="0.684" transform="translate(12239.988 -994.241)" fill="#464646"/>
    <rect id="Rectangle_3840" data-name="Rectangle 3840" width="14.428" height="0.684" transform="translate(12250.934 -994.241)" fill="#464646"/>
    <rect id="Rectangle_3841" data-name="Rectangle 3841" width="18.901" height="0.684" transform="translate(12267.546 -994.241)" fill="#464646"/>
    <rect id="Rectangle_3842" data-name="Rectangle 3842" width="13.418" height="0.684" transform="translate(12239.988 -987.532)" fill="#464646"/>
    <rect id="Rectangle_3843" data-name="Rectangle 3843" width="13.418" height="0.684" transform="translate(12255.227 -987.532)" fill="#464646"/>
    <rect id="Rectangle_3844" data-name="Rectangle 3844" width="15.445" height="0.684" transform="translate(12271.002 -987.532)" fill="#464646"/>
    <rect id="Rectangle_3845" data-name="Rectangle 3845" width="8.911" height="0.684" transform="translate(12239.988 -984.195)" fill="#464646"/>
    <rect id="Rectangle_3846" data-name="Rectangle 3846" width="14.428" height="0.684" transform="translate(12250.934 -984.195)" fill="#464646"/>
    <rect id="Rectangle_3847" data-name="Rectangle 3847" width="18.901" height="0.684" transform="translate(12267.546 -984.195)" fill="#464646"/>
    <rect id="Rectangle_3848" data-name="Rectangle 3848" width="13.418" height="0.684" transform="translate(12239.988 -978.363)" fill="#464646"/>
    <rect id="Rectangle_3849" data-name="Rectangle 3849" width="13.418" height="0.684" transform="translate(12255.227 -978.363)" fill="#464646"/>
    <rect id="Rectangle_3850" data-name="Rectangle 3850" width="15.445" height="0.684" transform="translate(12271.002 -978.363)" fill="#464646"/>
    <rect id="Rectangle_3851" data-name="Rectangle 3851" width="8.911" height="0.684" transform="translate(12239.988 -975.026)" fill="#464646"/>
    <rect id="Rectangle_3852" data-name="Rectangle 3852" width="14.428" height="0.684" transform="translate(12250.934 -975.026)" fill="#464646"/>
    <rect id="Rectangle_3853" data-name="Rectangle 3853" width="18.901" height="0.684" transform="translate(12267.546 -975.026)" fill="#464646"/>
    <path id="Path_8952" data-name="Path 8952" d="M1221.447,207.749a.322.322,0,0,1-.27-.5l1.728-2.71a.32.32,0,0,1,.444-.1.324.324,0,0,1,.1.447l-1.725,2.71A.319.319,0,0,1,1221.447,207.749Z" transform="translate(11024.279 -1229.938)" fill="#ffd097"/>
    <path id="Path_10887" data-name="Path 10887" d="M1218.748,801.108a.126.126,0,1,0-.085-.045A.126.126,0,0,0,1218.748,801.108Z" transform="translate(11026.583 -1781.065)" fill="#fff"/>
    <path id="Path_10888" data-name="Path 10888" d="M1198.429,799.338a.125.125,0,0,0,.122-.068.127.127,0,0,0-.015-.139.126.126,0,1,0-.107.207Z" transform="translate(11045.368 -1779.43)" fill="#fff"/>
    <path id="Path_10892" data-name="Path 10892" d="M1181.049,797.828a.126.126,0,1,0-.114-.137A.126.126,0,0,0,1181.049,797.828Z" transform="translate(11061.436 -1778.034)" fill="#fff"/>
    <path id="Path_12375" data-name="Path 12375" d="M1699.16,1269.674l4.408-.554,1.425,1.113-.323,1.025Zm4.369-.411-3.68.463,4.732,1.36.254-.8Z" transform="translate(10584.842 -2213.736)" fill="#464646"/>
    <path id="Path_12376" data-name="Path 12376" d="M1697.37,1265.083l6.468-.983,4.812,2.012Z" transform="translate(10586.495 -2209.098)" fill="#ffd097"/>
    <path id="Path_12377" data-name="Path 12377" d="M1702.388,1217.433l-5.018,1.912,4.652-4.745Z" transform="translate(10586.495 -2163.361)" fill="#ffd097"/>
    <path id="Path_12378" data-name="Path 12378" d="M1702.388,1251.87l-.435,1.216-4.583.7Z" transform="translate(10586.495 -2197.798)" fill="#aa7323"/>
    <path id="Path_12379" data-name="Path 12379" d="M1718.3,972.613a6.138,6.138,0,0,1-1.145-.1l.03-.141a6.521,6.521,0,0,0,2.725-.108,4.847,4.847,0,0,0,3.551-4.049,4.091,4.091,0,0,0,.032-1.457c-.156.005-.314.008-.47.007-2.933-.01-5.163-1.064-6.119-2.888-.4-.767-.227-1.18-.016-1.39.584-.577,2.255-.357,3.8.5a6.456,6.456,0,0,1,2.32,2.094,4.312,4.312,0,0,1,.62,1.526c3.856-.166,7.615-2.025,8.914-4.462a4.576,4.576,0,0,0-.477-4.9,13.274,13.274,0,0,0-5.671-4.627,24.1,24.1,0,0,0-6.931-1.868,36.805,36.805,0,0,0-8.335-.1l-.018-.144a37.065,37.065,0,0,1,8.371.1,24.213,24.213,0,0,1,6.972,1.88,13.427,13.427,0,0,1,5.73,4.678,4.711,4.711,0,0,1,.484,5.044c-1.315,2.475-5.116,4.363-9.013,4.538a4.164,4.164,0,0,1-.054,1.494,5.009,5.009,0,0,1-3.661,4.16A6.423,6.423,0,0,1,1718.3,972.613Zm-.364-10.3a1.341,1.341,0,0,0-.946.28c-.257.253-.242.675.044,1.216.928,1.776,3.112,2.8,5.991,2.812.151,0,.3,0,.444-.006a5.128,5.128,0,0,0-2.845-3.5A5.922,5.922,0,0,0,1717.935,962.313Z" transform="translate(10573.794 -1919.176)" fill="#464646"/>
  </g>
</svg>
