<svg xmlns="http://www.w3.org/2000/svg" width="16.79" height="15.999" viewBox="0 0 16.79 15.999">
  <path id="Path_12465" data-name="Path 12465" d="M61.081,16a.761.761,0,0,1-.355-.088l-4.355-2.29-4.355,2.287a.762.762,0,0,1-1.107-.8l.832-4.85L48.217,6.819a.762.762,0,0,1,.422-1.3l4.878-.707L55.7.4a.791.791,0,0,1,1.372,0l2.178,4.414,4.878.707a.762.762,0,0,1,.422,1.3l-3.524,3.436.832,4.85A.762.762,0,0,1,61.1,16Zm-4.71-4a.742.742,0,0,1,.354.088l3.345,1.758-.639-3.725a.763.763,0,0,1,.22-.674l2.706-2.638-3.739-.543a.762.762,0,0,1-.573-.418L56.371,2.46,54.694,5.847a.762.762,0,0,1-.573.418l-3.739.543,2.706,2.638a.763.763,0,0,1,.219.674l-.639,3.725,3.345-1.758A.742.742,0,0,1,56.371,12Z" transform="translate(-47.986)" fill="#333"/>
</svg>
