<svg xmlns="http://www.w3.org/2000/svg" width="18.061" height="18.061" viewBox="0 0 18.061 18.061">
  <g id="search-01-stroke-rounded_1_" data-name="search-01-stroke-rounded (1)" transform="translate(-2 -2)">
    <path id="Path_12468" data-name="Path 12468" d="M17.5,17.5l3.825,3.825" transform="translate(-2.325 -2.325)" fill="none" stroke="#333" stroke-linecap="round" stroke-linejoin="round" stroke-width="1.5"/>
    <g id="Path_12469" data-name="Path 12469" fill="none" stroke-linejoin="round">
      <path d="M17.3,9.65A7.65,7.65,0,1,0,9.65,17.3,7.65,7.65,0,0,0,17.3,9.65Z" stroke="none"/>
      <path d="M 9.65000057220459 3.500000953674316 C 6.258880615234375 3.500000953674316 3.500000953674316 6.258880615234375 3.500000953674316 9.65000057220459 C 3.500000953674316 13.0411205291748 6.258880615234375 15.80000114440918 9.65000057220459 15.80000114440918 C 13.0411205291748 15.80000114440918 15.80000114440918 13.0411205291748 15.80000114440918 9.65000057220459 C 15.80000114440918 6.258880615234375 13.0411205291748 3.500000953674316 9.65000057220459 3.500000953674316 M 9.65000057220459 2 C 13.87501049041748 2 17.30000114440918 5.425020217895508 17.30000114440918 9.65000057220459 C 17.30000114440918 13.87501049041748 13.87501049041748 17.30000114440918 9.65000057220459 17.30000114440918 C 5.425020217895508 17.30000114440918 2 13.87501049041748 2 9.65000057220459 C 2 5.425020217895508 5.425020217895508 2 9.65000057220459 2 Z" stroke="none" fill="#333"/>
    </g>
  </g>
</svg>
