<svg xmlns="http://www.w3.org/2000/svg" width="14.003" height="12" viewBox="0 0 14.003 12">
  <g id="photo" transform="translate(0 -61.201)">
    <path id="Path_2730" data-name="Path 2730" d="M13.114,61.2H.889a.938.938,0,0,0-.889.98V72.221a.938.938,0,0,0,.889.98H13.114a.938.938,0,0,0,.889-.98V62.181A.938.938,0,0,0,13.114,61.2Zm0,.98V69.3L11.362,67.55a.623.623,0,0,0-.92.024L8.668,69.528l-3.5-4.6a.628.628,0,0,0-1.017-.008L.889,69.1v-6.92ZM9.335,64.752a1.289,1.289,0,0,1,1.222-1.347,1.353,1.353,0,0,1,0,2.694A1.289,1.289,0,0,1,9.335,64.752Z" transform="translate(0 0)" fill="#fff"/>
  </g>
</svg>
