<svg xmlns="http://www.w3.org/2000/svg" xmlns:xlink="http://www.w3.org/1999/xlink" width="20" height="20" viewBox="0 0 20 20">
  <defs>
    <clipPath id="clip-path">
      <rect id="Rectangle_5472" data-name="Rectangle 5472" width="20" height="20" transform="translate(1040 462)" fill="#333" stroke="#eaeaf5" stroke-width="0.6"/>
    </clipPath>
  </defs>
  <g id="whatsapp" transform="translate(-1040 -462)" clip-path="url(#clip-path)">
    <g id="XMLID_468_" transform="translate(1040 462)">
      <path id="XMLID_469_" d="M14.8,11.492c-.039-.019-1.5-.737-1.756-.83a1.009,1.009,0,0,0-.34-.075.578.578,0,0,0-.491.291c-.146.216-.587.732-.723.886-.018.02-.042.045-.057.045s-.239-.093-.307-.123A7.673,7.673,0,0,1,8.212,9.1a.161.161,0,0,1-.024-.058.47.47,0,0,1,.085-.1c.079-.079.165-.182.249-.282.039-.047.079-.095.118-.14a1.571,1.571,0,0,0,.237-.376l.033-.066a.68.68,0,0,0-.02-.64c-.034-.069-.65-1.555-.716-1.711-.157-.377-.365-.552-.654-.552-.027,0,0,0-.112,0a3.5,3.5,0,0,0-1.212.312,2.538,2.538,0,0,0-.941,2.159,4.653,4.653,0,0,0,1.009,2.562l.041.06a9.5,9.5,0,0,0,4.074,3.537,6.626,6.626,0,0,0,2.461.629h0a3.845,3.845,0,0,0,.4-.024l.072-.007a2.587,2.587,0,0,0,1.8-1.276,2.018,2.018,0,0,0,.115-1.328A.92.92,0,0,0,14.8,11.492Z" fill="#333" stroke="#eaeaf5" stroke-width="0.6"/>
      <path id="XMLID_470_" d="M10.178,0A9.8,9.8,0,0,0,.354,9.75,9.678,9.678,0,0,0,1.7,14.68L.014,19.657a.26.26,0,0,0,.325.331l5.19-1.649A9.839,9.839,0,0,0,20,9.75,9.8,9.8,0,0,0,10.178,0Zm0,17.467A7.782,7.782,0,0,1,5.9,16.191a.26.26,0,0,0-.221-.03l-2.6.826.839-2.476a.26.26,0,0,0-.036-.237A7.613,7.613,0,0,1,2.4,9.75a7.781,7.781,0,1,1,7.781,7.718Z" fill="#333" stroke="#eaeaf5" stroke-width="0.6"/>
    </g>
  </g>
</svg>
