<svg xmlns="http://www.w3.org/2000/svg" xmlns:xlink="http://www.w3.org/1999/xlink" width="20" height="20" viewBox="0 0 20 20">
  <defs>
    <clipPath id="clip-path">
      <rect id="Rectangle_5473" data-name="Rectangle 5473" width="20" height="20" transform="translate(1040 490)" fill="#333" stroke="#333" stroke-width="0.1"/>
    </clipPath>
  </defs>
  <g id="facebook" transform="translate(-1040 -490)" clip-path="url(#clip-path)">
    <path id="facebook_7_" data-name="facebook (7)" d="M6.891,19.6H3.752a.952.952,0,0,1-.951-.951V11.57H.97a.952.952,0,0,1-.951-.951V7.585A.952.952,0,0,1,.97,6.634H2.8V5.115A5.172,5.172,0,0,1,4.169,1.41,4.926,4.926,0,0,1,7.8,0L10.2,0a.952.952,0,0,1,.949.951V3.771a.952.952,0,0,1-.95.951H8.582c-.492,0-.617.1-.643.129-.044.05-.1.192-.1.583v1.2h2.231a.966.966,0,0,1,.47.119.954.954,0,0,1,.489.832v3.034a.952.952,0,0,1-.951.95H7.842v7.08A.952.952,0,0,1,6.891,19.6Zm-2.94-1.149H6.693v-7.4a.636.636,0,0,1,.635-.635H9.882V7.784H7.327a.635.635,0,0,1-.635-.635V5.434a1.957,1.957,0,0,1,.384-1.343,1.947,1.947,0,0,1,1.5-.517H10V1.153l-2.195,0a3.627,3.627,0,0,0-3.85,3.966V7.149a.636.636,0,0,1-.635.635H1.169V10.42H3.316a.635.635,0,0,1,.635.635Zm6.242-17.3h0Zm0,0" transform="translate(1044.418 490.2)" fill="#333" stroke="#333" stroke-width="0.1"/>
  </g>
</svg>
