<svg id="surface1" xmlns="http://www.w3.org/2000/svg" width="15" height="16" viewBox="0 0 15 16">
  <path id="Path_3013" data-name="Path 3013" d="M11.237,6.926V3.9a.345.345,0,0,0-.1-.23L7.639.1A.354.354,0,0,0,7.388,0H1.842A1.821,1.821,0,0,0,0,1.8V11.982a1.81,1.81,0,0,0,1.842,1.791H6.22A4.756,4.756,0,0,0,10.268,16,4.667,4.667,0,0,0,15,11.415,4.635,4.635,0,0,0,11.237,6.926ZM7.732,1.171l2.347,2.4H8.557a.818.818,0,0,1-.825-.8ZM1.842,13.105A1.135,1.135,0,0,1,.687,11.982V1.8A1.143,1.143,0,0,1,1.842.667h5.2v2.1A1.493,1.493,0,0,0,8.557,4.235H10.55v2.6c-.1,0-.186-.013-.275-.013A4.88,4.88,0,0,0,7.141,7.973H2.777a.334.334,0,1,0,0,.667H6.5a5.266,5.266,0,0,0-.6,1.034H2.777a.334.334,0,1,0,0,.667h2.9a4.449,4.449,0,0,0,.206,2.768H1.842Zm8.43,2.231a3.984,3.984,0,0,1-4.038-3.918A3.981,3.981,0,0,1,10.272,7.5a3.981,3.981,0,0,1,4.038,3.918A3.983,3.983,0,0,1,10.272,15.336Zm0,0" fill="#fff"/>
  <path id="Path_3014" data-name="Path 3014" d="M75.894,202.351h3.481a.334.334,0,1,0,0-.667H75.894a.334.334,0,1,0,0,.667Zm0,0" transform="translate(-73.118 -195.381)" fill="#fff"/>
  <path id="Path_3015" data-name="Path 3015" d="M271.546,262.632a.353.353,0,0,0,.083.01.305.305,0,0,0,.1-.013.865.865,0,0,1,.808.85.344.344,0,0,0,.687,0,1.536,1.536,0,0,0-1.247-1.491v-.213a.344.344,0,0,0-.687,0V262a1.516,1.516,0,0,0,.368,3,.856.856,0,1,1-.88.857.344.344,0,0,0-.687,0,1.53,1.53,0,0,0,1.2,1.477v.344a.344.344,0,0,0,.687,0v-.333a1.518,1.518,0,0,0-.32-3.011.852.852,0,0,1-.107-1.7Zm0,0" transform="translate(-261.388 -253.271)" fill="#fff"/>
</svg>
