<svg xmlns="http://www.w3.org/2000/svg" xmlns:xlink="http://www.w3.org/1999/xlink" width="24" height="24" viewBox="0 0 24 24">
  <defs>
    <clipPath id="clip-path">
      <rect id="Rectangle_5507" data-name="Rectangle 5507" width="24" height="24" transform="translate(1404 468)" fill="#fff" stroke="#707070" stroke-width="1"/>
    </clipPath>
    <clipPath id="clip-path-2">
      <rect id="Rectangle_5508" data-name="Rectangle 5508" width="24" height="24" transform="translate(1404 468)" fill="#fff" stroke="#fff" stroke-width="1"/>
    </clipPath>
  </defs>
  <g id="Mask_Group_773" data-name="Mask Group 773" transform="translate(-1404 -468)" clip-path="url(#clip-path)">
    <g id="Mask_Group_774" data-name="Mask Group 774" clip-path="url(#clip-path-2)">
      <g id="settings-01-stroke-rounded" transform="translate(1402.535 466.596)">
        <path id="Path_12747" data-name="Path 12747" d="M23.8,7.972l-.551-.956c-.417-.723-.625-1.085-.98-1.229s-.755-.03-1.557.2l-1.362.384a2.224,2.224,0,0,1-1.516-.189l-.376-.217a2.232,2.232,0,0,1-.88-1.08L16.2,3.768c-.245-.737-.368-1.105-.659-1.316s-.679-.211-1.454-.211H12.843c-.775,0-1.163,0-1.454.211s-.414.579-.659,1.316l-.373,1.113a2.232,2.232,0,0,1-.88,1.08L9.1,6.178a2.224,2.224,0,0,1-1.516.189L6.222,5.984c-.8-.228-1.2-.341-1.557-.2s-.563.506-.98,1.229l-.551.956c-.391.678-.586,1.017-.548,1.378s.3.652.822,1.233l1.151,1.287a2.689,2.689,0,0,1,0,3.07L3.408,16.226c-.523.582-.784.872-.822,1.233s.157.7.548,1.377l.551.956c.417.723.625,1.085.98,1.229s.755.03,1.557-.2l1.362-.384A2.224,2.224,0,0,1,9.1,20.63l.376.217a2.231,2.231,0,0,1,.88,1.08l.373,1.113c.245.737.368,1.105.659,1.316s.679.211,1.454.211h1.244c.775,0,1.163,0,1.454-.211s.414-.579.659-1.316l.373-1.113a2.231,2.231,0,0,1,.88-1.08l.376-.217a2.224,2.224,0,0,1,1.517-.189l1.362.384c.8.228,1.2.341,1.557.2s.563-.506.98-1.229l.551-.956c.391-.678.586-1.017.548-1.377s-.3-.652-.822-1.233l-1.151-1.287a2.689,2.689,0,0,1,0-3.07l1.151-1.287c.523-.582.784-.872.822-1.233S24.187,8.65,23.8,7.972Z" fill="none" stroke="#fff" stroke-linecap="round" stroke-width="1.674"/>
        <path id="Path_12748" data-name="Path 12748" d="M17.324,13.4a3.907,3.907,0,1,1-3.907-3.907A3.907,3.907,0,0,1,17.324,13.4Z" fill="none" stroke="#fff" stroke-width="1.674"/>
      </g>
    </g>
  </g>
</svg>
