<svg width="14" height="14" viewBox="0 0 14 14" fill="none" xmlns="http://www.w3.org/2000/svg">
<path d="M10.367 7.66683C10.867 7.66683 11.307 7.3935 11.5337 6.98016L13.9203 2.6535C14.167 2.2135 13.847 1.66683 13.3403 1.66683H3.47366L2.84699 0.333496H0.666992V1.66683H2.00033L4.40033 6.72683L3.50033 8.3535C3.01366 9.24683 3.65366 10.3335 4.66699 10.3335H12.667V9.00016H4.66699L5.40033 7.66683H10.367ZM4.10699 3.00016H12.207L10.367 6.3335H5.68699L4.10699 3.00016ZM4.66699 11.0002C3.93366 11.0002 3.34033 11.6002 3.34033 12.3335C3.34033 13.0668 3.93366 13.6668 4.66699 13.6668C5.40033 13.6668 6.00033 13.0668 6.00033 12.3335C6.00033 11.6002 5.40033 11.0002 4.66699 11.0002ZM11.3337 11.0002C10.6003 11.0002 10.007 11.6002 10.007 12.3335C10.007 13.0668 10.6003 13.6668 11.3337 13.6668C12.067 13.6668 12.667 13.0668 12.667 12.3335C12.667 11.6002 12.067 11.0002 11.3337 11.0002Z" fill="#202124"/>
</svg>