<svg xmlns="http://www.w3.org/2000/svg" width="216.036" height="21.719" viewBox="0 0 216.036 21.719">
  <g id="Group_13961" data-name="Group 13961" transform="translate(-782 -652.605)">
    <path id="Path_28" data-name="Path 28" d="M7.02,4.744h.056l5-17.005h2.415l5,17.005h.056L24.26-12.261h2.246L20.638,7.606H18.279l-5-17.005h-.056l-5,17.005H5.868L0-12.261H2.246ZM38.243.03A4.2,4.2,0,0,0,37.12-3.015a4.165,4.165,0,0,0-3.145-1.165,4.487,4.487,0,0,0-1.741.351,4.9,4.9,0,0,0-1.474.94,4.715,4.715,0,0,0-1.011,1.347A3.471,3.471,0,0,0,29.37.03ZM29.314,1.545A5.632,5.632,0,0,0,29.791,3.4a4.843,4.843,0,0,0,2.527,2.5,4.543,4.543,0,0,0,1.825.365,4.686,4.686,0,0,0,2.569-.688,5.14,5.14,0,0,0,1.643-1.585l1.432,1.179A7.122,7.122,0,0,1,37.19,7.3a7.267,7.267,0,0,1-3.047.645,6.992,6.992,0,0,1-2.71-.519,6.347,6.347,0,0,1-2.148-1.445A6.846,6.846,0,0,1,27.868,3.79a7.159,7.159,0,0,1-.519-2.75,7.334,7.334,0,0,1,.505-2.75,6.657,6.657,0,0,1,1.4-2.189,6.456,6.456,0,0,1,2.106-1.445,6.54,6.54,0,0,1,2.611-.519,6.407,6.407,0,0,1,2.667.533,5.919,5.919,0,0,1,1.98,1.417,6.064,6.064,0,0,1,1.221,2.077A7.571,7.571,0,0,1,40.265.7v.842Zm26.31-.505a5.887,5.887,0,0,0-.351-2.048,4.924,4.924,0,0,0-1-1.656,4.681,4.681,0,0,0-1.558-1.108,5.016,5.016,0,0,0-2.064-.407,5.317,5.317,0,0,0-2.106.407,5.2,5.2,0,0,0-1.657,1.108,5.013,5.013,0,0,0-1.1,1.656A5.324,5.324,0,0,0,45.4,1.04,5.324,5.324,0,0,0,45.8,3.089a5.013,5.013,0,0,0,1.1,1.656,5.2,5.2,0,0,0,1.657,1.108,5.317,5.317,0,0,0,2.106.407,5.017,5.017,0,0,0,2.064-.407,4.681,4.681,0,0,0,1.558-1.108,4.924,4.924,0,0,0,1-1.656A5.887,5.887,0,0,0,55.624,1.04ZM43.634-13.608h1.853v10.27h.056A4.82,4.82,0,0,1,46.61-4.488,6.625,6.625,0,0,1,47.9-5.274a6.182,6.182,0,0,1,1.39-.449,7.089,7.089,0,0,1,1.362-.14,7.43,7.43,0,0,1,2.822.519,6.511,6.511,0,0,1,3.65,3.634,7.159,7.159,0,0,1,.519,2.75,7.159,7.159,0,0,1-.519,2.75,6.511,6.511,0,0,1-3.65,3.634,7.43,7.43,0,0,1-2.822.519,7.089,7.089,0,0,1-1.362-.14,6.182,6.182,0,0,1-1.39-.449,6.625,6.625,0,0,1-1.292-.786,4.82,4.82,0,0,1-1.067-1.151h-.056V7.606H43.634Zm35.042,4.63a4.363,4.363,0,0,0-3.847-1.936,5.747,5.747,0,0,0-1.544.21,4.254,4.254,0,0,0-1.362.645,3.222,3.222,0,0,0-.969,1.122,3.393,3.393,0,0,0-.365,1.614,2.8,2.8,0,0,0,.758,2.091,6,6,0,0,0,1.881,1.221,20.887,20.887,0,0,0,2.457.856,11.284,11.284,0,0,1,2.457,1.01,5.856,5.856,0,0,1,1.881,1.67,4.716,4.716,0,0,1,.758,2.834,5.08,5.08,0,0,1-.576,2.427A5.582,5.582,0,0,1,78.69,6.6a7.118,7.118,0,0,1-2.106,1.122,7.3,7.3,0,0,1-2.345.393,8.891,8.891,0,0,1-3.468-.688,6.6,6.6,0,0,1-2.794-2.259L69.8,3.846A4.828,4.828,0,0,0,71.6,5.6a5.388,5.388,0,0,0,2.724.659,5.028,5.028,0,0,0,1.516-.239,4.374,4.374,0,0,0,1.362-.7,3.883,3.883,0,0,0,1-1.136,3,3,0,0,0,.393-1.543A3.17,3.17,0,0,0,78.157.914,3.751,3.751,0,0,0,77.005-.237a7.282,7.282,0,0,0-1.629-.772q-.913-.309-1.881-.617t-1.881-.7a6.494,6.494,0,0,1-1.629-1,4.463,4.463,0,0,1-1.151-1.515A5.3,5.3,0,0,1,68.4-7.126a5.4,5.4,0,0,1,.548-2.5,5.18,5.18,0,0,1,1.46-1.768,6.214,6.214,0,0,1,2.064-1.038,8.359,8.359,0,0,1,2.359-.337,8.408,8.408,0,0,1,3.061.533,6.6,6.6,0,0,1,2.555,1.88ZM91-3.843H87.212V3.9a4.2,4.2,0,0,0,.14,1.193,1.683,1.683,0,0,0,.393.716,1.356,1.356,0,0,0,.6.351,2.86,2.86,0,0,0,.772.1,3.667,3.667,0,0,0,.983-.14,4.552,4.552,0,0,0,.927-.365l.084,1.712a5.955,5.955,0,0,1-2.5.477,4.68,4.68,0,0,1-1.109-.14,2.616,2.616,0,0,1-1.053-.533A2.936,2.936,0,0,1,85.668,6.2a4.28,4.28,0,0,1-.309-1.768V-3.843h-2.78V-5.526h2.78v-3.7h1.853v3.7H91ZM104.789,1.04a5.887,5.887,0,0,0-.351-2.048,4.924,4.924,0,0,0-1-1.656,4.681,4.681,0,0,0-1.558-1.108,5.437,5.437,0,0,0-4.128,0,4.532,4.532,0,0,0-1.544,1.108,5.049,5.049,0,0,0-.983,1.656,5.887,5.887,0,0,0-.351,2.048,5.887,5.887,0,0,0,.351,2.048,5.049,5.049,0,0,0,.983,1.656,4.532,4.532,0,0,0,1.544,1.108,5.437,5.437,0,0,0,4.128,0,4.681,4.681,0,0,0,1.558-1.108,4.924,4.924,0,0,0,1-1.656A5.887,5.887,0,0,0,104.789,1.04Zm2.022,0a7.159,7.159,0,0,1-.519,2.75,6.511,6.511,0,0,1-3.65,3.634,7.429,7.429,0,0,1-2.822.519,7.353,7.353,0,0,1-2.794-.519,6.511,6.511,0,0,1-3.65-3.634,7.159,7.159,0,0,1-.519-2.75,7.159,7.159,0,0,1,.519-2.75,6.511,6.511,0,0,1,3.65-3.634,7.353,7.353,0,0,1,2.794-.519,7.429,7.429,0,0,1,2.822.519,6.511,6.511,0,0,1,3.65,3.634A7.159,7.159,0,0,1,106.811,1.04Zm3.566-2.469q0-.87-.042-1.768t-.07-2.329h1.825v2.441h.056a4.082,4.082,0,0,1,.562-1.024,4.4,4.4,0,0,1,.884-.884,4.344,4.344,0,0,1,1.207-.631,4.741,4.741,0,0,1,1.558-.239,5.034,5.034,0,0,1,1.376.168l-.365,1.824a3.119,3.119,0,0,0-1.067-.14,3.811,3.811,0,0,0-1.825.407,4.046,4.046,0,0,0-1.264,1.038,4.313,4.313,0,0,0-.744,1.361A4.507,4.507,0,0,0,112.23.2V7.606h-1.853ZM129.218.03a4.2,4.2,0,0,0-1.123-3.045,4.165,4.165,0,0,0-3.145-1.165,4.487,4.487,0,0,0-1.741.351,4.9,4.9,0,0,0-1.474.94,4.715,4.715,0,0,0-1.011,1.347A3.471,3.471,0,0,0,120.345.03Zm-8.929,1.515a5.632,5.632,0,0,0,.477,1.852,4.843,4.843,0,0,0,2.527,2.5,4.543,4.543,0,0,0,1.825.365,4.686,4.686,0,0,0,2.569-.688,5.139,5.139,0,0,0,1.643-1.585l1.432,1.179a7.122,7.122,0,0,1-2.6,2.133,7.267,7.267,0,0,1-3.047.645,6.992,6.992,0,0,1-2.71-.519,6.347,6.347,0,0,1-2.148-1.445,6.846,6.846,0,0,1-1.418-2.189,7.159,7.159,0,0,1-.519-2.75,7.334,7.334,0,0,1,.505-2.75,6.657,6.657,0,0,1,1.4-2.189,6.456,6.456,0,0,1,2.106-1.445,6.54,6.54,0,0,1,2.611-.519,6.407,6.407,0,0,1,2.667.533,5.919,5.919,0,0,1,1.98,1.417,6.064,6.064,0,0,1,1.221,2.077A7.571,7.571,0,0,1,131.239.7v.842Zm24.541,4.209h3.931a10.329,10.329,0,0,0,3.945-.688,8.164,8.164,0,0,0,2.78-1.824A7.268,7.268,0,0,0,157.128.661a8.562,8.562,0,0,0,.534-2.989,8.562,8.562,0,0,0-.534-2.989A7.268,7.268,0,0,0,155.485-7.9a8.164,8.164,0,0,0-2.78-1.824,10.329,10.329,0,0,0-3.945-.688h-3.931Zm-2.022-18.015h6.6a11.794,11.794,0,0,1,3.72.617A10.264,10.264,0,0,1,156.5-9.778a9.46,9.46,0,0,1,2.429,3.115,9.631,9.631,0,0,1,.927,4.335,9.609,9.609,0,0,1-.927,4.35,9.5,9.5,0,0,1-2.429,3.1,10.264,10.264,0,0,1-3.369,1.866,11.794,11.794,0,0,1-3.72.617h-6.6ZM173.441.03a4.2,4.2,0,0,0-1.123-3.045,4.165,4.165,0,0,0-3.145-1.165,4.487,4.487,0,0,0-1.741.351,4.9,4.9,0,0,0-1.474.94,4.715,4.715,0,0,0-1.011,1.347A3.471,3.471,0,0,0,164.568.03Zm-8.929,1.515A5.631,5.631,0,0,0,164.99,3.4a4.843,4.843,0,0,0,2.527,2.5,4.543,4.543,0,0,0,1.825.365,4.686,4.686,0,0,0,2.569-.688,5.14,5.14,0,0,0,1.643-1.585l1.432,1.179a7.122,7.122,0,0,1-2.6,2.133,7.267,7.267,0,0,1-3.047.645,6.992,6.992,0,0,1-2.71-.519,6.347,6.347,0,0,1-2.148-1.445,6.846,6.846,0,0,1-1.418-2.189,7.159,7.159,0,0,1-.519-2.75,7.333,7.333,0,0,1,.505-2.75,6.657,6.657,0,0,1,1.4-2.189,6.456,6.456,0,0,1,2.106-1.445,6.54,6.54,0,0,1,2.611-.519,6.407,6.407,0,0,1,2.667.533,5.919,5.919,0,0,1,1.98,1.417,6.064,6.064,0,0,1,1.221,2.077A7.57,7.57,0,0,1,175.463.7v.842Zm14.32-4.153q0-.73-.042-1.459t-.1-1.459h1.994v1.992h.056a4.354,4.354,0,0,1,1.867-1.74,5.322,5.322,0,0,1,2.373-.589,6.235,6.235,0,0,1,1.137.112,4.116,4.116,0,0,1,1.165.407,3.909,3.909,0,0,1,1.053.828,4.441,4.441,0,0,1,.828,1.375,4.324,4.324,0,0,1,1.783-1.992,4.887,4.887,0,0,1,2.541-.73,4.8,4.8,0,0,1,3.734,1.333,5.471,5.471,0,0,1,1.207,3.8V7.606h-1.853V-.054a5.561,5.561,0,0,0-.7-3.059,2.9,2.9,0,0,0-2.611-1.066,3.424,3.424,0,0,0-1.741.407,3.31,3.31,0,0,0-1.137,1.08,4.751,4.751,0,0,0-.632,1.529,7.937,7.937,0,0,0-.2,1.782V7.606h-1.853V-.054a5.561,5.561,0,0,0-.7-3.059,2.9,2.9,0,0,0-2.611-1.066,5.772,5.772,0,0,0-.772.112,2.937,2.937,0,0,0-1.25.617A4.5,4.5,0,0,0,181.2-1.934a6.225,6.225,0,0,0-.519,2.806V7.606h-1.853ZM214.015,1.04a5.887,5.887,0,0,0-.351-2.048,4.924,4.924,0,0,0-1-1.656,4.681,4.681,0,0,0-1.558-1.108,5.437,5.437,0,0,0-4.128,0,4.532,4.532,0,0,0-1.544,1.108,5.049,5.049,0,0,0-.983,1.656A5.887,5.887,0,0,0,204.1,1.04a5.887,5.887,0,0,0,.351,2.048,5.049,5.049,0,0,0,.983,1.656,4.532,4.532,0,0,0,1.544,1.108,5.437,5.437,0,0,0,4.128,0,4.681,4.681,0,0,0,1.558-1.108,4.924,4.924,0,0,0,1-1.656A5.887,5.887,0,0,0,214.015,1.04Zm2.022,0a7.159,7.159,0,0,1-.519,2.75,6.511,6.511,0,0,1-3.65,3.634,7.43,7.43,0,0,1-2.822.519,7.353,7.353,0,0,1-2.794-.519A6.511,6.511,0,0,1,202.6,3.79a7.159,7.159,0,0,1-.519-2.75,7.159,7.159,0,0,1,.519-2.75,6.511,6.511,0,0,1,3.65-3.634,7.353,7.353,0,0,1,2.794-.519,7.43,7.43,0,0,1,2.822.519,6.511,6.511,0,0,1,3.65,3.634A7.159,7.159,0,0,1,216.036,1.04Z" transform="translate(782 666.213)" fill="#fff"/>
  </g>
</svg>
