<svg xmlns="http://www.w3.org/2000/svg" xmlns:xlink="http://www.w3.org/1999/xlink" width="21" height="21" viewBox="0 0 21 21">
  <defs>
    <clipPath id="clip-path">
      <rect id="Rectangle_690" data-name="Rectangle 690" width="21" height="21" fill="#4f5f6d" stroke="#707070" stroke-width="1"/>
    </clipPath>
  </defs>
  <g id="Mask_Group_81" data-name="Mask Group 81" clip-path="url(#clip-path)">
    <g id="kettle" transform="translate(0 3.015)">
      <path id="Path_2990" data-name="Path 2990" d="M14.762,18.029H6.893a6.188,6.188,0,0,1-1.345-8.006H16.11a6.161,6.161,0,0,1,.551,1.155.448.448,0,0,0,.741.163l1.752-1.795h1.4l-3.489,4.285a.447.447,0,0,0-.1.224A6.146,6.146,0,0,1,14.762,18.029ZM3.07,9.129c-1.464,0-2.131,1.762-2.131,3.395s.669,3.395,2.136,3.395H4.26a7.065,7.065,0,0,0,2.2,2.909.452.452,0,0,0,.276.1H14.92a.448.448,0,0,0,.276-.1,7.037,7.037,0,0,0,2.638-4.53l4-4.918a.447.447,0,0,0-.347-.729H18.967a.45.45,0,0,0-.32.134L17.238,10.23a7.057,7.057,0,0,0-.648-1.1H3.07Zm.9,5.9H3.074c-.349,0-.64-.228-.869-.677a4.2,4.2,0,0,1-.373-1.824c0-1.213.434-2.5,1.241-2.5H4.523a7.039,7.039,0,0,0-.779,3.227,7.139,7.139,0,0,0,.223,1.775Z" transform="translate(-0.938 -3.954)" fill="#4f5f6d" fill-rule="evenodd"/>
      <path id="Path_2991" data-name="Path 2991" d="M13.383,6.294a7.117,7.117,0,0,1,4.424,2.835H16.663a6.183,6.183,0,0,0-9.232,0H6.286a7.1,7.1,0,0,1,4.42-2.836,1.553,1.553,0,1,1,2.677,0ZM12.7,5.507a.659.659,0,1,0-.66.659A.66.66,0,0,0,12.7,5.507Z" transform="translate(-2.155 -3.954)" fill="#4f5f6d" fill-rule="evenodd"/>
    </g>
  </g>
</svg>
