<svg xmlns="http://www.w3.org/2000/svg" xmlns:xlink="http://www.w3.org/1999/xlink" width="144" height="200" viewBox="0 0 144 200">
  <defs>
    <clipPath id="clip-path">
      <rect id="Rectangle_5396" data-name="Rectangle 5396" width="56" height="56" transform="translate(5799 8152)" fill="#fff" stroke="#707070" stroke-width="1"/>
    </clipPath>
  </defs>
  <g id="svg" transform="translate(-5755 -8080)">
    <rect id="Rectangle_5395" data-name="Rectangle 5395" width="144" height="200" transform="translate(5755 8080)" fill="#f8f5f2"/>
    <g id="Mask_Group_761" data-name="Mask Group 761" clip-path="url(#clip-path)">
      <g id="svg_1_" data-name="svg (1)" transform="translate(5799 8152)">
        <g id="Vrstva_x0020_1_22_">
          <path id="Path_12569" data-name="Path 12569" d="M14.343,0H33.081L48.942,16.548V48.715A7.285,7.285,0,0,1,41.657,56H14.343a7.285,7.285,0,0,1-7.285-7.285V7.285A7.285,7.285,0,0,1,14.343,0Z" fill="#f60" fill-rule="evenodd"/>
          <g id="Group_14075" data-name="Group 14075">
            <path id="Path_12570" data-name="Path 12570" d="M33.058,0V16.412H48.942Z" fill="#fff" fill-rule="evenodd" opacity="0.302"/>
            <path id="Path_12571" data-name="Path 12571" d="M18.126,39.2a4.1,4.1,0,0,1-2.68-.936,3.21,3.21,0,0,1-1.246-2.31L16.42,35.3a1.894,1.894,0,0,0,.611,1.246,1.741,1.741,0,0,0,1.208.491,1.539,1.539,0,0,0,.913-.249.771.771,0,0,0,.347-.649.737.737,0,0,0-.279-.566,2.1,2.1,0,0,0-.71-.37c-.294-.1-.627-.2-.981-.294a7.291,7.291,0,0,1-1.08-.37,5.521,5.521,0,0,1-.974-.551,2.245,2.245,0,0,1-.717-.891,3.059,3.059,0,0,1-.272-1.336,2.541,2.541,0,0,1,1.057-2.068,4.056,4.056,0,0,1,2.567-.83,4.6,4.6,0,0,1,2.589.725,3.014,3.014,0,0,1,1.382,1.887l-2.31.966a1.894,1.894,0,0,0-.6-1.027,1.538,1.538,0,0,0-1.064-.385,1.3,1.3,0,0,0-.77.2.6.6,0,0,0-.287.521.586.586,0,0,0,.377.521,3.118,3.118,0,0,0,.929.3,7.919,7.919,0,0,1,1.208.309,6.044,6.044,0,0,1,1.208.536,2.485,2.485,0,0,1,.929,1,3.428,3.428,0,0,1,.377,1.653,2.773,2.773,0,0,1-1.087,2.272,4.508,4.508,0,0,1-2.869.861Zm7.678-.113L22.24,28.974h2.627l2.152,6.991L29.2,28.974h2.612L28.249,39.082ZM36.84,39.2a5.088,5.088,0,0,1-3.563-1.351,4.949,4.949,0,0,1-1.465-3.812,5.236,5.236,0,0,1,.755-2.861,4.517,4.517,0,0,1,1.91-1.751,5.9,5.9,0,0,1,2.574-.559,5.24,5.24,0,0,1,3.216.929,4,4,0,0,1,1.54,2.612l-2.544.513a2.2,2.2,0,0,0-2.235-1.857,2.468,2.468,0,0,0-1.917.8,3.609,3.609,0,0,0-.007,4.348,2.435,2.435,0,0,0,1.88.8,2.555,2.555,0,0,0,1.487-.415,1.6,1.6,0,0,0,.717-1.072H36.7V33.5h4.877v5.586H39.218v-.891a2.049,2.049,0,0,1-.951.732,3.642,3.642,0,0,1-1.427.272Z" fill="#fff"/>
          </g>
        </g>
      </g>
    </g>
  </g>
</svg>
