<svg xmlns="http://www.w3.org/2000/svg" xmlns:xlink="http://www.w3.org/1999/xlink" width="32" height="32" viewBox="0 0 32 32">
  <defs>
    <clipPath id="clip-path">
      <rect id="Rectangle_3696" data-name="Rectangle 3696" width="32" height="32" rx="5" transform="translate(396 908)" fill="#ff2058" stroke="#ff2058" stroke-width="1"/>
    </clipPath>
  </defs>
  <g id="Mask_Group_90" data-name="Mask Group 90" transform="translate(-396 -908)" clip-path="url(#clip-path)">
    <g id="user_23_" data-name="user (23)" transform="translate(398.651 908)">
      <path id="Path_3019" data-name="Path 3019" d="M13.147,15.415a7.458,7.458,0,0,0,5.45-2.258,7.458,7.458,0,0,0,2.258-5.449A7.459,7.459,0,0,0,18.6,2.258,7.459,7.459,0,0,0,13.147,0,7.457,7.457,0,0,0,7.7,2.258,7.458,7.458,0,0,0,5.439,7.707,7.458,7.458,0,0,0,7.7,13.157a7.46,7.46,0,0,0,5.449,2.258ZM9.024,3.584a5.571,5.571,0,0,1,4.123-1.708,5.572,5.572,0,0,1,4.124,1.708,5.572,5.572,0,0,1,1.709,4.123,5.572,5.572,0,0,1-1.709,4.124,5.571,5.571,0,0,1-4.124,1.709,5.573,5.573,0,0,1-4.123-1.709A5.571,5.571,0,0,1,7.315,7.707,5.571,5.571,0,0,1,9.024,3.584Zm0,0" fill="#ff2058" stroke="#ff2058" stroke-width="1"/>
      <path id="Path_3020" data-name="Path 3020" d="M26.633,24.606a19.037,19.037,0,0,0-.259-2.022,15.931,15.931,0,0,0-.5-2.033,10.042,10.042,0,0,0-.836-1.9,7.147,7.147,0,0,0-1.26-1.642,5.556,5.556,0,0,0-1.81-1.137,6.256,6.256,0,0,0-2.311-.418,2.346,2.346,0,0,0-1.253.531c-.375.245-.815.528-1.3.841a7.477,7.477,0,0,1-1.688.744,6.557,6.557,0,0,1-4.13,0A7.455,7.455,0,0,1,9.6,16.83c-.486-.31-.925-.594-1.306-.842a2.343,2.343,0,0,0-1.252-.531,6.248,6.248,0,0,0-2.311.419,5.552,5.552,0,0,0-1.811,1.137,7.149,7.149,0,0,0-1.26,1.642,10.061,10.061,0,0,0-.836,1.9,15.969,15.969,0,0,0-.5,2.033,18.907,18.907,0,0,0-.259,2.023C.021,25.218,0,25.854,0,26.5a5.314,5.314,0,0,0,1.578,4.02A5.681,5.681,0,0,0,5.645,32H21.053a5.681,5.681,0,0,0,4.066-1.483A5.312,5.312,0,0,0,26.7,26.5c0-.645-.022-1.281-.065-1.89Zm-2.807,4.552a3.825,3.825,0,0,1-2.774.967H5.645a3.825,3.825,0,0,1-2.774-.966,3.47,3.47,0,0,1-1-2.662c0-.6.02-1.192.059-1.76a17.054,17.054,0,0,1,.234-1.821,14.084,14.084,0,0,1,.437-1.792,8.191,8.191,0,0,1,.68-1.542,5.3,5.3,0,0,1,.926-1.214,3.686,3.686,0,0,1,1.2-.749,4.315,4.315,0,0,1,1.477-.285c.066.035.183.1.372.225.385.251.83.538,1.321.852a9.291,9.291,0,0,0,2.119.947,8.43,8.43,0,0,0,5.284,0,9.3,9.3,0,0,0,2.121-.948c.5-.321.935-.6,1.32-.851.189-.123.306-.19.372-.225a4.318,4.318,0,0,1,1.477.285,3.691,3.691,0,0,1,1.2.749,5.284,5.284,0,0,1,.926,1.214,8.163,8.163,0,0,1,.68,1.541,14.051,14.051,0,0,1,.438,1.792,17.2,17.2,0,0,1,.234,1.822h0c.04.566.06,1.158.06,1.759a3.47,3.47,0,0,1-1,2.661Zm0,0" fill="#ff2058" stroke="#ff2058" stroke-width="1"/>
    </g>
  </g>
</svg>
