<svg xmlns="http://www.w3.org/2000/svg" width="17.675" height="17.675" viewBox="0 0 17.675 17.675">
  <g id="tag-02-stroke-rounded" transform="translate(-1.244 -1.081)">
    <path id="Path_12507" data-name="Path 12507" d="M2.581,9.858a2.35,2.35,0,0,0-.078,3,25.508,25.508,0,0,0,4.64,4.64,2.35,2.35,0,0,0,3-.078A69.258,69.258,0,0,0,16.529,10.9a1.464,1.464,0,0,0,.352-.821c.124-1.347.378-5.227-.676-6.28s-4.934-.8-6.28-.676a1.463,1.463,0,0,0-.821.352A69.262,69.262,0,0,0,2.581,9.858Z" transform="translate(0 0)" fill="none" stroke="#fff" stroke-width="1.3"/>
    <path id="Path_12508" data-name="Path 12508" d="M7.5,14.5l2,2" transform="translate(-1.222 -2.778)" fill="none" stroke="#fff" stroke-linecap="round" stroke-linejoin="round" stroke-width="1.3"/>
    <path id="Path_12509" data-name="Path 12509" d="M18,6l4-4" transform="translate(-4)" fill="none" stroke="#fff" stroke-linecap="round" stroke-width="1.3"/>
  </g>
</svg>
