<svg xmlns="http://www.w3.org/2000/svg" width="21.002" height="21" viewBox="0 0 21.002 21">
  <g id="Group_3517" data-name="Group 3517" transform="translate(-20374 1270)">
    <g id="图层_x0020_1" transform="translate(20374 -1270)">
      <path id="Path_3098" data-name="Path 3098" d="M10.5,1.318a9.188,9.188,0,1,1-9.188,9.188A9.189,9.189,0,0,1,10.5,1.318Z" fill="#fff" fill-rule="evenodd"/>
      <path id="Path_3074" data-name="Path 3074" d="M0,0H21V21H0Z" fill="none" fill-rule="evenodd"/>
      <path id="Path_3075" data-name="Path 3075" d="M8.6,13.49,6.347,11.238A.984.984,0,0,1,7.739,9.846l1.586,1.587,3.945-3.945A.984.984,0,0,1,14.661,8.88l-4.642,4.642a.987.987,0,0,1-1.392,0L8.6,13.49Z" fill="#00ba00" fill-rule="evenodd"/>
    </g>
    <g id="Group_3516" data-name="Group 3516" transform="translate(-42.025 12)">
      <ellipse id="Ellipse_212" data-name="Ellipse 212" cx="0.358" cy="0.354" rx="0.358" ry="0.354" transform="translate(20436.311 -1276.809)" fill="#fff"/>
      <ellipse id="Ellipse_213" data-name="Ellipse 213" cx="0.358" cy="0.354" rx="0.358" ry="0.354" transform="translate(20436.072 -1264.775)" fill="#fff"/>
      <ellipse id="Ellipse_214" data-name="Ellipse 214" cx="1.432" cy="1.416" rx="1.432" ry="1.416" transform="translate(20434.043 -1281.646)" fill="#00ba01"/>
      <ellipse id="Ellipse_215" data-name="Ellipse 215" cx="0.358" cy="0.354" rx="0.358" ry="0.354" transform="translate(20432.971 -1261.944)" fill="#fff"/>
      <ellipse id="Ellipse_216" data-name="Ellipse 216" cx="0.358" cy="0.354" rx="0.358" ry="0.354" transform="translate(20431.777 -1281.528)" fill="#fff"/>
      <ellipse id="Ellipse_217" data-name="Ellipse 217" cx="0.358" cy="0.354" rx="0.358" ry="0.354" transform="translate(20420.082 -1282)" fill="#fff"/>
      <ellipse id="Ellipse_218" data-name="Ellipse 218" cx="0.358" cy="0.354" rx="0.358" ry="0.354" transform="translate(20419.605 -1261.944)" fill="#fff"/>
      <path id="Path_3097" data-name="Path 3097" d="M45.955,442.5a.944.944,0,1,1-.955.944A.949.949,0,0,1,45.955,442.5Z" transform="translate(20371.025 -1705.388)" fill="#00ba01"/>
      <ellipse id="Ellipse_219" data-name="Ellipse 219" cx="0.358" cy="0.354" rx="0.358" ry="0.354" transform="translate(20416.025 -1278.225)" fill="#fff"/>
    </g>
  </g>
</svg>
