<svg xmlns="http://www.w3.org/2000/svg" width="15" height="15" viewBox="0 0 15 15">
  <path id="Icon_ionic-ios-checkmark-circle" data-name="Icon ionic-ios-checkmark-circle" d="M10.875,3.375a7.5,7.5,0,1,0,7.5,7.5A7.5,7.5,0,0,0,10.875,3.375ZM14.715,8.8,9.894,13.644h0a.651.651,0,0,1-.418.2.631.631,0,0,1-.422-.206L7.031,11.618a.144.144,0,0,1,0-.206l.642-.642a.139.139,0,0,1,.2,0l1.6,1.6,4.4-4.431a.142.142,0,0,1,.1-.043h0a.131.131,0,0,1,.1.043l.631.653A.142.142,0,0,1,14.715,8.8Z" transform="translate(-3.375 -3.375)" fill="#48b13f"/>
</svg>
