<svg xmlns="http://www.w3.org/2000/svg" xmlns:xlink="http://www.w3.org/1999/xlink" width="24" height="24" viewBox="0 0 24 24">
  <defs>
    <clipPath id="clip-path">
      <rect id="Rectangle_222" data-name="Rectangle 222" width="24" height="24" transform="translate(908 1676)" fill="#fff" stroke="#999" stroke-width="1"/>
    </clipPath>
    <clipPath id="clip-path-2">
      <path id="path549" d="M0-24H24V0H0Z"/>
    </clipPath>
  </defs>
  <g id="Mask_Group_31" data-name="Mask Group 31" transform="translate(-908 -1676)" clip-path="url(#clip-path)">
    <g id="g543" transform="translate(908 1700)">
      <g id="g545">
        <g id="g547" clip-path="url(#clip-path-2)">
          <g id="g553" transform="translate(22.701 -19.057)">
            <path id="path555" d="M0,0-1.753-.231-1.3-1.939l-1.659.444a4.549,4.549,0,0,0-2.567-.789,4.57,4.57,0,0,0-4.57,4.57V3.693A13.381,13.381,0,0,1-20.6-1.384a4.615,4.615,0,0,0-.467.858A4.6,4.6,0,0,0-19.7,4.813l-1.342.322a4.6,4.6,0,0,0,4.106,3.508l-1.139,1.333a4.59,4.59,0,0,0,4.363.889l.01.01a9.166,9.166,0,0,1-6.984,3.22A9.261,9.261,0,0,1-22,14v.006a13.343,13.343,0,0,0,7.64,2.39A13.406,13.406,0,0,0-.951,2.99v-.7a4.59,4.59,0,0,0-.094-.925Z" fill="none" stroke="#999" stroke-width="1"/>
          </g>
        </g>
      </g>
    </g>
  </g>
</svg>
