<svg xmlns="http://www.w3.org/2000/svg" xmlns:xlink="http://www.w3.org/1999/xlink" width="20" height="20" viewBox="0 0 20 20">
  <defs>
    <clipPath id="clip-path">
      <rect id="Rectangle_4241" data-name="Rectangle 4241" width="20" height="20" transform="translate(1295 3604)" fill="#000" stroke="#191919" stroke-width="1"/>
    </clipPath>
  </defs>
  <g id="Mask_Group_505" data-name="Mask Group 505" transform="translate(-1295 -3604)" clip-path="url(#clip-path)">
    <g id="thumbs-down-stroke-rounded" transform="translate(1293.832 3602.742)">
      <path id="Path_12472" data-name="Path 12472" d="M1.868,10.741a1.868,1.868,0,0,0,1.868,1.868,2.8,2.8,0,0,0,2.8-2.8V6.071a2.8,2.8,0,0,0-2.8-2.8A1.868,1.868,0,0,0,1.868,5.137Z" fill="#000" stroke="#191919" stroke-linecap="round" stroke-linejoin="round" stroke-width="1.401"/>
      <path id="Path_12473" data-name="Path 12473" d="M14.458,15.125l-.249-.8c-.2-.658-.306-.987-.227-1.247a.918.918,0,0,1,.392-.511,2.694,2.694,0,0,1,1.3-.147h.377c2.4,0,3.6,0,4.168-.711a1.828,1.828,0,0,0,.172-.258c.436-.792-.06-1.86-1.051-4-.91-1.959-1.365-2.939-2.21-3.516q-.123-.084-.252-.158c-.889-.51-1.991-.51-4.2-.51H12.2c-2.67,0-4.005,0-4.835.8s-.83,2.1-.83,4.685v.909a7.51,7.51,0,0,0,.241,2.662,7.749,7.749,0,0,0,1.627,2.157l3.822,4.232a2.563,2.563,0,0,0,.186.2.965.965,0,0,0,1.348-.086,2.544,2.544,0,0,0,.158-.218c.126-.184.189-.275.245-.366a3.561,3.561,0,0,0,.416-2.7C14.556,15.442,14.523,15.337,14.458,15.125Z" fill="#000" stroke="#191919" stroke-linecap="round" stroke-linejoin="round" stroke-width="1.401"/>
    </g>
  </g>
</svg>
