<svg xmlns="http://www.w3.org/2000/svg" xmlns:xlink="http://www.w3.org/1999/xlink" width="80" height="80" viewBox="0 0 80 80">
  <defs>
    <clipPath id="clip-path">
      <circle id="Ellipse_208" data-name="Ellipse 208" cx="40" cy="40" r="40" transform="translate(120 405)" fill="#f7f7fa"/>
    </clipPath>
    <clipPath id="clip-path-2">
      <rect id="Rectangle_3737" data-name="Rectangle 3737" width="56" height="56" transform="translate(126 426)" fill="#fff" stroke="#707070" stroke-width="1"/>
    </clipPath>
  </defs>
  <g id="Group_3502" data-name="Group 3502" transform="translate(-80 -404)">
    <circle id="Ellipse_205" data-name="Ellipse 205" cx="40" cy="40" r="40" transform="translate(80 404)" fill="#f7f7fa"/>
    <g id="Mask_Group_103" data-name="Mask Group 103" transform="translate(-40 -1)" clip-path="url(#clip-path)">
      <g id="Mask_Group_102" data-name="Mask Group 102" transform="translate(6 3)" clip-path="url(#clip-path-2)">
        <g id="invoice_4_" data-name="invoice (4)" transform="translate(120.814 420.815)">
          <path id="Path_3040" data-name="Path 3040" d="M18.667,5.185a5.191,5.191,0,0,0-5.185,5.185V31.111a1.037,1.037,0,0,0,1.037,1.037h8.3a1.037,1.037,0,0,0,1.037-1.037V10.37a5.191,5.191,0,0,0-5.185-5.185Z" fill="#ffc250"/>
          <path id="Path_3041" data-name="Path 3041" d="M57.037,14.518V54.735a6.5,6.5,0,0,1-6.45,6.45H28a6.222,6.222,0,0,1-6.222-6.222V9.333a4.148,4.148,0,0,0-3.453-4.086.914.914,0,0,1,.342-.062H47.7A9.36,9.36,0,0,1,57.037,14.518Z" fill="#61a2f9"/>
          <path id="Path_3042" data-name="Path 3042" d="M57.037,14.518V54.735A6.343,6.343,0,0,1,55.8,58.5a6.422,6.422,0,0,1-3.723,1.193H29.493a6.214,6.214,0,0,1-6.222-6.222V7.84A4.058,4.058,0,0,0,22.3,5.185H47.7a9.36,9.36,0,0,1,9.333,9.333Z" fill="#80b4fb"/>
          <path id="Path_3043" data-name="Path 3043" d="M39.407,18.667a3.111,3.111,0,1,1,3.111-3.111,1.037,1.037,0,1,1-2.074,0,1.037,1.037,0,1,0-1.037,1.037,1.037,1.037,0,1,1,0,2.074Z" fill="#ffe07d"/>
          <path id="Path_3044" data-name="Path 3044" d="M39.407,22.815A3.111,3.111,0,0,1,36.3,19.7a1.037,1.037,0,1,1,2.074,0,1.037,1.037,0,1,0,1.037-1.037,1.037,1.037,0,1,1,0-2.074,3.111,3.111,0,1,1,0,6.222Z" fill="#ffe07d"/>
          <path id="Path_3045" data-name="Path 3045" d="M39.407,14.518a1.037,1.037,0,0,1-1.037-1.037V12.1a1.037,1.037,0,0,1,2.074,0v1.382A1.037,1.037,0,0,1,39.407,14.518Z" fill="#ffe07d"/>
          <path id="Path_3046" data-name="Path 3046" d="M39.407,24.2A1.037,1.037,0,0,1,38.37,23.16V21.778a1.037,1.037,0,0,1,2.074,0V23.16A1.037,1.037,0,0,1,39.407,24.2Z" fill="#ffe07d"/>
          <g id="Group_3497" data-name="Group 3497">
            <path id="Path_3047" data-name="Path 3047" d="M49.778,30.074H45.63a1.037,1.037,0,0,1,0-2.074h4.148a1.037,1.037,0,1,1,0,2.074Z" fill="#eaf7ff"/>
            <path id="Path_3048" data-name="Path 3048" d="M42.518,30.074H29.037a1.037,1.037,0,0,1,0-2.074H42.518a1.037,1.037,0,1,1,0,2.074Z" fill="#eaf7ff"/>
            <path id="Path_3049" data-name="Path 3049" d="M49.778,40.444H47.7a1.037,1.037,0,0,1,0-2.074h2.074a1.037,1.037,0,0,1,0,2.074Z" fill="#eaf7ff"/>
            <path id="Path_3050" data-name="Path 3050" d="M44.593,40.444H29.037a1.037,1.037,0,0,1,0-2.074H44.593a1.037,1.037,0,0,1,0,2.074Z" fill="#eaf7ff"/>
            <path id="Path_3051" data-name="Path 3051" d="M32.148,35.259H29.037a1.037,1.037,0,1,1,0-2.074h3.111a1.037,1.037,0,1,1,0,2.074Z" fill="#eaf7ff"/>
            <path id="Path_3052" data-name="Path 3052" d="M49.778,35.259H35.259a1.037,1.037,0,0,1,0-2.074H49.778a1.037,1.037,0,1,1,0,2.074Z" fill="#eaf7ff"/>
            <path id="Path_3053" data-name="Path 3053" d="M49.778,45.63H29.037a1.037,1.037,0,1,1,0-2.074H49.778a1.037,1.037,0,1,1,0,2.074Z" fill="#eaf7ff"/>
          </g>
          <path id="Path_3054" data-name="Path 3054" d="M30.074,48.741A12.444,12.444,0,1,1,17.63,36.3,12.438,12.438,0,0,1,30.074,48.741Z" fill="#ffc250"/>
          <path id="Path_3055" data-name="Path 3055" d="M26.963,44.593A13.492,13.492,0,0,1,8.41,57.089a12.32,12.32,0,0,1-3.225-8.348A12.455,12.455,0,0,1,17.63,36.3a12.32,12.32,0,0,1,8.348,3.225,13.508,13.508,0,0,1,.985,5.071Z" fill="#ffe07d"/>
          <path id="Path_3056" data-name="Path 3056" d="M25.926,48.741a8.313,8.313,0,1,1-1.939-5.32A8.313,8.313,0,0,1,25.926,48.741Z" fill="#c6e5ff"/>
          <path id="Path_3057" data-name="Path 3057" d="M25.926,48.741A8.288,8.288,0,0,1,12.31,55.1,8.288,8.288,0,0,1,23.987,43.421a8.288,8.288,0,0,1,1.939,5.32Z" fill="#eaf7ff"/>
          <path id="Path_3058" data-name="Path 3058" d="M16.593,51.852a1.037,1.037,0,0,1-.733-.3l-2.074-2.074a1.037,1.037,0,1,1,1.466-1.466l1.341,1.341,3.415-3.415A1.037,1.037,0,1,1,21.474,47.4l-4.148,4.148a1.037,1.037,0,0,1-.733.3Z" fill="#fe9c39"/>
          <path id="Path_3059" data-name="Path 3059" d="M61.185,50.815v3.111a7.268,7.268,0,0,1-7.259,7.259H29.037a.9.9,0,0,1-.332-.062,4.142,4.142,0,0,0,2.551-1.514,4.044,4.044,0,0,0,.892-2.572V50.815a1.037,1.037,0,0,1,1.037-1.037H60.148A1.037,1.037,0,0,1,61.185,50.815Z" fill="#4665e8"/>
          <path id="Path_3060" data-name="Path 3060" d="M59.609,49.778V52.35a7.268,7.268,0,0,1-7.259,7.259H31.256a4.044,4.044,0,0,0,.892-2.572V50.815a1.037,1.037,0,0,1,1.037-1.037Z" fill="#566ff8"/>
        </g>
      </g>
    </g>
  </g>
</svg>
