<svg xmlns="http://www.w3.org/2000/svg" xmlns:xlink="http://www.w3.org/1999/xlink" width="17" height="17" viewBox="0 0 17 17">
  <defs>
    <clipPath id="clip-path">
      <rect id="Rectangle_330" data-name="Rectangle 330" width="17" height="17" transform="translate(824 721)" fill="#fff" stroke="#333" stroke-width="1"/>
    </clipPath>
    <clipPath id="clip-path-2">
      <path id="path10338" d="M0-17H17V0H0Z"/>
    </clipPath>
  </defs>
  <g id="Mask_Group_38" data-name="Mask Group 38" transform="translate(-824 -721)" clip-path="url(#clip-path)">
    <g id="g10332" transform="translate(824 738)">
      <g id="g10334">
        <g id="g10336" clip-path="url(#clip-path-2)">
          <g id="g10342" transform="translate(4.25 -12.086)">
            <path id="path10344" d="M0,0A4.25,4.25,0,0,1,8.5,0,4.25,4.25,0,0,1,4.25,4.25,4.25,4.25,0,0,1,0,0Z" fill="none" stroke="#333" stroke-linecap="round" stroke-linejoin="round" stroke-width="1"/>
          </g>
          <g id="g10346" transform="translate(13.351 -6.873)">
            <path id="path10348" d="M0,0A7.323,7.323,0,0,1,1.862,1.163,3.312,3.312,0,0,1,2.985,3.652V4.881A1.328,1.328,0,0,1,1.657,6.209H-11.359a1.328,1.328,0,0,1-1.328-1.328V3.652a3.312,3.312,0,0,1,1.123-2.489A10.072,10.072,0,0,1-4.851-.963" fill="none" stroke="#333" stroke-linecap="round" stroke-width="1"/>
          </g>
        </g>
      </g>
    </g>
  </g>
</svg>
