<svg xmlns="http://www.w3.org/2000/svg" width="13" height="13" viewBox="0 0 13 13">
  <g id="checked_2_" data-name="checked (2)" transform="translate(-0.003 0)">
    <g id="Group_202" data-name="Group 202" transform="translate(0.003 0)">
      <path id="Path_2731" data-name="Path 2731" d="M12.687,5.734,11.8,4.847a1.507,1.507,0,0,1-.383-.924V2.669a1.087,1.087,0,0,0-1.083-1.084H9.08A1.509,1.509,0,0,1,8.156,1.2L7.269.316a1.087,1.087,0,0,0-1.532,0L4.851,1.2a1.51,1.51,0,0,1-.925.383H2.672A1.087,1.087,0,0,0,1.589,2.669V3.923a1.509,1.509,0,0,1-.383.924l-.887.886a1.087,1.087,0,0,0,0,1.533l.887.886a1.508,1.508,0,0,1,.383.924v1.254a1.087,1.087,0,0,0,1.083,1.084H3.926a1.508,1.508,0,0,1,.925.383l.886.887a1.087,1.087,0,0,0,1.532,0l.886-.887a1.508,1.508,0,0,1,.925-.383h1.254a1.087,1.087,0,0,0,1.083-1.084V9.077a1.507,1.507,0,0,1,.383-.924l.887-.886A1.088,1.088,0,0,0,12.687,5.734Zm-7.044,3.2L3.253,6.547l.766-.766L5.643,7.405,8.987,4.062l.766.766Z" transform="translate(-0.003 0)" fill="#008eff"/>
    </g>
  </g>
</svg>
