<svg xmlns="http://www.w3.org/2000/svg" width="206" height="40" viewBox="0 0 206 40">
  <g id="Group_13953" data-name="Group 13953" transform="translate(-1599 -1270.636)">
    <g id="Group_16" data-name="Group 16" transform="translate(-1336.391 1454.391)">
      <g id="Group_13951" data-name="Group 13951" transform="translate(2935.391 -183.755)">
        <g id="Group-3">
          <g id="Group-2">
            <path id="Polygon" d="M17.5,0,35,10V30L17.5,40,0,30V10Z" fill="#078e05" fill-rule="evenodd"/>
            <path id="Path-8" d="M0,62.889l.008-19.93L17.354,72.8Z" transform="translate(0 -32.8)" fill="#028400" fill-rule="evenodd"/>
            <path id="Path-9" d="M0,9.993,34.984,30,17.545,0Z" fill="#027600" fill-rule="evenodd"/>
            <path id="Path-10" d="M73.649.25l17.223,10-6.354,9.178Z" transform="translate(-55.874 -0.191)" fill="#02ad00" fill-rule="evenodd"/>
          </g>
          <g id="Group" transform="translate(1.587 12.381)">
            <circle id="Oval" cx="1.587" cy="1.587" r="1.587" transform="translate(8.259 18.519)" fill="#fff"/>
            <circle id="Oval-Copy" cx="1.587" cy="1.587" r="1.587" transform="translate(21.772 18.519)" fill="#fff"/>
            <line id="Line" x2="3.81" fill="none" stroke="#fff" stroke-linecap="square" stroke-width="0.8"/>
            <line id="Line-2" x2="3.598" y2="17.566" transform="translate(3.81)" fill="none" stroke="#fff" stroke-linecap="square" stroke-width="0.8"/>
            <line id="Line-3" x2="18.847" transform="translate(7.131 13.333)" fill="none" stroke="#fff" stroke-linecap="square" stroke-width="0.8"/>
            <line id="Line-3-2" data-name="Line-3" x2="18.847" transform="translate(7.978 17.566)" fill="none" stroke="#fff" stroke-linecap="square" stroke-width="0.8"/>
            <line id="Line-3-3" data-name="Line-3" x2="7.421" transform="translate(18.345 14.921)" fill="none" stroke="#fff" stroke-linecap="square" stroke-width="0.8"/>
            <line id="Line-3-Copy" x2="12.187" transform="translate(12.412 16.19)" fill="none" stroke="#fff" stroke-linecap="square" stroke-width="0.8"/>
            <path id="commerce" d="M32.994,45.976a1.084,1.084,0,0,0,.375-.065.767.767,0,0,0,.31-.213h0l-.244-.244a.634.634,0,0,1-.19.15.549.549,0,0,1-.248.051.583.583,0,0,1-.24-.048.543.543,0,0,1-.183-.131.6.6,0,0,1-.118-.2.676.676,0,0,1-.042-.238.809.809,0,0,1,.036-.242.634.634,0,0,1,.107-.206.5.5,0,0,1,.175-.141.552.552,0,0,1,.246-.051.561.561,0,0,1,.25.051.72.72,0,0,1,.2.15h0l.259-.236a.834.834,0,0,0-.314-.215,1.035,1.035,0,0,0-.379-.07,1.018,1.018,0,0,0-.387.07.858.858,0,0,0-.49.5,1.047,1.047,0,0,0-.069.385,1.032,1.032,0,0,0,.069.383.85.85,0,0,0,.194.3.884.884,0,0,0,.3.192,1.032,1.032,0,0,0,.383.068Zm1.851,0a.956.956,0,0,0,.377-.074.967.967,0,0,0,.3-.2.939.939,0,0,0,.278-.672.919.919,0,0,0-.074-.37.957.957,0,0,0-1.764,0,.919.919,0,0,0-.074.37.939.939,0,0,0,.278.672.967.967,0,0,0,.3.2A.956.956,0,0,0,34.845,45.976Zm0-.32a.62.62,0,0,1-.248-.048.547.547,0,0,1-.187-.13.571.571,0,0,1-.118-.2.787.787,0,0,1,0-.507.571.571,0,0,1,.118-.2.547.547,0,0,1,.187-.13.668.668,0,0,1,.5,0,.547.547,0,0,1,.187.13.571.571,0,0,1,.118.2.787.787,0,0,1,0,.507.571.571,0,0,1-.118.2.547.547,0,0,1-.187.13A.62.62,0,0,1,34.845,45.656Zm1.733.274v-.937a.826.826,0,0,1,.038-.265.527.527,0,0,1,.1-.185.419.419,0,0,1,.15-.109.451.451,0,0,1,.177-.036.393.393,0,0,1,.2.044.294.294,0,0,1,.114.122.554.554,0,0,1,.053.185,1.913,1.913,0,0,1,.013.236h0v.945h.343v-.987a.669.669,0,0,1,.107-.392.488.488,0,0,1,.556-.109.314.314,0,0,1,.118.116.458.458,0,0,1,.055.168,1.428,1.428,0,0,1,.013.2h0v1.006h.343V44.879a1.5,1.5,0,0,0-.029-.3.691.691,0,0,0-.1-.255.552.552,0,0,0-.21-.181.749.749,0,0,0-.343-.069.691.691,0,0,0-.324.084.578.578,0,0,0-.248.251.623.623,0,0,0-.225-.251.639.639,0,0,0-.339-.084.656.656,0,0,0-.223.036.753.753,0,0,0-.175.088.607.607,0,0,0-.122.109.3.3,0,0,0-.059.1h-.008v-.282h-.32v1.806Zm3.246,0v-.937a.826.826,0,0,1,.038-.265.527.527,0,0,1,.1-.185.419.419,0,0,1,.15-.109.451.451,0,0,1,.177-.036.393.393,0,0,1,.2.044.294.294,0,0,1,.114.122.554.554,0,0,1,.053.185,1.913,1.913,0,0,1,.013.236h0v.945h.343v-.987a.669.669,0,0,1,.107-.392.488.488,0,0,1,.556-.109.314.314,0,0,1,.118.116.458.458,0,0,1,.055.168,1.425,1.425,0,0,1,.013.2h0v1.006H42.2V44.879a1.5,1.5,0,0,0-.029-.3.691.691,0,0,0-.1-.255.552.552,0,0,0-.21-.181.748.748,0,0,0-.343-.069.691.691,0,0,0-.324.084.578.578,0,0,0-.248.251.623.623,0,0,0-.225-.251.639.639,0,0,0-.339-.084.656.656,0,0,0-.223.036.753.753,0,0,0-.175.088.607.607,0,0,0-.122.109.3.3,0,0,0-.059.1H39.8v-.282h-.32v1.806Zm3.726.046a.953.953,0,0,0,.8-.37h0l-.259-.2a.9.9,0,0,1-.217.2.511.511,0,0,1-.278.074.7.7,0,0,1-.229-.038.626.626,0,0,1-.194-.107.535.535,0,0,1-.135-.166.453.453,0,0,1-.051-.215h1.448v-.122a1.269,1.269,0,0,0-.048-.345.864.864,0,0,0-.154-.3.8.8,0,0,0-.272-.219.892.892,0,0,0-.406-.084.95.95,0,0,0-.373.072.887.887,0,0,0-.3.2.93.93,0,0,0-.194.3.987.987,0,0,0-.07.375,1.064,1.064,0,0,0,.065.375.887.887,0,0,0,.185.3.842.842,0,0,0,.293.2.994.994,0,0,0,.389.07Zm.518-1.1H42.986a.466.466,0,0,1,.04-.185.572.572,0,0,1,.112-.17.561.561,0,0,1,.177-.124.551.551,0,0,1,.23-.048.592.592,0,0,1,.227.04.448.448,0,0,1,.162.11.461.461,0,0,1,.1.166.723.723,0,0,1,.036.21Zm1.12,1.051V45.02a.619.619,0,0,1,.133-.438.5.5,0,0,1,.385-.141.469.469,0,0,1,.084.008q.042.008.084.019h0l.015-.37a.48.48,0,0,0-.152-.023.589.589,0,0,0-.168.025.675.675,0,0,0-.154.067.612.612,0,0,0-.128.1.489.489,0,0,0-.091.131h-.008V44.12h-.343v1.806Zm1.855.046a1.084,1.084,0,0,0,.375-.065.767.767,0,0,0,.31-.213h0l-.244-.244a.634.634,0,0,1-.19.15.549.549,0,0,1-.248.051.583.583,0,0,1-.24-.048.543.543,0,0,1-.183-.131.6.6,0,0,1-.118-.2.676.676,0,0,1-.042-.238A.809.809,0,0,1,46.5,44.8a.634.634,0,0,1,.107-.206.5.5,0,0,1,.175-.141.552.552,0,0,1,.246-.051.561.561,0,0,1,.25.051.72.72,0,0,1,.2.15h0l.259-.236a.834.834,0,0,0-.314-.215,1.035,1.035,0,0,0-.379-.07,1.018,1.018,0,0,0-.387.07.858.858,0,0,0-.49.5,1.047,1.047,0,0,0-.069.385,1.032,1.032,0,0,0,.069.383.85.85,0,0,0,.194.3.884.884,0,0,0,.3.192,1.032,1.032,0,0,0,.382.064Zm1.8,0a.953.953,0,0,0,.8-.37h0l-.259-.2a.9.9,0,0,1-.217.2.511.511,0,0,1-.278.074.7.7,0,0,1-.229-.038.626.626,0,0,1-.194-.107.536.536,0,0,1-.135-.166.453.453,0,0,1-.051-.215h1.448v-.122a1.269,1.269,0,0,0-.048-.345.864.864,0,0,0-.154-.3.8.8,0,0,0-.272-.219.892.892,0,0,0-.406-.084.95.95,0,0,0-.373.072.887.887,0,0,0-.3.2.93.93,0,0,0-.194.3.987.987,0,0,0-.07.375,1.064,1.064,0,0,0,.065.375.887.887,0,0,0,.185.3.842.842,0,0,0,.293.2.994.994,0,0,0,.391.073Zm.518-1.1h-1.08a.466.466,0,0,1,.04-.185.572.572,0,0,1,.112-.17.562.562,0,0,1,.177-.124.55.55,0,0,1,.23-.048.592.592,0,0,1,.227.04.448.448,0,0,1,.162.11.461.461,0,0,1,.1.166.723.723,0,0,1,.036.21Z" transform="translate(-24.352 -33.973)" fill="#fff" stroke="#fff" stroke-width="0.1"/>
            <line id="Line-4" y1="12.063" x2="3.81" transform="translate(26.179 1.058)" fill="none" stroke="#fff" stroke-linecap="square" stroke-width="0.8"/>
            <path id="Spurt" d="M28.457,14.5a2.787,2.787,0,0,0,.77-.107,1.975,1.975,0,0,0,.663-.328,1.6,1.6,0,0,0,.461-.56,1.762,1.762,0,0,0,.171-.8,1.306,1.306,0,0,0-.16-.674,1.54,1.54,0,0,0-.4-.453,2.137,2.137,0,0,0-.541-.293q-.3-.11-.571-.2-.19-.061-.343-.118a1.494,1.494,0,0,1-.263-.126.509.509,0,0,1-.168-.16.424.424,0,0,1-.057-.229.446.446,0,0,1,.072-.263.593.593,0,0,1,.179-.168.679.679,0,0,1,.24-.088,1.554,1.554,0,0,1,.263-.023,1.236,1.236,0,0,1,.522.126,1.176,1.176,0,0,1,.438.339h0l.83-.876a2.4,2.4,0,0,0-.834-.5,2.8,2.8,0,0,0-.933-.168,3.04,3.04,0,0,0-.754.1,2.062,2.062,0,0,0-.67.3,1.59,1.59,0,0,0-.48.526,1.527,1.527,0,0,0-.183.77,1.472,1.472,0,0,0,.118.621,1.359,1.359,0,0,0,.312.434,1.7,1.7,0,0,0,.442.293,4.551,4.551,0,0,0,.507.2q.267.084.476.156a1.749,1.749,0,0,1,.35.16.744.744,0,0,1,.217.194.434.434,0,0,1,.076.259.576.576,0,0,1-.061.274.5.5,0,0,1-.164.183.7.7,0,0,1-.24.1,1.3,1.3,0,0,1-.282.03,1.416,1.416,0,0,1-.644-.164,1.577,1.577,0,0,1-.522-.408h0l-.853.869a2.373,2.373,0,0,0,.9.575,3.178,3.178,0,0,0,1.116.2Zm4.276,1.691V13.94h.015a1.183,1.183,0,0,0,.488.385,1.593,1.593,0,0,0,.663.141,1.681,1.681,0,0,0,.762-.168,1.75,1.75,0,0,0,.568-.446,1.959,1.959,0,0,0,.354-.644,2.393,2.393,0,0,0,.122-.762,2.293,2.293,0,0,0-.126-.758,1.977,1.977,0,0,0-.358-.636,1.685,1.685,0,0,0-.568-.434,1.711,1.711,0,0,0-.747-.16,1.475,1.475,0,0,0-.728.171,1.539,1.539,0,0,0-.484.4h-.023v-.465H31.483v5.623ZM33.6,13.43a.84.84,0,0,1-.381-.084.909.909,0,0,1-.286-.221,1.012,1.012,0,0,1-.183-.312,1.032,1.032,0,0,1,.183-1.028.909.909,0,0,1,.286-.221.84.84,0,0,1,.381-.084.858.858,0,0,1,.389.084.848.848,0,0,1,.278.217.93.93,0,0,1,.168.309,1.148,1.148,0,0,1,.057.358,1.184,1.184,0,0,1-.057.362.967.967,0,0,1-.168.316.825.825,0,0,1-.278.221.858.858,0,0,1-.389.083ZM38,14.466a1.314,1.314,0,0,0,.377-.053,1.586,1.586,0,0,0,.328-.137,1.128,1.128,0,0,0,.259-.2,1.074,1.074,0,0,0,.179-.244h.015v.526h1.2V10.565h-1.25v2.05a.968.968,0,0,1-.171.571.572.572,0,0,1-.5.244.539.539,0,0,1-.282-.065.484.484,0,0,1-.171-.179.762.762,0,0,1-.088-.259,1.955,1.955,0,0,1-.023-.3h0V10.565H36.62v2.347a2.244,2.244,0,0,0,.072.568,1.4,1.4,0,0,0,.236.5,1.247,1.247,0,0,0,.427.354,1.379,1.379,0,0,0,.645.132Zm4.756-.107v-1.95a.946.946,0,0,1,.046-.267.837.837,0,0,1,.149-.282.861.861,0,0,1,.274-.221.89.89,0,0,1,.423-.091q.076,0,.156.008a.973.973,0,0,1,.164.03h0l.053-1.1a.572.572,0,0,0-.118-.023,1.419,1.419,0,0,0-.149-.008,1.065,1.065,0,0,0-.617.183,1.232,1.232,0,0,0-.411.472h-.015v-.549h-1.2v3.794Zm3.423.091a2.319,2.319,0,0,0,.4-.034,2.064,2.064,0,0,0,.328-.08h0l-.015-.914a.667.667,0,0,1-.171.046,1.329,1.329,0,0,1-.194.015.442.442,0,0,1-.37-.133.649.649,0,0,1-.1-.4h0V11.5h.891v-.937h-.891v-1H44.821v1h-.6V11.5h.61v1.6a2.069,2.069,0,0,0,.069.552,1.075,1.075,0,0,0,.225.427.992.992,0,0,0,.415.274,1.868,1.868,0,0,0,.638.1Z" transform="translate(-19.932 -7.058)" fill="#fff"/>
          </g>
        </g>
      </g>
    </g>
    <g id="Group_17" data-name="Group 17" transform="translate(-1351 1497.704)">
      <path id="Path_3" data-name="Path 3" d="M9.037-8.95a2.4,2.4,0,0,0-1.111-.765A3.984,3.984,0,0,0,6.6-9.963a3.479,3.479,0,0,0-.755.086,2.9,2.9,0,0,0-.734.27,1.6,1.6,0,0,0-.561.485,1.228,1.228,0,0,0-.216.733,1.215,1.215,0,0,0,.518,1.057,4.9,4.9,0,0,0,1.305.625q.787.259,1.694.517a6.981,6.981,0,0,1,1.694.733,4.009,4.009,0,0,1,1.305,1.272,3.876,3.876,0,0,1,.518,2.135A4.905,4.905,0,0,1,10.892.171,4.507,4.507,0,0,1,9.609,1.745a5.464,5.464,0,0,1-1.877.927,8.252,8.252,0,0,1-2.255.3,8.184,8.184,0,0,1-2.762-.453A6.921,6.921,0,0,1,.342,1.055L2.737-1.575A3.5,3.5,0,0,0,4.042-.508a3.728,3.728,0,0,0,1.629.377,3.688,3.688,0,0,0,.831-.1,2.707,2.707,0,0,0,.755-.291,1.628,1.628,0,0,0,.539-.5A1.236,1.236,0,0,0,8-1.726a1.291,1.291,0,0,0-.529-1.089,4.873,4.873,0,0,0-1.327-.679q-.8-.28-1.726-.561A7.754,7.754,0,0,1,2.694-4.81,4.159,4.159,0,0,1,1.367-6.06,3.576,3.576,0,0,1,.838-8.109a4.584,4.584,0,0,1,.485-2.156,4.678,4.678,0,0,1,1.295-1.552,5.629,5.629,0,0,1,1.866-.938,7.643,7.643,0,0,1,2.179-.313,8.573,8.573,0,0,1,2.5.367,5.773,5.773,0,0,1,2.179,1.229Zm4.725,1.057h2.977v1.38h.043a3.574,3.574,0,0,1,.507-.571,3.836,3.836,0,0,1,.734-.528A4.566,4.566,0,0,1,18.94-8,3.614,3.614,0,0,1,20-8.152a5.407,5.407,0,0,1,2.114.4A4.715,4.715,0,0,1,23.74-6.632a5,5,0,0,1,1.046,1.714,6.235,6.235,0,0,1,.367,2.178,6.6,6.6,0,0,1-.334,2.1,5.784,5.784,0,0,1-.949,1.779,4.637,4.637,0,0,1-1.5,1.24,4.257,4.257,0,0,1-2.006.464,5.564,5.564,0,0,1-1.888-.313,3.021,3.021,0,0,1-1.435-1.067H17V7.5H13.762Zm2.977,5.24a2.71,2.71,0,0,0,.68,1.919A2.475,2.475,0,0,0,19.328,0a2.475,2.475,0,0,0,1.909-.733,2.71,2.71,0,0,0,.68-1.919,2.71,2.71,0,0,0-.68-1.919,2.475,2.475,0,0,0-1.909-.733,2.475,2.475,0,0,0-1.909.733A2.71,2.71,0,0,0,16.739-2.654Zm20.41,5.24H34.043V1.163H34a3.58,3.58,0,0,1-.442.6,2.9,2.9,0,0,1-.658.539,3.825,3.825,0,0,1-.885.388,3.692,3.692,0,0,1-1.079.151,4.531,4.531,0,0,1-2-.377,2.855,2.855,0,0,1-1.187-1.046,4.1,4.1,0,0,1-.561-1.574,12.846,12.846,0,0,1-.14-1.962V-7.893h3.236v5.132q0,.453.032.938a2.958,2.958,0,0,0,.194.895,1.545,1.545,0,0,0,.5.668,1.542,1.542,0,0,0,.96.259,2,2,0,0,0,1.014-.226,1.544,1.544,0,0,0,.593-.6,2.467,2.467,0,0,0,.27-.852,7.336,7.336,0,0,0,.065-.992V-7.893h3.236ZM39.436-7.893h3.236v1.682h.043a3.976,3.976,0,0,1,1.23-1.455,3.11,3.11,0,0,1,1.791-.485q.28,0,.561.022a2.78,2.78,0,0,1,.518.086V-5.09a4.891,4.891,0,0,0-.68-.162,4.4,4.4,0,0,0-.7-.054,3.441,3.441,0,0,0-1.467.259,1.948,1.948,0,0,0-.831.722,2.744,2.744,0,0,0-.378,1.11,10.806,10.806,0,0,0-.086,1.423V2.586H39.436ZM55.359-5.306H52.511v3.493a6.571,6.571,0,0,0,.043.787,1.585,1.585,0,0,0,.194.615.981.981,0,0,0,.464.4,2.058,2.058,0,0,0,.831.14,5.6,5.6,0,0,0,.68-.054,1.152,1.152,0,0,0,.636-.248v2.7a4.9,4.9,0,0,1-1.122.259,10.357,10.357,0,0,1-1.143.065,6.224,6.224,0,0,1-1.51-.172,3.446,3.446,0,0,1-1.208-.55,2.576,2.576,0,0,1-.809-.981,3.352,3.352,0,0,1-.291-1.466V-5.306H47.2V-7.893h2.071V-11h3.236v3.1h2.848Z" transform="translate(2990.068 -214)" fill="#fff"/>
      <path id="Path_4" data-name="Path 4" d="M5.394.494h.043l3.84-13.067h1.855L14.973.494h.043l3.625-13.067h1.726L15.858,2.693H14.045l-3.84-13.067h-.043L6.322,2.693H4.509L0-12.573H1.726ZM29.385-3.129a3.229,3.229,0,0,0-.863-2.339,3.2,3.2,0,0,0-2.416-.895,3.448,3.448,0,0,0-1.338.27,3.765,3.765,0,0,0-1.133.722,3.623,3.623,0,0,0-.777,1.035,2.667,2.667,0,0,0-.291,1.207ZM22.525-1.964a4.327,4.327,0,0,0,.367,1.423,3.76,3.76,0,0,0,.8,1.154,3.756,3.756,0,0,0,1.143.765,3.491,3.491,0,0,0,1.4.28A3.6,3.6,0,0,0,28.21,1.13,3.949,3.949,0,0,0,29.472-.089l1.1.906a5.473,5.473,0,0,1-2,1.639,5.584,5.584,0,0,1-2.341.5,5.372,5.372,0,0,1-2.082-.4A4.877,4.877,0,0,1,22.5,1.442,5.26,5.26,0,0,1,21.413-.24a5.5,5.5,0,0,1-.4-2.113A5.635,5.635,0,0,1,21.4-4.466a5.115,5.115,0,0,1,1.079-1.682A4.961,4.961,0,0,1,24.1-7.258a5.025,5.025,0,0,1,2.006-.4,4.923,4.923,0,0,1,2.05.41,4.548,4.548,0,0,1,1.521,1.089,4.66,4.66,0,0,1,.939,1.6,5.817,5.817,0,0,1,.324,1.951v.647Zm20.216-.388a4.523,4.523,0,0,0-.27-1.574A3.784,3.784,0,0,0,41.7-5.2a3.6,3.6,0,0,0-1.2-.852,3.855,3.855,0,0,0-1.586-.313,4.085,4.085,0,0,0-1.618.313,4,4,0,0,0-1.273.852,3.852,3.852,0,0,0-.841,1.272,4.091,4.091,0,0,0-.3,1.574,4.091,4.091,0,0,0,.3,1.574A3.852,3.852,0,0,0,36.031.494a4,4,0,0,0,1.273.852,4.085,4.085,0,0,0,1.618.313,3.855,3.855,0,0,0,1.586-.313A3.6,3.6,0,0,0,41.7.494a3.784,3.784,0,0,0,.766-1.272A4.523,4.523,0,0,0,42.741-2.353ZM33.528-13.608h1.424v7.892H35a3.7,3.7,0,0,1,.82-.884,5.09,5.09,0,0,1,.992-.6,4.75,4.75,0,0,1,1.068-.345,5.447,5.447,0,0,1,1.046-.108,5.709,5.709,0,0,1,2.168.4,5.06,5.06,0,0,1,1.694,1.11,5.083,5.083,0,0,1,1.111,1.682,5.5,5.5,0,0,1,.4,2.113,5.5,5.5,0,0,1-.4,2.113,5.083,5.083,0,0,1-1.111,1.682,5.06,5.06,0,0,1-1.694,1.11,5.709,5.709,0,0,1-2.168.4,5.447,5.447,0,0,1-1.046-.108A4.75,4.75,0,0,1,36.807,2.5a5.091,5.091,0,0,1-.992-.6A3.7,3.7,0,0,1,35,1.011h-.043V2.693H33.528ZM60.454-10.05A3.352,3.352,0,0,0,57.5-11.538a4.416,4.416,0,0,0-1.187.162,3.269,3.269,0,0,0-1.046.5,2.476,2.476,0,0,0-.744.862,2.607,2.607,0,0,0-.28,1.24,2.148,2.148,0,0,0,.583,1.606,4.61,4.61,0,0,0,1.446.938,16.049,16.049,0,0,0,1.888.658,8.671,8.671,0,0,1,1.888.776,4.5,4.5,0,0,1,1.446,1.283,3.624,3.624,0,0,1,.583,2.178A3.9,3.9,0,0,1,61.63.526a4.289,4.289,0,0,1-1.165,1.391,5.47,5.47,0,0,1-1.618.862,5.607,5.607,0,0,1-1.8.3,6.832,6.832,0,0,1-2.665-.528A5.071,5.071,0,0,1,52.234.817L53.636-.2a3.71,3.71,0,0,0,1.381,1.348,4.14,4.14,0,0,0,2.093.507,3.863,3.863,0,0,0,1.165-.183A3.361,3.361,0,0,0,59.321.936a2.983,2.983,0,0,0,.766-.873,2.309,2.309,0,0,0,.3-1.186,2.436,2.436,0,0,0-.334-1.326,2.883,2.883,0,0,0-.885-.884,5.6,5.6,0,0,0-1.251-.593q-.7-.237-1.446-.474T55.028-4.94a4.99,4.99,0,0,1-1.251-.765,3.429,3.429,0,0,1-.885-1.164,4.074,4.074,0,0,1-.334-1.757,4.148,4.148,0,0,1,.421-1.919A3.98,3.98,0,0,1,54.1-11.9a4.775,4.775,0,0,1,1.586-.8,6.423,6.423,0,0,1,1.812-.259,6.46,6.46,0,0,1,2.352.41,5.07,5.07,0,0,1,1.963,1.445ZM69.925-6.1H67.013V-.153a3.229,3.229,0,0,0,.108.916,1.293,1.293,0,0,0,.3.55,1.042,1.042,0,0,0,.464.27,2.2,2.2,0,0,0,.593.075,2.817,2.817,0,0,0,.755-.108,3.5,3.5,0,0,0,.712-.28l.065,1.315a4.576,4.576,0,0,1-1.92.367,3.6,3.6,0,0,1-.852-.108,2.01,2.01,0,0,1-.809-.41,2.256,2.256,0,0,1-.6-.819A3.289,3.289,0,0,1,65.589.256V-6.1H63.453V-7.4h2.136v-2.846h1.424V-7.4h2.913ZM80.519-2.353a4.523,4.523,0,0,0-.27-1.574A3.784,3.784,0,0,0,79.483-5.2a3.6,3.6,0,0,0-1.2-.852A3.855,3.855,0,0,0,76.7-6.363a3.855,3.855,0,0,0-1.586.313,3.482,3.482,0,0,0-1.187.852,3.88,3.88,0,0,0-.755,1.272,4.524,4.524,0,0,0-.27,1.574,4.524,4.524,0,0,0,.27,1.574A3.88,3.88,0,0,0,73.928.494a3.482,3.482,0,0,0,1.187.852,3.855,3.855,0,0,0,1.586.313,3.855,3.855,0,0,0,1.586-.313,3.6,3.6,0,0,0,1.2-.852,3.784,3.784,0,0,0,.766-1.272A4.523,4.523,0,0,0,80.519-2.353Zm1.553,0a5.5,5.5,0,0,1-.4,2.113,5.083,5.083,0,0,1-1.111,1.682,5.06,5.06,0,0,1-1.694,1.11,5.709,5.709,0,0,1-2.168.4,5.65,5.65,0,0,1-2.147-.4,5.06,5.06,0,0,1-1.694-1.11A5.083,5.083,0,0,1,71.748-.24a5.5,5.5,0,0,1-.4-2.113,5.5,5.5,0,0,1,.4-2.113A5.083,5.083,0,0,1,72.86-6.148a5.06,5.06,0,0,1,1.694-1.11,5.65,5.65,0,0,1,2.147-.4,5.709,5.709,0,0,1,2.168.4,5.06,5.06,0,0,1,1.694,1.11,5.083,5.083,0,0,1,1.111,1.682A5.5,5.5,0,0,1,82.072-2.353Zm2.74-1.9q0-.668-.032-1.358T84.726-7.4h1.4v1.876h.043a3.136,3.136,0,0,1,.432-.787,3.379,3.379,0,0,1,.68-.679,3.338,3.338,0,0,1,.928-.485,3.643,3.643,0,0,1,1.2-.183,3.868,3.868,0,0,1,1.057.129l-.28,1.4a2.4,2.4,0,0,0-.82-.108,2.929,2.929,0,0,0-1.4.313,3.109,3.109,0,0,0-.971.8,3.314,3.314,0,0,0-.572,1.046A3.463,3.463,0,0,0,86.236-3V2.693H84.812ZM99.289-3.129a3.229,3.229,0,0,0-.863-2.339,3.2,3.2,0,0,0-2.416-.895,3.448,3.448,0,0,0-1.338.27,3.765,3.765,0,0,0-1.133.722,3.623,3.623,0,0,0-.777,1.035,2.667,2.667,0,0,0-.291,1.207ZM92.428-1.964A4.328,4.328,0,0,0,92.8-.541a3.76,3.76,0,0,0,.8,1.154,3.756,3.756,0,0,0,1.143.765,3.491,3.491,0,0,0,1.4.28,3.6,3.6,0,0,0,1.974-.528A3.949,3.949,0,0,0,99.376-.089l1.1.906a5.473,5.473,0,0,1-2,1.639,5.584,5.584,0,0,1-2.341.5,5.372,5.372,0,0,1-2.082-.4,4.877,4.877,0,0,1-1.651-1.11A5.261,5.261,0,0,1,91.317-.24a5.5,5.5,0,0,1-.4-2.113,5.635,5.635,0,0,1,.388-2.113,5.116,5.116,0,0,1,1.079-1.682A4.961,4.961,0,0,1,94-7.258a5.025,5.025,0,0,1,2.006-.4,4.923,4.923,0,0,1,2.05.41,4.548,4.548,0,0,1,1.521,1.089,4.66,4.66,0,0,1,.939,1.6,5.817,5.817,0,0,1,.324,1.951v.647ZM111.285,1.27h3.021a7.937,7.937,0,0,0,3.031-.528,6.273,6.273,0,0,0,2.136-1.4,5.585,5.585,0,0,0,1.262-1.984,6.579,6.579,0,0,0,.41-2.3,6.579,6.579,0,0,0-.41-2.3,5.585,5.585,0,0,0-1.262-1.984,6.273,6.273,0,0,0-2.136-1.4,7.937,7.937,0,0,0-3.031-.528h-3.021Zm-1.553-13.843h5.07a9.062,9.062,0,0,1,2.859.474,7.887,7.887,0,0,1,2.589,1.434,7.269,7.269,0,0,1,1.866,2.393,7.4,7.4,0,0,1,.712,3.331,7.383,7.383,0,0,1-.712,3.342A7.3,7.3,0,0,1,120.25.785a7.887,7.887,0,0,1-2.589,1.434,9.062,9.062,0,0,1-2.859.474h-5.07ZM133.27-3.129a3.229,3.229,0,0,0-.863-2.339,3.2,3.2,0,0,0-2.416-.895,3.448,3.448,0,0,0-1.338.27,3.765,3.765,0,0,0-1.133.722,3.623,3.623,0,0,0-.777,1.035,2.667,2.667,0,0,0-.291,1.207Zm-6.861,1.164a4.327,4.327,0,0,0,.367,1.423,3.76,3.76,0,0,0,.8,1.154,3.755,3.755,0,0,0,1.143.765,3.491,3.491,0,0,0,1.4.28,3.6,3.6,0,0,0,1.974-.528,3.949,3.949,0,0,0,1.262-1.218l1.1.906a5.473,5.473,0,0,1-2,1.639,5.584,5.584,0,0,1-2.341.5,5.372,5.372,0,0,1-2.082-.4,4.877,4.877,0,0,1-1.651-1.11A5.26,5.26,0,0,1,125.3-.24a5.5,5.5,0,0,1-.4-2.113,5.635,5.635,0,0,1,.388-2.113,5.115,5.115,0,0,1,1.079-1.682,4.961,4.961,0,0,1,1.618-1.11,5.025,5.025,0,0,1,2.007-.4,4.923,4.923,0,0,1,2.05.41,4.548,4.548,0,0,1,1.521,1.089,4.66,4.66,0,0,1,.939,1.6,5.817,5.817,0,0,1,.324,1.951v.647Zm11-3.191q0-.561-.032-1.121T137.3-7.4h1.532v1.531h.043A3.346,3.346,0,0,1,140.315-7.2a4.089,4.089,0,0,1,1.823-.453,4.791,4.791,0,0,1,.874.086,3.163,3.163,0,0,1,.9.313,3,3,0,0,1,.809.636,3.413,3.413,0,0,1,.636,1.057,3.323,3.323,0,0,1,1.37-1.531,3.755,3.755,0,0,1,1.953-.561,3.686,3.686,0,0,1,2.87,1.024,4.2,4.2,0,0,1,.928,2.922v6.4h-1.424V-3.194a4.273,4.273,0,0,0-.539-2.35,2.226,2.226,0,0,0-2.007-.819,2.631,2.631,0,0,0-1.338.313,2.544,2.544,0,0,0-.874.83,3.651,3.651,0,0,0-.485,1.175,6.1,6.1,0,0,0-.151,1.369V2.693h-1.424V-3.194a4.273,4.273,0,0,0-.539-2.35,2.226,2.226,0,0,0-2.006-.819,4.435,4.435,0,0,0-.593.086,2.257,2.257,0,0,0-.96.474,3.456,3.456,0,0,0-.9,1.164,4.783,4.783,0,0,0-.4,2.156V2.693h-1.424Zm27.034,2.8a4.523,4.523,0,0,0-.27-1.574,3.783,3.783,0,0,0-.766-1.272,3.6,3.6,0,0,0-1.2-.852,3.855,3.855,0,0,0-1.586-.313,3.855,3.855,0,0,0-1.586.313,3.482,3.482,0,0,0-1.187.852,3.88,3.88,0,0,0-.755,1.272,4.523,4.523,0,0,0-.27,1.574,4.523,4.523,0,0,0,.27,1.574,3.88,3.88,0,0,0,.755,1.272,3.482,3.482,0,0,0,1.187.852,3.855,3.855,0,0,0,1.586.313,3.855,3.855,0,0,0,1.586-.313,3.6,3.6,0,0,0,1.2-.852,3.783,3.783,0,0,0,.766-1.272A4.523,4.523,0,0,0,164.447-2.353Zm1.553,0a5.5,5.5,0,0,1-.4,2.113,5.083,5.083,0,0,1-1.111,1.682,5.061,5.061,0,0,1-1.694,1.11,5.709,5.709,0,0,1-2.168.4,5.65,5.65,0,0,1-2.147-.4,5.061,5.061,0,0,1-1.694-1.11A5.083,5.083,0,0,1,155.676-.24a5.5,5.5,0,0,1-.4-2.113,5.5,5.5,0,0,1,.4-2.113,5.083,5.083,0,0,1,1.111-1.682,5.061,5.061,0,0,1,1.694-1.11,5.65,5.65,0,0,1,2.147-.4,5.709,5.709,0,0,1,2.168.4,5.061,5.061,0,0,1,1.694,1.11A5.083,5.083,0,0,1,165.6-4.466,5.5,5.5,0,0,1,166-2.353Z" transform="translate(2990 -190.149)" fill="#d6d6d6"/>
    </g>
  </g>
</svg>
