<svg xmlns="http://www.w3.org/2000/svg" xmlns:xlink="http://www.w3.org/1999/xlink" width="18" height="18" viewBox="0 0 18 18">
  <defs>
    <clipPath id="clip-path">
      <rect id="Rectangle_4896" data-name="Rectangle 4896" width="18" height="18" transform="translate(647 257)" fill="#2a2e34" stroke="#2a2e35" stroke-width="0.2"/>
    </clipPath>
  </defs>
  <g id="Mask_Group_399" data-name="Mask Group 399" transform="translate(-647 -257)" clip-path="url(#clip-path)">
    <g id="Icon" transform="translate(647.281 257)">
      <path id="Path_5305" data-name="Path 5305" d="M5.7,3.792H3.161A2.23,2.23,0,0,0,.93,6.023V9.172a.609.609,0,0,0,.608.608h.954a1.3,1.3,0,1,1,0,2.6H1.539a.608.608,0,0,0-.608.608v3.148a2.229,2.229,0,0,0,2.23,2.23H6.309a.608.608,0,0,0,.608-.608v-.954a1.3,1.3,0,1,1,2.6,0v.954a.609.609,0,0,0,.608.608h3.149a2.231,2.231,0,0,0,2.23-2.23V13.6h.346a2.517,2.517,0,0,0,0-5.033h-.346V6.023a2.232,2.232,0,0,0-2.23-2.23H10.734V3.447a2.517,2.517,0,0,0-5.033,0Zm.608,1.217A.607.607,0,0,0,6.917,4.4V3.447a1.3,1.3,0,1,1,2.6,0V4.4a.608.608,0,0,0,.608.608h3.149a1.016,1.016,0,0,1,1.014,1.014V9.172a.608.608,0,0,0,.608.608h.954a1.3,1.3,0,1,1,0,2.6H14.9a.607.607,0,0,0-.608.608v3.148a1.015,1.015,0,0,1-1.014,1.014H10.734v-.346a2.517,2.517,0,1,0-5.033,0v.346H3.161a1.013,1.013,0,0,1-1.014-1.014V13.6h.346a2.517,2.517,0,1,0,0-5.033H2.147V6.023A1.015,1.015,0,0,1,3.161,5.009Z" transform="translate(-0.93 -0.93)" fill="#2a2e34" stroke="#2a2e35" stroke-width="0.2" fill-rule="evenodd"/>
    </g>
  </g>
</svg>
