<svg id="Icon_ionic-ios-calendar" data-name="Icon ionic-ios-calendar" xmlns="http://www.w3.org/2000/svg" width="17.333" height="16" viewBox="0 0 17.333 16">
  <path id="Path_5240" data-name="Path 5240" d="M19.042,6.75H17.375v.986a.332.332,0,0,1-.333.329h-.667a.332.332,0,0,1-.333-.329V6.75h-8v.986a.332.332,0,0,1-.333.329H7.042a.332.332,0,0,1-.333-.329V6.75H5.042A1.66,1.66,0,0,0,3.375,8.394V19.571a1.66,1.66,0,0,0,1.667,1.644h14a1.66,1.66,0,0,0,1.667-1.644V8.394A1.66,1.66,0,0,0,19.042,6.75Zm.333,12.327a.83.83,0,0,1-.833.822h-13a.83.83,0,0,1-.833-.822v-7.4a.332.332,0,0,1,.333-.329h14a.332.332,0,0,1,.333.329Z" transform="translate(-3.375 -5.214)"/>
  <path id="Path_5241" data-name="Path 5241" d="M10.536,4.884a.385.385,0,0,0-.384-.384H9.384A.385.385,0,0,0,9,4.884V6.036h1.536Z" transform="translate(-5.709 -4.5)"/>
  <path id="Path_5242" data-name="Path 5242" d="M26.286,4.884A.385.385,0,0,0,25.9,4.5h-.768a.385.385,0,0,0-.384.384V6.036h1.536Z" transform="translate(-12.244 -4.5)"/>
</svg>
