<svg xmlns="http://www.w3.org/2000/svg" width="13.212" height="13.224" viewBox="0 0 13.212 13.224">
  <g id="edit-02-stroke-rounded_1_" data-name="edit-02-stroke-rounded (1)" transform="translate(-1.411 -1.376)">
    <path id="Path_6824" data-name="Path 6824" d="M9.244,3.131a4.841,4.841,0,0,1,.908-.868,1.864,1.864,0,0,1,1.862-.028,4.832,4.832,0,0,1,.933.84,4.874,4.874,0,0,1,.823.953,1.976,1.976,0,0,1-.027,1.9,4.867,4.867,0,0,1-.85.928L7.25,12.293a6.475,6.475,0,0,1-1.91,1.518,6.329,6.329,0,0,1-2.414.171l-.168,0c-.376-.01-.564-.015-.673-.139s-.094-.315-.065-.7l.016-.208a6.67,6.67,0,0,1,.336-2.1,6.526,6.526,0,0,1,1.3-1.664Z" transform="translate(0 0)" fill="none" stroke="#2a2e34" stroke-linejoin="round" stroke-width="1.2"/>
    <path id="Path_6825" data-name="Path 6825" d="M13,4l3.977,3.977" transform="translate(-4.275 -0.675)" fill="none" stroke="#2a2e34" stroke-linejoin="round" stroke-width="1.2"/>
    <path id="Path_6826" data-name="Path 6826" d="M14,22h4.8" transform="translate(-4.8 -8)" fill="none" stroke="#2a2e34" stroke-linecap="round" stroke-linejoin="round" stroke-width="1.2"/>
  </g>
</svg>
