<svg xmlns="http://www.w3.org/2000/svg" width="25" height="25" viewBox="0 0 25 25">
  <g id="Group_1000" data-name="Group 1000" transform="translate(-963.273 -1679.309)">
    <g id="g177" transform="translate(963.773 1679.809)">
      <g id="g179" transform="translate(0 0)">
        <g id="Group_108" data-name="Group 108">
          <g id="g191">
            <path id="path193" d="M.919,0a2.936,2.936,0,0,1,0,5.871A2.936,2.936,0,0,1,.919,0ZM16.03,7.588h0A6,6,0,0,1,22,13.579V24H16.97V14.725a2.752,2.752,0,1,0-5.5,0V24H6.441V7.931H11.21v2.13A5.96,5.96,0,0,1,16.03,7.588Zm-17.624.343H3.432V24H-1.594Z" transform="translate(2.004)" fill="none" stroke="#047600" stroke-linecap="round" stroke-linejoin="round" stroke-width="1"/>
          </g>
        </g>
      </g>
    </g>
  </g>
</svg>
