<svg id="Group_2938" data-name="Group 2938" xmlns="http://www.w3.org/2000/svg" xmlns:xlink="http://www.w3.org/1999/xlink" width="1071" height="200" viewBox="0 0 1071 200">
  <defs>
    <clipPath id="clip-path">
      <rect id="Rectangle_2362" data-name="Rectangle 2362" width="1071" height="200" rx="8" fill="#f8fbff"/>
    </clipPath>
  </defs>
  <rect id="Rectangle_2308" data-name="Rectangle 2308" width="1071" height="200" rx="8" fill="#f8fbff"/>
  <g id="Mask_Group_107" data-name="Mask Group 107" opacity="0.4" clip-path="url(#clip-path)">
    <g id="Group_2938-2" data-name="Group 2938" transform="translate(0 0)">
      <path id="Path_5528" data-name="Path 5528" d="M752.384,139.072H902.368c3.188,2.854,2.97,7.063,2.944,11.152-.177,27.69-.15,21.967,16.667,32.064,10.1,6.064,20.56,11.223,30.793,16.966,4.836,2.714,9.89,4.965,13.848,9.561a4.538,4.538,0,0,1,.5,2.117c-2.164,12.44-7.816,23.124-11.936,34.569-3.336,9.266-6.611,18.6-10.42,27.6-3.026,7.159-2.6,13.4,1.507,20.1,8.753,14.306,16.77,29.27,25.383,43.714,5.132,8.608,6.8,9.1,14.869,4.7q11.663-6.355,23.34-12.676c5.491-2.983,7.7-7.649,7.42-14.777-.85-21.943,1.141-43.822,1.192-65.748a17.391,17.391,0,0,1,.988-7.059,8.06,8.06,0,0,1,4.284-5.609c17.477-10.147,34.775-20.777,52.874-29.273a2.83,2.83,0,0,1,3.237,1.758c9.592,22.73,17.536,46.386,26.247,69.613a10.5,10.5,0,0,1,.766,5.591,14.907,14.907,0,0,1-2.3,7.98c-10.759,19.186-22.089,37.877-33.141,56.808-1.141,1.953-3.332,2.7-3.831,5.287-9.768,19-20.848,36.921-31.165,55.474-2.219,3.992-4.36,8.063-6.726,11.92-3.335,5.43-3.113,10.413.146,15.839,13.327,22.182,26.025,44.908,39.029,67.372,5.8,10.016,12.441,19.418,16.552,30.8a5.851,5.851,0,0,1,.857,4.006c-7.111,12.243-16.186,22.4-24.666,33.1-12.764,16.106-24.805,33.077-38.326,48.3-2.337,1.679-3.981.516-5.678-1.672Q974.4,562.91,930.72,507.7c-8.223-10.435-16.566-20.732-24.774-31.187-3.151-4.012-6.515-4.784-10.715-2.411-18.317,10.352-36.75,20.4-55.151,30.557a3.34,3.34,0,0,1-3.234-1.91c-7.638-21.655-15.9-42.98-23.942-64.418a23.379,23.379,0,0,1-.059-17.759c7.874-21.271,15.724-42.552,23.975-63.606,6.3-20.309,14.022-39.881,21.63-59.477,3.73-9.609,3.821-17.984-.143-27.427-6.035-14.379-11.2-29.291-16.612-44.043-3.112-8.486-5.487-9.6-12.507-5.7-13.516,7.524-27.11,14.842-40.566,22.523-3.752,2.14-6.927,2.079-10.664-.052-13.1-7.469-26.395-14.422-39.528-21.809-8.387-4.718-10.351-3.6-14.012,6.63-5.774,16.141-11.79,32.152-17.8,48.16a22.676,22.676,0,0,0,0,17.313c6.728,16.938,12.646,34.328,19.26,51.33a42.044,42.044,0,0,1,3.19,13.821,5.473,5.473,0,0,1-.576,2.03,22.855,22.855,0,0,1-6.8,5.675c-16.673,8.785-33.153,18.085-49.664,27.307-2.343,1.308-4.763,2.363-7.416,2.118-8.145.071-14.464-6.082-21.46-9.709-10.535-5.461-20.954-11.31-31.316-17.275-7.066-4.066-9.214-2.928-12.433,5.578-5.455,14.415-10.5,29.062-16.389,43.228-1.251,3.014-2.256,7.23-6.453,5.275-2.55-2.608-1.573-5.57-.516-8.485,7.017-19.34,14.36-38.5,21.554-57.738,4.861-8.877,7.816-18.891,11.441-28.507,4.29-11.382,8.387-22.875,12.788-34.194a23.822,23.822,0,0,0,.124-17.975c-6.678-18-13.553-35.886-20.013-54a38.014,38.014,0,0,1-2.491-10.325,5.409,5.409,0,0,1,.207-2.156c2.694-4.652,7.1-5.952,11-8.157,15.432-8.725,30.887-17.4,46.527-25.561,2.165-1.13,4.3-2.538,6.793-2.279,8.653.448,15.472,6.913,23.081,10.7,10.232,5.091,20.229,10.91,30.248,16.627,7.295,4.161,8.321,3.557,11.66-5.1,5.711-14.8,11.121-29.767,16.57-44.711C747.163,146.148,749.135,142.068,752.384,139.072Z" transform="translate(-69.024 -138.967)" fill="#e9e9e9"/>
      <path id="Path_5529" data-name="Path 5529" d="M150.1,241.935c0-32.732.082-65.465-.1-98.2-.023-4.139.824-4.751,4.011-4.738,38.375.162,76.75.1,115.127.1,3.188,2.854,2.97,7.063,2.944,11.152-.179,27.69-.149,21.968,16.667,32.064,10.1,6.064,20.56,11.223,30.793,16.966,4.836,2.714,9.89,4.965,13.849,9.561a4.539,4.539,0,0,1,.5,2.117c-2.164,12.44-7.816,23.124-11.937,34.569-3.336,9.266-6.611,18.6-10.42,27.6-3.026,7.159-2.6,13.4,1.507,20.1,8.753,14.306,16.77,29.27,25.383,43.714,5.132,8.608,6.8,9.1,14.869,4.7q11.663-6.355,23.34-12.676c5.491-2.983,7.7-7.649,7.42-14.779-.85-21.942,1.141-43.82,1.192-65.746a17.394,17.394,0,0,1,.988-7.059,8.057,8.057,0,0,1,4.284-5.609c17.479-10.147,34.775-20.777,52.874-29.273a2.83,2.83,0,0,1,3.237,1.758c9.592,22.73,17.536,46.386,26.247,69.613a10.523,10.523,0,0,1,.767,5.591,14.914,14.914,0,0,1-2.3,7.98c-10.759,19.186-22.088,37.877-33.143,56.808-1.139,1.953-3.332,2.7-3.83,5.287-9.769,19-20.849,36.922-31.166,55.475-2.219,3.992-4.36,8.063-6.727,11.92-3.335,5.432-3.111,10.415.149,15.839,13.328,22.182,26.027,44.911,39.031,67.373,5.8,10.018,12.442,19.418,16.55,30.806a5.829,5.829,0,0,1,.843,4.016c-6.935,12.079-15.888,22.022-24.212,32.533-13.013,16.433-25.267,33.787-39.2,49.14-2.518,1.429-3.971-.356-5.575-2.421Q353.808,579.34,323.3,540.749c-16.232-20.48-31.964-41.553-48.526-61.655-6.283-7.627-7.578-7.754-15.626-3.264-13.516,7.54-27.147,14.78-40.568,22.571-6.531,3.79-7.023,5.635-4.161,13.5,6.021,16.545,12.228,32.987,18.249,49.529,2.26,6.208,5.752,8.627,11.119,8.6,17.852-.088,35.708.236,53.553-.178,6.45-.149,10.261,2.341,12.765,9.712,6.664,19.616,14.244,38.759,20.945,58.366.945,2.767,1.872,5.394-.02,8.086H200.1c-15.736-3.647-29.529-13.324-44.012-20.878-2.749-1.434-4.276-4.048-5.983-6.64V530.149a17.816,17.816,0,0,1,7.621-7.562c11.916-6.574,23.875-13.028,35.8-19.579,6.946-3.815,7.979-6.61,4.725-15.216-6.461-17.091-12.815-34.243-19.212-51.37-1.445-3.873-2.31-7.523-.8-11.765q12.192-34.184,25.386-67.805c6.3-20.251,14-39.772,21.591-59.319,3.717-9.577,3.84-17.95-.113-27.365-6.023-14.343-11.185-29.211-16.552-43.945-3.2-8.785-5.537-9.808-12.929-5.685-12.759,7.114-25.524,14.212-38.355,21.138C154.906,242.949,152.557,244.525,150.1,241.935Z" transform="translate(-150 -139)" fill="#e9e9e9"/>
      <path id="Path_5530" data-name="Path 5530" d="M402.689,210.056l-2.367-1.466c-2.855-.206-3.985-2.87-4.947-5.475-6.931-18.765-14.159-37.367-20.787-56.3-.973-2.776-1.68-5.459.718-7.746H553.858c2.749,2.573,1.52,5.488.512,8.412-5.965,17.291-12.881,34.066-18.8,51.379-2.874,8.4-2.562,9.725,4.48,13.837,13,7.591,26.358,14.248,39.359,21.849,2.881,1.685,5.724,3.43,6.464,7.773,1.05,3.751.681,7.633.692,11.458.058,19.725.141,39.453-.029,59.177-.07,8.334,2.8,13.382,9.1,16.581,12.768,6.481,25.262,13.737,37.832,20.768,2.488,1.391,6.077,2.244,4.909,7.439q-10.1,27.486-20.219,54.962c-1.051,2.841-2.228,5.6-2.4,8.786,2.061,5.09,1.351,7.71-2.592,9-2.307.756-4.718.474-7.077.388a191.4,191.4,0,0,0-47.661,3.764c-2.385.988-3.965,3.005-5.013,5.761-6.317,16.584-12.679,33.146-18.592,49.952-2.7,7.675-2.121,9.445,4.13,12.827,13.547,7.33,27.2,14.37,40.779,21.616,2.8,1.5,4.727,3.341,4.892,7.249,1.111,4.99.744,10.078.754,15.123q.054,30.005,0,60.01a39.26,39.26,0,0,1-.736,9.306c-.008,4.673-2.791,6.552-5.728,8.128-11.136,5.978-21.949,12.856-33.434,17.871-1.762.769-3.539,1.529-4.71,3.49h-8.333c.036-14.245-8.987-22.707-14.587-33.264-5.558-10.475-11.478-20.692-17.592-30.721a12.054,12.054,0,0,1-1.773-7.415c1.374-10.917,6.578-19.979,9.883-29.956,3.541-10.69,7.8-21.018,11.628-31.571,3.011-8.314,2.2-10.754-4.471-14.664q-23.759-13.914-47.708-27.326c-2.341-1.318-4.778-2.45-5.724-5.814-.726-23.6-.852-47.195.036-70.767.639-4.606,3.447-6.739,6.587-8.547,14.69-8.456,29.6-16.325,44.405-24.469,8.309-4.57,9.23-6.326,5.6-16.377-6.216-17.219-12.627-34.333-19.011-51.46-1.166-3.127-2.179-6.2-1.768-9.7.862-11.135,6.384-20.083,9.671-30.072,3.6-10.946,7.958-21.52,11.884-32.312,2.641-7.259,2.031-9.767-3.905-13.217-14.825-8.615-29.959-16.417-44.846-24.875-5.436-3.089-10.408-1.307-15.372,1.6-14.091,8.259-28.522,15.612-42.709,23.621C409.566,210.421,406.348,213.27,402.689,210.056Z" transform="translate(-107.376 -138.967)" fill="#eaeaea"/>
      <path id="Path_5531" data-name="Path 5531" d="M835.691,400.571l2.368,1.449c5.178-.078,5.523,5.542,6.973,9.338,6.093,15.954,12.162,31.929,17.962,48.041,2.609,7.247,6.628,10.089,12.919,10.035,17.633-.151,35.273.151,52.9-.167,5.981-.106,9.538,2.34,11.879,9.1,6.844,19.764,14.43,39.142,21.187,58.958.931,2.734,1.854,5.387-.018,8.075H830.926c-14.5-3.119-27.279-11.743-40.407-19.118-6.841-3.842-12.853-3.841-19.748.219-12.834,7.557-25.53,15.822-39.834,18.9H592.857c-1.458-1.323-3.655-.716-4.844-2.741-1.607-5.219,1.36-8.787,3.374-12.407q13.638-24.517,27.816-48.583c3.679-6.236,3.906-11.952,1.3-18.821-6.378-16.827-12.66-33.714-19.166-50.463-3.767-9.7-2.624-16.713,6.5-21.113,15.428-7.441,30.345-16.454,45.562-24.575,3.13-1.671,6.415-2.3,9.614-3.476,5.522-.748,9.807,3.4,14.279,6,15.834,9.206,32.434,16.425,47.692,27.12a5.84,5.84,0,0,0,2.312.572c14.369,7.566,28.747,15.144,42.8,23.52,7.422,4.422,14.014,4.558,21.481.138,12.294-7.278,24.789-14.089,37.369-20.629C831.218,398.768,833.688,396.554,835.691,400.571Z" transform="translate(-66.622 -38.388)" fill="#eaeaea"/>
      <path id="Path_5532" data-name="Path 5532" d="M921.768,544.052c-7.665-20.918-15.525-41.734-22.886-62.808-2.424-6.942-5.569-9.954-12.008-9.777-18.032.494-36.086-.162-54.118.346-6.5.184-9.5-3.063-11.942-9.9-7.341-20.558-15.2-40.846-22.849-61.239,4.3-7.111,11.479-8.131,17.369-11.716,12.217-7.436,24.91-13.709,37.236-20.9,4.928-2.873,8.11-2.917,12.208,2.664,9.621,13.108,20.065,25.316,29.977,38.139,21.713,28.088,44.042,55.469,65.851,83.449,6.39,8.2,12.226,17.023,19.467,24.2,1.98-1.685,3.971-1.408,6.116-.351,13.876,6.839,27.136,15.367,41.059,22.08,2.23,1.077,2.84,3.143,1.652,5.811Z" transform="translate(-26.527 -37.038)" fill="#dfdfdf"/>
      <path id="Path_5533" data-name="Path 5533" d="M321.731,544.141c-7.665-20.919-15.525-41.737-22.886-62.812-2.425-6.945-5.575-9.945-12.011-9.774-18.43.487-36.876,0-55.313.272-5.109.075-7.983-2.224-10.013-7.862q-10.619-29.477-21.768-58.667c-1.873-4.919-.873-7.449,3.017-9.568q25.77-14.04,51.4-28.445c3.921-2.2,6.545-1.9,9.739,2.486,9.186,12.624,19.255,24.257,28.739,36.583,22.2,28.855,45.13,56.878,67.523,85.515,6.536,8.359,12.437,17.448,19.874,24.731,1.979-1.684,3.97-1.408,6.115-.351,13.876,6.839,27.137,15.367,41.06,22.08,2.23,1.077,2.839,3.143,1.653,5.812Z" transform="translate(-140.696 -37.127)" fill="#dfdfdf"/>
      <path id="Path_5534" data-name="Path 5534" d="M1011.558,470.207q-27.479-47.687-54.987-95.35c-6.648-11.461-6.909-11.433-.226-23.232,12.372-21.842,24.9-43.558,37.357-65.327,4.4-2.4,8.1.5,11.831,2.485,18.691,9.951,37.124,20.6,55.856,30.44a17.751,17.751,0,0,1,7.3,7.624V400.71c-2.3,8.306-7.437,14.3-12.224,20.186-12.487,15.354-24.236,31.56-36.892,46.7C1017.377,470.229,1015.178,473.676,1011.558,470.207Z" transform="translate(2.722 -73.287)" fill="#d8d8d8"/>
      <path id="Path_5535" data-name="Path 5535" d="M150.086,219.039c16.551-9.211,33.143-18.317,49.627-27.7,4.6-2.618,7.181-1.474,9.246,4.221,7.427,20.48,15.064,40.847,22.729,61.2,1.3,3.464.782,6.392-.419,9.631q-12.7,34.223-25.252,68.527c-1.939,2.679-4.225,2.089-6.5.917Q177.2,324.319,155.3,311.673c-2.256-1.3-3.519-3.769-5.213-5.735Z" transform="translate(-149.983 -116.104)" fill="#dfdfdf"/>
      <path id="Path_5536" data-name="Path 5536" d="M558.73,241.905c-11.4-8.945-24.433-13.727-36.425-21.17a100.726,100.726,0,0,0-13.552-7.385c-4.8-2.031-5.39-4.7-3.257-10.225,7.661-19.857,14.922-39.941,22.312-59.954.485-1.313.775-2.731,1.156-4.1h60.708c3.931,3.312,5.744,8.425,7.618,13.444,5.549,14.864,10.941,29.812,16.531,44.655,1.531,4.064,3.554,8.3.848,12.873,0,.483,0,.966,0,1.449a9.559,9.559,0,0,1-4.921,5.79c-14.675,8.514-29.693,16.1-44.374,24.6C563.153,243.166,560.949,244.2,558.73,241.905Z" transform="translate(-82.482 -138.967)" fill="#dfdfdf"/>
      <path id="Path_5537" data-name="Path 5537" d="M389.02,139.072q11.285,31.079,22.561,62.162c.876,2.42,1.639,4.9,2.455,7.356-6.031,6.548-13.953,8.618-20.892,13.023-11.166,7.087-23.241,11.934-33.9,20.3-2.188,2.262-4.361,1.216-6.59.041-14.816-7.814-29.444-16.139-44.205-24.1-2.375-1.281-4.6-2.87-5.154-6.381,0-.474.008-.946.014-1.418-2.472-2.651-1.612-5.742-.558-8.627,6.829-18.72,13.485-37.533,20.824-55.973,1.092-2.744,3.1-4.312,4.732-6.379Z" transform="translate(-121.09 -138.967)" fill="#dfdfdf"/>
      <path id="Path_5538" data-name="Path 5538" d="M903.195,211.47c0-.474.008-.946.014-1.418-2.472-2.653-1.612-5.742-.558-8.628,6.829-18.718,13.485-37.532,20.824-55.972,1.092-2.744,3.1-4.312,4.732-6.379h60.708c3.426,2.511,5.286,6.333,6.894,10.732,6.069,16.6,12.451,33.035,18.306,49.756,1.057,3.018,2.785,6.111-.187,9.031-6.031,6.548-13.953,8.618-20.891,13.021-11.166,7.087-23.24,11.934-33.894,20.3-2.188,2.262-4.36,1.216-6.59.041-14.816-7.812-29.443-16.139-44.205-24.1C905.973,216.57,903.753,214.981,903.195,211.47Z" transform="translate(-6.778 -138.967)" fill="#dfdfdf"/>
      <path id="Path_5539" data-name="Path 5539" d="M150.086,270.02c11,3.966,20.961,10.925,31.47,16.306,8.167,4.182,16.018,9.273,24.461,12.671-6.622,18.056-12.526,36.574-20.111,54.01-5.391,12.391-5.333,22.872,0,35.076,6.591,15.1,11.738,31.119,17.706,46.63,1.664,4.326,1.516,7.081-2.388,9.177-17.043,9.15-33.73,19.285-51.133,27.446Z" transform="translate(-149.983 -80.186)" fill="#d8d8d8"/>
      <path id="Path_5540" data-name="Path 5540" d="M495.9,441.179c11.3,19.77,22.554,39.579,33.926,59.288,4.278,7.413,4.4,7.305-1.776,11.665H398.3c-2.438-2.321-1.677-5.029-.664-7.8,7.415-20.271,14.95-40.478,22.838-60.482,1.523-3.863,4.023-6.432,7.791-6.6,19.543.716,39.082.019,58.615.388C490.1,437.7,493.766,436.744,495.9,441.179Z" transform="translate(-102.995 -5.119)" fill="#d8d8d8"/>
      <path id="Path_5541" data-name="Path 5541" d="M1061.929,348.786c-17.225-8.056-33.672-18.257-50.581-27.187-8.184-4.321-16.275-8.9-24.408-13.362,13.089-22.7,27.105-44.617,39.3-68.089a7,7,0,0,1,6.243-3.43c7.734-.265,15.469-.277,23.2.007a7.1,7.1,0,0,1,6.246,3.437Z" transform="translate(9.483 -95.226)" fill="#dfdfdf"/>
      <path id="Path_5542" data-name="Path 5542" d="M1059.832,272.918l-35.693-.014q-11.622-31.874-23.259-63.738c-1.2-3.28-2.76-6.385-2.936-10.1a7.812,7.812,0,0,1,4.164-6.345c16.155-8.974,32.414-17.668,48.563-26.66,2.771-1.542,6.025-4.619,9.16-.32Z" transform="translate(11.58 -127.981)" fill="#d8d8d8"/>
      <path id="Path_5543" data-name="Path 5543" d="M435.571,451.242a5.9,5.9,0,0,0-3.467,3.631q-12.547,33.674-25.1,67.344h-7.142c-8.643-6.33-18.263-10.125-27.266-15.538-7.083-4.258-14.366-8.02-21.56-12,.66-1.469,1.1-3.2,2.014-4.368Q382,453.486,411.062,416.79a15.63,15.63,0,0,1,1.891-1.749c2.273-.861,3.685.556,5.01,2.588,6.244,9.577,11.328,20.182,17.751,29.6A3.745,3.745,0,0,1,435.571,451.242Z" transform="translate(-111.692 -15.203)" fill="#dfdfdf"/>
      <path id="Path_5544" data-name="Path 5544" d="M999.752,522.215c-8.643-6.329-18.263-10.125-27.266-15.538-7.083-4.258-14.366-8.02-21.56-12,.659-1.469,1.1-3.2,2.014-4.368q28.952-36.823,58.016-73.518a15.747,15.747,0,0,1,1.891-1.749c2.294-.861,3.7.63,5.024,2.638,6.683,10.106,11.878,21.555,19.069,31.2.531.713.2,1.863.2,2.818-8.889,19.792-15.891,40.667-23.636,61.116a20.606,20.606,0,0,1-6.612,9.4Z" transform="translate(2.62 -15.201)" fill="#dfdfdf"/>
      <path id="Path_5545" data-name="Path 5545" d="M1064.216,176.758c-16.714,7.582-32.5,17.742-48.908,26.163-4.376,2.246-8.655,4.767-12.979,7.162l-2.375-1.462q-11.56-31.722-23.108-63.45c-.718-1.978-1.274-4.044-1.906-6.069,28.569,0,57.137.064,85.7-.094,2.978-.016,3.728.807,3.654,4.442C1064.073,154.546,1064.216,165.654,1064.216,176.758Z" transform="translate(7.196 -138.997)" fill="#eaeaea"/>
      <path id="Path_5546" data-name="Path 5546" d="M938.123,139.072c-3.4,14.182-9.774,26.81-14.246,40.434-3.376,10.289-8.065,19.9-10.752,30.545q-22.257-12.095-44.508-24.2c-1.81-.987-3.475-2.591-5.356-3.114-11.105-3.09-14.951-11.456-13.348-24.863.736-6.145.126-12.529.126-18.8Z" transform="translate(-16.695 -138.967)" fill="#d8d8d8"/>
      <path id="Path_5547" data-name="Path 5547" d="M338.229,139.072c-3.4,14.182-9.774,26.81-14.246,40.434-3.376,10.289-8.065,19.9-10.752,30.545q-22.257-12.095-44.508-24.2c-1.81-.987-3.475-2.591-5.356-3.114-11.105-3.09-14.951-11.456-13.347-24.863.735-6.145.125-12.529.125-18.8Z" transform="translate(-131.007 -138.967)" fill="#d8d8d8"/>
      <path id="Path_5548" data-name="Path 5548" d="M738.59,139.072c-2.5,12.227-8.064,22.9-11.9,34.449-3.25,9.79-7.209,19.23-10.565,28.971-1.785,5.178-3.7,6.913-8.44,4.228-18.963-10.746-38.111-21.012-57.191-31.457-.315-.278-.731-.478-.935-.848-3.4-6.18-2.757-29.507.945-35.343Z" transform="translate(-55.23 -138.967)" fill="#dfdfdf"/>
      <path id="Path_5549" data-name="Path 5549" d="M664.1,139.072q-.005,18.1-.011,36.192l-63.078,34.781c-6.489-20.734-14.7-40.544-22.038-60.823-1.2-3.3-2.769-6.42-2.959-10.149Z" transform="translate(-68.821 -138.967)" fill="#d8d8d8"/>
      <path id="Path_5550" data-name="Path 5550" d="M1025.748,473.594c-9.372-10.37-14.935-24.266-22.622-36.2q-.595-1.458-1.187-2.918c7.815-5.167,12.881-13.917,18.887-21.441,12.767-16,24.9-32.74,38.245-48.057V473.605c-.424.5-.789,1.3-1.268,1.463-10.336,3.5-20.716,3.157-31.093.267C1026.156,475.182,1026.036,474.212,1025.748,473.594Z" transform="translate(12.341 -37.559)" fill="#e6e6e6"/>
      <path id="Path_5551" data-name="Path 5551" d="M1026.51,439.944l33.323.012c0,22.209-.08,44.416.08,66.621.026,3.625-.673,4.471-3.651,4.444-19.441-.188-38.883-.1-58.326-.1q12.555-33.674,25.105-67.349A5.931,5.931,0,0,1,1026.51,439.944Z" transform="translate(11.578 -3.91)" fill="#d8d8d8"/>
      <path id="Path_5552" data-name="Path 5552" d="M707.988,496.813c10.057-7.279,21.549-11.1,31.471-18.463,12.675-9.4,24.4-9.189,37.034.02,9.975,7.269,21.422,11.172,31.483,18.443Z" transform="translate(-43.673 10.201)" fill="#d8d8d8"/>
      <path id="Path_5553" data-name="Path 5553" d="M603.324,495.307l3.562,2.911H514.039c-.8-5.483,2.979-6.126,5.662-7.633,11.965-6.718,23.992-13.276,36-19.893,1.7-2.666,3.684-3.017,6.244-1.7,12.344,6.335,24.495,13.17,36.588,20.173C600.848,490.506,601.845,493.128,603.324,495.307Z" transform="translate(-80.651 8.796)" fill="#dfdfdf"/>
      <path id="Path_5554" data-name="Path 5554" d="M150.1,469.94a523.576,523.576,0,0,1,49.995,27.519c-15.674,0-31.346-.094-47.019.093-2.559.03-3.147-.588-3.055-3.718C150.257,485.879,150.1,477.906,150.1,469.94Z" transform="translate(-149.997 9.555)" fill="#d8d8d8"/>
      <path id="Path_5555" data-name="Path 5555" d="M601.21,574.342q-16.935-9.206-33.865-18.424c-4.473-2.447-8.822-5.28-13.76-6.19q0-44.166,0-88.333c.329-3.392,2.849-3.734,4.712-4.822,13.044-7.611,26.214-14.893,39.4-22.122,7.264-3.98,8.281-6.206,5.157-14.96-5.6-15.7-11.673-31.15-17.314-46.834-2.145-5.967-6.161-7.614-11.113-7.605-13.877.02-27.754.1-41.629-.058-2.867-.033-6.135.713-7.779-3.535,2.557-1.708,5.357-1.443,8.114-1.446,15.018-.019,30.035-.091,45.052.025,4.447.035,7.829-1.274,8.73-7.273,7.739-15.221,12.4-32.232,18.926-48.157.176-.429.279-.9.43-1.347,4.461-13.169,5.162-13.238,16.032-7.256,17.112,9.421,33.833,19.928,51.512,27.8,2.317,2.037,2.829,5.012,2.859,8.22q.264,29.068.006,58.135a15.321,15.321,0,0,1-1.677,7.5c-19.2,10.315-38.375,20.692-57.613,30.9-4.654,2.469-4.115,6.345-2.511,10.68q6.706,18.121,13.523,36.183c2.468,6.572,4.788,13.243,7.528,19.647,3.013,7.044,2.273,13.007-1.561,19.428-9.891,16.568-19.418,33.458-28.981,50.314A99.2,99.2,0,0,0,601.21,574.342Z" transform="translate(-78.538 -70.238)" fill="#e6e6e6"/>
      <path id="Path_5556" data-name="Path 5556" d="M707.163,334.905c-8.106-21.739-16.132-43.525-24.374-65.188-2.253-5.922-2.161-10.965.239-17.048,7.289-18.472,14.065-37.251,20.748-56.063,2.312-6.508,4.9-7.952,10.417-4.736,14.475,8.433,29.291,15.99,43.854,24.2,3.582,2.021,6.516,2.034,10.095,0,14.719-8.379,29.633-16.249,44.34-24.656,4.954-2.833,7.522-1.345,9.652,4.539,7.35,20.3,14.919,40.486,22.511,60.655,1.3,3.443.9,6.377-.318,9.65q-12.729,34.28-25.3,68.647c-3.462,4.113-6.8.95-9.839-.672-12.515-6.674-25.039-13.353-37.369-20.509-5.841-3.389-10.978-3.771-16.94-.343-12.71,7.307-25.579,14.216-38.379,21.3C713.467,336.357,710.332,338.548,707.163,334.905Z" transform="translate(-48.785 -116.095)" fill="#dfdfdf"/>
      <path id="Path_5557" data-name="Path 5557" d="M703.115,298.542c12.295-4.815,23.684-12.211,35.336-18.782,20.563-11.6,20.348-11.685,41.159.026,11.666,6.565,23.171,13.65,35.369,18.756-6.592,17.979-12.409,36.461-20.03,53.768-5.675,12.888-5.213,23.726.276,36.237,6.495,14.8,11.6,30.5,17.312,45.811.9,2.4,2,4.751,1.269,7.557-14.1,7.615-28.505,14.516-42.2,23.1-9.1,5.7-16.717,5.145-25.629-.352-13.566-8.367-27.752-15.251-41.674-22.763-2.669-3.537-2.2-7.024-.623-11.191,6.189-16.39,12.067-32.958,18.531-49.19,3.063-7.692,3.4-14.618.135-22.61-6.336-15.491-11.74-31.541-17.658-47.29-1.342-3.572-3.33-7.308-1.585-11.632Q703.109,299.263,703.115,298.542Z" transform="translate(-44.737 -79.732)" fill="#d8d8d8"/>
      <path id="Path_5558" data-name="Path 5558" d="M713.089,291.013c5.455,10.93,8.905,23.021,13.438,34.488,3.682,9.315,6.9,18.906,10.61,28.2a16.891,16.891,0,0,1,.346,13.063c-7,18.582-13.826,37.257-20.781,55.862-1.238,3.312-2.48,6.562-2.415,10.3q-31.236-18.208-63.1-34.741C649.9,394.551,650,390.7,650,386.864q0-31.27,0-62.538c12.81-5.155,24.578-13.22,36.948-19.6C695.685,300.216,704.378,295.587,713.089,291.013Z" transform="translate(-54.723 -70.763)" fill="#dfdfdf"/>
      <path id="Path_5559" data-name="Path 5559" d="M550.024,219.468c18.413-10.768,36.842-21.491,55.933-30.412q12.828,34.139,25.673,68.264a10.465,10.465,0,0,1,.289,7.64q-12.233,33.272-24.5,66.529c-.543,1.46-1.749,2.554-2.647,3.819-14.064-9.335-28.9-16.661-43.516-24.54-11.127-6-11.246-5.678-11.245-20.567Q550.016,254.835,550.024,219.468Z" transform="translate(-73.775 -116.53)" fill="#d8d8d8"/>
      <path id="Path_5560" data-name="Path 5560" d="M907.264,189.04c18.924,9.4,37.429,19.94,55.95,30.438.315,26.271-2.023,52.485-1.2,78.767.145,4.619-1.357,7.569-5.011,9.5Q940.388,316.539,924,325.964c-3.862,2.214-6.521,1.84-9.1-2.656-10.765-18.785-21.72-37.409-32.6-56.092-1.541-2.646-2.744-5.467-1.575-8.753C889.059,235.035,897.443,211.63,907.264,189.04Z" transform="translate(-10.847 -116.537)" fill="#d8d8d8"/>
      <path id="Path_5561" data-name="Path 5561" d="M468.8,326.856l-.012,73.863c.727,2.7-.346,4.652-1.837,6.374-5.732,6.623-10.261,14.595-16.053,21.147-10.994,12.434-20.325,26.819-31.214,39.374-2.241,2.583-4.4,6.072-8.021,2.6q-27.48-47.685-54.988-95.35c-6.648-11.461-6.909-11.433-.226-23.23,12.372-21.843,24.9-43.559,37.356-65.329,3.923-2.268,7.377.067,10.755,1.885,17.043,9.167,33.989,18.6,50.964,27.956,2.891,1.592,5.894,2.87,8.7,4.673C466.33,322.167,468.624,323.336,468.8,326.856Z" transform="translate(-111.591 -73.296)" fill="#d8d8d8"/>
      <path id="Path_5562" data-name="Path 5562" d="M462.041,348.784c-17.286-8.086-33.79-18.326-50.759-27.288-8.124-4.292-16.159-8.832-24.236-13.26,13.09-22.7,27.107-44.617,39.3-68.09,1.867-3.083,4.6-3.456,7.428-3.483q28.264-.282,56.526,0c2.823.028,5.562.4,7.428,3.483,2.562,12.253,8.074,23,11.976,34.578,3.684,10.923,7.757,21.671,12.039,32.268,2.073,5.128,1.223,7.941-2.934,10.2-14.657,7.962-29.257,16.078-43.862,24.179C470.616,343.768,466.341,346.308,462.041,348.784Z" transform="translate(-104.829 -95.224)" fill="#dfdfdf"/>
      <path id="Path_5563" data-name="Path 5563" d="M495.629,271.887H424.247q-11.621-31.874-23.259-63.737c-1.2-3.282-2.759-6.385-2.942-10.1,17.848-9.852,35.734-19.6,53.518-29.624,5.342-3.011,10.208-3.745,15.824-.523,16.649,9.555,33.478,18.649,50.293,27.772,3.726,2.021,3.722,4.886,2.294,8.743q-9.508,25.7-18.9,51.453C499.149,261.154,497.437,266.546,495.629,271.887Z" transform="translate(-102.733 -126.966)" fill="#d8d8d8"/>
      <path id="Path_5564" data-name="Path 5564" d="M402.046,434.479c7.814-5.167,12.879-13.915,18.885-21.439,12.766-16,24.9-32.735,38.241-48.058,5.817,1.01,10.749,4.865,15.952,7.692,13.381,7.269,26.565,15.074,39.82,22.685,5.924,3.4,6.849,5.833,4.194,13.06-8,21.781-16.162,43.472-24.261,65.2L425.85,473.6c-9.365-10.378-14.933-24.269-22.618-36.2Z" transform="translate(-101.971 -37.559)" fill="#e6e6e6"/>
      <path id="Path_5565" data-name="Path 5565" d="M307.369,189.04c18.924,9.4,37.429,19.94,55.949,30.438.318,26.271-2.022,52.485-1.194,78.767.145,4.619-1.357,7.569-5.011,9.5q-16.619,8.791-33.01,18.217c-3.862,2.214-6.521,1.84-9.1-2.656-10.765-18.785-21.72-37.409-32.6-56.092-1.541-2.646-2.743-5.467-1.575-8.753C289.165,235.035,297.55,211.63,307.369,189.04Z" transform="translate(-125.159 -116.537)" fill="#d8d8d8"/>
      <path id="Path_5566" data-name="Path 5566" d="M529.055,340.031c17.444,0,34.889.181,52.33-.11,5.305-.09,8.422,2.211,10.536,8.125,6.716,18.786,13.7,37.431,20.631,56.1,1.071,2.886,1.852,5.654-1.159,7.33q-25.384,14.137-50.838,28.088c-.855.469-1.954.281-2.94.4Q533.04,427.131,508.461,414.3c-3.373-1.76-5.949-3.615-3.837-9.151C512.883,383.506,520.929,361.747,529.055,340.031Z" transform="translate(-82.571 -48.81)" fill="#dfdfdf"/>
    </g>
  </g>
</svg>
