<svg xmlns="http://www.w3.org/2000/svg" xmlns:xlink="http://www.w3.org/1999/xlink" width="18" height="18" viewBox="0 0 18 18">
  <defs>
    <clipPath id="clip-path">
      <rect id="Rectangle_4896" data-name="Rectangle 4896" width="18" height="18" transform="translate(647 257)" fill="#2a2e34" stroke="#2a2e34" stroke-width="1"/>
    </clipPath>
  </defs>
  <g id="Mask_Group_396" data-name="Mask Group 396" transform="translate(-647 -257)" clip-path="url(#clip-path)">
    <g id="coding_1_" data-name="coding (1)" transform="translate(647.496 258.103)">
      <path id="Path_5291" data-name="Path 5291" d="M16.633,1.714H2.662A1.52,1.52,0,0,0,1.143,3.233V15.99a1.52,1.52,0,0,0,1.519,1.519H16.633a1.52,1.52,0,0,0,1.519-1.519V3.233a1.52,1.52,0,0,0-1.519-1.519Zm.911,14.275a.912.912,0,0,1-.911.911H2.662a.912.912,0,0,1-.911-.911V5.251H17.544Zm0-11.347H1.75V3.233a.912.912,0,0,1,.911-.911H16.633a.912.912,0,0,1,.911.911Z" transform="translate(-1.143 -1.714)" fill="#2a2e34" stroke="#2a2e34" stroke-width="0.9"/>
      <path id="Path_5292" data-name="Path 5292" d="M14.875,3.092a.3.3,0,1,0,.3.3.3.3,0,0,0-.3-.3Z" transform="translate(-0.296 -1.627)" fill="#2a2e34"/>
      <path id="Path_5293" data-name="Path 5293" d="M13.732,3.092a.3.3,0,1,0,.3.3.3.3,0,0,0-.3-.3Z" transform="translate(-0.368 -1.627)" fill="#2a2e34"/>
      <path id="Path_5294" data-name="Path 5294" d="M12.589,3.092a.3.3,0,1,0,.3.3.3.3,0,0,0-.3-.3Z" transform="translate(-0.44 -1.627)" fill="#2a2e34"/>
      <path id="Path_5295" data-name="Path 5295" d="M5.876,3.092H3.447a.3.3,0,1,0,0,.608h2.43a.3.3,0,1,0,0-.608Z" transform="translate(-1.017 -1.627)" fill="#2a2e34"/>
    </g>
    <g id="Group_13910" data-name="Group 13910" transform="translate(652.268 263.981)">
      <path id="Path_5296" data-name="Path 5296" d="M14.341,11.669a2.672,2.672,0,1,0,2.672,2.672A2.673,2.673,0,0,0,14.341,11.669Zm0,1.125a1.547,1.547,0,1,1-1.547,1.547A1.548,1.548,0,0,1,14.341,12.794Z" transform="translate(-10.403 -10.403)" fill="#2a2e34" stroke="#2a2e34" stroke-width="0.2" fill-rule="evenodd"/>
      <path id="Path_5297" data-name="Path 5297" d="M15.148,12.084V10.818a.563.563,0,1,0-1.125,0v1.266a.563.563,0,1,0,1.125,0Z" transform="translate(-10.648 -10.256)" fill="#2a2e34" stroke="#2a2e34" stroke-width="0.2" fill-rule="evenodd"/>
      <path id="Path_5298" data-name="Path 5298" d="M16.649,13.215l.895-.9a.562.562,0,0,0-.8-.8l-.9.895a.563.563,0,0,0,.8.8Z" transform="translate(-10.822 -10.371)" fill="#2a2e34" stroke="#2a2e34" stroke-width="0.2" fill-rule="evenodd"/>
      <path id="Path_5299" data-name="Path 5299" d="M16.94,15.148h1.266a.563.563,0,0,0,0-1.125H16.94a.563.563,0,0,0,0,1.125Z" transform="translate(-10.894 -10.648)" fill="#2a2e34" stroke="#2a2e34" stroke-width="0.2" fill-rule="evenodd"/>
      <path id="Path_5300" data-name="Path 5300" d="M15.853,16.649l.9.895a.562.562,0,0,0,.8-.8l-.895-.9a.563.563,0,0,0-.8.8Z" transform="translate(-10.822 -10.821)" fill="#2a2e34" stroke="#2a2e34" stroke-width="0.2" fill-rule="evenodd"/>
      <path id="Path_5301" data-name="Path 5301" d="M14.023,16.94v1.266a.563.563,0,0,0,1.125,0V16.94a.563.563,0,1,0-1.125,0Z" transform="translate(-10.648 -10.893)" fill="#2a2e34" stroke="#2a2e34" stroke-width="0.2" fill-rule="evenodd"/>
      <path id="Path_5302" data-name="Path 5302" d="M12.419,15.853l-.895.9a.562.562,0,0,0,.8.8l.9-.895a.563.563,0,1,0-.8-.8Z" transform="translate(-10.371 -10.821)" fill="#2a2e34" stroke="#2a2e34" stroke-width="0.2" fill-rule="evenodd"/>
      <path id="Path_5303" data-name="Path 5303" d="M12.084,14.023H10.818a.563.563,0,1,0,0,1.125h1.265a.563.563,0,0,0,0-1.125Z" transform="translate(-10.256 -10.648)" fill="#2a2e34" stroke="#2a2e34" stroke-width="0.2" fill-rule="evenodd"/>
      <path id="Path_5304" data-name="Path 5304" d="M13.215,12.419l-.9-.895a.562.562,0,0,0-.8.8l.895.9a.563.563,0,0,0,.8-.8Z" transform="translate(-10.371 -10.371)" fill="#2a2e34" stroke="#2a2e34" stroke-width="0.2" fill-rule="evenodd"/>
    </g>
  </g>
</svg>
