<svg xmlns="http://www.w3.org/2000/svg" width="13.448" height="16.2" viewBox="0 0 13.448 16.2">
  <g id="file-download-stroke-rounded" transform="translate(-3.152 -1.4)">
    <path id="Path_5658" data-name="Path 5658" d="M4,5.75C4.442,6.205,5.62,8,6.25,8S8.058,6.205,8.5,5.75M6.25,7.25V2" fill="none" stroke="#000" stroke-linecap="round" stroke-linejoin="round" stroke-width="1.2"/>
    <path id="Path_5659" data-name="Path 5659" d="M4,10.25v1.158c0,2.434,0,3.651.665,4.475a3,3,0,0,0,.452.452C5.941,17,7.158,17,9.592,17a3.2,3.2,0,0,0,1.036-.086,1.506,1.506,0,0,0,.148-.061,3.2,3.2,0,0,0,.793-.672l3.552-3.552a3.192,3.192,0,0,0,.765-.926,3.192,3.192,0,0,0,.114-1.2V8c0-2.828,0-4.243-.879-5.121S12.828,2,10,2m.75,14.625V16.25c0-2.121,0-3.182.659-3.841s1.72-.659,3.841-.659h.375" fill="none" stroke="#000" stroke-linecap="round" stroke-linejoin="round" stroke-width="1.2"/>
  </g>
</svg>
