<svg xmlns="http://www.w3.org/2000/svg" width="70" height="80" viewBox="0 0 70 80">
  <g id="Group_1" data-name="Group 1" transform="translate(108 -136)">
    <path id="Path" d="M35,0,70,20V60L35,80,0,60V20Z" transform="translate(-108 136)" fill="#078e05"/>
    <path id="Path-2" data-name="Path" d="M0,50.019l.016-39.86L35.068,69.841Z" transform="translate(-108 146.159)" fill="#028400"/>
    <path id="Path-3" data-name="Path" d="M0,19.986,69.968,60,35.09,0Z" transform="translate(-108 136)" fill="#027600"/>
    <path id="Path-4" data-name="Path" d="M17.6.059l34.8,20.01L39.56,38.425Z" transform="translate(-90.4 136.059)" fill="#02ad00"/>
    <g id="Group" transform="translate(-104.792 160.76)">
      <ellipse id="Oval" cx="3.208" cy="3.174" rx="3.208" ry="3.174" transform="translate(16.464 37.038)" fill="#fff"/>
      <ellipse id="Oval-2" data-name="Oval" cx="3.208" cy="3.174" rx="3.208" ry="3.174" transform="translate(43.408 37.038)" fill="#fff"/>
      <path id="Shape" d="M0,0H7.7m0,0,7.27,35.134m-1.282-8.466H51.77M15.4,35.134H53.48" fill="none" stroke="#fff" stroke-linecap="square" stroke-width="1" fill-rule="evenodd"/>
      <path id="Shape-2" data-name="Shape" d="M24.056,14.921h15M12.29,17.461H36.91" transform="translate(12.29 14.921)" fill="none" stroke="#fff" stroke-linecap="square" stroke-width="1" fill-rule="evenodd"/>
      <path id="Shape-3" data-name="Shape" d="M9.465,13.9a2.2,2.2,0,0,0,.76-.128,1.552,1.552,0,0,0,.626-.426l-.494-.488a1.28,1.28,0,0,1-.384.3,1.12,1.12,0,0,1-.5.1,1.188,1.188,0,0,1-.486-.1,1.1,1.1,0,0,1-.368-.262,1.2,1.2,0,0,1-.24-.4,1.34,1.34,0,0,1-.084-.476,1.62,1.62,0,0,1,.072-.484,1.262,1.262,0,0,1,.216-.412,1,1,0,0,1,.354-.282,1.124,1.124,0,0,1,.5-.1,1.186,1.186,0,0,1,.5.1,1.5,1.5,0,0,1,.4.3l.516-.45a1.686,1.686,0,0,0-.634-.43,2.112,2.112,0,0,0-.766-.14,2.06,2.06,0,0,0-.78.14,1.716,1.716,0,0,0-.99,1,2.044,2.044,0,0,0-.14.77,2.016,2.016,0,0,0,.14.766,1.7,1.7,0,0,0,1,.98,2.14,2.14,0,0,0,.78.114Zm3.74,0a1.95,1.95,0,0,0,1.38-.55A1.868,1.868,0,0,0,15.145,12a1.822,1.822,0,0,0-.15-.74,1.924,1.924,0,0,0-1.788-1.156,1.95,1.95,0,0,0-1.38.556,1.924,1.924,0,0,0-.4.6,1.822,1.822,0,0,0-.15.74,1.85,1.85,0,0,0,.56,1.346,1.956,1.956,0,0,0,1.38.552Zm0-.64a1.264,1.264,0,0,1-.5-.094,1.1,1.1,0,0,1-.616-.654,1.572,1.572,0,0,1,0-1.014,1.1,1.1,0,0,1,.616-.656,1.264,1.264,0,0,1,.5-.094,1.28,1.28,0,0,1,.5.094,1.1,1.1,0,0,1,.618.656,1.572,1.572,0,0,1,0,1.014,1.1,1.1,0,0,1-.616.656,1.264,1.264,0,0,1-.5.094Zm3.5.55V11.936a1.676,1.676,0,0,1,.076-.53,1.05,1.05,0,0,1,.2-.37.846.846,0,0,1,.3-.216.92.92,0,0,1,.36-.072.8.8,0,0,1,.4.088.6.6,0,0,1,.232.242,1.1,1.1,0,0,1,.108.37,3.8,3.8,0,0,1,.026.472v1.89h.694V11.836a1.326,1.326,0,0,1,.214-.784.816.816,0,0,1,.716-.3.8.8,0,0,1,.4.088.622.622,0,0,1,.24.232.91.91,0,0,1,.11.334,2.564,2.564,0,0,1,.028.4v2.012h.692v-2.1a3.032,3.032,0,0,0-.058-.6,1.374,1.374,0,0,0-.2-.51,1.112,1.112,0,0,0-.424-.36,1.526,1.526,0,0,0-.694-.14,1.41,1.41,0,0,0-.654.17,1.16,1.16,0,0,0-.5.5,1.252,1.252,0,0,0-.454-.5,1.3,1.3,0,0,0-.686-.168,1.34,1.34,0,0,0-.45.072,1.528,1.528,0,0,0-.354.176,1.222,1.222,0,0,0-.246.216.6.6,0,0,0-.12.2h-.014v-.564h-.64v3.612Zm6.56,0V11.936a1.62,1.62,0,0,1,.076-.53,1.05,1.05,0,0,1,.2-.37.846.846,0,0,1,.3-.216.92.92,0,0,1,.358-.072.8.8,0,0,1,.4.088.6.6,0,0,1,.23.242,1.1,1.1,0,0,1,.108.37,3.769,3.769,0,0,1,.028.472v1.89h.692V11.836a1.326,1.326,0,0,1,.216-.784,1,1,0,0,1,1.124-.216.632.632,0,0,1,.238.232.91.91,0,0,1,.112.334,2.842,2.842,0,0,1,.026.4v2.012h.694v-2.1a2.886,2.886,0,0,0-.06-.6,1.374,1.374,0,0,0-.2-.51,1.112,1.112,0,0,0-.424-.36,1.526,1.526,0,0,0-.692-.14,1.4,1.4,0,0,0-.654.17,1.16,1.16,0,0,0-.5.5,1.252,1.252,0,0,0-.456-.5,1.3,1.3,0,0,0-.684-.168,1.34,1.34,0,0,0-.45.072,1.528,1.528,0,0,0-.354.176,1.222,1.222,0,0,0-.248.216.6.6,0,0,0-.12.2h-.014v-.564h-.644v3.612h.694Zm7.528.09a1.934,1.934,0,0,0,1.616-.74l-.524-.4a1.8,1.8,0,0,1-.44.4,1.04,1.04,0,0,1-.56.15,1.42,1.42,0,0,1-.856-.29,1.074,1.074,0,0,1-.272-.332.9.9,0,0,1-.1-.43h2.924v-.244a2.52,2.52,0,0,0-.1-.69,1.618,1.618,0,0,0-.862-1.048,1.82,1.82,0,0,0-.82-.166,1.938,1.938,0,0,0-.754.144,1.8,1.8,0,0,0-.988,1,2.108,2.108,0,0,0-.012,1.5,1.7,1.7,0,0,0,.966,1,2,2,0,0,0,.78.146Zm1.046-2.2H29.655a.922.922,0,0,1,.08-.37,1.142,1.142,0,0,1,1.052-.682,1.2,1.2,0,0,1,.458.08.9.9,0,0,1,.522.552,1.432,1.432,0,0,1,.074.42Zm2.264,2.1V11.988a1.228,1.228,0,0,1,.268-.876,1.026,1.026,0,0,1,.778-.28,1,1,0,0,1,.17.014,1.278,1.278,0,0,1,.168.04l.032-.74a.98.98,0,0,0-.308-.046,1.37,1.37,0,0,0-.65.182,1.236,1.236,0,0,0-.26.2.98.98,0,0,0-.184.264h-.014v-.558h-.694V13.8Zm3.748.1a2.24,2.24,0,0,0,.76-.13,1.552,1.552,0,0,0,.626-.426l-.492-.488a1.28,1.28,0,0,1-.386.3,1.12,1.12,0,0,1-.5.1,1.188,1.188,0,0,1-.486-.1,1.1,1.1,0,0,1-.368-.262,1.2,1.2,0,0,1-.24-.4,1.34,1.34,0,0,1-.084-.476,1.56,1.56,0,0,1,.074-.484,1.262,1.262,0,0,1,.214-.412,1,1,0,0,1,.354-.282,1.124,1.124,0,0,1,.5-.1,1.186,1.186,0,0,1,.5.1,1.5,1.5,0,0,1,.4.3l.526-.448a1.686,1.686,0,0,0-.636-.43,2.112,2.112,0,0,0-.766-.14,2.06,2.06,0,0,0-.78.14,1.732,1.732,0,0,0-.99,1,2.084,2.084,0,0,0-.14.77,2.056,2.056,0,0,0,.14.766,1.7,1.7,0,0,0,1,.98,2.14,2.14,0,0,0,.772.114Zm3.64,0a1.934,1.934,0,0,0,1.618-.74l-.524-.4a1.8,1.8,0,0,1-.44.4,1.04,1.04,0,0,1-.56.15,1.42,1.42,0,0,1-.854-.29,1.074,1.074,0,0,1-.28-.32.9.9,0,0,1-.1-.43h2.926v-.244a2.448,2.448,0,0,0-.1-.69,1.618,1.618,0,0,0-.862-1.048,1.82,1.82,0,0,0-.82-.166,1.938,1.938,0,0,0-.754.144,1.8,1.8,0,0,0-.988,1,2.108,2.108,0,0,0-.012,1.5,1.7,1.7,0,0,0,.966,1,2,2,0,0,0,.78.146Zm1.048-2.2H40.357a.922.922,0,0,1,.08-.37,1.142,1.142,0,0,1,1.052-.682,1.2,1.2,0,0,1,.458.08.9.9,0,0,1,.524.552,1.432,1.432,0,0,1,.072.42Z" transform="translate(7.545 10.1)" fill="#fff"/>
      <line id="Path-5" data-name="Path" y1="24.126" x2="7.698" transform="translate(52.176 2.118)" fill="none" stroke="#fff" stroke-linecap="square" stroke-width="1"/>
      <path id="Shape-4" data-name="Shape" d="M10.29,13.116a5.692,5.692,0,0,0,1.554-.212,4,4,0,0,0,1.34-.656,3.222,3.222,0,0,0,.932-1.12,3.506,3.506,0,0,0,.346-1.6,2.578,2.578,0,0,0-.324-1.348,3.09,3.09,0,0,0-.816-.908,4.332,4.332,0,0,0-1.092-.594c-.4-.148-.786-.28-1.156-.4q-.348-.114-.684-.24a3.032,3.032,0,0,1-.532-.252,1.024,1.024,0,0,1-.34-.32A.84.84,0,0,1,9.39,5.01a.9.9,0,0,1,.146-.526A1.2,1.2,0,0,1,9.9,4.148a1.38,1.38,0,0,1,.492-.174,2.52,2.52,0,0,1,1.586.2,2.326,2.326,0,0,1,.884.678L14.54,3.1a4.866,4.866,0,0,0-1.688-1,5.712,5.712,0,0,0-3.4-.144,4.188,4.188,0,0,0-1.354.6,3.2,3.2,0,0,0-.97,1.054,3.03,3.03,0,0,0-.37,1.538A2.908,2.908,0,0,0,7,6.388a2.688,2.688,0,0,0,.63.868,3.436,3.436,0,0,0,.892.588,9.494,9.494,0,0,0,1.024.4c.36.112.68.216.964.312a3.516,3.516,0,0,1,.708.32,1.5,1.5,0,0,1,.438.388.86.86,0,0,1,.136.532,1.14,1.14,0,0,1-.124.548,1,1,0,0,1-.33.364,1.43,1.43,0,0,1-.486.2,2.67,2.67,0,0,1-.568.06,2.878,2.878,0,0,1-1.292-.33,3.18,3.18,0,0,1-1.056-.816L6.21,11.56a4.8,4.8,0,0,0,1.816,1.15,6.48,6.48,0,0,0,2.264.4ZM18.93,16.5V12h.03a2.4,2.4,0,0,0,.986.77,3.246,3.246,0,0,0,1.34.28,3.426,3.426,0,0,0,2.686-1.216,3.886,3.886,0,0,0,.716-1.286,4.742,4.742,0,0,0,0-3.04,3.944,3.944,0,0,0-.724-1.274,3.4,3.4,0,0,0-2.664-1.2,3,3,0,0,0-1.47.344,3.1,3.1,0,0,0-.978.8h-.046V5.254h-2.4V16.5Zm1.754-5.516a1.712,1.712,0,0,1-.768-.168,1.834,1.834,0,0,1-.58-.442,2.032,2.032,0,0,1,0-2.682,1.834,1.834,0,0,1,.58-.442A1.79,1.79,0,0,1,22.37,8.3a2.274,2.274,0,0,1-.338,2.072,1.666,1.666,0,0,1-1.348.61Zm8.888,2.072a2.658,2.658,0,0,0,.762-.108A3.11,3.11,0,0,0,31,12.674a2.278,2.278,0,0,0,.886-.884h.03v1.048h2.432V5.254H31.82v4.1a1.922,1.922,0,0,1-.346,1.14,1.16,1.16,0,0,1-1,.49,1.1,1.1,0,0,1-.568-.13.972.972,0,0,1-.348-.36,1.512,1.512,0,0,1-.176-.516,3.868,3.868,0,0,1-.046-.6V5.254H26.79v4.69a4.424,4.424,0,0,0,.146,1.136,2.774,2.774,0,0,0,.476.99,2.52,2.52,0,0,0,.862.71,2.826,2.826,0,0,0,1.3.274Zm9.618-.218v-3.9a1.874,1.874,0,0,1,.4-1.1,1.736,1.736,0,0,1,.556-.442A1.814,1.814,0,0,1,41,7.22a2.5,2.5,0,0,1,.316.014,1.98,1.98,0,0,1,.33.06l.108-2.2a1.166,1.166,0,0,0-.24-.046,2.9,2.9,0,0,0-.324-.01,2.17,2.17,0,0,0-1.246.366,2.488,2.488,0,0,0-.832.944h-.03V5.254H36.66v7.584Zm6.916.182a4.734,4.734,0,0,0,1.464-.228l-.032-1.828a1.358,1.358,0,0,1-.346.092,2.774,2.774,0,0,1-.4.03.906.906,0,0,1-.748-.266,1.3,1.3,0,0,1-.2-.8V7.128h1.8V5.254h-1.8v-2h-2.48v2H42.148V7.128H43.38v3.2a4.108,4.108,0,0,0,.138,1.1,2.142,2.142,0,0,0,.454.854,2,2,0,0,0,.84.548,3.78,3.78,0,0,0,1.292.2Z" transform="translate(6.21 1.762)" fill="#fff"/>
    </g>
  </g>
</svg>
