<svg xmlns="http://www.w3.org/2000/svg" width="113.591" height="39" viewBox="0 0 113.591 39">
  <g id="Group_14" data-name="Group 14" transform="translate(-70.655 -430)">
    <g id="Group_10" data-name="Group 10">
      <g id="Spurtcommerce" transform="translate(71 439.471)">
        <path id="Spurt" d="M3.754,11.495a5.331,5.331,0,0,0,1.53-.216,3.69,3.69,0,0,0,1.267-.649,3.172,3.172,0,0,0,.865-1.09A3.431,3.431,0,0,0,7.74,8a2.731,2.731,0,0,0-.3-1.344,2.833,2.833,0,0,0-.772-.9,4.219,4.219,0,0,0-1.035-.572Q5.068,4.975,4.542,4.8q-.464-.139-.85-.278A2.89,2.89,0,0,1,3.036,4.2a1.406,1.406,0,0,1-.425-.448,1.228,1.228,0,0,1-.155-.633,1.277,1.277,0,0,1,.178-.688A1.452,1.452,0,0,1,3.09,1.97a2.072,2.072,0,0,1,.618-.263,2.794,2.794,0,0,1,.68-.085,2.6,2.6,0,0,1,1.136.27,2.363,2.363,0,0,1,.873.672h0l1.267-1.39A4.134,4.134,0,0,0,6.172.294,5.2,5.2,0,0,0,4.48,0,5.6,5.6,0,0,0,3.02.193,4.057,4.057,0,0,0,1.738.78a3.074,3.074,0,0,0-.912,1A2.828,2.828,0,0,0,.479,3.214,2.986,2.986,0,0,0,.726,4.5a2.762,2.762,0,0,0,.641.873,3.28,3.28,0,0,0,.888.572,9.645,9.645,0,0,0,.989.371l.973.324a3.881,3.881,0,0,1,.8.363,1.8,1.8,0,0,1,.541.494,1.22,1.22,0,0,1,.2.718,1.454,1.454,0,0,1-.178.749,1.6,1.6,0,0,1-.463.5,1.854,1.854,0,0,1-.641.286,2.984,2.984,0,0,1-.7.085,3.023,3.023,0,0,1-1.321-.324A2.792,2.792,0,0,1,1.39,8.636h0L0,9.934A4.028,4.028,0,0,0,1.669,11.1a5.742,5.742,0,0,0,2.085.4Zm7.694,3.43v-4.7h.031a2.46,2.46,0,0,0,1.012.881,3.216,3.216,0,0,0,1.445.324A3.459,3.459,0,0,0,16.6,10.266a3.77,3.77,0,0,0,.726-1.251,4.563,4.563,0,0,0,.255-1.537,4.378,4.378,0,0,0-.263-1.53,3.733,3.733,0,0,0-.742-1.236,3.459,3.459,0,0,0-2.6-1.128,3.375,3.375,0,0,0-.919.116,3.519,3.519,0,0,0-.734.294,2.4,2.4,0,0,0-.548.4,2.685,2.685,0,0,0-.363.44h-.046V3.8H9.594V14.924Zm2.117-5.037a1.949,1.949,0,0,1-.912-.209,2.233,2.233,0,0,1-.688-.548,2.39,2.39,0,0,1-.433-.765,2.61,2.61,0,0,1-.147-.857,2.678,2.678,0,0,1,.147-.865,2.373,2.373,0,0,1,.433-.772,2.335,2.335,0,0,1,.688-.556,1.892,1.892,0,0,1,.912-.216,2.018,2.018,0,0,1,.942.209,1.979,1.979,0,0,1,.664.548,2.4,2.4,0,0,1,.394.765,2.889,2.889,0,0,1,.131.857,2.965,2.965,0,0,1-.131.865,2.383,2.383,0,0,1-.394.772,2.062,2.062,0,0,1-.664.556A1.959,1.959,0,0,1,13.565,9.888Zm8.482,1.545a2.464,2.464,0,0,0,1.445-.425,2.4,2.4,0,0,0,.858-.981h.031v1.19h1.761V3.8H24.287V7.879a2.557,2.557,0,0,1-.108.734,2.018,2.018,0,0,1-.317.641,1.618,1.618,0,0,1-.541.456,1.6,1.6,0,0,1-.765.178,1.249,1.249,0,0,1-.718-.185,1.332,1.332,0,0,1-.425-.471,1.835,1.835,0,0,1-.2-.641,5.26,5.26,0,0,1-.046-.68h0V3.8H19.312V8.436a4.03,4.03,0,0,0,.154,1.112,2.719,2.719,0,0,0,.487.958,2.452,2.452,0,0,0,.85.672A2.79,2.79,0,0,0,22.047,11.433Zm8.173-.216V7.246A2.582,2.582,0,0,1,30.3,6.7a2,2,0,0,1,.293-.664,1.854,1.854,0,0,1,.6-.556,1.967,1.967,0,0,1,1.02-.232,2.18,2.18,0,0,1,.255.015,2.6,2.6,0,0,1,.317.062h0V3.63a.858.858,0,0,0-.216-.039c-.083-.005-.16-.008-.232-.008a2.158,2.158,0,0,0-1.3.4,2.7,2.7,0,0,0-.865,1.051h-.031V3.8H28.366v7.416Zm6.412.155a4.13,4.13,0,0,0,.649-.054,3.044,3.044,0,0,0,.587-.147h0l-.062-1.452a1.619,1.619,0,0,1-.386.116,2.293,2.293,0,0,1-.4.039q-.618,0-.8-.324a1.691,1.691,0,0,1-.178-.819h0V5.284H37.9V3.8H36.044V1.653H34.221V3.8h-1.3V5.284h1.3V8.745a4.853,4.853,0,0,0,.1,1.012,2.117,2.117,0,0,0,.371.834,1.827,1.827,0,0,0,.734.572,2.96,2.96,0,0,0,1.205.208Z" fill="#191717" stroke="#181717" stroke-width="0.5"/>
        <path id="commerce" d="M42.842,11.417a3.927,3.927,0,0,0,1.576-.3,3.148,3.148,0,0,0,1.159-.842h0L44.6,9.393a2.069,2.069,0,0,1-.749.587,2.494,2.494,0,0,1-2.032,0,2.284,2.284,0,0,1-.757-.579,2.547,2.547,0,0,1-.471-.842,3.189,3.189,0,0,1,0-2.008,2.547,2.547,0,0,1,.471-.842,2.307,2.307,0,0,1,.749-.579,2.266,2.266,0,0,1,1.012-.216,2.123,2.123,0,0,1,.989.239,1.777,1.777,0,0,1,.7.595h0l1.051-.85A2.81,2.81,0,0,0,44.348,4a4.075,4.075,0,0,0-1.537-.309,4.264,4.264,0,0,0-1.553.278,3.659,3.659,0,0,0-1.244.788A3.587,3.587,0,0,0,39.2,5.979a4.088,4.088,0,0,0-.3,1.576,4.041,4.041,0,0,0,.3,1.591,3.6,3.6,0,0,0,.827,1.213,3.723,3.723,0,0,0,1.244.78A4.308,4.308,0,0,0,42.842,11.417Zm7.632,0a4.221,4.221,0,0,0,1.56-.286,3.763,3.763,0,0,0,1.259-.8A3.706,3.706,0,0,0,54.128,9.1a3.959,3.959,0,0,0,.3-1.56,3.9,3.9,0,0,0-.3-1.553,3.642,3.642,0,0,0-.834-1.213,3.827,3.827,0,0,0-1.259-.8,4.4,4.4,0,0,0-3.121,0,3.742,3.742,0,0,0-1.251.8,3.7,3.7,0,0,0-.826,1.213,3.9,3.9,0,0,0-.3,1.553,3.959,3.959,0,0,0,.3,1.56,3.766,3.766,0,0,0,.826,1.228,3.681,3.681,0,0,0,1.251.8,4.222,4.222,0,0,0,1.56.289Zm0-1.221a2.4,2.4,0,0,1-1.043-.216,2.219,2.219,0,0,1-.765-.587,2.637,2.637,0,0,1-.471-.85,3.189,3.189,0,0,1,0-2.008,2.547,2.547,0,0,1,.471-.842,2.263,2.263,0,0,1,.765-.579,2.622,2.622,0,0,1,2.086,0,2.263,2.263,0,0,1,.765.579,2.542,2.542,0,0,1,.471.842,3.189,3.189,0,0,1,0,2.008,2.632,2.632,0,0,1-.471.85,2.219,2.219,0,0,1-.765.587,2.4,2.4,0,0,1-1.043.22Zm7.416,1.02V7.323a2.7,2.7,0,0,1,.533-1.754,1.652,1.652,0,0,1,1.336-.657,1.615,1.615,0,0,1,.726.147,1.3,1.3,0,0,1,.479.4,1.6,1.6,0,0,1,.263.61,3.729,3.729,0,0,1,.077.788h0v4.357h1.452V7.261a3.619,3.619,0,0,1,.1-.85,2.285,2.285,0,0,1,.324-.749,1.768,1.768,0,0,1,.579-.541,1.65,1.65,0,0,1,.85-.209A1.511,1.511,0,0,1,65.4,5.1a1.419,1.419,0,0,1,.494.494,2.163,2.163,0,0,1,.263.711,4.49,4.49,0,0,1,.077.85h0v4.063h1.452V6.674a4.016,4.016,0,0,0-.162-1.159,2.593,2.593,0,0,0-.5-.942,2.472,2.472,0,0,0-.85-.641,2.85,2.85,0,0,0-1.22-.239,2.882,2.882,0,0,0-1.452.379A2.612,2.612,0,0,0,62.463,5.16a2.278,2.278,0,0,0-.935-1.128,2.646,2.646,0,0,0-1.337-.34,2.531,2.531,0,0,0-1.444.409,2.476,2.476,0,0,0-.888,1h-.046q0-.232-.015-.579T57.752,3.9H56.376q.031.355.046.819t.015.757h0v5.747Zm13.7,0V7.323a2.7,2.7,0,0,1,.533-1.754,1.653,1.653,0,0,1,1.336-.657,1.615,1.615,0,0,1,.726.147,1.3,1.3,0,0,1,.479.4,1.6,1.6,0,0,1,.263.61A3.712,3.712,0,0,1,75,6.857h0v4.357h1.452V7.261a3.607,3.607,0,0,1,.1-.85,2.28,2.28,0,0,1,.324-.749,1.766,1.766,0,0,1,.579-.541,1.649,1.649,0,0,1,.85-.209A1.512,1.512,0,0,1,79.1,5.1a1.418,1.418,0,0,1,.494.494,2.163,2.163,0,0,1,.263.711,4.489,4.489,0,0,1,.077.85h0v4.063h1.452V6.674a4.016,4.016,0,0,0-.162-1.159,2.592,2.592,0,0,0-.5-.942,2.47,2.47,0,0,0-.85-.641,2.85,2.85,0,0,0-1.22-.239,2.883,2.883,0,0,0-1.452.379A2.61,2.61,0,0,0,76.167,5.16a2.278,2.278,0,0,0-.935-1.128,2.645,2.645,0,0,0-1.336-.34,2.531,2.531,0,0,0-1.445.409,2.478,2.478,0,0,0-.888,1h-.046q0-.232-.015-.579T71.456,3.9H70.08q.031.355.046.819t.016.757h0v5.747Zm15.635.2A4.212,4.212,0,0,0,89,11.054a3.62,3.62,0,0,0,1.383-1.136h0L89.361,9.1a2.617,2.617,0,0,1-.85.788,2.446,2.446,0,0,1-1.282.324,2.418,2.418,0,0,1-1.653-.641,2.3,2.3,0,0,1-.517-.711,2.191,2.191,0,0,1-.209-.873h5.809a2.016,2.016,0,0,0,.015-.247h0V7.493a4.753,4.753,0,0,0-.247-1.584,3.41,3.41,0,0,0-.7-1.2,3.01,3.01,0,0,0-1.112-.757,4.129,4.129,0,0,0-2.959.023,3.642,3.642,0,0,0-1.205.8A3.591,3.591,0,0,0,83.652,6a4.208,4.208,0,0,0-.286,1.568,4.092,4.092,0,0,0,.293,1.576,3.619,3.619,0,0,0,.8,1.213,3.571,3.571,0,0,0,1.221.78,4.2,4.2,0,0,0,1.549.28ZM89.2,6.9H84.85a2.1,2.1,0,0,1,.224-.811,2.314,2.314,0,0,1,.494-.657A2.266,2.266,0,0,1,86.279,5a2.348,2.348,0,0,1,.873-.162A2.242,2.242,0,0,1,88.04,5a1.817,1.817,0,0,1,.634.44,1.864,1.864,0,0,1,.386.657,2.767,2.767,0,0,1,.147.811Zm4.944,4.31V7.37a3.16,3.16,0,0,1,.124-.888,2.189,2.189,0,0,1,.378-.749,1.862,1.862,0,0,1,.641-.518,2.015,2.015,0,0,1,.911-.193,2.733,2.733,0,0,1,.664.077h0l.062-1.344a2.254,2.254,0,0,0-.572-.062,2.367,2.367,0,0,0-1.337.394,2.537,2.537,0,0,0-.9,1.043h-.046q0-.232-.016-.6t-.046-.641H92.637q.031.355.046.819t.015.757h0v5.747Zm7.6.2a3.927,3.927,0,0,0,1.576-.3,3.15,3.15,0,0,0,1.159-.842h0l-.973-.881a2.072,2.072,0,0,1-.749.587,2.493,2.493,0,0,1-2.032,0,2.284,2.284,0,0,1-.757-.579,2.542,2.542,0,0,1-.471-.842,3.189,3.189,0,0,1,0-2.008,2.543,2.543,0,0,1,.471-.842,2.308,2.308,0,0,1,.749-.579,2.268,2.268,0,0,1,1.012-.216,2.124,2.124,0,0,1,.989.239,1.777,1.777,0,0,1,.7.6h0l1.051-.85a2.811,2.811,0,0,0-1.213-.9,4.075,4.075,0,0,0-1.537-.309,4.265,4.265,0,0,0-1.553.278,3.661,3.661,0,0,0-1.244.788,3.588,3.588,0,0,0-.819,1.221,4.093,4.093,0,0,0-.293,1.576,4.041,4.041,0,0,0,.3,1.591,3.6,3.6,0,0,0,.826,1.213,3.721,3.721,0,0,0,1.244.78,4.307,4.307,0,0,0,1.569.282Zm7.555,0a4.211,4.211,0,0,0,1.769-.363,3.619,3.619,0,0,0,1.383-1.136h0l-1.02-.819a2.616,2.616,0,0,1-.85.788,2.445,2.445,0,0,1-1.282.324,2.418,2.418,0,0,1-1.653-.641,2.3,2.3,0,0,1-.517-.711,2.191,2.191,0,0,1-.209-.873h5.809a2.016,2.016,0,0,0,.015-.247h0V7.493A4.753,4.753,0,0,0,112.5,5.91a3.41,3.41,0,0,0-.7-1.2,3.01,3.01,0,0,0-1.112-.757,4.129,4.129,0,0,0-2.959.023,3.642,3.642,0,0,0-1.205.8A3.591,3.591,0,0,0,105.73,6a4.2,4.2,0,0,0-.286,1.568,4.088,4.088,0,0,0,.293,1.576,3.616,3.616,0,0,0,.8,1.213,3.571,3.571,0,0,0,1.221.78,4.2,4.2,0,0,0,1.549.28ZM111.279,6.9h-4.357a2.092,2.092,0,0,1,.224-.811,2.315,2.315,0,0,1,.494-.657,2.266,2.266,0,0,1,.711-.44,2.347,2.347,0,0,1,.873-.162,2.243,2.243,0,0,1,.888.162,1.814,1.814,0,0,1,.633.44,1.86,1.86,0,0,1,.386.657,2.759,2.759,0,0,1,.147.811Z" transform="translate(0.248)" fill="#191717" stroke="#181717" stroke-width="0.5"/>
      </g>
      <text id="V-4.3" transform="translate(184 466)" fill="#191717" font-size="10" font-family="Roboto-Medium, Roboto" font-weight="500"><tspan x="-55.688" y="0">Marketplace</tspan></text>
      <line id="Line_1" data-name="Line 1" x2="113" transform="translate(71 456)" fill="none" stroke="#181717" stroke-width="1"/>
      <rect id="Rectangle_2" data-name="Rectangle 2" width="23" height="11" rx="5.5" transform="translate(161 430)" fill="#047600"/>
      <text id="V-4.3-2" data-name="V-4.3" transform="translate(181 439)" fill="#fff" font-size="9" font-family="Roboto-Regular, Roboto"><tspan x="-16.835" y="0">v5.1</tspan></text>
    </g>
  </g>
</svg>
