<svg xmlns="http://www.w3.org/2000/svg" width="9" height="11" viewBox="0 0 9 11">
  <g id="square-lock-02-stroke-rounded" transform="translate(-3.5 -1.5)">
    <path id="Path_7146" data-name="Path 7146" d="M12,15.5v-1" transform="translate(-4 -6.25)" fill="none" stroke="#2a2e34" stroke-linecap="round" stroke-width="1"/>
    <path id="Path_7147" data-name="Path 7147" d="M4.134,13.922A1.759,1.759,0,0,0,5.78,15.45c.708.033,1.428.05,2.22.05s1.512-.017,2.22-.05a1.759,1.759,0,0,0,1.646-1.528A12.521,12.521,0,0,0,12,12.25a12.521,12.521,0,0,0-.134-1.672A1.759,1.759,0,0,0,10.22,9.05C9.512,9.017,8.792,9,8,9s-1.512.017-2.22.05a1.759,1.759,0,0,0-1.646,1.528A12.515,12.515,0,0,0,4,12.25,12.515,12.515,0,0,0,4.134,13.922Z" transform="translate(0 -3.5)" fill="none" stroke="#2a2e34" stroke-width="1"/>
    <path id="Path_7148" data-name="Path 7148" d="M7.5,5.5V4.25a2.25,2.25,0,1,1,4.5,0V5.5" transform="translate(-1.75)" fill="none" stroke="#2a2e34" stroke-linecap="round" stroke-linejoin="round" stroke-width="1"/>
  </g>
</svg>
