<svg xmlns="http://www.w3.org/2000/svg" xmlns:xlink="http://www.w3.org/1999/xlink" width="56" height="56" viewBox="0 0 56 56">
  <defs>
    <clipPath id="clip-path">
      <rect id="Rectangle_5858" data-name="Rectangle 5858" width="56" height="56" rx="8" fill="#fff" opacity="0.728"/>
    </clipPath>
    <clipPath id="clip-path-2">
      <rect id="Rectangle_5859" data-name="Rectangle 5859" width="32" height="32" transform="translate(-8540 3686)" fill="#fff" stroke="#fff" stroke-width="2"/>
    </clipPath>
  </defs>
  <g id="Blogs" transform="translate(8550 -3676)">
    <g id="Mask_Group_920" data-name="Mask Group 920" transform="translate(-8550 3676)" clip-path="url(#clip-path)">
      <g id="Group-2" transform="translate(-10.493 -16.323)">
        <path id="Polygon" d="M38.767,0,77.534,22.153V66.458L38.767,88.61,0,66.458V22.153Z" transform="translate(0)" fill="#078e05" fill-rule="evenodd"/>
        <path id="Path-8" d="M0,87.109l.018-44.15,38.825,66.106Z" transform="translate(0 -20.454)" fill="#028400" fill-rule="evenodd"/>
        <path id="Path-9" d="M0,22.137,77.5,66.464,38.867,0Z" fill="#027600" fill-rule="evenodd"/>
        <path id="Path-10" d="M73.649.25,112.2,22.412,97.975,42.745Z" transform="translate(-34.668 -0.119)" fill="#02ad00" fill-rule="evenodd"/>
      </g>
    </g>
    <g id="Mask_Group_944" data-name="Mask Group 944" transform="translate(2 2)" clip-path="url(#clip-path-2)">
      <g id="layout-panel-top_1_" data-name="layout-panel-top (1)" transform="translate(-8538.399 3687.6)">
        <rect id="Rectangle_5904" data-name="Rectangle 5904" width="28.8" height="11.2" rx="1.8" transform="translate(0 0)" fill="none" stroke="#fff" stroke-linecap="round" stroke-linejoin="round" stroke-width="2"/>
        <rect id="Rectangle_5905" data-name="Rectangle 5905" width="11.2" height="11.2" rx="1.8" transform="translate(0 17.6)" fill="none" stroke="#fff" stroke-linecap="round" stroke-linejoin="round" stroke-width="2"/>
        <rect id="Rectangle_5906" data-name="Rectangle 5906" width="11.2" height="11.2" rx="1.8" transform="translate(17.6 17.6)" fill="none" stroke="#fff" stroke-linecap="round" stroke-linejoin="round" stroke-width="2"/>
      </g>
    </g>
  </g>
</svg>
