<svg xmlns="http://www.w3.org/2000/svg" xmlns:xlink="http://www.w3.org/1999/xlink" width="56" height="56" viewBox="0 0 56 56">
  <defs>
    <clipPath id="clip-path">
      <rect id="Rectangle_5862" data-name="Rectangle 5862" width="56" height="56" rx="8" fill="#fff" opacity="0.728"/>
    </clipPath>
    <clipPath id="clip-path-2">
      <rect id="Rectangle_5863" data-name="Rectangle 5863" width="32" height="32" transform="translate(-8540 3818)" fill="#fff" stroke="#fff" stroke-width="2"/>
    </clipPath>
    <clipPath id="clip-path-3">
      <path id="path1053" d="M0-36H32V-4H0Z" transform="translate(0 36)"/>
    </clipPath>
  </defs>
  <g id="Facebook" transform="translate(8550 -3808)">
    <g id="Mask_Group_922" data-name="Mask Group 922" transform="translate(-8550 3808)" clip-path="url(#clip-path)">
      <g id="Group-2" transform="translate(-10.493 -16.323)">
        <path id="Polygon" d="M38.767,0,77.534,22.153V66.458L38.767,88.61,0,66.458V22.153Z" transform="translate(0)" fill="#078e05" fill-rule="evenodd"/>
        <path id="Path-8" d="M0,87.109l.018-44.15,38.825,66.106Z" transform="translate(0 -20.454)" fill="#028400" fill-rule="evenodd"/>
        <path id="Path-9" d="M0,22.137,77.5,66.464,38.867,0Z" fill="#027600" fill-rule="evenodd"/>
        <path id="Path-10" d="M73.649.25,112.2,22.412,97.975,42.745Z" transform="translate(-34.668 -0.119)" fill="#02ad00" fill-rule="evenodd"/>
      </g>
    </g>
    <g id="Mask_Group_946" data-name="Mask Group 946" transform="translate(2 2)" clip-path="url(#clip-path-2)">
      <g id="g1047" transform="translate(-8540 3818)">
        <g id="g1049">
          <g id="g1051" clip-path="url(#clip-path-3)">
            <g id="g1057" transform="translate(7.687 1.155)">
              <path id="path1059" d="M-2.353-.84V-6.778H-9.281A4.963,4.963,0,0,0-14.229-1.83V5.1h-4.75v5.938h4.75V22.911h5.938V11.035h4.75L-2.353,5.1H-8.291V-.84Z" transform="translate(18.979 6.778)" fill="none" stroke="#fff" stroke-linecap="round" stroke-linejoin="round" stroke-miterlimit="10" stroke-width="2"/>
            </g>
          </g>
        </g>
      </g>
    </g>
  </g>
</svg>
