<svg xmlns="http://www.w3.org/2000/svg" xmlns:xlink="http://www.w3.org/1999/xlink" width="56" height="56" viewBox="0 0 56 56">
  <defs>
    <clipPath id="clip-path">
      <rect id="Rectangle_5870" data-name="Rectangle 5870" width="56" height="56" rx="8" fill="#fff" opacity="0.728"/>
    </clipPath>
    <clipPath id="clip-path-2">
      <rect id="Rectangle_5871" data-name="Rectangle 5871" width="32" height="32" transform="translate(-8540 4082)" fill="#fff" stroke="#fff" stroke-width="2"/>
    </clipPath>
  </defs>
  <g id="gmail" transform="translate(8550 -4072)">
    <g id="Mask_Group_926" data-name="Mask Group 926" transform="translate(-8550 4072)" clip-path="url(#clip-path)">
      <g id="Group-2" transform="translate(-10.493 -16.323)">
        <path id="Polygon" d="M38.767,0,77.534,22.153V66.458L38.767,88.61,0,66.458V22.153Z" transform="translate(0)" fill="#078e05" fill-rule="evenodd"/>
        <path id="Path-8" d="M0,87.109l.018-44.15,38.825,66.106Z" transform="translate(0 -20.454)" fill="#028400" fill-rule="evenodd"/>
        <path id="Path-9" d="M0,22.137,77.5,66.464,38.867,0Z" fill="#027600" fill-rule="evenodd"/>
        <path id="Path-10" d="M73.649.25,112.2,22.412,97.975,42.745Z" transform="translate(-34.668 -0.119)" fill="#02ad00" fill-rule="evenodd"/>
      </g>
    </g>
    <g id="Mask_Group_950" data-name="Mask Group 950" transform="translate(2 2)" clip-path="url(#clip-path-2)">
      <g id="mail-01-stroke-rounded_7_" data-name="mail-01-stroke-rounded (7)" transform="translate(-8538.885 4085.349)">
        <path id="Path_7239" data-name="Path 7239" d="M3.349,10.047l10.289,5.83c3.793,2.149,5.4,2.149,9.189,0l10.289-5.83" transform="translate(-3.349 -6.326)" fill="none" stroke="#fff" stroke-linejoin="round" stroke-width="2"/>
        <path id="Path_7240" data-name="Path 7240" d="M3.372,20.708c.1,4.563.146,6.844,1.829,8.534s4.027,1.749,8.713,1.866c2.888.073,5.748.073,8.636,0,4.686-.118,7.029-.177,8.713-1.866S33,25.271,33.093,20.708c.031-1.467.031-2.925,0-4.392-.1-4.563-.146-6.844-1.829-8.534s-4.027-1.749-8.713-1.867c-2.888-.073-5.748-.073-8.636,0-4.686.118-7.029.177-8.713,1.867S3.47,11.753,3.372,16.315C3.341,17.783,3.341,19.241,3.372,20.708Z" transform="translate(-3.349 -5.86)" fill="none" stroke="#fff" stroke-linejoin="round" stroke-width="2"/>
      </g>
    </g>
  </g>
</svg>
