<svg xmlns="http://www.w3.org/2000/svg" xmlns:xlink="http://www.w3.org/1999/xlink" width="56" height="56" viewBox="0 0 56 56">
  <defs>
    <clipPath id="clip-path">
      <rect id="Rectangle_5881" data-name="Rectangle 5881" width="56" height="56" rx="8" fill="#fff" opacity="0.728"/>
    </clipPath>
    <clipPath id="clip-path-2">
      <rect id="Rectangle_5908" data-name="Rectangle 5908" width="32" height="32" transform="translate(-8394 3952)" fill="#fff" stroke="#707070" stroke-width="1"/>
    </clipPath>
  </defs>
  <g id="Promotion" transform="translate(8406 -3940)">
    <g id="Mask_Group_932" data-name="Mask Group 932" transform="translate(-8406 3940)" clip-path="url(#clip-path)">
      <g id="Group-2" transform="translate(-10.493 -16.323)">
        <path id="Polygon" d="M38.767,0,77.534,22.153V66.458L38.767,88.61,0,66.458V22.153Z" transform="translate(0)" fill="#078e05" fill-rule="evenodd"/>
        <path id="Path-8" d="M0,87.109l.018-44.15,38.825,66.106Z" transform="translate(0 -20.454)" fill="#028400" fill-rule="evenodd"/>
        <path id="Path-9" d="M0,22.137,77.5,66.464,38.867,0Z" fill="#027600" fill-rule="evenodd"/>
        <path id="Path-10" d="M73.649.25,112.2,22.412,97.975,42.745Z" transform="translate(-34.668 -0.119)" fill="#02ad00" fill-rule="evenodd"/>
      </g>
    </g>
    <g id="Mask_Group_964" data-name="Mask Group 964" clip-path="url(#clip-path-2)">
      <g id="advertisement" transform="translate(-8395.179 3950.82)">
        <g id="Group_16589" data-name="Group 16589">
          <path id="Path_7283" data-name="Path 7283" d="M28.57,2.055a.969.969,0,0,0-1.251.549l-.633,1.62a.966.966,0,1,0,1.8.7l.633-1.62A.965.965,0,0,0,28.57,2.055Z" fill="#fff"/>
          <path id="Path_7284" data-name="Path 7284" d="M32.564,11.174l-1.62-.633a.967.967,0,0,0-.7,1.8l1.62.633a.967.967,0,0,0,.7-1.8Z" fill="#fff"/>
          <path id="Path_7285" data-name="Path 7285" d="M30.568,8.327a.956.956,0,0,0,.388-.082l1.593-.7a.966.966,0,1,0-.776-1.769l-1.593.7a.966.966,0,0,0,.389,1.851Z" fill="#fff"/>
        </g>
        <path id="Path_7286" data-name="Path 7286" d="M22.445,6.2,21.16,3.265a2.252,2.252,0,0,0-4-.252A16.335,16.335,0,0,1,9.22,9.767s0,0,0,0H9.21l-5.247,2.3a4.644,4.644,0,0,0-2.391,6.118l1.374,3.139a4.646,4.646,0,0,0,6.118,2.391l.4-.176,3.082,7.036a3.127,3.127,0,1,0,5.729-2.509l-3.068-7.006a16.175,16.175,0,0,1,9.455-.9,2.22,2.22,0,0,0,2.205-.764,2.254,2.254,0,0,0,.327-2.348l-1.285-2.936A4.426,4.426,0,0,0,22.445,6.2ZM6.214,21.989a2.7,2.7,0,0,1-1.5-1.439L3.341,17.413a2.716,2.716,0,0,1,1.4-3.573L9.1,11.929l3.55,8.108L8.289,21.946A2.711,2.711,0,0,1,6.214,21.989Zm10.312,7.768a1.184,1.184,0,0,1-.635.659,1.2,1.2,0,0,1-1.574-.615l-3.081-7.035,2.19-.959,3.081,7.036A1.2,1.2,0,0,1,16.526,29.757Zm8.852-11.586a.286.286,0,0,1-.293.1h0a18.054,18.054,0,0,0-10.657,1l-3.558-8.128a18.044,18.044,0,0,0,7.958-7.157.274.274,0,0,1,.277-.144.326.326,0,0,1,.288.2l6.036,13.787a.331.331,0,0,1-.05.346ZM23.253,8.044a2.5,2.5,0,0,1,2.332,1.5,2.474,2.474,0,0,1,.038,1.913,2.507,2.507,0,0,1-.519.816Z" fill="#fff"/>
      </g>
    </g>
  </g>
</svg>
