<svg xmlns="http://www.w3.org/2000/svg" xmlns:xlink="http://www.w3.org/1999/xlink" width="56" height="56" viewBox="0 0 56 56">
  <defs>
    <clipPath id="clip-path">
      <rect id="Rectangle_5883" data-name="Rectangle 5883" width="56" height="56" rx="8" fill="#fff" opacity="0.728"/>
    </clipPath>
    <clipPath id="clip-path-2">
      <rect id="Rectangle_5907" data-name="Rectangle 5907" width="32" height="32" transform="translate(-8468 4016)" fill="#fff"/>
    </clipPath>
  </defs>
  <g id="QR" transform="translate(8478 -4006)">
    <g id="Mask_Group_933" data-name="Mask Group 933" transform="translate(-8478 4006)" clip-path="url(#clip-path)">
      <g id="Group-2" transform="translate(-10.493 -16.323)">
        <path id="Polygon" d="M38.767,0,77.534,22.153V66.458L38.767,88.61,0,66.458V22.153Z" transform="translate(0)" fill="#078e05" fill-rule="evenodd"/>
        <path id="Path-8" d="M0,87.109l.018-44.15,38.825,66.106Z" transform="translate(0 -20.454)" fill="#028400" fill-rule="evenodd"/>
        <path id="Path-9" d="M0,22.137,77.5,66.464,38.867,0Z" fill="#027600" fill-rule="evenodd"/>
        <path id="Path-10" d="M73.649.25,112.2,22.412,97.975,42.745Z" transform="translate(-34.668 -0.119)" fill="#02ad00" fill-rule="evenodd"/>
      </g>
    </g>
    <g id="Mask_Group_957" data-name="Mask Group 957" transform="translate(2 2)" clip-path="url(#clip-path-2)">
      <g id="code_4_" data-name="code (4)" transform="translate(-8466.223 4017.777)">
        <path id="Path_7253" data-name="Path 7253" d="M.859,6.231a.859.859,0,0,0,.859-.859V1.719H5.371A.859.859,0,0,0,5.371,0H1.719A1.721,1.721,0,0,0,0,1.719V5.371a.859.859,0,0,0,.859.859Z" transform="translate(0 0)" fill="#fff"/>
        <path id="Path_7254" data-name="Path 7254" d="M32.865,0H29.213a.859.859,0,0,0,0,1.719h3.653V5.371a.859.859,0,0,0,1.719,0V1.719A1.721,1.721,0,0,0,32.865,0Z" transform="translate(-5.251 0)" fill="#fff"/>
        <path id="Path_7255" data-name="Path 7255" d="M33.725,28.353a.859.859,0,0,0-.859.859v3.653H29.213a.859.859,0,0,0,0,1.719h3.653a1.721,1.721,0,0,0,1.719-1.719V29.213A.859.859,0,0,0,33.725,28.353Z" transform="translate(-5.251 -5.251)" fill="#fff"/>
        <path id="Path_7256" data-name="Path 7256" d="M5.371,32.865H1.719V29.213a.859.859,0,0,0-1.719,0v3.653a1.721,1.721,0,0,0,1.719,1.719H5.371a.859.859,0,0,0,0-1.719Z" transform="translate(0 -5.251)" fill="#fff"/>
        <path id="Path_7257" data-name="Path 7257" d="M12.721,4.3H6.041A1.721,1.721,0,0,0,4.322,6.022V12.7a1.721,1.721,0,0,0,1.719,1.719h6.68A1.721,1.721,0,0,0,14.44,12.7V6.022A1.721,1.721,0,0,0,12.721,4.3Zm0,8.4H6.041V6.022h6.68V12.7Z" transform="translate(-0.8 -0.797)" fill="#fff"/>
        <path id="Path_7258" data-name="Path 7258" d="M26.133,10.482h2.481a1.721,1.721,0,0,0,1.719-1.719V6.022A1.721,1.721,0,0,0,28.614,4.3H26.133a1.721,1.721,0,0,0-1.719,1.719V8.764A1.721,1.721,0,0,0,26.133,10.482Zm0-4.46h2.481V8.764H26.133Z" transform="translate(-4.521 -0.797)" fill="#fff"/>
        <path id="Path_7259" data-name="Path 7259" d="M21.223,14.421h7.341a.859.859,0,0,0,0-1.719H21.223V5.163a.859.859,0,1,0-1.719,0V12.7A1.721,1.721,0,0,0,21.223,14.421Z" transform="translate(-3.612 -0.797)" fill="#fff"/>
        <path id="Path_7260" data-name="Path 7260" d="M29.378,27.679V21a1.721,1.721,0,0,0-1.719-1.719h-6.68A1.721,1.721,0,0,0,19.261,21v6.68A1.721,1.721,0,0,0,20.979,29.4h6.68a1.721,1.721,0,0,0,1.719-1.719ZM20.978,21h6.681v6.68h-6.68Z" transform="translate(-3.567 -3.57)" fill="#fff"/>
        <path id="Path_7261" data-name="Path 7261" d="M8.522,24.113H6.041a1.721,1.721,0,0,0-1.719,1.719v2.742a1.721,1.721,0,0,0,1.719,1.719H8.522a1.721,1.721,0,0,0,1.719-1.719V25.832A1.721,1.721,0,0,0,8.522,24.113Zm0,4.46H6.041V25.832H8.522Z" transform="translate(-0.8 -4.465)" fill="#fff"/>
        <path id="Path_7262" data-name="Path 7262" d="M12.523,19.28H5.182a.859.859,0,0,0,0,1.719h7.341v7.539a.859.859,0,0,0,1.719,0V21a1.721,1.721,0,0,0-1.719-1.719Z" transform="translate(-0.8 -3.57)" fill="#fff"/>
      </g>
    </g>
  </g>
</svg>
