<svg xmlns="http://www.w3.org/2000/svg" xmlns:xlink="http://www.w3.org/1999/xlink" width="56" height="56" viewBox="0 0 56 56">
  <defs>
    <clipPath id="clip-path">
      <rect id="Rectangle_5894" data-name="Rectangle 5894" width="56" height="56" rx="8" fill="#fff" opacity="0.728"/>
    </clipPath>
    <clipPath id="clip-path-2">
      <rect id="Rectangle_5895" data-name="Rectangle 5895" width="36" height="36" transform="translate(-8396 3818)" fill="#fff" stroke="#fff" stroke-width="2"/>
    </clipPath>
  </defs>
  <g id="quotation" transform="translate(8406 -3808)">
    <g id="Mask_Group_938" data-name="Mask Group 938" transform="translate(-8406 3808)" clip-path="url(#clip-path)">
      <g id="Group-2" transform="translate(-10.493 -16.323)">
        <path id="Polygon" d="M38.767,0,77.534,22.153V66.458L38.767,88.61,0,66.458V22.153Z" transform="translate(0)" fill="#078e05" fill-rule="evenodd"/>
        <path id="Path-8" d="M0,87.109l.018-44.15,38.825,66.106Z" transform="translate(0 -20.454)" fill="#028400" fill-rule="evenodd"/>
        <path id="Path-9" d="M0,22.137,77.5,66.464,38.867,0Z" fill="#027600" fill-rule="evenodd"/>
        <path id="Path-10" d="M73.649.25,112.2,22.412,97.975,42.745Z" transform="translate(-34.668 -0.119)" fill="#02ad00" fill-rule="evenodd"/>
      </g>
    </g>
    <g id="Mask_Group_962" data-name="Mask Group 962" clip-path="url(#clip-path-2)">
      <g id="invoice-02-stroke-rounded_2_" data-name="invoice-02-stroke-rounded (2)" transform="translate(-8398.093 3815.907)">
        <path id="Path_7274" data-name="Path 7274" d="M6.7,31.221V13.486c0-4.779,0-7.168,1.471-8.653s3.839-1.485,8.575-1.485h6.7c4.736,0,7.1,0,8.575,1.485s1.471,3.874,1.471,8.653V31.221c0,2.531,0,3.8-.774,4.295-1.264.814-3.218-.893-4.2-1.513a3.693,3.693,0,0,0-1.669-.783c-.487-.016-.9.23-1.778.783l-3.2,2.018c-.863.544-1.295.816-1.775.816s-.912-.272-1.775-.816L15.119,34a3.693,3.693,0,0,0-1.669-.783c-.487-.016-.9.23-1.778.783-.983.62-2.937,2.327-4.2,1.513C6.7,35.018,6.7,33.752,6.7,31.221Z" fill="none" stroke="#fff" stroke-linecap="round" stroke-linejoin="round" stroke-width="2"/>
        <path id="Path_7275" data-name="Path 7275" d="M26.791,10.047H13.4" fill="none" stroke="#fff" stroke-linecap="round" stroke-linejoin="round" stroke-width="2"/>
        <path id="Path_7276" data-name="Path 7276" d="M16.744,16.744H13.4" fill="none" stroke="#fff" stroke-linecap="round" stroke-linejoin="round" stroke-width="2"/>
        <path id="Path_7277" data-name="Path 7277" d="M24.279,16.535a2.37,2.37,0,0,0-2.512,2.2,2.37,2.37,0,0,0,2.512,2.2,2.37,2.37,0,0,1,2.512,2.2,2.37,2.37,0,0,1-2.512,2.2m0-8.791A2.514,2.514,0,0,1,26.648,18m-2.369-1.465V15.07m0,10.256A2.514,2.514,0,0,1,21.91,23.86m2.369,1.465v1.465" fill="none" stroke="#fff" stroke-linecap="round" stroke-width="2"/>
      </g>
    </g>
  </g>
</svg>
