<svg xmlns="http://www.w3.org/2000/svg" xmlns:xlink="http://www.w3.org/1999/xlink" width="56" height="56" viewBox="0 0 56 56">
  <defs>
    <clipPath id="clip-path">
      <rect id="Rectangle_5880" data-name="Rectangle 5880" width="56" height="56" rx="8" fill="#fff" opacity="0.728"/>
    </clipPath>
    <clipPath id="clip-path-2">
      <rect id="Rectangle_5882" data-name="Rectangle 5882" width="32" height="32" transform="translate(-8468 3884)" fill="#fff" stroke="#707070" stroke-width="2"/>
    </clipPath>
    <clipPath id="clip-path-3">
      <path id="path3915" d="M0-36H32V-4H0Z" transform="translate(0 36)"/>
    </clipPath>
  </defs>
  <g id="Ratings" transform="translate(8480 -3874)">
    <g id="Mask_Group_931" data-name="Mask Group 931" transform="translate(-8480 3874)" clip-path="url(#clip-path)">
      <g id="Group-2" transform="translate(-10.493 -16.323)">
        <path id="Polygon" d="M38.767,0,77.534,22.153V66.458L38.767,88.61,0,66.458V22.153Z" transform="translate(0)" fill="#078e05" fill-rule="evenodd"/>
        <path id="Path-8" d="M0,87.109l.018-44.15,38.825,66.106Z" transform="translate(0 -20.454)" fill="#028400" fill-rule="evenodd"/>
        <path id="Path-9" d="M0,22.137,77.5,66.464,38.867,0Z" fill="#027600" fill-rule="evenodd"/>
        <path id="Path-10" d="M73.649.25,112.2,22.412,97.975,42.745Z" transform="translate(-34.668 -0.119)" fill="#02ad00" fill-rule="evenodd"/>
      </g>
    </g>
    <g id="Mask_Group_955" data-name="Mask Group 955" transform="translate(0 2)" clip-path="url(#clip-path-2)">
      <g id="g3909" transform="translate(-8468 3884)">
        <g id="g3911">
          <g id="g3913" clip-path="url(#clip-path-3)">
            <g id="Group_16587" data-name="Group 16587" transform="translate(1.334 8.845)">
              <g id="g3919" transform="translate(21.654 6.959)">
                <path id="path3921" d="M-.688-1.073-2.414.186a.533.533,0,0,1-.821-.6L-2.57-2.44-4.306-3.7a.533.533,0,0,1,.312-.965h2.143L-1.2-6.69a.533.533,0,0,1,1.014,0L.474-4.661H2.617a.533.533,0,0,1,.312.965L1.193-2.44,1.858-.41a.533.533,0,0,1-.821.6Z" transform="translate(4.528 7.059)" fill="none" stroke="#fff" stroke-linecap="round" stroke-linejoin="round" stroke-miterlimit="10" stroke-width="2"/>
              </g>
              <g id="g3923" transform="translate(0 6.959)">
                <path id="path3925" d="M-.688-1.073,1.037.186a.533.533,0,0,0,.821-.6L1.193-2.44,2.929-3.7a.533.533,0,0,0-.312-.965H.474L-.181-6.69a.533.533,0,0,0-1.014,0l-.656,2.029H-3.994a.533.533,0,0,0-.312.965L-2.57-2.44-3.235-.41a.533.533,0,0,0,.821.6Z" transform="translate(4.528 7.059)" fill="none" stroke="#fff" stroke-linecap="round" stroke-linejoin="round" stroke-miterlimit="10" stroke-width="2"/>
              </g>
              <g id="g3927" transform="translate(7.192 0)">
                <path id="path3929" d="M-1.34-2.089-4.7.363A1.037,1.037,0,0,1-6.3-.8L-5-4.751-8.384-7.2a1.037,1.037,0,0,1,.608-1.878H-3.6l1.277-3.95a1.037,1.037,0,0,1,1.974,0L.924-9.074H5.1A1.037,1.037,0,0,1,5.7-7.2L2.323-4.751,3.617-.8A1.037,1.037,0,0,1,2.019.363Z" transform="translate(8.815 13.742)" fill="none" stroke="#fff" stroke-linecap="round" stroke-linejoin="round" stroke-miterlimit="10" stroke-width="2"/>
              </g>
            </g>
          </g>
        </g>
      </g>
    </g>
  </g>
</svg>
