<svg xmlns="http://www.w3.org/2000/svg" xmlns:xlink="http://www.w3.org/1999/xlink" width="56" height="56" viewBox="0 0 56 56">
  <defs>
    <clipPath id="clip-path">
      <rect id="Rectangle_5866" data-name="Rectangle 5866" width="56" height="56" rx="8" fill="#fff" opacity="0.728"/>
    </clipPath>
    <clipPath id="clip-path-2">
      <rect id="Rectangle_5867" data-name="Rectangle 5867" width="32" height="32" transform="translate(-8540 3950)" fill="#fff" stroke="#707070" stroke-width="2"/>
    </clipPath>
  </defs>
  <g id="Stripe" transform="translate(8550 -3940)">
    <g id="Mask_Group_924" data-name="Mask Group 924" transform="translate(-8550 3940)" clip-path="url(#clip-path)">
      <g id="Group-2" transform="translate(-10.493 -16.323)">
        <path id="Polygon" d="M38.767,0,77.534,22.153V66.458L38.767,88.61,0,66.458V22.153Z" transform="translate(0)" fill="#078e05" fill-rule="evenodd"/>
        <path id="Path-8" d="M0,87.109l.018-44.15,38.825,66.106Z" transform="translate(0 -20.454)" fill="#028400" fill-rule="evenodd"/>
        <path id="Path-9" d="M0,22.137,77.5,66.464,38.867,0Z" fill="#027600" fill-rule="evenodd"/>
        <path id="Path-10" d="M73.649.25,112.2,22.412,97.975,42.745Z" transform="translate(-34.668 -0.119)" fill="#02ad00" fill-rule="evenodd"/>
      </g>
    </g>
    <g id="Mask_Group_948" data-name="Mask Group 948" transform="translate(2 2)" clip-path="url(#clip-path-2)">
      <g id="stripe-icon_1_" data-name="stripe-icon (1)" transform="translate(-8534.221 3951.333)">
        <path id="Path_7238" data-name="Path 7238" d="M9.833,8.722c0-1.256,1.045-1.742,2.733-1.742a18.022,18.022,0,0,1,8.01,2.073V1.472A21.252,21.252,0,0,0,12.566,0C6.058,0,1.693,3.41,1.693,9.1c0,8.906,12.23,7.46,12.23,11.3,0,1.5-1.283,1.967-3.089,1.967a20.271,20.271,0,0,1-8.8-2.568v7.68a22.323,22.323,0,0,0,8.8,1.853c6.689,0,11.3-3.3,11.3-9.1,0-9.612-12.3-7.9-12.3-11.513Z" transform="translate(-1.693 0)" fill="none" stroke="#fff" stroke-width="2" fill-rule="evenodd"/>
      </g>
    </g>
  </g>
</svg>
