<svg xmlns="http://www.w3.org/2000/svg" xmlns:xlink="http://www.w3.org/1999/xlink" width="56" height="56" viewBox="0 0 56 56">
  <defs>
    <clipPath id="clip-path">
      <rect id="Rectangle_5896" data-name="Rectangle 5896" width="56" height="56" rx="8" fill="#fff" opacity="0.728"/>
    </clipPath>
    <clipPath id="clip-path-2">
      <rect id="Rectangle_5898" data-name="Rectangle 5898" width="36" height="36" transform="translate(-8396 3884)" fill="#fff" stroke="#fff" stroke-width="2"/>
    </clipPath>
  </defs>
  <g id="supplier_management" data-name="supplier management" transform="translate(8406 -3874)">
    <g id="Mask_Group_939" data-name="Mask Group 939" transform="translate(-8406 3874)" clip-path="url(#clip-path)">
      <g id="Group-2" transform="translate(-10.493 -16.323)">
        <path id="Polygon" d="M38.767,0,77.534,22.153V66.458L38.767,88.61,0,66.458V22.153Z" transform="translate(0)" fill="#078e05" fill-rule="evenodd"/>
        <path id="Path-8" d="M0,87.109l.018-44.15,38.825,66.106Z" transform="translate(0 -20.454)" fill="#028400" fill-rule="evenodd"/>
        <path id="Path-9" d="M0,22.137,77.5,66.464,38.867,0Z" fill="#027600" fill-rule="evenodd"/>
        <path id="Path-10" d="M73.649.25,112.2,22.412,97.975,42.745Z" transform="translate(-34.668 -0.119)" fill="#02ad00" fill-rule="evenodd"/>
      </g>
    </g>
    <g id="Mask_Group_963" data-name="Mask Group 963" clip-path="url(#clip-path-2)">
      <g id="mentoring-stroke-rounded" transform="translate(-8398.093 3881.907)">
        <path id="Path_7278" data-name="Path 7278" d="M20.093,36.837,16.744,26.791H3.349L6.7,36.837Zm0,0h6.7" fill="none" stroke="#fff" stroke-linecap="round" stroke-linejoin="round" stroke-width="2"/>
        <path id="Path_7279" data-name="Path 7279" d="M20.093,21.767V20.93c0-3.157,0-4.736-.981-5.717s-2.559-.981-5.717-.981-4.736,0-5.717.981S6.7,17.773,6.7,20.93v.837" fill="none" stroke="#fff" stroke-linecap="round" stroke-linejoin="round" stroke-width="2"/>
        <path id="Path_7280" data-name="Path 7280" d="M31.814,21.767a3.349,3.349,0,1,1-3.349-3.349A3.349,3.349,0,0,1,31.814,21.767Z" fill="none" stroke="#fff" stroke-width="2"/>
        <path id="Path_7281" data-name="Path 7281" d="M16.744,6.7A3.349,3.349,0,1,1,13.4,3.349,3.349,3.349,0,0,1,16.744,6.7Z" fill="none" stroke="#fff" stroke-width="2"/>
        <path id="Path_7282" data-name="Path 7282" d="M23.442,29.3H33.488a3.349,3.349,0,0,1,3.349,3.349v.837a3.349,3.349,0,0,1-3.349,3.349H31.814" fill="none" stroke="#fff" stroke-linecap="round" stroke-width="2"/>
      </g>
    </g>
  </g>
</svg>
