<svg xmlns="http://www.w3.org/2000/svg" xmlns:xlink="http://www.w3.org/1999/xlink" width="32" height="32" viewBox="0 0 32 32">
  <defs>
    <clipPath id="clip-path">
      <rect id="Rectangle_53" data-name="Rectangle 53" width="32" height="32" transform="translate(0 -0.364)" fill="#223948" stroke="#fff" stroke-width="0.3"/>
    </clipPath>
  </defs>
  <g id="Mask_Group_11" data-name="Mask Group 11" transform="translate(0 0.364)" clip-path="url(#clip-path)">
    <g id="new-document" transform="translate(3.2 0)">
      <path id="Path_27" data-name="Path 27" d="M29.35,9.106A5.429,5.429,0,0,0,28.305,7.6L23.337,2.628a5.42,5.42,0,0,0-3.771-1.562H9.6A5.34,5.34,0,0,0,4.267,6.4V27.733A5.34,5.34,0,0,0,9.6,33.067H24.533a5.34,5.34,0,0,0,5.333-5.333V11.367a5.367,5.367,0,0,0-.516-2.261Zm-3.125-.573H23.467A1.067,1.067,0,0,1,22.4,7.467V4.708Zm1.508,19.2a3.2,3.2,0,0,1-3.2,3.2H9.6a3.2,3.2,0,0,1-3.2-3.2V6.4A3.2,3.2,0,0,1,9.6,3.2h9.966a3.15,3.15,0,0,1,.7.085V7.467a3.2,3.2,0,0,0,3.2,3.2h4.181a3.15,3.15,0,0,1,.085.7Z" transform="translate(-4.267 -1.067)" fill="#223948" stroke="#fff" stroke-width="0.3"/>
      <path id="Path_28" data-name="Path 28" d="M21.333,17.067h-3.2v-3.2a1.067,1.067,0,1,0-2.133,0v3.2H12.8a1.067,1.067,0,1,0,0,2.133H16v3.2a1.067,1.067,0,1,0,2.133,0V19.2h3.2a1.067,1.067,0,0,0,0-2.133Z" transform="translate(-4.267 -1.067)" fill="#223948" stroke="#fff" stroke-width="0.3"/>
    </g>
  </g>
</svg>
