<svg xmlns="http://www.w3.org/2000/svg" width="12" height="13.2" viewBox="0 0 12 13.2">
  <g id="delete-01-stroke-rounded_2_" data-name="delete-01-stroke-rounded (2)" transform="translate(-2.4 -1.4)">
    <path id="Path_6827" data-name="Path 6827" d="M13.5,5.5l-.372,6.015c-.1,1.537-.142,2.305-.528,2.858a2.4,2.4,0,0,1-.72.677c-.575.35-1.345.35-2.885.35s-2.313,0-2.888-.351a2.4,2.4,0,0,1-.72-.678c-.385-.553-.432-1.323-.524-2.862L4.5,5.5" transform="translate(-0.6 -1.4)" fill="none" stroke="#2a2e34" stroke-linecap="round" stroke-width="1.2"/>
    <path id="Path_6828" data-name="Path 6828" d="M3,4.1H13.8m-2.967,0-.41-.845a2.668,2.668,0,0,0-.643-1.017,1.2,1.2,0,0,0-.165-.1A2.668,2.668,0,0,0,8.421,2,2.678,2.678,0,0,0,7.2,2.14a1.2,1.2,0,0,0-.167.107A2.678,2.678,0,0,0,6.4,3.3l-.363.8" transform="translate(0)" fill="none" stroke="#2a2e34" stroke-linecap="round" stroke-width="1.2"/>
  </g>
</svg>
