<svg xmlns="http://www.w3.org/2000/svg" xmlns:xlink="http://www.w3.org/1999/xlink" width="15" height="15" viewBox="0 0 15 15">
  <defs>
    <clipPath id="clip-path">
      <rect id="Rectangle_4877" data-name="Rectangle 4877" width="15" height="15" transform="translate(675 290)" fill="#223948" stroke="#707070" stroke-width="1"/>
    </clipPath>
  </defs>
  <g id="Mask_Group_27" data-name="Mask Group 27" transform="translate(-675 -290)" clip-path="url(#clip-path)">
    <path id="invisible" d="M14.406,7.589a7.405,7.405,0,0,1-2.725,2.787L10.311,9.007a2.917,2.917,0,0,0-4.07-4.069L5.1,3.8a7.394,7.394,0,0,1,9.306,3.237A.543.543,0,0,1,14.406,7.589Zm1.033-.245V7.277a1.532,1.532,0,0,0-.2-.71,8.351,8.351,0,0,0-10.866-3.5L3.609,2.3a.478.478,0,0,0-.677.676l.569.569A8.365,8.365,0,0,0,.636,6.567a1.5,1.5,0,0,0,0,1.487A8.35,8.35,0,0,0,11.5,11.55l.767.767a.478.478,0,1,0,.675-.676l-.568-.569a8.367,8.367,0,0,0,2.865-3.018,1.531,1.531,0,0,0,.2-.71ZM8.946,8.993,6.256,6.3a1.961,1.961,0,0,0,2.69,2.69Zm.675-.676a1.96,1.96,0,0,0-2.688-2.69ZM7.939,11.394a7.389,7.389,0,0,0,2.839-.568L9.635,9.683A2.916,2.916,0,0,1,5.567,5.614L4.2,4.245A7.408,7.408,0,0,0,1.471,7.032a.551.551,0,0,0,0,.557,7.41,7.41,0,0,0,6.468,3.8Z" transform="translate(674.561 290.19)" fill="#223948" fill-rule="evenodd"/>
  </g>
</svg>
