<svg xmlns="http://www.w3.org/2000/svg" xmlns:xlink="http://www.w3.org/1999/xlink" width="17" height="17" viewBox="0 0 17 17">
  <defs>
    <clipPath id="clip-path">
      <rect id="Rectangle_2053" data-name="Rectangle 2053" width="17" height="17" transform="translate(495 687)" fill="#fff" stroke="#707070" stroke-width="1"/>
    </clipPath>
  </defs>
  <g id="Mask_Group_22" data-name="Mask Group 22" transform="translate(-495 -687)" clip-path="url(#clip-path)">
    <g id="delete_9_" data-name="delete (9)" transform="translate(493.3 685.3)">
      <path id="Path_5264" data-name="Path 5264" d="M4.986,6.931a.656.656,0,0,1,.642.67L4.97,7.585l-.658-.016A.656.656,0,0,1,4.986,6.931Zm-.016.654-.658-.016v.037l0,.106c0,.092,0,.225-.008.391-.006.332-.013.8-.018,1.326-.01,1.054-.01,2.375.03,3.412.043,1.134.16,2.6.257,3.695A2.386,2.386,0,0,0,6.959,18.7h6.482a2.386,2.386,0,0,0,2.389-2.165c.1-1.093.214-2.561.257-3.695.04-1.037.04-2.357.03-3.412,0-.529-.012-.993-.018-1.326,0-.166-.006-.3-.008-.391l0-.106V7.569a.658.658,0,0,0-1.316.031l.419-.01-.419.01v.035l0,.1c0,.091,0,.222.008.387.006.329.013.79.018,1.314.01,1.051.01,2.345-.029,3.35-.042,1.1-.157,2.54-.253,3.63a1.073,1.073,0,0,1-1.078.972H6.959a1.073,1.073,0,0,1-1.078-.972c-.1-1.09-.211-2.53-.253-3.63-.038-1-.039-2.3-.029-3.35,0-.524.012-.984.018-1.314,0-.165.006-.3.008-.387l0-.1V7.6Z" fill="#fff" fill-rule="evenodd"/>
      <path id="Path_5265" data-name="Path 5265" d="M3.4,4.969a.656.656,0,0,1,.658-.654H16.342a.654.654,0,1,1,0,1.308H4.058A.656.656,0,0,1,3.4,4.969Z" fill="#fff" fill-rule="evenodd"/>
      <path id="Path_5266" data-name="Path 5266" d="M7.018,2.969A2.415,2.415,0,0,1,9.147,1.7h2.106a2.415,2.415,0,0,1,2.129,1.269l.908,1.692a.652.652,0,0,1-.271.885.66.66,0,0,1-.89-.269l-.908-1.692a1.1,1.1,0,0,0-.968-.577H9.147a1.1,1.1,0,0,0-.968.577L7.271,5.277a.66.66,0,0,1-.89.269.652.652,0,0,1-.271-.885Z" fill="#fff" fill-rule="evenodd"/>
    </g>
  </g>
</svg>
