<svg id="user_14_" data-name="user (14)" xmlns="http://www.w3.org/2000/svg" width="33.372" height="40" viewBox="0 0 33.372 40">
  <path id="Path_1491" data-name="Path 1491" d="M96.666,19.268a9.322,9.322,0,0,0,6.812-2.823A9.322,9.322,0,0,0,106.3,9.634a9.323,9.323,0,0,0-2.823-6.812,9.632,9.632,0,0,0-13.624,0,9.322,9.322,0,0,0-2.823,6.811,9.322,9.322,0,0,0,2.823,6.812A9.324,9.324,0,0,0,96.666,19.268Zm0,0" transform="translate(-80.232)" fill="#d3d7dd"/>
  <path id="Path_1492" data-name="Path 1492" d="M33.291,258.753a23.8,23.8,0,0,0-.324-2.527,19.913,19.913,0,0,0-.622-2.541,12.552,12.552,0,0,0-1.045-2.37,8.943,8.943,0,0,0-1.575-2.053,6.946,6.946,0,0,0-2.263-1.422,7.82,7.82,0,0,0-2.889-.523,2.932,2.932,0,0,0-1.566.664c-.469.306-1.018.66-1.631,1.052a9.347,9.347,0,0,1-2.111.93,8.2,8.2,0,0,1-5.163,0,9.325,9.325,0,0,1-2.109-.93c-.607-.388-1.156-.742-1.633-1.052a2.928,2.928,0,0,0-1.565-.664,7.81,7.81,0,0,0-2.888.523,6.94,6.94,0,0,0-2.263,1.422,8.944,8.944,0,0,0-1.575,2.053,12.576,12.576,0,0,0-1.045,2.37A19.96,19.96,0,0,0,.4,256.225a23.712,23.712,0,0,0-.324,2.528c-.053.765-.08,1.56-.08,2.362a6.642,6.642,0,0,0,1.973,5.025,7.1,7.1,0,0,0,5.083,1.854h19.26a7.1,7.1,0,0,0,5.083-1.854,6.639,6.639,0,0,0,1.973-5.025C33.372,260.309,33.344,259.514,33.291,258.753Zm0,0" transform="translate(0 -227.995)" fill="#d3d7dd"/>
</svg>
