<svg xmlns="http://www.w3.org/2000/svg" xmlns:xlink="http://www.w3.org/1999/xlink" width="56" height="56" viewBox="0 0 56 56">
  <defs>
    <clipPath id="clip-path">
      <rect id="Rectangle_5872" data-name="Rectangle 5872" width="56" height="56" rx="8" fill="#fff" opacity="0.728"/>
    </clipPath>
    <clipPath id="clip-path-2">
      <rect id="Rectangle_5873" data-name="Rectangle 5873" width="32" height="32" transform="translate(-8468 3620)" fill="#fff" stroke="#fff" stroke-width="2"/>
    </clipPath>
  </defs>
  <g id="Attributes" transform="translate(8478 -3610)">
    <g id="Mask_Group_927" data-name="Mask Group 927" transform="translate(-8478 3610)" clip-path="url(#clip-path)">
      <g id="Group-2" transform="translate(-10.493 -16.323)">
        <path id="Polygon" d="M38.767,0,77.534,22.153V66.458L38.767,88.61,0,66.458V22.153Z" transform="translate(0)" fill="#078e05" fill-rule="evenodd"/>
        <path id="Path-8" d="M0,87.109l.018-44.15,38.825,66.106Z" transform="translate(0 -20.454)" fill="#028400" fill-rule="evenodd"/>
        <path id="Path-9" d="M0,22.137,77.5,66.464,38.867,0Z" fill="#027600" fill-rule="evenodd"/>
        <path id="Path-10" d="M73.649.25,112.2,22.412,97.975,42.745Z" transform="translate(-34.668 -0.119)" fill="#02ad00" fill-rule="evenodd"/>
      </g>
    </g>
    <g id="Mask_Group_951" data-name="Mask Group 951" transform="translate(2 2)" clip-path="url(#clip-path-2)">
      <g id="layers-01-stroke-rounded_3_" data-name="layers-01-stroke-rounded (3)" transform="translate(-8465.395 3621.116)">
        <path id="Path_7241" data-name="Path 7241" d="M13.422,5.054,10.885,6.227C6.977,8.033,5.023,8.936,5.023,10.419S6.977,12.8,10.885,14.61l2.537,1.173c2.459,1.137,3.689,1.705,5,1.705s2.537-.568,5-1.705l2.537-1.173c3.908-1.806,5.862-2.709,5.862-4.192S29.86,8.033,25.952,6.227L23.415,5.054c-2.459-1.137-3.689-1.705-5-1.705S15.881,3.917,13.422,5.054Z" transform="translate(-5.023 -3.349)" fill="none" stroke="#fff" stroke-linecap="round" stroke-linejoin="round" stroke-width="2"/>
        <path id="Path_7242" data-name="Path 7242" d="M31.5,18.581a1.586,1.586,0,0,1,.316.943c0,1.461-1.954,2.352-5.862,4.132l-2.537,1.156c-2.459,1.12-3.689,1.681-5,1.681s-2.537-.56-5-1.681l-2.537-1.156c-3.908-1.781-5.861-2.671-5.861-4.132a1.586,1.586,0,0,1,.316-.943" transform="translate(-5.023 -5.041)" fill="none" stroke="#fff" stroke-linecap="round" stroke-linejoin="round" stroke-width="2"/>
        <path id="Path_7243" data-name="Path 7243" d="M30.886,27.236a2,2,0,0,1,.928,1.565c0,1.461-1.954,2.352-5.862,4.132L23.415,34.09c-2.459,1.121-3.689,1.681-5,1.681s-2.537-.56-5-1.681l-2.537-1.156C6.977,31.153,5.023,30.263,5.023,28.8a2,2,0,0,1,.928-1.565" transform="translate(-5.023 -6.003)" fill="none" stroke="#fff" stroke-linecap="round" stroke-linejoin="round" stroke-width="2"/>
      </g>
    </g>
  </g>
</svg>
