<svg xmlns="http://www.w3.org/2000/svg" xmlns:xlink="http://www.w3.org/1999/xlink" width="56" height="56" viewBox="0 0 56 56">
  <defs>
    <clipPath id="clip-path">
      <rect id="Rectangle_5881" data-name="Rectangle 5881" width="56" height="56" rx="8" fill="#fff" opacity="0.728"/>
    </clipPath>
    <clipPath id="clip-path-2">
      <rect id="Rectangle_5885" data-name="Rectangle 5885" width="32" height="32" transform="translate(-8468 3950)" fill="#fff" stroke="#fff" stroke-width="2"/>
    </clipPath>
  </defs>
  <g id="Cart" transform="translate(8478 -3940)">
    <g id="Mask_Group_932" data-name="Mask Group 932" transform="translate(-8478 3940)" clip-path="url(#clip-path)">
      <g id="Group-2" transform="translate(-10.493 -16.323)">
        <path id="Polygon" d="M38.767,0,77.534,22.153V66.458L38.767,88.61,0,66.458V22.153Z" transform="translate(0)" fill="#078e05" fill-rule="evenodd"/>
        <path id="Path-8" d="M0,87.109l.018-44.15,38.825,66.106Z" transform="translate(0 -20.454)" fill="#028400" fill-rule="evenodd"/>
        <path id="Path-9" d="M0,22.137,77.5,66.464,38.867,0Z" fill="#027600" fill-rule="evenodd"/>
        <path id="Path-10" d="M73.649.25,112.2,22.412,97.975,42.745Z" transform="translate(-34.668 -0.119)" fill="#02ad00" fill-rule="evenodd"/>
      </g>
    </g>
    <g id="Mask_Group_956" data-name="Mask Group 956" transform="translate(2 2)" clip-path="url(#clip-path-2)">
      <g id="shopping-cart-01-stroke-rounded" transform="translate(-8466.099 3951.116)">
        <path id="Path_7250" data-name="Path 7250" d="M13.023,25.023h10.81c6.679,0,7.7-4.2,8.927-10.316.355-1.765.533-2.648.106-3.236s-1.246-.588-2.884-.588H10.047" transform="translate(-4.837 -4.186)" fill="none" stroke="#fff" stroke-linecap="round" stroke-width="2"/>
        <path id="Path_7251" data-name="Path 7251" d="M12.372,24.186,8.471,5.6A2.977,2.977,0,0,0,5.583,3.349h-1.4" transform="translate(-4.186 -3.349)" fill="none" stroke="#fff" stroke-linecap="round" stroke-width="2"/>
        <path id="Path_7252" data-name="Path 7252" d="M14.333,26.791h-.612a3.753,3.753,0,0,0-3.674,3.827.626.626,0,0,0,.612.638h16.5" transform="translate(-4.837 -5.953)" fill="none" stroke="#fff" stroke-linecap="round" stroke-linejoin="round" stroke-width="2"/>
        <circle id="Ellipse_338" data-name="Ellipse 338" cx="2.233" cy="2.233" r="2.233" transform="translate(9.674 25.302)" fill="none" stroke="#fff" stroke-width="2"/>
        <circle id="Ellipse_339" data-name="Ellipse 339" cx="2.233" cy="2.233" r="2.233" transform="translate(20.093 25.302)" fill="none" stroke="#fff" stroke-width="2"/>
      </g>
    </g>
  </g>
</svg>
