<svg xmlns="http://www.w3.org/2000/svg" xmlns:xlink="http://www.w3.org/1999/xlink" width="56" height="56" viewBox="0 0 56 56">
  <defs>
    <clipPath id="clip-path">
      <rect id="Rectangle_5890" data-name="Rectangle 5890" width="56" height="56" rx="8" fill="#fff" opacity="0.728"/>
    </clipPath>
    <clipPath id="clip-path-2">
      <rect id="Rectangle_5891" data-name="Rectangle 5891" width="32" height="32" transform="translate(-8396 3686)" fill="#fff" stroke="#fff" stroke-width="2"/>
    </clipPath>
  </defs>
  <g id="chat" transform="translate(8406 -3676)">
    <g id="Mask_Group_936" data-name="Mask Group 936" transform="translate(-8406 3676)" clip-path="url(#clip-path)">
      <g id="Group-2" transform="translate(-10.493 -16.323)">
        <path id="Polygon" d="M38.767,0,77.534,22.153V66.458L38.767,88.61,0,66.458V22.153Z" transform="translate(0)" fill="#078e05" fill-rule="evenodd"/>
        <path id="Path-8" d="M0,87.109l.018-44.15,38.825,66.106Z" transform="translate(0 -20.454)" fill="#028400" fill-rule="evenodd"/>
        <path id="Path-9" d="M0,22.137,77.5,66.464,38.867,0Z" fill="#027600" fill-rule="evenodd"/>
        <path id="Path-10" d="M73.649.25,112.2,22.412,97.975,42.745Z" transform="translate(-34.668 -0.119)" fill="#02ad00" fill-rule="evenodd"/>
      </g>
    </g>
    <g id="Mask_Group_960" data-name="Mask Group 960" transform="translate(2 2)" clip-path="url(#clip-path-2)">
      <g id="comment-01-stroke-rounded_1_" data-name="comment-01-stroke-rounded (1)" transform="translate(-8394.885 3687.921)">
        <path id="Path_7270" data-name="Path 7270" d="M13.4,21.674H25.3M13.4,14.233h5.953" transform="translate(-4.465 -5.302)" fill="none" stroke="#fff" stroke-linecap="round" stroke-linejoin="round" stroke-width="2"/>
        <path id="Path_7271" data-name="Path 7271" d="M9.449,28.744A6.918,6.918,0,0,1,5.093,27c-1.744-1.744-1.744-4.55-1.744-10.163v-.744c0-5.613,0-8.419,1.744-10.163s4.55-1.744,10.163-1.744h5.953c5.613,0,8.42,0,10.163,1.744s1.744,4.55,1.744,10.163v.744c0,5.613,0,8.42-1.744,10.163s-4.55,1.744-10.163,1.744a10.486,10.486,0,0,0-2.151.231,24.373,24.373,0,0,0-5.068,2.119c-2.326,1.134-3.489,1.7-4.218,1.17-1.4-1.04-.031-4.262.274-5.753" transform="translate(-3.349 -4.186)" fill="none" stroke="#fff" stroke-linecap="round" stroke-width="2"/>
      </g>
    </g>
  </g>
</svg>
