<svg xmlns="http://www.w3.org/2000/svg" xmlns:xlink="http://www.w3.org/1999/xlink" width="56" height="56" viewBox="0 0 56 56">
  <defs>
    <clipPath id="clip-path">
      <rect id="Rectangle_5860" data-name="Rectangle 5860" width="56" height="56" rx="8" fill="#fff" opacity="0.728"/>
    </clipPath>
    <clipPath id="clip-path-2">
      <rect id="Rectangle_5861" data-name="Rectangle 5861" width="32" height="32" transform="translate(-8540 3752)" fill="#fff" stroke="#fff" stroke-width="2"/>
    </clipPath>
    <clipPath id="clip-path-3">
      <path id="path732" d="M0-36H32V-4H0Z" transform="translate(0 36)"/>
    </clipPath>
  </defs>
  <g id="Google" transform="translate(8550 -3742)">
    <g id="Mask_Group_921" data-name="Mask Group 921" transform="translate(-8550 3742)" clip-path="url(#clip-path)">
      <g id="Group-2" transform="translate(-10.493 -16.323)">
        <path id="Polygon" d="M38.767,0,77.534,22.153V66.458L38.767,88.61,0,66.458V22.153Z" transform="translate(0)" fill="#078e05" fill-rule="evenodd"/>
        <path id="Path-8" d="M0,87.109l.018-44.15,38.825,66.106Z" transform="translate(0 -20.454)" fill="#028400" fill-rule="evenodd"/>
        <path id="Path-9" d="M0,22.137,77.5,66.464,38.867,0Z" fill="#027600" fill-rule="evenodd"/>
        <path id="Path-10" d="M73.649.25,112.2,22.412,97.975,42.745Z" transform="translate(-34.668 -0.119)" fill="#02ad00" fill-rule="evenodd"/>
      </g>
    </g>
    <g id="Mask_Group_945" data-name="Mask Group 945" transform="translate(2 2)" clip-path="url(#clip-path-2)">
      <g id="g726" transform="translate(-8540 3752)">
        <g id="g728">
          <g id="g730" clip-path="url(#clip-path-3)">
            <g id="g736" transform="translate(1.334 1.333)">
              <path id="path738" d="M-3.129-1.144A9.133,9.133,0,0,0-8.6-3.034a9.244,9.244,0,0,0-9.189,9.189A9.244,9.244,0,0,0-8.6,15.345,9.2,9.2,0,0,0,.105,8.894H-8.6V3.417H5.805a14.626,14.626,0,0,1,.257,2.739A14.727,14.727,0,0,1-8.6,20.823,14.727,14.727,0,0,1-23.27,6.156,14.727,14.727,0,0,1-8.6-8.511,14.592,14.592,0,0,1,.766-5.04Z" transform="translate(23.27 8.511)" fill="none" stroke="#fff" stroke-linecap="round" stroke-linejoin="round" stroke-miterlimit="10" stroke-width="2"/>
            </g>
            <g id="g740" transform="translate(21.622 23.497)">
              <path id="path742" d="M-.814-.814-4.5-4.5" transform="translate(4.501 4.501)" fill="none" stroke="#fff" stroke-linecap="round" stroke-linejoin="round" stroke-miterlimit="10" stroke-width="2"/>
            </g>
            <g id="g744" transform="translate(3.253 8.878)">
              <path id="path746" d="M0,0,3.932,3.932" fill="none" stroke="#fff" stroke-linecap="round" stroke-linejoin="round" stroke-miterlimit="10" stroke-width="2"/>
            </g>
            <g id="g748" transform="translate(3.253 19.191)">
              <path id="path750" d="M0-.818,3.932-4.749" transform="translate(0 4.749)" fill="none" stroke="#fff" stroke-linecap="round" stroke-linejoin="round" stroke-miterlimit="10" stroke-width="2"/>
            </g>
          </g>
        </g>
      </g>
    </g>
  </g>
</svg>
