<svg xmlns="http://www.w3.org/2000/svg" xmlns:xlink="http://www.w3.org/1999/xlink" width="56" height="56" viewBox="0 0 56 56">
  <defs>
    <clipPath id="clip-path">
      <rect id="Rectangle_5874" data-name="Rectangle 5874" width="56" height="56" rx="8" fill="#fff" opacity="0.728"/>
    </clipPath>
    <clipPath id="clip-path-2">
      <rect id="Rectangle_5875" data-name="Rectangle 5875" width="32" height="32" transform="translate(-8468 3686)" fill="#fff" stroke="#fff" stroke-width="0.1"/>
    </clipPath>
  </defs>
  <g id="related_product" data-name="related product" transform="translate(8478 -3676)">
    <g id="Mask_Group_928" data-name="Mask Group 928" transform="translate(-8478 3676)" clip-path="url(#clip-path)">
      <g id="Group-2" transform="translate(-10.493 -16.323)">
        <path id="Polygon" d="M38.767,0,77.534,22.153V66.458L38.767,88.61,0,66.458V22.153Z" transform="translate(0)" fill="#078e05" fill-rule="evenodd"/>
        <path id="Path-8" d="M0,87.109l.018-44.15,38.825,66.106Z" transform="translate(0 -20.454)" fill="#028400" fill-rule="evenodd"/>
        <path id="Path-9" d="M0,22.137,77.5,66.464,38.867,0Z" fill="#027600" fill-rule="evenodd"/>
        <path id="Path-10" d="M73.649.25,112.2,22.412,97.975,42.745Z" transform="translate(-34.668 -0.119)" fill="#02ad00" fill-rule="evenodd"/>
      </g>
    </g>
    <g id="Mask_Group_952" data-name="Mask Group 952" transform="translate(2 2)" clip-path="url(#clip-path-2)">
      <g id="XMLID_762_" transform="translate(-8468 3688.324)">
        <g id="XMLID_763_" transform="translate(11.119)">
          <g id="XMLID_42_">
            <path id="XMLID_46_" d="M20.657,10.819H15.51a7.5,7.5,0,0,1-.8-.01l.255.035a1.069,1.069,0,0,1-.245-.064l.229.1a1.632,1.632,0,0,1-.166-.086c-.032-.016-.121-.089.013.016s.032.019,0-.006c0,0-.057-.061-.054-.061s.14.21.076.1a1.973,1.973,0,0,1-.1-.182l.1.229a1.262,1.262,0,0,1-.064-.245c.013.086.022.169.035.255-.022-.22-.01-.449-.01-.669v-4.6a7.683,7.683,0,0,1,.01-.813c-.013.086-.022.169-.035.255a1.069,1.069,0,0,1,.064-.245l-.1.229a1.633,1.633,0,0,1,.086-.166c.016-.032.089-.121-.016.013s-.019.032.006,0c0,0,.061-.057.061-.054s-.21.14-.1.076a1.973,1.973,0,0,1,.182-.1l-.229.1a1.262,1.262,0,0,1,.245-.064l-.255.035c.22-.022.449-.01.669-.01h4.6a7.682,7.682,0,0,1,.813.01l-.255-.035a1.069,1.069,0,0,1,.245.064l-.229-.1a1.632,1.632,0,0,1,.166.086c.032.016.121.089-.013-.016s-.032-.019,0,.006c0,0,.057.061.054.061s-.14-.21-.076-.1a1.973,1.973,0,0,1,.1.182l-.1-.229a1.262,1.262,0,0,1,.064.245c-.013-.086-.022-.169-.035-.255.022.22.01.449.01.669v4.6a7.683,7.683,0,0,1-.01.813c.013-.086.022-.169.035-.255a1.069,1.069,0,0,1-.064.245l.1-.229a1.632,1.632,0,0,1-.086.166c-.016.032-.089.121.016-.013s.019-.032-.006,0c0,0-.061.057-.061.054s.21-.14.1-.076a1.973,1.973,0,0,1-.182.1l.229-.1a1.262,1.262,0,0,1-.245.064l.255-.035a.827.827,0,0,1-.127.01.956.956,0,1,0,0,1.912A1.991,1.991,0,0,0,22.39,11.7a2.2,2.2,0,0,0,.236-1V5.879c0-.306,0-.615,0-.921a2,2,0,0,0-2-1.982c-.94-.006-1.88,0-2.82,0-.975,0-1.947,0-2.922,0a2,2,0,0,0-2.021,1.97c0,.274,0,.551,0,.825v4.876a2.26,2.26,0,0,0,.086.685,1.971,1.971,0,0,0,1.479,1.354,6.289,6.289,0,0,0,1.068.045h5.16a.956.956,0,1,0,0-1.912Z" transform="translate(-12.866 -2.973)" fill="#fff" stroke="#fff" stroke-width="0.1"/>
          </g>
        </g>
        <g id="XMLID_764_" transform="translate(11.119 17.592)">
          <g id="XMLID_36_">
            <path id="XMLID_40_" d="M20.657,30.61H15.51a7.5,7.5,0,0,1-.8-.01l.255.035a1.069,1.069,0,0,1-.245-.064l.229.1a1.633,1.633,0,0,1-.166-.086c-.032-.016-.121-.089.013.016s.032.019,0-.006c0,0-.057-.061-.054-.061s.14.21.076.1a1.973,1.973,0,0,1-.1-.182l.1.229a1.262,1.262,0,0,1-.064-.245c.013.086.022.169.035.255-.022-.22-.01-.449-.01-.669v-4.6a7.683,7.683,0,0,1,.01-.813c-.013.086-.022.169-.035.255a1.069,1.069,0,0,1,.064-.245l-.1.229a1.632,1.632,0,0,1,.086-.166c.016-.032.089-.121-.016.013s-.019.032.006,0c0,0,.061-.057.061-.054s-.21.14-.1.076a1.973,1.973,0,0,1,.182-.1l-.229.1a1.262,1.262,0,0,1,.245-.064l-.255.035c.22-.022.449-.01.669-.01h4.6a7.682,7.682,0,0,1,.813.01l-.255-.035a1.069,1.069,0,0,1,.245.064l-.229-.1a1.632,1.632,0,0,1,.166.086c.032.016.121.089-.013-.016s-.032-.019,0,.006c0,0,.057.061.054.061s-.14-.21-.076-.1a1.973,1.973,0,0,1,.1.182l-.1-.229a1.262,1.262,0,0,1,.064.245c-.013-.086-.022-.169-.035-.255.022.22.01.449.01.669v4.6a7.683,7.683,0,0,1-.01.813c.013-.086.022-.169.035-.255a1.07,1.07,0,0,1-.064.245l.1-.229a1.632,1.632,0,0,1-.086.166c-.016.032-.089.121.016-.013s.019-.032-.006,0c0,0-.061.057-.061.054s.21-.14.1-.076a1.974,1.974,0,0,1-.182.1l.229-.1a1.262,1.262,0,0,1-.245.064l.255-.035a.827.827,0,0,1-.127.01.956.956,0,1,0,0,1.912,1.991,1.991,0,0,0,1.734-1.036,2.2,2.2,0,0,0,.236-1V25.67c0-.306,0-.615,0-.921a2,2,0,0,0-2-1.982c-.94-.006-1.88,0-2.82,0-.975,0-1.947,0-2.922,0a2,2,0,0,0-2.021,1.97c0,.274,0,.551,0,.825v4.876a2.26,2.26,0,0,0,.086.685,1.971,1.971,0,0,0,1.479,1.354,6.288,6.288,0,0,0,1.068.045h5.16a.956.956,0,1,0,0-1.912Z" transform="translate(-12.866 -22.764)" fill="#fff" stroke="#fff" stroke-width="0.1"/>
          </g>
        </g>
        <g id="XMLID_765_" transform="translate(0 17.592)">
          <g id="XMLID_30_">
            <path id="XMLID_34_" d="M8.147,30.61H3a7.5,7.5,0,0,1-.8-.01l.255.035a1.069,1.069,0,0,1-.245-.064l.229.1a1.632,1.632,0,0,1-.166-.086c-.032-.016-.121-.089.013.016s.032.019,0-.006c0,0-.057-.061-.054-.061s.14.21.076.1a1.973,1.973,0,0,1-.1-.182l.1.229a1.262,1.262,0,0,1-.064-.245c.013.086.022.169.035.255-.022-.22-.01-.449-.01-.669v-4.6a7.682,7.682,0,0,1,.01-.813c-.013.086-.022.169-.035.255a1.069,1.069,0,0,1,.064-.245l-.1.229a1.632,1.632,0,0,1,.086-.166c.016-.032.089-.121-.016.013s-.019.032.006,0c0,0,.061-.057.061-.054s-.21.14-.1.076a1.974,1.974,0,0,1,.182-.1l-.229.1a1.262,1.262,0,0,1,.245-.064l-.255.035c.22-.022.449-.01.669-.01h4.6a7.682,7.682,0,0,1,.813.01l-.255-.035a1.069,1.069,0,0,1,.245.064l-.229-.1a1.632,1.632,0,0,1,.166.086c.032.016.121.089-.013-.016s-.032-.019,0,.006c0,0,.057.061.054.061s-.14-.21-.076-.1a1.973,1.973,0,0,1,.1.182l-.1-.229a1.262,1.262,0,0,1,.064.245c-.013-.086-.022-.169-.035-.255.022.22.01.449.01.669v4.6a7.682,7.682,0,0,1-.01.813c.013-.086.022-.169.035-.255a1.069,1.069,0,0,1-.064.245l.1-.229a1.632,1.632,0,0,1-.086.166c-.016.032-.089.121.016-.013s.019-.032-.006,0c0,0-.061.057-.061.054s.21-.14.1-.076a1.974,1.974,0,0,1-.182.1l.229-.1a1.262,1.262,0,0,1-.245.064l.255-.035a.827.827,0,0,1-.127.01.956.956,0,1,0,0,1.912,1.991,1.991,0,0,0,1.734-1.036,2.2,2.2,0,0,0,.236-1V25.67c0-.306,0-.615,0-.921a2,2,0,0,0-2-1.982c-.94-.006-1.88,0-2.82,0-.975,0-1.947,0-2.922,0a2,2,0,0,0-2.021,1.97c0,.274,0,.551,0,.825v4.876a2.26,2.26,0,0,0,.086.685,1.971,1.971,0,0,0,1.479,1.354,6.288,6.288,0,0,0,1.068.045H8.15a.956.956,0,1,0,0-1.912Z" transform="translate(-0.357 -22.764)" fill="#fff" stroke="#fff" stroke-width="0.1"/>
          </g>
        </g>
        <g id="XMLID_784_" transform="translate(22.239 17.592)">
          <g id="XMLID_24_">
            <path id="XMLID_28_" d="M33.166,30.61H28.019a7.5,7.5,0,0,1-.8-.01l.255.035a1.069,1.069,0,0,1-.245-.064l.229.1a1.633,1.633,0,0,1-.166-.086c-.032-.016-.121-.089.013.016s.032.019,0-.006c0,0-.057-.061-.054-.061s.14.21.076.1a1.974,1.974,0,0,1-.1-.182l.1.229a1.262,1.262,0,0,1-.064-.245c.013.086.022.169.035.255-.022-.22-.01-.449-.01-.669v-4.6a7.683,7.683,0,0,1,.01-.813c-.013.086-.022.169-.035.255a1.069,1.069,0,0,1,.064-.245l-.1.229a1.632,1.632,0,0,1,.086-.166c.016-.032.089-.121-.016.013s-.019.032.006,0c0,0,.061-.057.061-.054s-.21.14-.1.076a1.974,1.974,0,0,1,.182-.1l-.229.1a1.262,1.262,0,0,1,.245-.064l-.255.035c.22-.022.449-.01.669-.01h4.6a7.682,7.682,0,0,1,.813.01l-.255-.035a1.069,1.069,0,0,1,.245.064l-.229-.1a1.633,1.633,0,0,1,.166.086c.032.016.121.089-.013-.016s-.032-.019,0,.006c0,0,.057.061.054.061s-.14-.21-.076-.1a1.974,1.974,0,0,1,.1.182l-.1-.229a1.262,1.262,0,0,1,.064.245c-.013-.086-.022-.169-.035-.255.022.22.01.449.01.669v4.6a7.683,7.683,0,0,1-.01.813c.013-.086.022-.169.035-.255a1.069,1.069,0,0,1-.064.245l.1-.229a1.633,1.633,0,0,1-.086.166c-.016.032-.089.121.016-.013s.019-.032-.006,0c0,0-.061.057-.061.054s.21-.14.1-.076a1.973,1.973,0,0,1-.182.1l.229-.1a1.262,1.262,0,0,1-.245.064l.255-.035a.827.827,0,0,1-.127.01.956.956,0,1,0,0,1.912A1.991,1.991,0,0,0,34.9,31.486a2.2,2.2,0,0,0,.236-1V25.67c0-.306,0-.615,0-.921a2,2,0,0,0-2-1.982c-.94-.006-1.88,0-2.82,0-.975,0-1.947,0-2.922,0a2,2,0,0,0-2.021,1.97c0,.274,0,.551,0,.825v4.876a2.26,2.26,0,0,0,.086.685,1.971,1.971,0,0,0,1.479,1.354,6.288,6.288,0,0,0,1.068.045h5.16a.956.956,0,1,0,0-1.912Z" transform="translate(-25.375 -22.764)" fill="#fff" stroke="#fff" stroke-width="0.1"/>
          </g>
        </g>
        <g id="XMLID_796_" transform="translate(15.044 7.842)">
          <g id="XMLID_18_">
            <path id="XMLID_22_" d="M19.194,22.5V12.752a.956.956,0,0,0-1.912,0V22.5a.956.956,0,1,0,1.912,0Z" transform="translate(-17.281 -11.795)" fill="#fff" stroke="#fff" stroke-width="0.1"/>
          </g>
        </g>
        <g id="XMLID_845_" transform="translate(3.925 12.721)">
          <g id="XMLID_12_">
            <path id="XMLID_16_" d="M6.684,23.111v-4.87l-.956.956h21.34c.287,0,.577.006.864,0h.038l-.956-.956v4.87a.956.956,0,0,0,1.912,0v-4.87a.969.969,0,0,0-.956-.956H6.63c-.287,0-.577,0-.864,0H5.728a.969.969,0,0,0-.956.956v4.87a.956.956,0,1,0,1.912,0Z" transform="translate(-4.772 -17.283)" fill="#fff" stroke="#fff" stroke-width="0.1"/>
          </g>
        </g>
      </g>
    </g>
  </g>
</svg>
