<svg xmlns="http://www.w3.org/2000/svg" xmlns:xlink="http://www.w3.org/1999/xlink" width="56" height="56" viewBox="0 0 56 56">
  <defs>
    <clipPath id="clip-path">
      <rect id="Rectangle_5876" data-name="Rectangle 5876" width="56" height="56" rx="8" fill="#fff" opacity="0.728"/>
    </clipPath>
    <clipPath id="clip-path-2">
      <rect id="Rectangle_5878" data-name="Rectangle 5878" width="32" height="32" transform="translate(-8468 3752)" fill="#fff" stroke="#707070" stroke-width="1"/>
    </clipPath>
  </defs>
  <g id="variants" transform="translate(8478 -3742)">
    <g id="Mask_Group_929" data-name="Mask Group 929" transform="translate(-8478 3742)" clip-path="url(#clip-path)">
      <g id="Group-2" transform="translate(-10.493 -16.323)">
        <path id="Polygon" d="M38.767,0,77.534,22.153V66.458L38.767,88.61,0,66.458V22.153Z" transform="translate(0)" fill="#078e05" fill-rule="evenodd"/>
        <path id="Path-8" d="M0,87.109l.018-44.15,38.825,66.106Z" transform="translate(0 -20.454)" fill="#028400" fill-rule="evenodd"/>
        <path id="Path-9" d="M0,22.137,77.5,66.464,38.867,0Z" fill="#027600" fill-rule="evenodd"/>
        <path id="Path-10" d="M73.649.25,112.2,22.412,97.975,42.745Z" transform="translate(-34.668 -0.119)" fill="#02ad00" fill-rule="evenodd"/>
      </g>
    </g>
    <g id="Mask_Group_953" data-name="Mask Group 953" transform="translate(2 2)" clip-path="url(#clip-path-2)">
      <g id="list_1_" data-name="list (1)" transform="translate(-8468 3755.25)">
        <path id="Path_7244" data-name="Path 7244" d="M8.828,14.656H2.172A2.174,2.174,0,0,1,0,12.485V5.828A2.174,2.174,0,0,1,2.172,3.656H8.828A2.174,2.174,0,0,1,11,5.828v6.657A2.174,2.174,0,0,1,8.828,14.656Zm-6.657-9A.172.172,0,0,0,2,5.828v6.657a.172.172,0,0,0,.172.172H8.828A.172.172,0,0,0,9,12.485V5.828a.172.172,0,0,0-.172-.172Z" transform="translate(0 -3.656)" fill="#fff"/>
        <path id="Path_7245" data-name="Path 7245" d="M8.828,30.969H2.172A2.174,2.174,0,0,1,0,28.8V22.14a2.174,2.174,0,0,1,2.172-2.172H8.828A2.174,2.174,0,0,1,11,22.14V28.8A2.174,2.174,0,0,1,8.828,30.969Zm-6.657-9A.172.172,0,0,0,2,22.14V28.8a.172.172,0,0,0,.172.172H8.828A.172.172,0,0,0,9,28.8V22.14a.172.172,0,0,0-.172-.172Z" transform="translate(0 -5.469)" fill="#fff"/>
        <path id="Path_7246" data-name="Path 7246" d="M32.75,9.031h-16a1,1,0,0,1,0-2h16a1,1,0,0,1,0,2Z" transform="translate(-1.75 -4.031)" fill="#fff"/>
        <path id="Path_7247" data-name="Path 7247" d="M27.25,13.25H16.75a1,1,0,0,1,0-2h10.5a1,1,0,0,1,0,2Z" transform="translate(-1.75 -4.5)" fill="#fff"/>
        <path id="Path_7248" data-name="Path 7248" d="M32.75,25.063h-16a1,1,0,0,1,0-2h16a1,1,0,0,1,0,2Z" transform="translate(-1.75 -5.813)" fill="#fff"/>
        <path id="Path_7249" data-name="Path 7249" d="M27.25,29.563H16.75a1,1,0,0,1,0-2h10.5a1,1,0,0,1,0,2Z" transform="translate(-1.75 -6.313)" fill="#fff"/>
      </g>
    </g>
  </g>
</svg>
